<svg width="24" height="24" viewBox="0 0 24 24" fill="none" xmlns="http://www.w3.org/2000/svg">
<path fill-rule="evenodd" clip-rule="evenodd" d="M1.0752 17.8108V6H1.33541V17.8108H1.0752ZM1.59563 17.8108V6H2.37627V17.8108H1.59563ZM2.63649 17.8108V6H3.41714V17.8108H2.63649ZM4.458 12.4951V6H4.71822V12.4951H4.458ZM4.458 17.81V17.8108H4.71822V17.81H4.458ZM4.97843 17.81V17.8108H5.23865V17.81H4.97843ZM5.49683 17.81V17.8108H5.75705V17.81H5.49683ZM5.75705 12.4951H5.49683V6H5.75705V12.4951ZM6.01726 17.81V17.8108H6.27748V17.81H6.01726ZM6.27748 12.4951H6.01726V6H6.27748V12.4951ZM6.53769 17.81V17.8108H7.31834V17.81H6.53769ZM7.31834 12.4951H6.53769V6H7.31834V12.4951ZM8.35921 17.81V17.8108H8.61942V17.81H8.35921ZM8.61942 12.4951H8.35921V6H8.61942V12.4951ZM8.87964 17.81V17.8108H9.66028V17.81H8.87964ZM9.66028 12.4951H8.87964V6H9.66028V12.4951ZM9.91847 17.81V17.8108H10.1787V17.81H9.91847ZM10.1787 12.4951H9.91847V6H10.1787V12.4951ZM10.4389 17.81V17.8108H11.2195V17.81H10.4389ZM11.2195 12.4951H10.4389V6H11.2195V12.4951ZM11.4798 17.81V17.8108H12.2604V17.81H11.4798ZM12.2604 12.4951H11.4798V6H12.2604V12.4951ZM13.3013 17.81V17.8108H13.5615V17.81H13.3013ZM13.5615 12.4951H13.3013V6H13.5615V12.4951ZM13.8217 17.81V17.8108H14.0819V17.81H13.8217ZM14.0819 12.4951H13.8217V6H14.0819V12.4951ZM14.3401 17.81V17.8108H14.6003V17.81H14.3401ZM14.6003 12.4951H14.3401V6H14.6003V12.4951ZM14.8605 17.81V17.8108H15.1208V17.81H14.8605ZM15.1208 12.4951H14.8605V6H15.1208V12.4951ZM15.381 17.81V17.8108H16.1616V17.81H15.381ZM16.1616 12.4951H15.381V6H16.1616V12.4951ZM17.2025 17.81V17.8108H17.4627V17.81H17.2025ZM17.4627 12.4951H17.2025V6H17.4627V12.4951ZM17.7229 17.81V17.8108H18.5036V17.81H17.7229ZM18.5036 12.4951H17.7229V6H18.5036V12.4951ZM18.7617 17.81V17.8108H19.022V17.81H18.7617ZM19.022 12.4951H18.7617V6H19.022V12.4951ZM19.2822 17.81V17.8108H20.0628V17.81H19.2822ZM20.0628 12.4951H19.2822V6H20.0628V12.4951ZM5.23865 12.4951H4.97843V6H5.23865V12.4951ZM20.323 6V17.8108H21.1037V6H20.323ZM22.1445 6V17.8108H22.4048V6H22.1445ZM22.665 6V17.8108H22.9252V6H22.665Z" fill="#7D9CAA"/>
<path d="M5.79932 14.2971H6.56702C6.79536 14.2971 6.96465 14.3434 7.07488 14.4359C7.18709 14.5284 7.24319 14.6603 7.24319 14.8315C7.24319 14.9378 7.21268 15.0304 7.15165 15.1091C7.09063 15.1878 7.005 15.237 6.89477 15.2567V15.2597C7.01681 15.2794 7.11327 15.3306 7.18413 15.4132C7.25697 15.4959 7.29338 15.5933 7.29338 15.7055C7.29338 15.8748 7.23138 16.0077 7.10736 16.1042C6.98335 16.1986 6.80717 16.2459 6.57883 16.2459H5.79932V14.2971ZM6.5434 15.1357C6.79142 15.1357 6.91544 15.0402 6.91544 14.8493C6.91544 14.6583 6.79142 14.5628 6.5434 14.5628H6.10935V15.1357H6.5434ZM6.59359 15.9831C6.71564 15.9831 6.80816 15.9585 6.87115 15.9093C6.93414 15.8581 6.96563 15.7853 6.96563 15.6908C6.96563 15.5963 6.93414 15.5244 6.87115 15.4752C6.80816 15.4241 6.71564 15.3985 6.59359 15.3985H6.10935V15.9831H6.59359Z" fill="#7D9CAA"/>
<path d="M8.79959 14.2676C8.98659 14.2676 9.14899 14.3079 9.28678 14.3886C9.42654 14.4693 9.53382 14.5855 9.60863 14.7371C9.68343 14.8886 9.72083 15.0668 9.72083 15.2715C9.72083 15.4762 9.68343 15.6544 9.60863 15.8059C9.53382 15.9575 9.42654 16.0736 9.28678 16.1544C9.14899 16.2351 8.98659 16.2754 8.79959 16.2754C8.61258 16.2754 8.45018 16.2351 8.31239 16.1544C8.1746 16.0736 8.0683 15.9575 7.9935 15.8059C7.9187 15.6544 7.88129 15.4762 7.88129 15.2715C7.88129 15.0668 7.9187 14.8886 7.9935 14.7371C8.0683 14.5855 8.1746 14.4693 8.31239 14.3886C8.45018 14.3079 8.61258 14.2676 8.79959 14.2676ZM8.79959 14.5422C8.61652 14.5422 8.47282 14.6062 8.36849 14.7341C8.26416 14.8621 8.212 15.0412 8.212 15.2715C8.212 15.5018 8.26416 15.6809 8.36849 15.8089C8.47282 15.9368 8.61652 16.0008 8.79959 16.0008C8.98462 16.0008 9.1293 15.9368 9.23363 15.8089C9.33796 15.6809 9.39013 15.5018 9.39013 15.2715C9.39013 15.0412 9.33796 14.8621 9.23363 14.7341C9.1293 14.6062 8.98462 14.5422 8.79959 14.5422Z" fill="#7D9CAA"/>
<path d="M11.8176 15.9742V16.2459H10.4269V14.2971H10.7428V15.9742H11.8176Z" fill="#7D9CAA"/>
<path d="M13.8834 15.9742V16.2459H12.4307V14.2971H13.8421V14.5688H12.7466V15.1298H13.6029V15.3955H12.7466V15.9742H13.8834Z" fill="#7D9CAA"/>
<path d="M15.9938 14.5688H15.3265V16.2459H15.0106V14.5688H14.3433V14.2971H15.9938V14.5688Z" fill="#7D9CAA"/>
<path d="M17.3482 14.2676C17.5352 14.2676 17.6976 14.3079 17.8354 14.3886C17.9752 14.4693 18.0825 14.5855 18.1573 14.7371C18.2321 14.8886 18.2695 15.0668 18.2695 15.2715C18.2695 15.4762 18.2321 15.6544 18.1573 15.8059C18.0825 15.9575 17.9752 16.0736 17.8354 16.1544C17.6976 16.2351 17.5352 16.2754 17.3482 16.2754C17.1612 16.2754 16.9988 16.2351 16.861 16.1544C16.7232 16.0736 16.617 15.9575 16.5421 15.8059C16.4673 15.6544 16.4299 15.4762 16.4299 15.2715C16.4299 15.0668 16.4673 14.8886 16.5421 14.7371C16.617 14.5855 16.7232 14.4693 16.861 14.3886C16.9988 14.3079 17.1612 14.2676 17.3482 14.2676ZM17.3482 14.5422C17.1652 14.5422 17.0215 14.6062 16.9171 14.7341C16.8128 14.8621 16.7606 15.0412 16.7606 15.2715C16.7606 15.5018 16.8128 15.6809 16.9171 15.8089C17.0215 15.9368 17.1652 16.0008 17.3482 16.0008C17.5333 16.0008 17.678 15.9368 17.7823 15.8089C17.8866 15.6809 17.9388 15.5018 17.9388 15.2715C17.9388 15.0412 17.8866 14.8621 17.7823 14.7341C17.678 14.6062 17.5333 14.5422 17.3482 14.5422Z" fill="#7D9CAA"/>
</svg>
