<svg width="24" height="24" viewBox="0 0 24 24" fill="none" xmlns="http://www.w3.org/2000/svg">
<g clip-path="url(#clip0)">
<path d="M15.7776 15.3267C15.5172 15.3275 15.2592 15.2767 15.0186 15.1771C14.778 15.0776 14.5596 14.9313 14.3759 14.7468L12.3509 12.7218C12.2793 12.6531 12.1839 12.6147 12.0846 12.6147C11.9854 12.6147 11.89 12.6531 11.8183 12.7218L9.78601 14.7541C9.60235 14.9387 9.3839 15.0851 9.1433 15.1848C8.90271 15.2845 8.64473 15.3355 8.3843 15.3349H7.98486L10.5498 17.899C10.9344 18.2833 11.4559 18.4993 11.9997 18.4993C12.5434 18.4993 13.0649 18.2833 13.4496 17.899L16.0218 15.3267H15.7776Z" fill="#7D9CAA"/>
<path d="M8.3843 8.16439C8.64473 8.16375 8.9027 8.21474 9.1433 8.31443C9.3839 8.41412 9.60234 8.56052 9.78601 8.74516L11.8183 10.7783C11.889 10.8487 11.9848 10.8883 12.0846 10.8883C12.1844 10.8883 12.2802 10.8487 12.3509 10.7783L14.375 8.75333C14.5589 8.56874 14.7775 8.42238 15.0182 8.3227C15.2589 8.22301 15.517 8.17199 15.7776 8.17255H16.0226L13.4496 5.60031C13.0649 5.21592 12.5434 5 11.9997 5C11.4559 5 10.9344 5.21592 10.5498 5.60031L7.98486 8.16439H8.3843Z" fill="#7D9CAA"/>
<path d="M18.1489 10.2994L16.5969 8.74744C16.5619 8.76187 16.5245 8.76936 16.4866 8.76949H15.7801C15.4123 8.77137 15.0601 8.91811 14.7999 9.17791L12.7716 11.1988C12.5894 11.3809 12.3423 11.4831 12.0847 11.4831C11.827 11.4831 11.58 11.3809 11.3977 11.1988L9.36538 9.16648C9.1051 8.90668 8.75291 8.75993 8.38517 8.75805H7.51523C7.47934 8.75772 7.44385 8.75051 7.41067 8.73682L5.8505 10.2994C5.65997 10.4898 5.50883 10.7158 5.40571 10.9646C5.30259 11.2134 5.24951 11.48 5.24951 11.7493C5.24951 12.0186 5.30259 12.2853 5.40571 12.5341C5.50883 12.7829 5.65997 13.0089 5.8505 13.1992L7.41067 14.7602C7.44385 14.7465 7.47934 14.7393 7.51523 14.739H8.38435C8.7521 14.7371 9.10428 14.5904 9.36456 14.3306L11.3969 12.2983C11.582 12.1218 11.828 12.0233 12.0838 12.0233C12.3396 12.0233 12.5856 12.1218 12.7708 12.2983L14.7966 14.3224C15.0569 14.5822 15.4091 14.7289 15.7768 14.7308H16.4834C16.5212 14.731 16.5587 14.7384 16.5936 14.7529L18.1456 13.2009C18.3362 13.0105 18.4873 12.7845 18.5904 12.5357C18.6936 12.287 18.7466 12.0203 18.7466 11.751C18.7466 11.4817 18.6936 11.215 18.5904 10.9662C18.4873 10.7174 18.3362 10.4914 18.1456 10.3011" fill="#7D9CAA"/>
</g>
<defs>
<clipPath id="clip0">
<rect width="13.5" height="13.5" fill="white" transform="translate(5.25 5)"/>
</clipPath>
</defs>
</svg>
