<svg width="48" height="48" viewBox="0 0 48 48" fill="none" xmlns="http://www.w3.org/2000/svg">
<mask id="mask0" style="mask-type:alpha" maskUnits="userSpaceOnUse" x="2" y="10" width="44" height="28">
<rect x="2" y="10" width="44" height="28" rx="2" fill="#C4C4C4"/>
</mask>
<g mask="url(#mask0)">
<path d="M45.914 29.4325C46.0906 29.2461 46.2117 28.999 46.2117 28.697C46.2117 28.3618 46.0906 28.1416 45.914 27.9634V7.10319H1.86475V40.3428H45.914V29.4325Z" fill="url(#paint0_radial)"/>
<path d="M1.59619 23.9416H3.73961L4.22072 23.062H5.30077L5.7895 23.9416H10.0009V23.2658L10.3784 23.9457H12.5566L12.9387 23.2565V23.9419H23.3995L23.3966 22.4995H23.6022C23.7519 22.5011 23.7911 22.5139 23.7911 22.6903V23.9419H29.1975V23.6004C29.6354 23.7784 30.3094 23.9419 31.2169 23.9419H33.497L33.9752 23.0622H35.0535L35.5404 23.9419H39.9139V23.1039L40.5966 23.9419H44.1075V18.4418H40.6299V19.0879L40.127 18.4418H36.5606V19.0879L36.1219 18.4418H31.2992C30.4835 18.4418 29.7714 18.5244 29.1971 18.7552V18.4418H25.8728V18.7552C25.4929 18.517 25.006 18.4418 24.4542 18.4418H12.2887L11.4686 19.858L10.639 18.4418H6.80973V19.0879L6.38155 18.4418H3.11167L1.59619 21.0536V23.9416ZM42.9985 23.1601H41.2071L38.8349 20.2071L38.8374 23.1601H36.2829L35.8094 22.2801H33.203L32.7172 23.1601H31.2669C30.6437 23.1601 29.8755 23.062 29.4404 22.7265C28.9959 22.3864 28.7787 21.9381 28.7787 21.2211C28.7787 20.6336 28.9132 20.1 29.4473 19.6785C29.8541 19.3692 30.4871 19.2193 31.3554 19.2193H32.5562V20.0638H31.3804C30.9174 20.0638 30.656 20.1148 30.407 20.3001C30.1901 20.4647 30.0462 20.7775 30.0462 21.195C30.0462 21.6149 30.1539 21.9166 30.395 22.1188C30.5853 22.2703 30.9366 22.3158 31.2724 22.3158H31.8325L33.6054 19.2196H35.4613L37.5826 22.9521V19.219H39.5053L41.7085 21.9689V19.219H42.9992L42.9985 23.1601ZM28.1588 23.1601H26.876V19.219H28.1588V23.1601ZM26.1593 20.2862C26.1593 20.9064 25.5908 21.238 25.2648 21.3315C25.5371 21.4089 25.7739 21.5471 25.8852 21.6651C26.0596 21.858 26.0936 22.0417 26.0936 22.3807V23.1595H24.8301L24.8247 22.6638C24.8247 22.4295 24.8588 22.0894 24.6235 21.8994C24.44 21.7575 24.1685 21.7286 23.7135 21.7286H22.3735V23.1595H21.1187V19.219H24.0042C24.6354 19.219 25.1079 19.237 25.5059 19.4117C25.9142 19.5806 26.1593 19.8417 26.1593 20.2862ZM20.2543 23.1601H16.061V19.219H20.2543V20.0414H17.3147V20.7497H20.184V21.5599L17.3147 21.5566V22.3409H20.2543V23.1601ZM15.126 23.1601H13.8422L13.8353 20.0766L12.0218 23.1601H10.9204L9.10216 20.0709V23.1601H6.54978L6.06975 22.2801H3.46335L2.97571 23.1601H1.60779L3.85273 19.2193H5.72388L7.84772 22.9573V19.219H9.89797L11.5298 21.8945L13.0424 19.219H15.1256L15.126 23.1601ZM35.3569 21.4563L34.5056 19.8907L33.6551 21.4563H35.3569ZM24.5082 20.8388C24.3367 20.9116 24.1362 20.9173 23.8969 20.9173H22.3735V20.0414H23.9165C24.1344 20.0414 24.3548 20.0472 24.5057 20.1107C24.667 20.1744 24.7667 20.2952 24.7667 20.4587C24.7667 20.6317 24.667 20.768 24.5082 20.8388ZM5.62018 21.4563L4.76274 19.8907L3.9053 21.4563H5.62018Z" fill="white"/>
<path d="M25.8851 27.3014C25.8851 28.4007 24.7981 28.6176 23.7007 28.6176H22.1457V29.9439H19.7075L18.1627 28.6381L16.5638 29.9439H11.5953V25.998H16.6417L18.1757 27.2919L19.7728 25.998H23.7783C24.7666 25.998 25.8851 26.2124 25.8851 27.3014ZM15.9232 29.1231H12.8443V28.3424H15.5951V27.5333H12.8443V26.8152H15.9808L17.3534 27.9658L15.9232 29.1231ZM20.8913 29.5788L18.973 27.9789L20.8913 26.4302V29.5788ZM23.7659 27.8132H22.1453V26.8155H23.7783C24.2275 26.8155 24.5367 26.9559 24.5367 27.3014C24.5367 27.6396 24.242 27.8132 23.7659 27.8132ZM32.2175 25.998H36.3937V26.8155H33.4741V27.5336H36.3234V28.3427H33.4741V29.1234L36.3937 29.1253V29.9442H32.2175V25.998ZM30.6313 28.1113C30.9101 28.1871 31.1468 28.3334 31.2527 28.4468C31.4246 28.6359 31.4517 28.8138 31.4543 29.1648V29.9437H30.1904V29.4458C30.1904 29.2117 30.2209 28.8623 29.9943 28.6773C29.813 28.5353 29.5302 28.5078 29.0759 28.5078H27.7305V29.9439H26.4797V25.998H29.3685C30.0073 25.998 30.4678 26.0176 30.8793 26.1939C31.2803 26.3686 31.5192 26.6218 31.5192 27.0651C31.5185 27.6851 30.9656 28.0132 30.6313 28.1113ZM29.8754 27.6172C29.7064 27.69 29.5008 27.696 29.2568 27.696H27.7301V26.8155H29.2757C29.4983 26.8155 29.7263 26.8199 29.8754 26.885C30.0352 26.9523 30.1324 27.0744 30.1324 27.2431C30.1324 27.4101 30.0367 27.5478 29.8754 27.6172ZM41.178 27.8606C41.4274 28.0568 41.558 28.2936 41.558 28.6977C41.558 29.5406 40.8575 29.9439 39.5882 29.9439H37.1453V29.0975H39.582C39.8115 29.0975 39.9769 29.0741 40.0813 29C40.1657 28.9419 40.2288 28.8523 40.2288 28.7438C40.2288 28.6253 40.1628 28.5359 40.074 28.486C39.9765 28.4296 39.8507 28.4026 39.6422 28.401C38.4748 28.3716 37.001 28.4293 37.001 27.1725C37.001 26.6084 37.4687 25.998 38.7888 25.998H41.3042V26.8376H39.0038C38.7764 26.8376 38.6289 26.8449 38.5081 26.9068C38.3736 26.9744 38.3232 27.0692 38.3232 27.1959C38.3232 27.3434 38.4364 27.4469 38.5897 27.4908C38.7181 27.5238 38.8609 27.5336 39.0737 27.5355L39.7495 27.548C40.442 27.5611 40.9039 27.6431 41.178 27.8606ZM46.1856 29.4333C45.8738 29.775 45.2937 29.9439 44.4852 29.9439H42.0615V29.0975H44.4754C44.7017 29.0975 44.8681 29.0741 44.9725 29C45.0566 28.9419 45.1222 28.8523 45.1222 28.7438C45.1222 28.6253 45.0566 28.5359 44.97 28.486C44.8728 28.4296 44.7423 28.4026 44.5345 28.401C43.3624 28.3716 41.8915 28.4293 41.8915 27.1725C41.8915 26.6084 42.3621 25.998 43.6822 25.998H46.1852V25.2221H43.8605C43.1695 25.2221 42.6449 25.3478 42.2845 25.5445V25.2221H38.8605C38.3229 25.2221 37.6616 25.3257 37.3585 25.5445L37.3628 25.2221H31.2469V25.5445C30.7549 25.2802 29.9355 25.2221 29.5487 25.2221H25.5004V25.5445C25.1215 25.2622 24.2641 25.2221 23.7514 25.2221H19.2246L18.1851 26.065L17.2178 25.2221H10.4707V30.7198H17.0935L18.1576 29.8644L19.1677 30.7198L23.2413 30.722V29.4245H23.6481C24.1898 29.4262 24.83 29.4139 25.3858 29.2343V30.7198H28.7717V29.285H28.9313C29.1332 29.285 29.1521 29.2937 29.1521 29.4403V30.7195H39.3902C40.0298 30.7195 40.727 30.5903 41.0935 30.3691V30.7195H44.3471C45.0156 30.7195 45.6885 30.6484 46.1852 30.4644V29.4333H46.1856ZM46.1856 26.8376H43.8972C43.6673 26.8376 43.5139 26.8449 43.3936 26.9068C43.2692 26.9744 43.2156 27.0692 43.2156 27.1959C43.2156 27.3434 43.3258 27.4469 43.4802 27.4908C43.6111 27.5238 43.754 27.5336 43.9693 27.5355L44.6386 27.548C45.3351 27.5614 45.7926 27.6434 46.0663 27.8606C46.1131 27.8952 46.1465 27.9295 46.1852 27.9641V26.8376H46.1856Z" fill="white"/>
</g>
<defs>
<radialGradient id="paint0_radial" cx="0" cy="0" r="1" gradientUnits="userSpaceOnUse" gradientTransform="translate(2.00049 10.4997) rotate(32.4712) scale(52.1536 69.5813)">
<stop stop-color="#4AC6F2"/>
<stop offset="0.489583" stop-color="#008EC8"/>
<stop offset="1" stop-color="#017197"/>
</radialGradient>
</defs>
</svg>
