<svg width="48" height="48" viewBox="0 0 48 48" fill="none" xmlns="http://www.w3.org/2000/svg">
<path d="M2.262 35.8919C2.1173 35.8919 2 35.7746 2 35.6299V12.3701C2 12.2254 2.1173 12.1081 2.262 12.1081C2.4067 12.1081 2.524 12.2254 2.524 12.3701V35.6299C2.524 35.7746 2.4067 35.8919 2.262 35.8919ZM3.83402 35.8919C3.39992 35.8919 3.04801 35.54 3.04801 35.1059V12.8941C3.04801 12.46 3.39992 12.1081 3.83402 12.1081C4.26812 12.1081 4.62002 12.46 4.62002 12.8941V35.1059C4.62002 35.54 4.26812 35.8919 3.83402 35.8919ZM5.93003 35.8919C5.49593 35.8919 5.14403 35.54 5.14403 35.1059V12.8941C5.14403 12.46 5.49593 12.1081 5.93003 12.1081C6.36413 12.1081 6.71604 12.46 6.71604 12.8941V35.1059C6.71604 35.54 6.36413 35.8919 5.93003 35.8919ZM9.07406 35.8919C8.92936 35.8919 8.81206 35.7746 8.81206 35.6299V12.3701C8.81206 12.2254 8.92936 12.1081 9.07406 12.1081C9.21876 12.1081 9.33606 12.2254 9.33606 12.3701V35.6299C9.33606 35.7746 9.21876 35.8919 9.07406 35.8919ZM10.1221 35.8919C9.97737 35.8919 9.86007 35.7746 9.86007 35.6299V12.3701C9.86007 12.2254 9.97737 12.1081 10.1221 12.1081C10.2668 12.1081 10.3841 12.2254 10.3841 12.3701V35.6299C10.3841 35.7746 10.2668 35.8919 10.1221 35.8919Z" fill="black"/>
<path d="M11.166 35.8919C11.0213 35.8919 10.904 35.7746 10.904 35.6299V12.3701C10.904 12.2254 11.0213 12.1081 11.166 12.1081C11.3107 12.1081 11.428 12.2254 11.428 12.3701V35.6299C11.428 35.7746 11.3107 35.8919 11.166 35.8919ZM12.214 35.8919C12.0693 35.8919 11.952 35.7746 11.952 35.6299V12.3701C11.952 12.2254 12.0693 12.1081 12.214 12.1081C12.3587 12.1081 12.476 12.2254 12.476 12.3701V35.6299C12.476 35.7746 12.3587 35.8919 12.214 35.8919ZM13.786 35.8919C13.3519 35.8919 13 35.54 13 35.1059V12.8941C13 12.46 13.3519 12.1081 13.786 12.1081C14.2201 12.1081 14.572 12.46 14.572 12.8941V35.1059C14.572 35.54 14.2201 35.8919 13.786 35.8919ZM16.93 35.8919C16.7853 35.8919 16.668 35.7746 16.668 35.6299V12.3701C16.668 12.2254 16.7853 12.1081 16.93 12.1081C17.0747 12.1081 17.192 12.2254 17.192 12.3701V35.6299C17.192 35.7746 17.0747 35.8919 16.93 35.8919ZM18.502 35.8919C18.0679 35.8919 17.716 35.54 17.716 35.1059V12.8941C17.716 12.46 18.0679 12.1081 18.502 12.1081C18.9361 12.1081 19.2881 12.46 19.2881 12.8941V35.1059C19.2881 35.54 18.9361 35.8919 18.502 35.8919Z" fill="black"/>
<path d="M20.07 35.8919C19.9253 35.8919 19.808 35.7746 19.808 35.6299V12.3701C19.808 12.2254 19.9253 12.1081 20.07 12.1081C20.2147 12.1081 20.332 12.2254 20.332 12.3701V35.6299C20.332 35.7746 20.2147 35.8919 20.07 35.8919ZM21.642 35.8919C21.2079 35.8919 20.856 35.54 20.856 35.1059V12.8941C20.856 12.46 21.2079 12.1081 21.642 12.1081C22.0761 12.1081 22.428 12.46 22.428 12.8941V35.1059C22.428 35.54 22.0761 35.8919 21.642 35.8919ZM23.738 35.8919C23.3039 35.8919 22.952 35.54 22.952 35.1059V12.8941C22.952 12.46 23.3039 12.1081 23.738 12.1081C24.1721 12.1081 24.524 12.46 24.524 12.8941V35.1059C24.524 35.54 24.1721 35.8919 23.738 35.8919ZM26.882 35.8919C26.7373 35.8919 26.62 35.7746 26.62 35.6299V12.3701C26.62 12.2254 26.7373 12.1081 26.882 12.1081C27.0267 12.1081 27.144 12.2254 27.144 12.3701V35.6299C27.144 35.7746 27.0267 35.8919 26.882 35.8919ZM27.93 35.8919C27.7853 35.8919 27.668 35.7746 27.668 35.6299V12.3701C27.668 12.2254 27.7853 12.1081 27.93 12.1081C28.0747 12.1081 28.192 12.2254 28.192 12.3701V35.6299C28.192 35.7746 28.0747 35.8919 27.93 35.8919Z" fill="black"/>
<path d="M28.9739 35.8919C28.8292 35.8919 28.7119 35.7746 28.7119 35.6299V12.3701C28.7119 12.2254 28.8292 12.1081 28.9739 12.1081C29.1186 12.1081 29.236 12.2254 29.236 12.3701V35.6299C29.236 35.7746 29.1186 35.8919 28.9739 35.8919ZM30.022 35.8919C29.8773 35.8919 29.76 35.7746 29.76 35.6299V12.3701C29.76 12.2254 29.8773 12.1081 30.022 12.1081C30.1667 12.1081 30.284 12.2254 30.284 12.3701V35.6299C30.284 35.7746 30.1667 35.8919 30.022 35.8919ZM31.594 35.8919C31.1599 35.8919 30.808 35.54 30.808 35.1059V12.8941C30.808 12.46 31.1599 12.1081 31.594 12.1081C32.0281 12.1081 32.38 12.46 32.38 12.8941V35.1059C32.38 35.54 32.0281 35.8919 31.594 35.8919ZM34.738 35.8919C34.5933 35.8919 34.476 35.7746 34.476 35.6299V12.3701C34.476 12.2254 34.5933 12.1081 34.738 12.1081C34.8827 12.1081 35 12.2254 35 12.3701V35.6299C35 35.7746 34.8827 35.8919 34.738 35.8919ZM36.31 35.8919C35.8759 35.8919 35.524 35.54 35.524 35.1059V12.8941C35.524 12.46 35.8759 12.1081 36.31 12.1081C36.7441 12.1081 37.096 12.46 37.096 12.8941V35.1059C37.096 35.54 36.7441 35.8919 36.31 35.8919Z" fill="black"/>
<path d="M37.8779 35.8919C37.7332 35.8919 37.6159 35.7746 37.6159 35.6299V12.3701C37.6159 12.2254 37.7332 12.1081 37.8779 12.1081C38.0226 12.1081 38.1399 12.2254 38.1399 12.3701V35.6299C38.1399 35.7746 38.0226 35.8919 37.8779 35.8919ZM39.4499 35.8919C39.0158 35.8919 38.6639 35.54 38.6639 35.1059V12.8941C38.6639 12.46 39.0158 12.1081 39.4499 12.1081C39.884 12.1081 40.236 12.46 40.236 12.8941V35.1059C40.236 35.54 39.884 35.8919 39.4499 35.8919ZM41.546 35.8919C41.1119 35.8919 40.76 35.54 40.76 35.1059V12.8941C40.76 12.46 41.1119 12.1081 41.546 12.1081C41.9801 12.1081 42.332 12.46 42.332 12.8941V35.1059C42.332 35.54 41.9801 35.8919 41.546 35.8919ZM44.69 35.8919C44.5453 35.8919 44.428 35.7746 44.428 35.6299V12.3701C44.428 12.2254 44.5453 12.1081 44.69 12.1081C44.8347 12.1081 44.952 12.2254 44.952 12.3701V35.6299C44.952 35.7746 44.8347 35.8919 44.69 35.8919ZM45.738 35.8919C45.5933 35.8919 45.476 35.7746 45.476 35.6299V12.3701C45.476 12.2254 45.5933 12.1081 45.738 12.1081C45.8827 12.1081 46 12.2254 46 12.3701V35.6299C46 35.7746 45.8827 35.8919 45.738 35.8919Z" fill="black"/>
<path d="M7.9458 26.1892C7.9458 25.6369 8.39352 25.1892 8.9458 25.1892H39.5469C40.0992 25.1892 40.5469 25.6369 40.5469 26.1892V34.8919C40.5469 35.4442 40.0992 35.8919 39.5469 35.8919H8.9458C8.39352 35.8919 7.9458 35.4442 7.9458 34.8919V26.1892Z" fill="white"/>
<path d="M11.5137 29.8162C11.5137 29.2639 11.9614 28.8162 12.5137 28.8162H13.0596C13.5194 28.8162 13.8603 28.9094 14.0823 29.0957C14.3083 29.282 14.4212 29.5476 14.4212 29.8924C14.4212 30.1065 14.3598 30.2928 14.2369 30.4514C14.1146 30.6092 13.9431 30.7081 13.7225 30.7481C13.7209 30.7484 13.7196 30.7499 13.7196 30.7516C13.7196 30.7533 13.7209 30.7548 13.7226 30.7551C13.967 30.7951 14.1602 30.898 14.3023 31.0638C14.449 31.2303 14.5223 31.4265 14.5223 31.6524C14.5223 31.9933 14.3975 32.2609 14.1477 32.4551C13.898 32.6454 13.5432 32.7405 13.0834 32.7405H12.5137C11.9614 32.7405 11.5137 32.2928 11.5137 31.7405V29.8162ZM13.0121 30.5049C13.5115 30.5049 13.7612 30.3126 13.7612 29.9281C13.7612 29.5436 13.5115 29.3514 13.0121 29.3514H12.7148C12.3962 29.3514 12.138 29.6096 12.138 29.9281C12.138 30.2466 12.3962 30.5049 12.7148 30.5049H13.0121ZM13.1131 32.2114C13.3589 32.2114 13.5452 32.1618 13.6721 32.0627C13.7989 31.9596 13.8623 31.813 13.8623 31.6227C13.8623 31.4324 13.7989 31.2877 13.6721 31.1886C13.5452 31.0856 13.3589 31.0341 13.1131 31.0341H12.7266C12.4015 31.0341 12.138 31.2976 12.138 31.6227C12.138 31.9478 12.4015 32.2114 12.7266 32.2114H13.1131Z" fill="black"/>
<path d="M17.5554 28.7568C17.932 28.7568 18.259 28.838 18.5365 29.0005C18.8179 29.1631 19.034 29.3969 19.1846 29.7022C19.3352 30.0074 19.4105 30.3661 19.4105 30.7784C19.4105 31.1906 19.3352 31.5494 19.1846 31.8546C19.034 32.1598 18.8179 32.3937 18.5365 32.5562C18.259 32.7187 17.932 32.8 17.5554 32.8C17.1788 32.8 16.8518 32.7187 16.5743 32.5562C16.2968 32.3937 16.0828 32.1598 15.9322 31.8546C15.7815 31.5494 15.7062 31.1906 15.7062 30.7784C15.7062 30.3661 15.7815 30.0074 15.9322 29.7022C16.0828 29.3969 16.2968 29.1631 16.5743 29.0005C16.8518 28.838 17.1788 28.7568 17.5554 28.7568ZM17.5554 29.3097C17.1868 29.3097 16.8974 29.4386 16.6873 29.6962C16.4772 29.9539 16.3722 30.3146 16.3722 30.7784C16.3722 31.2422 16.4772 31.6029 16.6873 31.8605C16.8974 32.1182 17.1868 32.247 17.5554 32.247C17.928 32.247 18.2194 32.1182 18.4295 31.8605C18.6395 31.6029 18.7446 31.2422 18.7446 30.7784C18.7446 30.3146 18.6395 29.9539 18.4295 29.6962C18.2194 29.4386 17.928 29.3097 17.5554 29.3097Z" fill="black"/>
<path d="M23.3593 32.1935C23.5104 32.1935 23.6329 32.316 23.6329 32.467C23.6329 32.6181 23.5104 32.7405 23.3593 32.7405H21.8323C21.28 32.7405 20.8323 32.2928 20.8323 31.7405V29.1343C20.8323 28.9586 20.9747 28.8162 21.1504 28.8162C21.3261 28.8162 21.4685 28.9586 21.4685 29.1343V31.1935C21.4685 31.7458 21.9162 32.1935 22.4685 32.1935H23.3593Z" fill="black"/>
<path d="M27.5193 32.1935C27.6704 32.1935 27.7928 32.316 27.7928 32.467C27.7928 32.6181 27.6704 32.7405 27.5193 32.7405H25.8674C25.3151 32.7405 24.8674 32.2928 24.8674 31.7405V29.8162C24.8674 29.2639 25.3151 28.8162 25.8674 28.8162H27.4361C27.5871 28.8162 27.7096 28.9387 27.7096 29.0897C27.7096 29.2408 27.5871 29.3632 27.4361 29.3632H26.0685C25.7565 29.3632 25.5036 29.6161 25.5036 29.9281C25.5036 30.2401 25.7565 30.493 26.0685 30.493H26.9604C27.1082 30.493 27.228 30.6128 27.228 30.7605C27.228 30.9083 27.1082 31.0281 26.9604 31.0281H26.0863C25.7645 31.0281 25.5036 31.289 25.5036 31.6108C25.5036 31.9326 25.7645 32.1935 26.0863 32.1935H27.5193Z" fill="black"/>
<path d="M32.0427 29.0897C32.0427 29.2408 31.9202 29.3632 31.7691 29.3632H31.3708C30.9997 29.3632 30.6989 29.6641 30.6989 30.0351V32.4224C30.6989 32.5981 30.5564 32.7405 30.3808 32.7405C30.2051 32.7405 30.0627 32.5981 30.0627 32.4224V30.0351C30.0627 29.6641 29.7618 29.3632 29.3908 29.3632H28.9924C28.8413 29.3632 28.7189 29.2408 28.7189 29.0897C28.7189 28.9387 28.8413 28.8162 28.9924 28.8162H31.7691C31.9202 28.8162 32.0427 28.9387 32.0427 29.0897Z" fill="black"/>
<path d="M34.7701 28.7568C35.1467 28.7568 35.4737 28.838 35.7512 29.0005C36.0326 29.1631 36.2486 29.3969 36.3993 29.7022C36.5499 30.0074 36.6252 30.3661 36.6252 30.7784C36.6252 31.1906 36.5499 31.5494 36.3993 31.8546C36.2486 32.1598 36.0326 32.3937 35.7512 32.5562C35.4737 32.7187 35.1467 32.8 34.7701 32.8C34.3935 32.8 34.0665 32.7187 33.789 32.5562C33.5115 32.3937 33.2975 32.1598 33.1468 31.8546C32.9962 31.5494 32.9209 31.1906 32.9209 30.7784C32.9209 30.3661 32.9962 30.0074 33.1468 29.7022C33.2975 29.3969 33.5115 29.1631 33.789 29.0005C34.0665 28.838 34.3935 28.7568 34.7701 28.7568ZM34.7701 29.3097C34.4014 29.3097 34.1121 29.4386 33.902 29.6962C33.6919 29.9539 33.5868 30.3146 33.5868 30.7784C33.5868 31.2422 33.6919 31.6029 33.902 31.8605C34.1121 32.1182 34.4014 32.247 34.7701 32.247C35.1427 32.247 35.434 32.1182 35.6441 31.8605C35.8542 31.6029 35.9593 31.2422 35.9593 30.7784C35.9593 30.3146 35.8542 29.9539 35.6441 29.6962C35.434 29.4386 35.1427 29.3097 34.7701 29.3097Z" fill="black"/>
</svg>
