<svg width="48" height="48" viewBox="0 0 48 48" fill="none" xmlns="http://www.w3.org/2000/svg">
<rect x="2" y="10" width="44" height="28" rx="2" fill="#B3131B"/>
<path d="M10.2526 26.708H9.34074L9.8771 24.1833H7.70868L7.17616 26.708H6.26818L7.452 21.1069H8.35998L7.87342 23.3979H10.0418L10.5284 21.1069H11.4364L10.2526 26.708ZM12.6738 21.4287C12.6738 21.255 12.7236 21.1146 12.8232 21.0073C12.9228 20.9 13.0633 20.8464 13.2447 20.8464C13.38 20.8464 13.4899 20.8809 13.5741 20.9498C13.6584 21.0162 13.7006 21.1184 13.7006 21.2563C13.7006 21.4377 13.6495 21.5807 13.5473 21.6854C13.4452 21.7901 13.3111 21.8425 13.1451 21.8425C13.0097 21.8425 12.8973 21.8093 12.8079 21.7429C12.7185 21.6765 12.6738 21.5717 12.6738 21.4287ZM12.4938 26.708H11.5896L12.4938 22.4708H13.3941L12.4938 26.708ZM15.7847 26.7846C15.3224 26.7846 14.9789 26.5599 14.7541 26.1104H14.7158C14.6979 26.3581 14.666 26.5944 14.62 26.8191L14.2523 28.5929H13.3596L14.6545 22.4708H15.3594L15.279 23.191H15.3135C15.7145 22.6598 16.1538 22.3942 16.6314 22.3942C16.9966 22.3942 17.2827 22.5257 17.4896 22.7888C17.6964 23.0518 17.7999 23.4171 17.7999 23.8845C17.7999 24.4055 17.7105 24.8933 17.5317 25.348C17.3529 25.8 17.109 26.1525 16.8 26.4053C16.4935 26.6582 16.155 26.7846 15.7847 26.7846ZM16.2942 23.1297C16.0874 23.1297 15.8818 23.2319 15.6774 23.4362C15.4731 23.638 15.3058 23.9062 15.1756 24.2408C15.0478 24.5753 14.984 24.9214 14.984 25.279C14.984 25.5242 15.0427 25.7157 15.1602 25.8537C15.2803 25.989 15.4488 26.0567 15.6659 26.0567C15.883 26.0567 16.0861 25.9571 16.2751 25.7579C16.4641 25.5561 16.6135 25.2879 16.7233 24.9534C16.8332 24.6162 16.8881 24.265 16.8881 23.8998C16.8881 23.3864 16.6901 23.1297 16.2942 23.1297ZM20.7115 23.0838C20.4663 23.0838 20.2352 23.1936 20.0181 23.4132C19.8036 23.6329 19.649 23.9228 19.5545 24.2829H19.6656C20.1458 24.2829 20.5213 24.2152 20.792 24.0799C21.0627 23.9419 21.1981 23.7478 21.1981 23.4975C21.1981 23.3673 21.1572 23.2664 21.0755 23.1949C20.9938 23.1208 20.8724 23.0838 20.7115 23.0838ZM20.1292 26.7846C19.626 26.7846 19.2327 26.6429 18.9492 26.3594C18.6683 26.0759 18.5278 25.68 18.5278 25.1717C18.5278 24.666 18.6261 24.1961 18.8228 23.7619C19.022 23.3251 19.2902 22.988 19.6273 22.7505C19.967 22.5129 20.3463 22.3942 20.7652 22.3942C21.1764 22.3942 21.4956 22.4874 21.723 22.6738C21.9528 22.8577 22.0678 23.1195 22.0678 23.4592C22.0678 23.9241 21.8545 24.288 21.428 24.5511C21.004 24.8116 20.3987 24.9419 19.612 24.9419H19.4473L19.4396 25.0606V25.1717C19.4396 25.4552 19.5111 25.6774 19.6541 25.8383C19.7997 25.9992 20.0155 26.0797 20.3016 26.0797C20.4855 26.0797 20.6681 26.0554 20.8495 26.0069C21.0308 25.9584 21.2453 25.8754 21.4931 25.7579V26.4743C21.2479 26.5867 21.0219 26.6659 20.815 26.7118C20.6106 26.7604 20.3821 26.7846 20.1292 26.7846ZM25.3434 22.3942C25.5017 22.3942 25.6396 22.4095 25.7571 22.4401L25.5617 23.2791C25.4238 23.2434 25.2936 23.2255 25.171 23.2255C24.8492 23.2255 24.5618 23.3698 24.309 23.6584C24.0561 23.947 23.8799 24.325 23.7803 24.7924L23.3742 26.708H22.47L23.3742 22.4708H24.0791L23.9986 23.2562H24.0331C24.2451 22.9497 24.4571 22.73 24.6691 22.5972C24.8811 22.4618 25.1058 22.3942 25.3434 22.3942ZM27.4313 26.7846C26.9307 26.7846 26.5425 26.6493 26.2667 26.3785C25.9908 26.1078 25.8529 25.7209 25.8529 25.2177C25.8529 24.689 25.9461 24.2088 26.1326 23.7772C26.3216 23.343 26.5859 23.0046 26.9256 22.7619C27.2653 22.5168 27.651 22.3942 28.0826 22.3942C28.5015 22.3942 28.8808 22.4721 29.2205 22.6279L28.9523 23.3328C28.6407 23.1974 28.3585 23.1297 28.1056 23.1297C27.7225 23.1297 27.4032 23.3264 27.1478 23.7197C26.8924 24.1105 26.7647 24.5945 26.7647 25.1717C26.7647 25.4552 26.8362 25.6736 26.9793 25.8268C27.1223 25.9801 27.3202 26.0567 27.5731 26.0567C27.7621 26.0567 27.9383 26.0286 28.1018 25.9724C28.2678 25.9162 28.4338 25.8473 28.5998 25.7656V26.5126C28.2423 26.694 27.8528 26.7846 27.4313 26.7846ZM30.6763 26.7846C30.3162 26.7846 30.0314 26.6556 29.822 26.3977C29.6125 26.1372 29.5078 25.7719 29.5078 25.302C29.5078 24.7861 29.5959 24.3033 29.7722 23.8538C29.9509 23.4043 30.1961 23.0493 30.5077 22.7888C30.8193 22.5257 31.1616 22.3942 31.5345 22.3942C31.7822 22.3942 31.9955 22.4529 32.1743 22.5704C32.3531 22.6853 32.4923 22.8539 32.5919 23.0761H32.6302L32.8677 22.4708H33.5573L32.6532 26.708H31.9559L32.0364 26.0337H32.0134C31.6098 26.5343 31.1641 26.7846 30.6763 26.7846ZM31.0058 26.0567C31.2152 26.0567 31.4208 25.9584 31.6226 25.7617C31.8244 25.5625 31.9904 25.2969 32.1206 24.9648C32.2509 24.6328 32.316 24.2701 32.316 23.8768C32.316 23.652 32.256 23.472 32.136 23.3366C32.0159 23.1987 31.8588 23.1297 31.6647 23.1297C31.4476 23.1297 31.2433 23.2281 31.0518 23.4247C30.8602 23.6214 30.707 23.8896 30.592 24.2293C30.4771 24.5664 30.4196 24.9163 30.4196 25.279C30.4196 25.5395 30.4707 25.7349 30.5729 25.8652C30.6776 25.9929 30.8219 26.0567 31.0058 26.0567ZM36.7448 22.3942C36.9032 22.3942 37.0411 22.4095 37.1586 22.4401L36.9632 23.2791C36.8253 23.2434 36.695 23.2255 36.5724 23.2255C36.2506 23.2255 35.9633 23.3698 35.7104 23.6584C35.4576 23.947 35.2813 24.325 35.1817 24.7924L34.7756 26.708H33.8715L34.7756 22.4708H35.4805L35.4001 23.2562H35.4346C35.6466 22.9497 35.8585 22.73 36.0705 22.5972C36.2825 22.4618 36.5073 22.3942 36.7448 22.3942ZM39.281 22.3942C39.7382 22.3942 40.0804 22.6215 40.3078 23.0761H40.3384C40.3716 22.7032 40.4189 22.3839 40.4802 22.1183L40.7713 20.7468H41.664L40.3997 26.708H39.6948L39.7676 26.0337H39.7408C39.516 26.3045 39.2989 26.4973 39.0895 26.6122C38.88 26.7272 38.6578 26.7846 38.4228 26.7846C38.0576 26.7846 37.7716 26.6556 37.5647 26.3977C37.3578 26.1372 37.2544 25.7694 37.2544 25.2943C37.2544 24.7707 37.345 24.2816 37.5264 23.827C37.7103 23.3724 37.9554 23.0199 38.2619 22.7696C38.5684 22.5193 38.9081 22.3942 39.281 22.3942ZM38.7676 26.0567C38.9771 26.0567 39.184 25.952 39.3883 25.7426C39.5952 25.5331 39.7599 25.2598 39.8825 24.9227C40.0077 24.5856 40.0702 24.2446 40.0702 23.8998C40.0702 23.6674 40.014 23.4809 39.9017 23.3404C39.7918 23.2 39.6233 23.1297 39.396 23.1297C39.1789 23.1297 38.9758 23.2281 38.7868 23.4247C38.5978 23.6214 38.4471 23.8909 38.3347 24.2331C38.2223 24.5753 38.1662 24.924 38.1662 25.279C38.1662 25.7975 38.3667 26.0567 38.7676 26.0567Z" fill="white"/>
</svg>
