<svg width="48" height="48" viewBox="0 0 48 48" fill="none" xmlns="http://www.w3.org/2000/svg">
<rect x="2" y="10" width="45" height="28" rx="2" fill="#231F20"/>
<g clip-path="url(#clip0)">
<path d="M28.5074 16.6461H20.3086V30.7166H28.5074V16.6461Z" fill="#FF5F00"/>
<path d="M20.8277 23.6814C20.8264 22.3263 21.148 20.9887 21.768 19.7698C22.388 18.551 23.2903 17.4828 24.4065 16.6462C23.0243 15.6086 21.3642 14.9633 19.6161 14.7841C17.8679 14.6049 16.1023 14.899 14.5209 15.6329C12.9396 16.3667 11.6063 17.5106 10.6735 18.9339C9.74075 20.3572 9.24609 22.0023 9.24609 23.6814C9.24609 25.3604 9.74075 27.0056 10.6735 28.4289C11.6063 29.8521 12.9396 30.9961 14.5209 31.7299C16.1023 32.4637 17.8679 32.7579 19.6161 32.5787C21.3642 32.3995 23.0243 31.7542 24.4065 30.7166C23.2903 29.88 22.388 28.8118 21.768 27.5929C21.148 26.3741 20.8264 25.0365 20.8277 23.6814Z" fill="#EB001B"/>
<path d="M39.5681 23.6814C39.5682 25.3604 39.0736 27.0056 38.1409 28.4289C37.2082 29.8521 35.8749 30.996 34.2936 31.7299C32.7123 32.4637 30.9467 32.7579 29.1986 32.5787C27.4505 32.3995 25.7904 31.7542 24.4082 30.7166C25.5234 29.8791 26.425 28.8108 27.0449 27.5921C27.6649 26.3734 27.987 25.0363 27.987 23.6814C27.987 22.3265 27.6649 20.9893 27.0449 19.7707C26.425 18.552 25.5234 17.4836 24.4082 16.6462C25.7904 15.6085 27.4505 14.9633 29.1986 14.7841C30.9467 14.6049 32.7123 14.8991 34.2936 15.6329C35.8749 16.3667 37.2082 17.5107 38.1409 18.9339C39.0736 20.3572 39.5682 22.0024 39.5681 23.6814Z" fill="#F79E1B"/>
</g>
<path d="M7.37473 21.3083L8.05053 25.3656L10.1006 21.3083H11.573L10.6178 26.9184H9.50784L9.77967 25.3194L10.3158 22.8225L8.2091 26.9184H7.45024L6.71404 22.68L6.35915 25.4427L6.1062 26.9184H5L5.95518 21.3083H7.37473Z" fill="white"/>
<path d="M13.9024 26.9184C13.8697 26.8131 13.8559 26.6873 13.8609 26.5408C13.5538 26.8542 13.2065 27.0058 12.8189 26.9955C12.4615 26.9904 12.1645 26.8722 11.9279 26.641C11.6938 26.4073 11.5843 26.1196 11.5994 25.7779C11.617 25.3232 11.8033 24.9752 12.1582 24.7337C12.5156 24.4897 12.9938 24.3677 13.5928 24.3677L14.0912 24.3754L14.144 24.1249C14.1591 24.0401 14.1629 23.9592 14.1554 23.8822C14.1428 23.7614 14.0975 23.6677 14.0195 23.6009C13.9439 23.5315 13.8433 23.4956 13.7174 23.493C13.5513 23.4879 13.4104 23.5302 13.2946 23.6201C13.1788 23.7075 13.1046 23.8346 13.0718 24.0016L12.0034 24.0055C12.021 23.6073 12.1997 23.2849 12.5395 23.0383C12.8818 22.7891 13.3034 22.6671 13.8043 22.6723C14.2674 22.6825 14.6298 22.8238 14.8916 23.0961C15.1533 23.3658 15.2628 23.7139 15.22 24.1403L14.9067 26.1363L14.8878 26.3829C14.8828 26.5652 14.9042 26.7194 14.952 26.8452L14.9482 26.9184H13.9024ZM13.0832 26.1517C13.3902 26.1619 13.6583 26.0258 13.8873 25.7432L14.0195 25.0227L13.6495 25.0188C13.2568 25.0291 12.9737 25.1511 12.8 25.3849C12.7371 25.4697 12.6981 25.5737 12.683 25.697C12.6628 25.8357 12.6905 25.9462 12.766 26.0284C12.844 26.108 12.9498 26.1491 13.0832 26.1517Z" fill="white"/>
<path d="M17.9685 25.7432C18.0088 25.5377 17.8691 25.3887 17.5495 25.2963L17.2059 25.2076C16.3929 24.979 15.9978 24.5757 16.0204 23.9978C16.033 23.6047 16.2029 23.2849 16.5301 23.0383C16.8598 22.7891 17.2562 22.6671 17.7194 22.6723C18.18 22.6774 18.5525 22.802 18.8369 23.046C19.1213 23.2901 19.266 23.615 19.2711 24.0209L18.2139 24.017C18.219 23.66 18.0453 23.4789 17.6929 23.4737C17.5268 23.4737 17.3821 23.5161 17.2588 23.6009C17.1379 23.6856 17.0637 23.8 17.036 23.9438C16.9983 24.1493 17.1505 24.2944 17.4928 24.3792L17.6439 24.4139C17.9912 24.4987 18.2567 24.5963 18.4405 24.7067C18.6242 24.8146 18.7652 24.9495 18.8633 25.1113C18.964 25.2731 19.0106 25.4671 19.003 25.6931C18.9955 25.9577 18.9111 26.1889 18.75 26.3867C18.5915 26.5845 18.3725 26.7373 18.0931 26.8452C17.8163 26.9531 17.5243 27.0032 17.2172 26.9955C16.7642 26.9904 16.3866 26.8581 16.0846 26.5986C15.7826 26.3366 15.629 25.9988 15.624 25.5853L16.6283 25.593C16.6383 25.9911 16.8472 26.1928 17.255 26.1979C17.4513 26.1979 17.6124 26.1568 17.7382 26.0746C17.8666 25.9924 17.9434 25.8819 17.9685 25.7432Z" fill="white"/>
<path d="M21.6571 21.7244L21.4797 22.7493H22.1592L22.0196 23.5662H21.34L20.9926 25.6546C20.9775 25.7856 20.9876 25.8858 21.0228 25.9552C21.0581 26.0245 21.1437 26.0618 21.2796 26.0669C21.3198 26.0695 21.4281 26.063 21.6043 26.0476L21.5288 26.8992C21.34 26.9634 21.1361 26.9929 20.9171 26.9878C20.5673 26.9827 20.3068 26.8709 20.1356 26.6526C19.9645 26.4342 19.894 26.1388 19.9242 25.7663L20.2753 23.5662H19.6977L19.8374 22.7493H20.415L20.5887 21.7244H21.6571Z" fill="white"/>
<path d="M24.013 26.9955C23.6556 26.9929 23.3384 26.9043 23.0616 26.7296C22.7872 26.5524 22.5821 26.3109 22.4462 26.0052C22.3103 25.697 22.2574 25.3579 22.2876 24.988L22.2989 24.8339C22.3367 24.428 22.4525 24.0555 22.6463 23.7165C22.8401 23.3774 23.0893 23.1167 23.3938 22.9343C23.6984 22.7493 24.0356 22.662 24.4056 22.6723C24.9317 22.6825 25.3293 22.8803 25.5986 23.2657C25.8705 23.6484 25.9737 24.1339 25.9082 24.7221L25.8478 25.1961H23.3447C23.3347 25.4658 23.3988 25.6816 23.5373 25.8434C23.6757 26.0052 23.8645 26.0887 24.1036 26.0939C24.4912 26.1041 24.831 25.9513 25.1229 25.6353L25.61 26.2518C25.4564 26.4882 25.2349 26.6731 24.9455 26.8067C24.656 26.9377 24.3452 27.0006 24.013 26.9955ZM24.3528 23.5701C24.1564 23.5649 23.9815 23.6278 23.828 23.7589C23.677 23.8899 23.541 24.1172 23.4202 24.4409H24.8851L24.9077 24.3407C24.9228 24.2379 24.9241 24.1403 24.9115 24.0478C24.8864 23.8989 24.8247 23.7833 24.7265 23.7011C24.6284 23.6163 24.5038 23.5726 24.3528 23.5701Z" fill="white"/>
<path d="M28.9625 23.7935C28.8166 23.7678 28.697 23.755 28.6039 23.755C28.2238 23.7447 27.923 23.8899 27.7015 24.1904L27.2296 26.9184H26.165L26.8747 22.7493L27.8752 22.7455L27.7771 23.2541C28.0338 22.8611 28.3509 22.6646 28.7285 22.6646C28.8342 22.6646 28.9575 22.6825 29.0985 22.7185L28.9625 23.7935Z" fill="white"/>
<path d="M30.6577 26.1016C30.854 26.1067 31.0176 26.0528 31.1485 25.9397C31.2794 25.8241 31.365 25.6713 31.4052 25.4812L32.4057 25.4774C32.3881 25.7702 32.2975 26.0335 32.1339 26.2673C31.9728 26.501 31.7563 26.6834 31.4845 26.8144C31.2152 26.9454 30.9308 27.0071 30.6313 26.9994C30.1354 26.9917 29.7428 26.817 29.4533 26.4753C29.1639 26.1337 29.0242 25.679 29.0343 25.1113L29.0456 24.8994L29.0494 24.857C29.1173 24.1789 29.3413 23.642 29.7214 23.2464C30.1015 22.8482 30.5709 22.6569 31.1296 22.6723C31.5902 22.6825 31.9552 22.8367 32.2245 23.1346C32.4963 23.4301 32.6297 23.8205 32.6247 24.306H31.6318C31.6318 24.0825 31.5839 23.9066 31.4883 23.7781C31.3926 23.6497 31.2492 23.5803 31.0579 23.5701C30.5495 23.5546 30.2411 23.9335 30.1329 24.7067C30.0952 24.9867 30.0813 25.2231 30.0914 25.4157C30.1166 25.8652 30.3053 26.0939 30.6577 26.1016Z" fill="white"/>
<path d="M35.1806 26.9184C35.1479 26.8131 35.1341 26.6873 35.1391 26.5408C34.832 26.8542 34.4847 27.0058 34.0971 26.9955C33.7397 26.9904 33.4427 26.8722 33.2061 26.641C32.972 26.4073 32.8625 26.1196 32.8776 25.7779C32.8953 25.3232 33.0815 24.9752 33.4364 24.7337C33.7938 24.4897 34.272 24.3677 34.8711 24.3677L35.3694 24.3754L35.4223 24.1249C35.4374 24.0401 35.4411 23.9592 35.4336 23.8822C35.421 23.7614 35.3757 23.6677 35.2977 23.6009C35.2222 23.5315 35.1215 23.4956 34.9956 23.493C34.8295 23.4879 34.6886 23.5302 34.5728 23.6201C34.457 23.7075 34.3828 23.8346 34.35 24.0016L33.2816 24.0055C33.2992 23.6073 33.4779 23.2849 33.8177 23.0383C34.16 22.7891 34.5816 22.6671 35.0825 22.6723C35.5456 22.6825 35.908 22.8238 36.1698 23.0961C36.4316 23.3658 36.541 23.7139 36.4983 24.1403L36.1849 26.1363L36.166 26.3829C36.161 26.5652 36.1824 26.7194 36.2302 26.8452L36.2264 26.9184H35.1806ZM34.3614 26.1517C34.6684 26.1619 34.9365 26.0258 35.1655 25.7432L35.2977 25.0227L34.9277 25.0188C34.535 25.0291 34.2519 25.1511 34.0782 25.3849C34.0153 25.4697 33.9763 25.5737 33.9612 25.697C33.941 25.8357 33.9687 25.9462 34.0442 26.0284C34.1223 26.108 34.228 26.1491 34.3614 26.1517Z" fill="white"/>
<path d="M39.6772 23.7935C39.5312 23.7678 39.4116 23.755 39.3185 23.755C38.9384 23.7447 38.6377 23.8899 38.4162 24.1904L37.9442 26.9184H36.8796L37.5894 22.7493L38.5898 22.7455L38.4917 23.2541C38.7484 22.8611 39.0655 22.6646 39.4431 22.6646C39.5488 22.6646 39.6721 22.6825 39.8131 22.7185L39.6772 23.7935Z" fill="white"/>
<path d="M41.6102 22.6684C41.9902 22.6787 42.2973 22.8341 42.5314 23.1346L42.9316 21H44L42.9957 26.9184H42.0443L42.1047 26.4715C41.8002 26.8337 41.4453 27.0096 41.0401 26.9994C40.7859 26.9968 40.5631 26.9287 40.3718 26.7951C40.1805 26.6616 40.032 26.4702 39.9263 26.221C39.8231 25.9693 39.7665 25.6893 39.7564 25.381C39.7489 25.2192 39.7527 25.0625 39.7678 24.9109L39.7904 24.7376C39.8508 24.3111 39.9666 23.9361 40.1378 23.6124C40.3114 23.2888 40.5228 23.0486 40.772 22.8919C41.0237 22.7352 41.3031 22.6607 41.6102 22.6684ZM40.8362 24.9109C40.8161 25.1062 40.8098 25.2706 40.8173 25.4042C40.8425 25.8563 41.0212 26.0862 41.3534 26.0939C41.653 26.1067 41.9135 25.9629 42.1349 25.6623L42.4257 24.0055C42.3275 23.7306 42.1312 23.5867 41.8367 23.5739C41.5774 23.5662 41.361 23.669 41.1873 23.8822C41.0162 24.0928 40.8991 24.4357 40.8362 24.9109Z" fill="white"/>
<defs>
<clipPath id="clip0">
<rect width="30.8141" height="24.1379" fill="white" transform="translate(9 10.9655)"/>
</clipPath>
</defs>
</svg>
