<svg width="48" height="48" viewBox="0 0 48 48" fill="none" xmlns="http://www.w3.org/2000/svg">
<g clip-path="url(#clip0)">
<path d="M31.5547 30.6533C31.0339 30.6548 30.518 30.5531 30.0368 30.354C29.5556 30.1549 29.1186 29.8624 28.7512 29.4933L24.7013 25.4434C24.5581 25.306 24.3672 25.2293 24.1687 25.2293C23.9702 25.2293 23.7794 25.306 23.6362 25.4434L19.5715 29.508C19.2042 29.8773 18.7673 30.1701 18.2861 30.3695C17.8049 30.5689 17.289 30.6709 16.7681 30.6696H15.9692L21.099 35.7977C21.8683 36.5665 22.9113 36.9984 23.9988 36.9984C25.0864 36.9984 26.1294 36.5665 26.8986 35.7977L32.0431 30.6533H31.5547Z" fill="#222222"/>
<path d="M16.7681 16.3289C17.289 16.3276 17.8049 16.4296 18.2861 16.629C18.7673 16.8284 19.2042 17.1211 19.5715 17.4904L23.6361 21.5567C23.7776 21.6976 23.9691 21.7766 24.1687 21.7766C24.3684 21.7766 24.5599 21.6976 24.7013 21.5567L28.7496 17.5068C29.1173 17.1376 29.5545 16.8449 30.036 16.6455C30.5174 16.4461 31.0336 16.3441 31.5546 16.3452H32.0447L26.8986 11.2007C26.1294 10.432 25.0864 10.0001 23.9988 10.0001C22.9113 10.0001 21.8683 10.432 21.099 11.2007L15.9692 16.3289H16.7681Z" fill="#222222"/>
<path d="M36.2978 20.5993L33.1938 17.4953C33.1239 17.5241 33.049 17.5391 32.9733 17.5394H31.5601C30.8246 17.5431 30.1203 17.8366 29.5997 18.3562L25.5433 22.398C25.1787 22.7621 24.6846 22.9666 24.1693 22.9666C23.6541 22.9666 23.1599 22.7621 22.7954 22.398L18.7308 18.3333C18.2102 17.8137 17.5058 17.5203 16.7703 17.5165H15.0305C14.9587 17.5158 14.8877 17.5014 14.8213 17.474L11.701 20.5993C11.3199 20.9799 11.0177 21.432 10.8114 21.9296C10.6052 22.4271 10.499 22.9605 10.499 23.4991C10.499 24.0377 10.6052 24.571 10.8114 25.0686C11.0177 25.5662 11.3199 26.0182 11.701 26.3989L14.8213 29.5209C14.8877 29.4935 14.9587 29.4791 15.0305 29.4784H16.7687C17.5042 29.4746 18.2086 29.1811 18.7291 28.6615L22.7937 24.5969C23.1641 24.244 23.6561 24.0471 24.1677 24.0471C24.6793 24.0471 25.1713 24.244 25.5416 24.5969L29.5932 28.6452C30.1137 29.1648 30.8181 29.4583 31.5536 29.462H32.9667C33.0424 29.4623 33.1173 29.4773 33.1873 29.5062L36.2913 26.4021C36.6723 26.0215 36.9746 25.5694 37.1809 25.0719C37.3871 24.5743 37.4933 24.041 37.4933 23.5023C37.4933 22.9637 37.3871 22.4304 37.1809 21.9328C36.9746 21.4353 36.6723 20.9832 36.2913 20.6025" fill="#222222"/>
</g>
<defs>
<clipPath id="clip0">
<rect width="27" height="27" fill="white" transform="translate(10.5 10)"/>
</clipPath>
</defs>
</svg>
