<svg width="14" height="14" viewBox="0 0 14 14" fill="none" xmlns="http://www.w3.org/2000/svg">
<g clip-path="url(#clip0_4478_663)">
<path d="M10.7771 10.3267C10.5167 10.3275 10.2587 10.2767 10.0181 10.1771C9.77755 10.0776 9.55908 9.93129 9.37537 9.74675L7.35041 7.72179C7.27878 7.6531 7.18337 7.61475 7.08412 7.61475C6.98487 7.61475 6.88946 7.6531 6.81783 7.72179L4.78552 9.75411C4.60186 9.93875 4.38341 10.0851 4.14281 10.1848C3.90222 10.2845 3.64424 10.3355 3.38381 10.3349H2.98438L5.54927 12.899C5.93389 13.2833 6.4554 13.4993 6.99917 13.4993C7.54294 13.4993 8.06445 13.2833 8.44907 12.899L11.0213 10.3267H10.7771Z" fill="#222222"/>
<path d="M3.38381 3.16439C3.64424 3.16375 3.90222 3.21474 4.14281 3.31443C4.38341 3.41412 4.60186 3.56052 4.78552 3.74516L6.81783 5.77829C6.88855 5.84872 6.9843 5.88827 7.08412 5.88827C7.18393 5.88827 7.27968 5.84872 7.35041 5.77829L9.37455 3.75333C9.55842 3.56874 9.77702 3.42238 10.0177 3.3227C10.2585 3.22301 10.5165 3.17199 10.7771 3.17255H11.0221L8.44907 0.600308C8.06445 0.215924 7.54293 0 6.99917 0C6.4554 0 5.93389 0.215924 5.54927 0.600308L2.98438 3.16439H3.38381Z" fill="#222222"/>
<path d="M13.1494 5.29944L11.5974 3.74744C11.5624 3.76187 11.525 3.76936 11.4871 3.76949H10.7806C10.4128 3.77137 10.0606 3.91811 9.80034 4.17791L7.77211 6.19879C7.58985 6.38085 7.34277 6.48312 7.08515 6.48312C6.82753 6.48312 6.58044 6.38085 6.39818 6.19879L4.36587 4.16648C4.10559 3.90668 3.7534 3.75993 3.38565 3.75805H2.51571C2.47983 3.75772 2.44433 3.75051 2.41116 3.73682L0.850985 5.29944C0.660461 5.48978 0.509319 5.7158 0.406198 5.96458C0.303078 6.21336 0.25 6.48003 0.25 6.74934C0.25 7.01865 0.303078 7.28532 0.406198 7.5341C0.509319 7.78289 0.660461 8.0089 0.850985 8.19924L2.41116 9.76023C2.44433 9.74654 2.47983 9.73933 2.51571 9.739H3.38484C3.75258 9.73712 4.10477 9.59037 4.36505 9.33057L6.39736 7.29826C6.58254 7.12178 6.82853 7.02333 7.08433 7.02333C7.34013 7.02333 7.58612 7.12178 7.7713 7.29826L9.79707 9.3224C10.0574 9.5822 10.4095 9.72895 10.7773 9.73083H11.4839C11.5217 9.73095 11.5592 9.73844 11.5941 9.75288L13.1461 8.20088C13.3367 8.01054 13.4878 7.78452 13.5909 7.53573C13.694 7.28695 13.7471 7.02028 13.7471 6.75097C13.7471 6.48167 13.694 6.215 13.5909 5.96622C13.4878 5.71743 13.3367 5.49141 13.1461 5.30107" fill="#222222"/>
</g>
<defs>
<clipPath id="clip0_4478_663">
<rect width="13.5" height="13.5" fill="white" transform="translate(0.25)"/>
</clipPath>
</defs>
</svg>
