<svg width="48" height="48" viewBox="0 0 48 48" fill="none" xmlns="http://www.w3.org/2000/svg">
<rect x="2.5" y="10.5" width="43" height="27" rx="1.5" stroke="#D6D0D0"/>
<rect x="2" y="10" width="44" height="28" rx="2" fill="#243B87"/>
<path d="M10.2027 19H6L7.28565 19.3214C7.75308 19.4383 8.17997 19.68 8.52067 20.0207C8.83519 20.3352 9.06577 20.7236 9.19127 21.1503L11.5 29H14.5L19 19H16L13 26L12.1014 20.6085C12.0355 20.2127 11.8475 19.8475 11.5638 19.5638C11.2028 19.2028 10.7132 19 10.2027 19Z" fill="white"/>
<path d="M20.96 19.0831H23.765L20.9603 28.9998H18.1553L20.96 19.0831Z" fill="white"/>
<path d="M27.4748 29.1981C26.6531 29.1981 25.8739 29.0989 25.1373 28.9006C24.4006 28.7023 23.8009 28.4473 23.3381 28.1356L24.4431 26.0389C24.9436 26.36 25.4773 26.6056 26.0439 26.7756C26.6106 26.9362 27.1773 27.0164 27.7439 27.0164C28.2823 27.0164 28.6978 26.9409 28.9906 26.7898C29.2928 26.6292 29.4439 26.412 29.4439 26.1381C29.4439 25.902 29.307 25.7178 29.0331 25.5856C28.7687 25.4534 28.3531 25.3117 27.7864 25.1606C27.1442 24.9906 26.6106 24.8206 26.1856 24.6506C25.7606 24.4712 25.3923 24.202 25.0806 23.8431C24.7784 23.4842 24.6273 23.012 24.6273 22.4264C24.6273 21.7181 24.8209 21.0995 25.2081 20.5706C25.5953 20.0323 26.1478 19.6167 26.8656 19.3239C27.5834 19.0312 28.4239 18.8848 29.3873 18.8848C30.0956 18.8848 30.7567 18.9603 31.3706 19.1114C31.9845 19.2531 32.5134 19.4609 32.9573 19.7348L31.9373 21.8173C31.55 21.5717 31.1203 21.3875 30.6481 21.2648C30.1853 21.1325 29.7084 21.0664 29.2173 21.0664C28.66 21.0664 28.2209 21.1562 27.8998 21.3356C27.5881 21.515 27.4323 21.7464 27.4323 22.0298C27.4323 22.2753 27.5692 22.4642 27.8431 22.5964C28.117 22.7287 28.542 22.8703 29.1181 23.0214C29.7603 23.182 30.2892 23.3473 30.7048 23.5173C31.1298 23.6873 31.4934 23.947 31.7956 24.2964C32.0978 24.6459 32.2489 25.1039 32.2489 25.6706C32.2489 26.3695 32.0506 26.9881 31.6539 27.5264C31.2667 28.0553 30.7095 28.4662 29.9823 28.7589C29.2645 29.0517 28.4286 29.1981 27.4748 29.1981Z" fill="white"/>
<path d="M40.0896 27.0731H35.868L34.7205 28.9998H31.7596L38.1205 19.0831H40.883L43.2771 28.9998H40.4863L40.0896 27.0731ZM39.6646 25.0048L38.9988 21.7889L37.1005 25.0048H39.6646Z" fill="white"/>
</svg>
