<svg width="81" height="80" viewBox="0 0 81 80" fill="none" xmlns="http://www.w3.org/2000/svg">
<circle cx="30.5" cy="30" r="30" fill="#FFF4F1"/>
<path fill-rule="evenodd" clip-rule="evenodd" d="M41.7404 32.1052H49.6614C50.9096 32.0087 53.8379 32.1631 55.5662 33.5519C57.2944 34.9408 59.8387 38.8567 60.8948 40.641L64.0632 46.1387C64.8793 47.5372 66.3675 51.0866 65.7915 54.0958C65.0714 57.8574 60.6068 65.3805 53.9819 66.9719C47.3571 68.5633 46.781 64.9465 46.781 63.4997C46.781 62.3423 49.2774 59.4488 50.5255 58.1467C49.3254 58.4843 46.2914 58.7254 43.7566 56.9893C41.2937 55.3024 39.3529 51.9544 38.3402 50.2074C38.0501 49.707 37.8361 49.3379 37.7079 49.1769C37.6927 49.1578 37.677 49.138 37.6607 49.1175C37.0627 48.3637 35.7748 46.7403 33.5313 47.5854C31.227 48.4535 31.8031 51.781 32.8112 53.6618C32.9968 54.008 33.1824 54.3297 33.3554 54.6296C34.1222 55.9589 34.6419 56.8598 33.8193 57.568C32.8112 58.4361 28.3466 59.1595 26.7624 59.1595C25.1782 59.1595 26.0423 60.4615 30.0749 61.7636C33.3009 62.8053 37.1797 62.7763 38.7159 62.6317C40.2521 62.487 43.5549 62.7185 44.4767 64.8018C45.6288 67.4059 44.2915 71.018 37.7079 71.6015C32.8113 72.0355 24.7461 70.2994 19.7055 66.2485C14.7058 62.2306 17.3572 53.8003 18.2439 50.9811L18.2653 50.913C18.9966 48.5866 21.6528 43.3256 23.1801 40.3006C23.4574 39.7514 23.6975 39.2758 23.8821 38.9049C23.9093 38.8502 23.9404 38.7862 23.9755 38.7138C24.684 37.2536 27.0415 32.3946 32.6672 32.3946C36.2997 32.3946 39.2341 32.2371 40.8345 32.1512C41.2145 32.1308 41.5193 32.1144 41.7404 32.1052ZM49.5278 53.1956C52.5454 53.1956 54.9917 50.8326 54.9917 47.9176C54.9917 45.0027 52.5454 42.6397 49.5278 42.6397C46.5102 42.6397 44.0639 45.0027 44.0639 47.9176C44.0639 50.8326 46.5102 53.1956 49.5278 53.1956Z" fill="#FED7CE"/>
<path d="M49.6614 32.1052V32.6052C49.6743 32.6052 49.6871 32.6047 49.6999 32.6037L49.6614 32.1052ZM41.7404 32.1052V31.6052C41.7334 31.6052 41.7264 31.6053 41.7195 31.6056L41.7404 32.1052ZM55.5662 33.5519L55.2529 33.9417L55.5662 33.5519ZM60.8948 40.641L61.3281 40.3914L61.3251 40.3864L60.8948 40.641ZM64.0632 46.1387L63.63 46.3884L63.6314 46.3907L64.0632 46.1387ZM65.7915 54.0958L66.2826 54.1898L65.7915 54.0958ZM53.9819 66.9719L53.8652 66.4857L53.9819 66.9719ZM50.5255 58.1467L50.8865 58.4927C51.0425 58.33 51.0703 58.0829 50.9543 57.8895C50.8383 57.6961 50.6072 57.6044 50.3901 57.6654L50.5255 58.1467ZM43.7566 56.9893L43.4741 57.4018L43.7566 56.9893ZM38.3402 50.2074L38.7727 49.9566L38.3402 50.2074ZM37.7079 49.1769L38.099 48.8654L38.099 48.8654L37.7079 49.1769ZM37.6607 49.1175L38.0525 48.8068L38.0524 48.8068L37.6607 49.1175ZM33.5313 47.5854L33.3551 47.1175L33.5313 47.5854ZM32.8112 53.6618L32.3706 53.898L32.3706 53.898L32.8112 53.6618ZM33.3554 54.6296L32.9223 54.8795H32.9223L33.3554 54.6296ZM33.8193 57.568L34.1456 57.9469L33.8193 57.568ZM30.0749 61.7636L29.9212 62.2394H29.9212L30.0749 61.7636ZM38.7159 62.6317L38.7628 63.1295L38.7159 62.6317ZM44.4767 64.8018L44.0194 65.0041L44.4767 64.8018ZM37.7079 71.6015L37.6637 71.1035L37.7079 71.6015ZM19.7055 66.2485L19.3923 66.6383L19.7055 66.2485ZM18.2439 50.9811L18.7208 51.1311L18.7208 51.1311L18.2439 50.9811ZM18.2653 50.913L18.7423 51.063L18.7423 51.0629L18.2653 50.913ZM23.1801 40.3006L23.6264 40.526L23.1801 40.3006ZM23.8821 38.9049L24.3297 39.1277L24.3297 39.1277L23.8821 38.9049ZM23.9755 38.7138L23.5257 38.4955L23.5257 38.4955L23.9755 38.7138ZM40.8345 32.1512L40.8077 31.6519L40.8345 32.1512ZM49.6614 31.6052H41.7404V32.6052H49.6614V31.6052ZM55.8794 33.1622C54.9227 32.3933 53.6652 31.9866 52.5229 31.7796C51.3742 31.5714 50.2871 31.5553 49.6229 31.6067L49.6999 32.6037C50.2839 32.5586 51.285 32.5715 52.3446 32.7635C53.4106 32.9568 54.4814 33.3217 55.2529 33.9417L55.8794 33.1622ZM61.3251 40.3864C60.7909 39.4837 59.8829 38.0463 58.8892 36.6573C57.9053 35.2819 56.8025 33.9041 55.8794 33.1622L55.2529 33.9417C56.058 34.5887 57.0916 35.8632 58.0759 37.2391C59.0504 38.6013 59.9427 40.014 60.4646 40.8957L61.3251 40.3864ZM64.4964 45.889L61.328 40.3914L60.4616 40.8907L63.63 46.3884L64.4964 45.889ZM66.2826 54.1898C66.5908 52.5794 66.3437 50.8552 65.931 49.3786C65.5171 47.898 64.924 46.6217 64.4951 45.8867L63.6314 46.3907C64.0186 47.0542 64.5777 48.2518 64.9679 49.6478C65.3592 51.0479 65.5682 52.603 65.3004 54.0018L66.2826 54.1898ZM54.0987 67.4581C57.5575 66.6272 60.4174 64.2597 62.4919 61.6595C64.5638 59.0623 65.9038 56.1683 66.2826 54.1898L65.3004 54.0018C64.959 55.7849 63.7067 58.5332 61.7101 61.0359C59.716 63.5354 57.0312 65.7252 53.8652 66.4857L54.0987 67.4581ZM46.281 63.4997C46.281 64.2642 46.4284 65.7128 47.5603 66.7446C48.711 67.7935 50.7164 68.2706 54.0987 67.4581L53.8652 66.4857C50.6226 67.2647 49.0276 66.729 48.234 66.0056C47.4217 65.2652 47.281 64.182 47.281 63.4997H46.281ZM50.1646 57.8007C49.5311 58.4616 48.5814 59.5254 47.7865 60.5757C47.3896 61.1002 47.0233 61.6317 46.754 62.1145C46.4977 62.5737 46.281 63.0706 46.281 63.4997H47.281C47.281 63.3502 47.3764 63.0513 47.6272 62.6018C47.8649 62.1758 48.2007 61.6855 48.5839 61.1792C49.3492 60.1679 50.2718 59.134 50.8865 58.4927L50.1646 57.8007ZM43.4741 57.4018C46.1703 59.2486 49.3714 58.9908 50.6609 58.6281L50.3901 57.6654C49.2794 57.9778 46.4124 58.2023 44.0392 56.5768L43.4741 57.4018ZM37.9076 50.4582C38.4135 51.3309 39.1634 52.6252 40.1 53.9147C41.0334 55.1998 42.1739 56.5113 43.4741 57.4018L44.0392 56.5768C42.8764 55.7804 41.8151 54.5744 40.9091 53.3271C40.0064 52.0841 39.2796 50.831 38.7727 49.9566L37.9076 50.4582ZM37.3167 49.4884C37.4154 49.6122 37.6044 49.9352 37.9076 50.4582L38.7727 49.9566C38.4957 49.4788 38.2569 49.0637 38.099 48.8654L37.3167 49.4884ZM37.269 49.4283C37.2852 49.4487 37.3012 49.4688 37.3167 49.4884L38.099 48.8654C38.0841 48.8467 38.0687 48.8273 38.0525 48.8068L37.269 49.4283ZM33.7076 48.0533C34.6768 47.6882 35.403 47.8586 35.9614 48.1839C36.5471 48.5251 36.9666 49.0471 37.269 49.4283L38.0524 48.8068C37.7568 48.4342 37.2333 47.7675 36.4647 47.3198C35.6688 46.8562 34.6293 46.6375 33.3551 47.1175L33.7076 48.0533ZM33.2519 53.4256C32.7791 52.5435 32.4126 51.3249 32.4291 50.2515C32.4454 49.1847 32.8244 48.386 33.7076 48.0533L33.3551 47.1175C31.9339 47.6529 31.4488 48.9521 31.4292 50.2362C31.4096 51.5137 31.8352 52.8993 32.3706 53.898L33.2519 53.4256ZM33.7885 54.3798C33.6151 54.0792 33.4333 53.7639 33.2519 53.4256L32.3706 53.898C32.5604 54.2521 32.7497 54.5803 32.9223 54.8795L33.7885 54.3798ZM34.1456 57.9469C34.4138 57.716 34.5993 57.4443 34.6846 57.1266C34.7684 56.8144 34.7432 56.5024 34.6677 56.2076C34.5238 55.6458 34.158 55.0203 33.7885 54.3798L32.9223 54.8795C33.3196 55.5683 33.597 56.0578 33.699 56.4558C33.7464 56.641 33.7449 56.7701 33.7188 56.8674C33.6941 56.9595 33.6361 57.066 33.4931 57.1891L34.1456 57.9469ZM26.7624 59.6595C27.6018 59.6595 29.1505 59.4718 30.6054 59.1795C31.3367 59.0325 32.0589 58.8563 32.6685 58.6585C33.2567 58.4676 33.8109 58.2351 34.1456 57.9469L33.4931 57.1891C33.3237 57.335 32.9418 57.5184 32.3598 57.7073C31.7993 57.8892 31.1174 58.0566 30.4084 58.1991C28.9829 58.4855 27.5073 58.6595 26.7624 58.6595V59.6595ZM30.2285 61.2878C28.2237 60.6405 27.0905 60.0164 26.6539 59.6081C26.5476 59.5086 26.5138 59.4501 26.5078 59.4367C26.5058 59.4323 26.5411 59.5186 26.4821 59.6252C26.4341 59.7122 26.3757 59.7136 26.4359 59.6945C26.4892 59.6775 26.593 59.6595 26.7624 59.6595V58.6595C26.5359 58.6595 26.32 58.6821 26.1332 58.7414C25.9531 58.7986 25.7339 58.9119 25.607 59.1413C25.4693 59.3903 25.508 59.6496 25.5943 59.8435C25.6767 60.0285 25.8161 60.1937 25.9708 60.3384C26.5784 60.9066 27.8935 61.5847 29.9212 62.2394L30.2285 61.2878ZM38.669 62.1339C37.1689 62.2751 33.3653 62.3006 30.2285 61.2878L29.9212 62.2394C33.2365 63.3099 37.1906 63.2775 38.7628 63.1295L38.669 62.1339ZM44.9339 64.5995C44.3818 63.3516 43.144 62.713 41.9548 62.3979C40.7526 62.0793 39.4817 62.0573 38.669 62.1339L38.7628 63.1295C39.4863 63.0613 40.635 63.0827 41.6987 63.3645C42.7753 63.6498 43.6498 64.1686 44.0194 65.0041L44.9339 64.5995ZM37.752 72.0996C41.1198 71.8011 43.2572 70.7186 44.3877 69.2665C45.5281 67.8018 45.5748 66.0481 44.9339 64.5995L44.0194 65.0041C44.5306 66.1596 44.4848 67.514 43.5986 68.6522C42.7026 69.8031 40.8795 70.8184 37.6637 71.1035L37.752 72.0996ZM19.3923 66.6383C21.9816 68.7192 25.3267 70.1912 28.6295 71.0894C31.9317 71.9874 35.2325 72.3229 37.752 72.0996L37.6637 71.1035C35.2867 71.3142 32.1066 70.9986 28.8919 70.1244C25.6778 69.2503 22.47 67.8288 20.0187 65.8588L19.3923 66.6383ZM17.7669 50.8311C17.3242 52.2388 16.4202 55.1068 16.2679 58.1402C16.116 61.1655 16.7073 64.4805 19.3923 66.6383L20.0187 65.8588C17.704 63.9986 17.1211 61.0895 17.2667 58.1903C17.4118 55.2993 18.2769 52.5425 18.7208 51.1311L17.7669 50.8311ZM17.7883 50.763L17.7669 50.8311L18.7208 51.1311L18.7423 51.063L17.7883 50.763ZM22.7337 40.0753C21.9704 41.5871 20.9221 43.6635 19.9729 45.6535C19.0285 47.6335 18.1662 49.5611 17.7883 50.763L18.7423 51.0629C19.0958 49.9384 19.9271 48.0724 20.8755 46.084C21.8191 44.1057 22.8624 42.0392 23.6264 40.526L22.7337 40.0753ZM23.4345 38.6821C23.2506 39.0514 23.0113 39.5255 22.7337 40.0753L23.6264 40.526C23.9035 39.9772 24.1443 39.5002 24.3297 39.1277L23.4345 38.6821ZM23.5257 38.4955C23.4902 38.5686 23.4603 38.6302 23.4345 38.6821L24.3297 39.1277C24.3583 39.0703 24.3906 39.0037 24.4254 38.932L23.5257 38.4955ZM32.6672 31.8946C26.7029 31.8946 24.2242 37.0557 23.5257 38.4955L24.4254 38.932C25.1437 37.4515 27.3801 32.8946 32.6672 32.8946V31.8946ZM40.8077 31.6519C39.2089 31.7377 36.2856 31.8946 32.6672 31.8946V32.8946C36.3137 32.8946 39.2592 32.7365 40.8613 32.6505L40.8077 31.6519ZM41.7195 31.6056C41.4947 31.615 41.1864 31.6316 40.8077 31.6519L40.8613 32.6505C41.2426 32.63 41.5439 32.6139 41.7613 32.6048L41.7195 31.6056ZM54.4917 47.9176C54.4917 50.5402 52.2858 52.6956 49.5278 52.6956V53.6956C52.8051 53.6956 55.4917 51.1249 55.4917 47.9176H54.4917ZM49.5278 43.1397C52.2858 43.1397 54.4917 45.295 54.4917 47.9176H55.4917C55.4917 44.7104 52.8051 42.1397 49.5278 42.1397V43.1397ZM44.5639 47.9176C44.5639 45.295 46.7699 43.1397 49.5278 43.1397V42.1397C46.2505 42.1397 43.5639 44.7104 43.5639 47.9176H44.5639ZM49.5278 52.6956C46.7699 52.6956 44.5639 50.5402 44.5639 47.9176H43.5639C43.5639 51.1249 46.2505 53.6956 49.5278 53.6956V52.6956Z" fill="#292929"/>
<ellipse cx="41.3296" cy="18.8889" rx="10.9278" ry="10.5559" fill="#FED7CE" stroke="#292929" stroke-miterlimit="10" stroke-linecap="round" stroke-linejoin="round"/>
</svg>
