<svg width="80" height="80" viewBox="0 0 80 80" fill="none" xmlns="http://www.w3.org/2000/svg">
<circle cx="30" cy="30" r="30" fill="#F7F4F9"/>
<path d="M53.3333 25.0456C53.3333 32.435 46.9907 38.4253 39.1667 38.4253C31.3426 38.4253 25 32.435 25 25.0456C25 17.6563 31.3426 11.666 39.1667 11.666C46.9907 11.666 53.3333 17.6563 53.3333 25.0456Z" stroke="#292929"/>
<path d="M39.1666 6.66602C30.4244 6.66602 23.3333 14.2904 23.3333 23.6898L23.3333 24.9993L42.8204 24.9993L43.4429 24.9993L45.2563 17.1422L47.0968 24.9993L54.9999 24.9993L54.9999 23.6898C54.9999 14.2904 47.9088 6.66602 39.1666 6.66602Z" fill="#F7F4F9" stroke="#292929"/>
<path d="M18.3333 64.1654C18.3333 52.6594 27.6607 43.332 39.1666 43.332V43.332C50.6725 43.332 59.9999 52.6594 59.9999 64.1654V69.9987H18.3333V64.1654Z" stroke="#292929"/>
<path d="M46.6665 45V51.6667" stroke="#292929"/>
<path d="M31.6665 45V51.6667" stroke="#292929"/>
<ellipse cx="31.6666" cy="54.9994" rx="3.33333" ry="3.33334" stroke="#292929"/>
<path d="M49.9999 58.3327C49.9999 54.6508 49.1666 51.666 46.6666 51.666C44.1666 51.666 43.3333 54.6508 43.3333 58.3327" stroke="#292929"/>
</svg>
