<svg width="80" height="80" viewBox="0 0 80 80" fill="none" xmlns="http://www.w3.org/2000/svg">
<circle cx="30" cy="30" r="30" fill="#F7F4F9"/>
<path d="M13.3335 25H40.8335" stroke="#292929"/>
<path d="M13.3335 45H26.6668" stroke="#292929"/>
<path d="M13.3335 35H30.8335" stroke="#292929"/>
<path d="M55.8335 55.832L69.1668 69.1654" stroke="#292929"/>
<path d="M61.1667 45C61.1667 53.0081 54.6749 59.5 46.6667 59.5C38.6586 59.5 32.1667 53.0081 32.1667 45C32.1667 36.9919 38.6586 30.5 46.6667 30.5C54.6749 30.5 61.1667 36.9919 61.1667 45Z" stroke="#292929" stroke-linecap="round"/>
<path fill-rule="evenodd" clip-rule="evenodd" d="M7.66675 12.666H50.6667V30.5386C51.005 30.6319 51.3385 30.7369 51.6667 30.8529V12.666V11.666H50.6667H7.66675H6.66675V12.666V63.9994V64.9994H7.66675H50.6667H51.6667V63.9994V59.1458C51.3385 59.2618 51.005 59.3668 50.6667 59.4601V63.9994H7.66675V12.666ZM50.6667 57.3724C51.0064 57.2626 51.34 57.1393 51.6667 57.003V32.9957C51.34 32.8594 51.0064 32.7361 50.6667 32.6263V57.3724Z" fill="#292929"/>
</svg>
