<svg width="80" height="80" viewBox="0 0 80 80" fill="none" xmlns="http://www.w3.org/2000/svg">
<circle cx="30" cy="30" r="30" fill="#F7F4F9"/>
<path fill-rule="evenodd" clip-rule="evenodd" d="M57.4102 20.2749L61.3104 26.6143L65.329 34.0468C65.6266 33.8964 65.9369 33.7676 66.258 33.6625L62.1768 26.1141L58.1649 19.5931C57.9311 19.8389 57.6788 20.0669 57.4102 20.2749ZM61.3104 52.0139L64.7618 45.6305C65.0422 45.8087 65.3368 45.9666 65.6436 46.102L62.1768 52.5141L58.274 58.8577C58.0451 58.6051 57.797 58.3701 57.5322 58.1551L61.3104 52.0139ZM46.769 64.5053L39.3137 64.7137L31.565 64.4971C31.5051 64.8378 31.4192 65.1696 31.3096 65.4904L39.3137 65.7141L47.0258 65.4985C46.9157 65.1778 46.8294 64.846 46.769 64.5053ZM17.317 52.0139L20.9995 57.9995C20.7286 58.2031 20.4736 58.4268 20.2369 58.6684L16.4506 52.5141L12.9245 45.9924C13.2257 45.8451 13.5142 45.6758 13.7878 45.4865L17.317 52.0139ZM13.2327 34.1683L17.317 26.6143L21.1245 20.4254C20.8499 20.2289 20.5907 20.012 20.3494 19.777L16.4506 26.1141L12.3225 33.7492C12.6379 33.8664 12.9419 34.0068 13.2327 34.1683ZM46.7236 14.1216C46.7684 13.7813 46.8389 13.4491 46.933 13.127L39.3137 12.9141L31.402 13.1352C31.4956 13.4573 31.5656 13.7895 31.61 14.1298L39.3137 13.9145L46.7236 14.1216Z" fill="#292929"/>
<path d="M31.1666 15.0007C31.1666 18.4064 28.4057 21.1673 24.9999 21.1673C21.5942 21.1673 18.8333 18.4064 18.8333 15.0007C18.8333 11.5949 21.5942 8.83398 24.9999 8.83398C28.4057 8.83398 31.1666 11.5949 31.1666 15.0007Z" stroke="#292929" stroke-linecap="round"/>
<path d="M59.4998 15.0007C59.4998 18.4064 56.7389 21.1673 53.3332 21.1673C49.9274 21.1673 47.1665 18.4064 47.1665 15.0007C47.1665 11.5949 49.9274 8.83398 53.3332 8.83398C56.7389 8.83398 59.4998 11.5949 59.4998 15.0007Z" stroke="#292929" stroke-linecap="round"/>
<path d="M74.4998 40.0007C74.4998 43.4064 71.7389 46.1673 68.3332 46.1673C64.9274 46.1673 62.1665 43.4064 62.1665 40.0007C62.1665 36.5949 64.9274 33.834 68.3332 33.834C71.7389 33.834 74.4998 36.5949 74.4998 40.0007Z" stroke="#292929" stroke-linecap="round"/>
<path d="M59.4998 63.3346C59.4998 66.7404 56.7389 69.5013 53.3332 69.5013C49.9274 69.5013 47.1665 66.7404 47.1665 63.3346C47.1665 59.9289 49.9274 57.168 53.3332 57.168C56.7389 57.168 59.4998 59.9289 59.4998 63.3346Z" stroke="#292929" stroke-linecap="round"/>
<path d="M31.1666 63.3346C31.1666 66.7404 28.4057 69.5013 24.9999 69.5013C21.5942 69.5013 18.8333 66.7404 18.8333 63.3346C18.8333 59.9289 21.5942 57.168 24.9999 57.168C28.4057 57.168 31.1666 59.9289 31.1666 63.3346Z" stroke="#292929" stroke-linecap="round"/>
<path d="M16.1666 40.0006C16.1666 43.4064 13.4057 46.1673 9.99992 46.1673C6.59416 46.1673 3.83325 43.4064 3.83325 40.0006C3.83325 36.5949 6.59416 33.834 9.99992 33.834C13.4057 33.834 16.1666 36.5949 16.1666 40.0006Z" stroke="#292929" stroke-linecap="round"/>
</svg>
