<svg width="33" height="34" viewBox="0 0 33 34" fill="none" xmlns="http://www.w3.org/2000/svg">
<path fill-rule="evenodd" clip-rule="evenodd" d="M28.003 5.47837C24.9547 2.42908 20.8902 0.753906 16.5621 0.753906C7.64976 0.753906 0.389618 7.97956 0.381862 16.8495C0.381862 19.6904 1.12649 22.454 2.53819 24.9012L0.25 33.2462L8.82876 31.0075C11.1945 32.2889 13.855 32.9683 16.5621 32.9683H16.5698C25.4821 32.9683 32.7422 25.7426 32.75 16.8649C32.7422 12.5651 31.0591 8.51994 28.003 5.47837ZM16.5621 30.2432C14.142 30.2432 11.7763 29.5947 9.71301 28.375L9.22434 28.0817L4.13604 29.4095L5.49344 24.4689L5.17542 23.9594C3.82578 21.8287 3.11993 19.3661 3.11993 16.8418C3.11993 9.47718 9.15453 3.47124 16.5698 3.47124C20.1611 3.47124 23.5352 4.86851 26.0794 7.39286C28.6158 9.92492 30.0119 13.283 30.0119 16.8572C30.0042 24.245 23.9696 30.2432 16.5621 30.2432ZM23.9385 20.223C23.5352 20.0223 21.5495 19.0496 21.1772 18.9107C20.8049 18.7794 20.5334 18.71 20.2697 19.1114C19.9982 19.5128 19.2226 20.4237 18.9899 20.6862C18.7572 20.9564 18.5167 20.9873 18.1134 20.7866C17.71 20.5858 16.4069 20.1613 14.8634 18.7871C13.6611 17.7218 12.8544 16.4018 12.614 16.0003C12.3813 15.5989 12.5907 15.3828 12.7924 15.182C12.9708 15.0045 13.1957 14.7111 13.3974 14.4796C13.599 14.248 13.6689 14.0781 13.8007 13.8079C13.9326 13.5377 13.8705 13.3062 13.7697 13.1054C13.6689 12.9047 12.8622 10.9208 12.5209 10.1179C12.1951 9.3305 11.8616 9.43858 11.6134 9.43086C11.3807 9.41542 11.1092 9.41542 10.8377 9.41542C10.5662 9.41542 10.1319 9.51578 9.75955 9.9172C9.38723 10.3186 8.34785 11.2913 8.34785 13.2753C8.34785 15.2592 9.79833 17.166 10 17.4362C10.2017 17.7064 12.8467 21.767 16.9033 23.5116C17.8652 23.9285 18.6175 24.1755 19.207 24.3608C20.1766 24.6696 21.0531 24.6233 21.7512 24.5229C22.5268 24.4071 24.1402 23.5502 24.4815 22.6084C24.815 21.6666 24.815 20.8638 24.7142 20.6939C24.6134 20.5241 24.3419 20.4237 23.9385 20.223Z" fill="white"/>
</svg>
