<svg width="48" height="48" viewBox="0 0 48 48" fill="none" xmlns="http://www.w3.org/2000/svg">
<circle cx="18" cy="18" r="18" fill="#E3ECE8"/>
<path d="M39.5 28.6154C39.5 36.8641 33.6966 43.5 25 43.5C16.3034 43.5 10.5 36.8641 10.5 28.6154C10.5 22.9198 14.1497 16.8833 17.8903 12.2108C19.7501 9.88784 21.6111 7.92781 23.0076 6.54837C23.7056 5.85895 24.2867 5.3153 24.6926 4.94465C24.8124 4.83525 24.9169 4.74095 25.0047 4.66243C25.0914 4.73799 25.1945 4.82847 25.3123 4.93323C25.7179 5.29392 26.2987 5.82382 26.9963 6.49795C28.3921 7.8468 30.2523 9.77007 32.1113 12.0681C35.8484 16.688 39.5 22.7256 39.5 28.6154Z" stroke="#292929"/>
</svg>
