<svg width="181" height="54" viewBox="0 0 181 54" fill="none" xmlns="http://www.w3.org/2000/svg">
<path d="M173.833 53.666H7.16667C3.5 53.666 0.5 50.666 0.5 46.9993V6.99935C0.5 3.33268 3.5 0.332687 7.16667 0.332687H173.833C177.5 0.332687 180.5 3.33268 180.5 6.99935V46.9993C180.5 50.666 177.5 53.666 173.833 53.666Z" fill="black"/>
<path d="M173.833 0.332687H7.16667C3.5 0.332687 0.5 3.33268 0.5 6.99935V46.9993C0.5 50.666 3.5 53.666 7.16667 53.666H173.833C177.5 53.666 180.5 50.666 180.5 46.9993V6.99935C180.5 3.33268 177.5 0.332687 173.833 0.332687ZM173.833 1.39935C176.921 1.39935 179.433 3.91188 179.433 6.99935V46.9993C179.433 50.0873 176.921 52.5999 173.833 52.5999H7.16667C4.0792 52.5999 1.56667 50.0873 1.56667 46.9993V6.99935C1.56667 3.91188 4.0792 1.39935 7.16667 1.39935H173.833Z" fill="#A6A6A6"/>
<path d="M143.081 40.3326H145.569V23.6644H143.081V40.3326ZM165.491 29.6686L162.639 36.8952H162.553L159.593 29.6686H156.913L161.352 39.769L158.821 45.3873H161.417L168.257 29.6686H165.491ZM151.381 38.4394C150.565 38.4394 149.429 38.0321 149.429 37.0238C149.429 35.7373 150.845 35.2441 152.067 35.2441C153.161 35.2441 153.675 35.48 154.34 35.802C154.147 37.3457 152.817 38.4394 151.381 38.4394ZM151.681 29.304C149.88 29.304 148.015 30.0977 147.243 31.8561L149.451 32.778C149.923 31.8561 150.801 31.5556 151.724 31.5556C153.011 31.5556 154.319 32.328 154.34 33.7004V33.8717C153.889 33.6144 152.925 33.2285 151.745 33.2285C149.365 33.2285 146.941 34.5362 146.941 36.981C146.941 39.2113 148.893 40.6482 151.08 40.6482C152.753 40.6482 153.675 39.8977 154.255 39.0186H154.34V40.305H156.741V33.9144C156.741 30.9556 154.533 29.304 151.681 29.304ZM136.305 31.6977H132.767V25.9842H136.305C138.165 25.9842 139.221 27.5242 139.221 28.8409C139.221 30.1326 138.165 31.6977 136.305 31.6977ZM136.241 23.6644H130.28V40.3326H132.767V34.0176H136.241C138.999 34.0176 141.709 32.0212 141.709 28.8409C141.709 25.6608 138.999 23.6644 136.241 23.6644ZM103.733 38.4425C102.015 38.4425 100.575 37.0034 100.575 35.0269C100.575 33.0296 102.015 31.5686 103.733 31.5686C105.43 31.5686 106.762 33.0296 106.762 35.0269C106.762 37.0034 105.43 38.4425 103.733 38.4425ZM106.59 30.602H106.504C105.946 29.9362 104.871 29.3348 103.518 29.3348C100.683 29.3348 98.0839 31.8264 98.0839 35.0269C98.0839 38.2061 100.683 40.6764 103.518 40.6764C104.871 40.6764 105.946 40.0748 106.504 39.3878H106.59V40.204C106.59 42.3738 105.43 43.5337 103.561 43.5337C102.036 43.5337 101.091 42.4378 100.704 41.5144L98.5349 42.4165C99.1579 43.9201 100.812 45.7676 103.561 45.7676C106.483 45.7676 108.953 44.0488 108.953 39.8602V29.6785H106.59V30.602ZM110.671 40.3326H113.163V23.6638H110.671V40.3326ZM116.836 34.8337C116.772 32.6425 118.533 31.5258 119.801 31.5258C120.789 31.5258 121.627 32.0196 121.905 32.729L116.836 34.8337ZM124.569 32.9436C124.097 31.6758 122.657 29.3348 119.715 29.3348C116.793 29.3348 114.366 31.6332 114.366 35.0056C114.366 38.1848 116.772 40.6764 119.994 40.6764C122.593 40.6764 124.097 39.0868 124.72 38.1633L122.787 36.8742C122.143 37.8196 121.261 38.4425 119.994 38.4425C118.727 38.4425 117.825 37.8624 117.244 36.7242L124.827 33.5878L124.569 32.9436ZM64.1584 31.0748V33.4805H69.9151C69.7432 34.8337 69.2921 35.8217 68.6047 36.5092C67.7672 37.3472 66.4568 38.2706 64.1584 38.2706C60.614 38.2706 57.8432 35.4138 57.8432 31.8696C57.8432 28.3253 60.614 25.4681 64.1584 25.4681C66.0703 25.4681 67.4661 26.2201 68.4973 27.1868L70.1943 25.49C68.7552 24.1149 66.8432 23.0624 64.1584 23.0624C59.3036 23.0624 55.2224 27.0149 55.2224 31.8696C55.2224 36.7242 59.3036 40.6764 64.1584 40.6764C66.7792 40.6764 68.7552 39.8176 70.3016 38.2061C71.8912 36.6165 72.3855 34.3826 72.3855 32.5785C72.3855 32.0196 72.3427 31.5045 72.2563 31.0748H64.1584ZM78.9303 38.4425C77.2115 38.4425 75.7292 37.0248 75.7292 35.0056C75.7292 32.9649 77.2115 31.5686 78.9303 31.5686C80.6484 31.5686 82.1307 32.9649 82.1307 35.0056C82.1307 37.0248 80.6484 38.4425 78.9303 38.4425ZM78.9303 29.3348C75.7937 29.3348 73.2375 31.719 73.2375 35.0056C73.2375 38.2706 75.7937 40.6764 78.9303 40.6764C82.0661 40.6764 84.6224 38.2706 84.6224 35.0056C84.6224 31.719 82.0661 29.3348 78.9303 29.3348ZM91.3479 38.4425C89.6297 38.4425 88.1473 37.0248 88.1473 35.0056C88.1473 32.9649 89.6297 31.5686 91.3479 31.5686C93.0661 31.5686 94.5484 32.9649 94.5484 35.0056C94.5484 37.0248 93.0661 38.4425 91.3479 38.4425ZM91.3479 29.3348C88.2115 29.3348 85.6557 31.719 85.6557 35.0056C85.6557 38.2706 88.2115 40.6764 91.3479 40.6764C94.4839 40.6764 97.0401 38.2706 97.0401 35.0056C97.0401 31.719 94.4839 29.3348 91.3479 29.3348Z" fill="white"/>
<path d="M14.513 43.5195L14.4139 43.4247C14.0259 43.0142 13.7969 42.3767 13.7969 41.5513V41.7455V12.2575C13.7969 12.2549 13.7969 12.2529 13.7969 12.2507C13.7969 12.2533 13.7969 12.2554 13.7969 12.2581V12.4529C13.7969 11.559 14.0639 10.8857 14.5114 10.4819L31.0311 27.0013L14.513 43.5195ZM13.7969 12.2491C13.7969 12.1757 13.7989 12.1043 13.8026 12.0341C13.7989 12.1038 13.7969 12.1757 13.7969 12.2491ZM13.8026 12.0309C13.8026 12.0299 13.8026 12.0289 13.803 12.0278C13.8026 12.0289 13.8026 12.0299 13.8026 12.0309ZM13.803 12.0215C13.803 12.021 13.803 12.0205 13.803 12.0199C13.803 12.0205 13.803 12.021 13.803 12.0215Z" fill="url(#paint0_linear)"/>
<path d="M36.537 32.7031L36.6626 32.6318L43.1865 28.925C43.8085 28.5714 44.223 28.1427 44.4298 27.6891C44.2235 28.1427 43.8089 28.5719 43.1865 28.9255L36.6626 32.6323L36.537 32.7031ZM36.5386 32.5078L31.0312 26.9995L36.538 21.4922L43.1865 25.2693C44.0307 25.749 44.5047 26.3673 44.5839 26.999C44.5839 26.9995 44.5839 27.0006 44.5839 27.0015C44.5047 27.6318 44.0307 28.2506 43.1865 28.7302L36.5386 32.5078Z" fill="url(#paint1_linear)"/>
<path d="M15.6906 44.1484C15.2292 44.1484 14.8265 43.9984 14.5125 43.7151L14.513 43.7146C14.827 43.9979 15.2302 44.1484 15.6917 44.1484C15.7317 44.1484 15.7724 44.1474 15.8136 44.1454C15.7718 44.1474 15.7306 44.1484 15.6906 44.1484ZM15.6912 43.9531C15.2297 43.9536 14.827 43.8031 14.513 43.5198V43.5194L31.0312 27.0011L36.5385 32.5094L17.1849 43.5058C16.6494 43.8094 16.1421 43.9531 15.6912 43.9531ZM14.5084 43.7115C14.4792 43.685 14.4505 43.6568 14.4224 43.6276L14.5084 43.7115Z" fill="url(#paint2_linear)"/>
<path d="M31.0312 27L14.5115 10.4807C14.8255 10.1979 15.2276 10.0479 15.6885 10.0479C16.1407 10.0479 16.6484 10.1921 17.1849 10.4963L36.538 21.4927L31.0312 27ZM36.6625 21.3683L17.1849 10.3016C16.6484 9.99733 16.1407 9.85307 15.6885 9.85307C15.6864 9.85307 15.6849 9.85307 15.6828 9.85307C15.6855 9.85307 15.6875 9.85307 15.6907 9.85307C16.1417 9.85307 16.6489 9.9968 17.1849 10.3011L36.6625 21.3683Z" fill="url(#paint3_linear)"/>
<path d="M15.8137 44.1445C16.2329 44.1205 16.697 43.9763 17.185 43.6997L36.537 32.7039L17.185 43.6997C16.6974 43.9768 16.2329 44.1205 15.8137 44.1445ZM14.5126 43.7143L14.5085 43.7107C14.5099 43.7117 14.5115 43.7132 14.5126 43.7143ZM14.4225 43.6268L14.4141 43.6185V43.618C14.4173 43.6211 14.4198 43.6241 14.4225 43.6268Z" fill="black"/>
<path d="M36.5369 32.7031L36.6625 32.6318L36.5369 32.7031Z" fill="url(#paint4_linear)"/>
<path d="M15.6918 44.1484C15.2303 44.1484 14.8271 43.9979 14.5131 43.7146L14.5126 43.7151C14.5115 43.714 14.5099 43.7126 14.5085 43.7115L14.4225 43.6276C14.4198 43.625 14.4173 43.6219 14.4141 43.6188L14.5131 43.5198C14.8271 43.8031 15.2298 43.9536 15.6913 43.9531C16.1422 43.9531 16.6495 43.8094 17.185 43.5058L36.5386 32.5094L36.6626 32.6334L36.537 32.7047L17.185 43.7006C16.697 43.9771 16.2329 44.1214 15.8137 44.1454C15.7725 44.1474 15.7318 44.1484 15.6918 44.1484Z" fill="url(#paint5_linear)"/>
<path d="M14.4139 43.6191C14.0259 43.2086 13.7969 42.5711 13.7969 41.7457V41.7451C13.7969 42.5711 14.0259 43.2081 14.4139 43.6186V43.6191Z" fill="black"/>
<path d="M14.4139 43.6172C14.0259 43.2067 13.7969 42.5697 13.7969 41.7437V41.5495C13.7969 42.3749 14.0259 43.0124 14.4139 43.4229L14.513 43.5177L14.4139 43.6172Z" fill="url(#paint6_linear)"/>
<path d="M14.4141 43.6172L14.5131 43.5177V43.5181L14.4141 43.6172Z" fill="url(#paint7_linear)"/>
<path d="M44.4297 27.6895C44.5322 27.4644 44.5838 27.2332 44.5838 27.0019C44.5838 27.0015 44.5838 27.0009 44.5838 27.0009C44.5838 27.2327 44.5322 27.4639 44.4297 27.6895Z" fill="black"/>
<path d="M36.6626 32.6328L36.5386 32.5088L43.1864 28.7312C44.0307 28.2516 44.5047 27.6328 44.5839 27.0025C44.5839 27.2339 44.5323 27.4651 44.4298 27.6901C44.223 28.1437 43.8084 28.5724 43.1864 28.926L36.6626 32.6328Z" fill="url(#paint8_linear)"/>
<path d="M44.584 27V26.9995C44.5834 26.302 44.1173 25.6047 43.1865 25.0755L36.6626 21.3687H36.6621L36.6626 21.3683L43.1865 25.0749C44.1184 25.6041 44.585 26.3025 44.584 27Z" fill="#404040"/>
<path d="M44.584 27C44.5048 26.3683 44.0308 25.75 43.1865 25.2703L36.5381 21.4932L36.6621 21.3692H36.6626L43.1865 25.076C44.1173 25.6052 44.5834 26.3025 44.584 27Z" fill="url(#paint9_linear)"/>
<path d="M13.7969 12.25C13.7969 12.2495 13.7969 12.2489 13.7969 12.2484C13.7969 12.2489 13.7969 12.2495 13.7969 12.25ZM13.8026 12.0333C13.8026 12.0323 13.8026 12.0312 13.8026 12.0301C13.8026 12.0312 13.8026 12.0323 13.8026 12.0333ZM13.803 12.0271C13.803 12.0249 13.803 12.0229 13.803 12.0208C13.803 12.0229 13.803 12.0249 13.803 12.0271ZM13.803 12.0192C13.8802 10.6495 14.625 9.85827 15.6786 9.8536C15.2218 9.85627 14.8239 10.0063 14.5125 10.2869V10.2864L14.5087 10.2901C14.4759 10.3197 14.4447 10.3511 14.4139 10.3833C14.0639 10.7536 13.8431 11.3083 13.803 12.0192Z" fill="#404040"/>
<path d="M13.7969 12.4512V12.2564C13.7969 12.2537 13.7969 12.2516 13.7969 12.249C13.7969 12.2485 13.7969 12.248 13.7969 12.2474C13.7969 12.174 13.7989 12.1021 13.8026 12.0324C13.8026 12.0313 13.8026 12.0302 13.8026 12.0292C13.8026 12.0282 13.8026 12.0272 13.803 12.0261C13.803 12.024 13.803 12.022 13.803 12.0198C13.803 12.0193 13.803 12.0188 13.803 12.0182C13.8431 11.3073 14.0639 10.7526 14.4139 10.3824L14.5114 10.4802C14.0639 10.884 13.7969 11.5573 13.7969 12.4512ZM14.5087 10.2892L14.5125 10.2854C14.5114 10.287 14.5098 10.2881 14.5087 10.2892Z" fill="url(#paint10_linear)"/>
<path d="M36.5381 21.4922L17.185 10.4958C16.6485 10.1917 16.1407 10.0474 15.6886 10.0474C15.2277 10.0474 14.8255 10.1974 14.5115 10.4802L14.4141 10.3823C14.4449 10.3501 14.4761 10.3187 14.5089 10.2891C14.5099 10.2881 14.5115 10.287 14.5126 10.2859C14.8241 10.0053 15.2219 9.85525 15.6787 9.85259C15.6798 9.85259 15.6813 9.85259 15.6829 9.85259C15.685 9.85259 15.6865 9.85259 15.6886 9.85259C16.1407 9.85259 16.6485 9.99685 17.185 10.3011L36.6626 21.3678L36.6621 21.3682L36.5381 21.4922Z" fill="url(#paint11_linear)"/>
<path d="M56.6448 16.6832H58.064C58.9869 16.6832 59.7188 16.4187 60.2588 15.8895C60.7994 15.3608 61.0693 14.6191 61.0693 13.666C61.0693 12.7201 60.7994 11.9811 60.2588 11.4477C59.7188 10.916 58.9869 10.6488 58.064 10.6488H56.6448V16.6832ZM55.6172 17.666V9.66602H58.064C59.2926 9.66602 60.276 10.0363 61.014 10.778C61.7516 11.5187 62.1197 12.4811 62.1197 13.666C62.1197 14.8504 61.7516 15.8133 61.014 16.554C60.276 17.2957 59.2926 17.666 58.064 17.666H55.6172Z" fill="white"/>
<path d="M56.6448 16.6827V16.816H58.064C59.0115 16.8171 59.7844 16.5415 60.3527 15.9843C60.9235 15.4264 61.2031 14.6426 61.2027 13.6655C61.2036 12.6958 60.923 11.9139 60.3527 11.3524C59.785 10.792 59.0115 10.5139 58.064 10.515H56.6448H56.5115V16.816H56.6448V16.6827H56.7781V10.7816H58.064C58.9625 10.7832 59.6527 11.039 60.1656 11.5426V11.542C60.676 12.0472 60.935 12.7436 60.936 13.6655C60.935 14.5947 60.6755 15.2936 60.1656 15.7936C59.6531 16.2947 58.9625 16.5478 58.064 16.5494H56.6448V16.6827H56.7781H56.6448ZM55.6172 17.6655H55.7506V9.79883H58.064C59.2672 9.79989 60.2079 10.1576 60.9198 10.8718C61.6303 11.5874 61.9855 12.5076 61.9864 13.6655C61.9855 14.8228 61.6303 15.7436 60.9198 16.4592C60.2079 17.1734 59.2672 17.5311 58.064 17.5322H55.6172V17.6655H55.7506H55.6172V17.7988H58.064C59.3188 17.7999 60.3443 17.4171 61.1088 16.6478C61.8724 15.8816 62.2542 14.8764 62.2531 13.6655C62.2542 12.4535 61.8724 11.4494 61.1088 10.6838C60.3443 9.91389 59.3188 9.53109 58.064 9.53216H55.4839V17.7988H55.6172V17.6655Z" fill="white"/>
<path d="M63.5625 17.666V9.66602H64.5901V17.666H63.5625Z" fill="white"/>
<path d="M63.5625 17.6655H63.6959V9.79883H64.4568V17.5322H63.5625V17.6655H63.6959H63.5625V17.7988H64.5901H64.7235V9.53216H63.5625H63.4292V17.7988H63.5625V17.6655Z" fill="white"/>
<path d="M68.6787 17.8438C68.0974 17.8438 67.5303 17.6542 66.9751 17.2744C66.4194 16.8943 66.0563 16.362 65.8855 15.676L66.8246 15.2963C66.936 15.7359 67.164 16.1067 67.5104 16.4078C67.8584 16.7094 68.2464 16.8604 68.6787 16.8604C69.1251 16.8604 69.5079 16.7432 69.8246 16.5088C70.1407 16.2744 70.2979 15.9558 70.2979 15.5531C70.2979 15.1067 70.1407 14.762 69.8246 14.5198C69.5079 14.2776 69.0068 14.0526 68.3214 13.8438C67.6136 13.6208 67.0766 13.3317 66.7126 12.9776C66.3474 12.6239 66.164 12.1719 66.164 11.6203C66.164 11.0463 66.3918 10.5479 66.8464 10.1234C67.3011 9.69895 67.8932 9.48588 68.6224 9.48588C69.3011 9.48588 69.8516 9.65628 70.276 9.99482C70.7006 10.3339 70.9766 10.7042 71.1027 11.1067L70.1651 11.4968C70.0974 11.2448 69.9323 11.0094 69.6683 10.7932C69.4036 10.5782 69.0626 10.4698 68.6448 10.4698C68.25 10.4698 67.9131 10.5791 67.6344 10.7995C67.3542 11.0192 67.2146 11.2927 67.2146 11.6203C67.2146 11.9182 67.3438 12.1698 67.6006 12.3744C67.8584 12.5791 68.236 12.764 68.7344 12.9276C69.1292 13.0547 69.4584 13.1771 69.724 13.2963C69.988 13.4151 70.2568 13.5739 70.5271 13.7714C70.7995 13.9682 71.0036 14.2146 71.1418 14.5088C71.2803 14.8031 71.349 15.1438 71.349 15.5307C71.349 15.9182 71.2694 16.2646 71.1094 16.5698C70.949 16.876 70.736 17.1178 70.4714 17.2963C70.2074 17.475 69.9235 17.611 69.6172 17.7042C69.3115 17.7974 68.9984 17.8438 68.6787 17.8438Z" fill="white"/>
<path d="M68.6786 17.8452V17.7118C68.127 17.7113 67.5879 17.5332 67.0504 17.166C66.5207 16.8025 66.1796 16.3034 66.0144 15.6457L65.8854 15.6774L65.9354 15.8014L66.8739 15.4217L66.8244 15.2977L66.6952 15.3311C66.813 15.7952 67.0572 16.1925 67.4228 16.5097V16.5102C67.7906 16.8296 68.2144 16.9962 68.6786 16.9952C69.1478 16.9957 69.563 16.8701 69.9035 16.6176C70.2515 16.3629 70.4343 15.9915 70.4311 15.5545C70.4338 15.0775 70.2556 14.6811 69.9051 14.4155C69.5666 14.1572 69.0535 13.9296 68.3603 13.7176H68.3614C67.666 13.4993 67.1483 13.2176 66.8051 12.8832C66.4666 12.5534 66.2988 12.1436 66.2972 11.6217C66.2988 11.0842 66.5056 10.628 66.9374 10.2222C67.3655 9.82332 67.9182 9.62172 68.6223 9.62065C69.2791 9.62118 69.7958 9.78425 70.1926 10.1004C70.6026 10.428 70.8592 10.7769 70.9754 11.1477L71.1026 11.1081L71.0515 10.9848L70.1139 11.3753L70.165 11.4983L70.2942 11.4639C70.2176 11.178 70.0316 10.9196 69.7526 10.6915H69.752C69.4608 10.4535 69.0848 10.3373 68.6447 10.3379C68.2254 10.3373 67.854 10.4561 67.5515 10.6962V10.6957C67.2452 10.9337 67.0791 11.2551 67.0811 11.6217C67.0796 11.9592 67.2354 12.2577 67.5171 12.4801L67.5176 12.4805C67.7942 12.6999 68.1848 12.8889 68.6926 13.0556H68.6931V13.0561C69.0848 13.1816 69.4098 13.3029 69.6692 13.4196C69.9239 13.5337 70.1843 13.6879 70.4488 13.8805C70.704 14.0655 70.892 14.2925 71.0212 14.567C71.1494 14.8405 71.2155 15.1608 71.2155 15.5321C71.2155 15.902 71.1406 16.2248 70.9911 16.5097C70.84 16.7977 70.642 17.0212 70.3963 17.1873H70.3968C70.1431 17.3587 69.8718 17.4889 69.5786 17.578C69.2848 17.6676 68.9859 17.7118 68.6786 17.7118V17.8452V17.9785C69.0114 17.9785 69.3374 17.9301 69.6562 17.8332C69.9744 17.7362 70.2707 17.5941 70.5458 17.4087L70.5463 17.4081C70.8291 17.2171 71.0583 16.9572 71.2275 16.6332C71.3983 16.3072 71.4822 15.9379 71.4822 15.5321C71.4822 15.1296 71.4103 14.7687 71.2624 14.4535C71.1155 14.1395 70.8947 13.8739 70.6056 13.6644V13.6649C70.3286 13.4629 70.0526 13.2993 69.7786 13.1764C69.5067 13.0535 69.1728 12.9301 68.775 12.802H68.7759C68.2863 12.642 67.9218 12.4613 67.6827 12.2717L67.6822 12.2712L67.6832 12.2717C67.452 12.0842 67.3499 11.8801 67.3478 11.6217C67.3504 11.3332 67.463 11.1077 67.7166 10.9056V10.9051C67.9712 10.705 68.2744 10.6051 68.6447 10.6045C69.04 10.6051 69.3463 10.7051 69.5838 10.8983L69.5854 10.8993L69.5838 10.8977C69.8327 11.102 69.9775 11.3138 70.0363 11.5332L70.0759 11.6801L71.154 11.2311L71.2666 11.1842L71.2302 11.0681C71.0936 10.6342 70.7983 10.2425 70.3592 9.89145C69.9072 9.53052 69.3223 9.35345 68.6223 9.35398C67.8682 9.35292 67.2359 9.57745 66.7551 10.0275C66.2786 10.4707 66.0291 11.0118 66.0306 11.6217C66.0291 12.2025 66.2286 12.6977 66.6192 13.0748C67.0051 13.4488 67.5603 13.7452 68.2816 13.9722H68.2822H68.2827C68.9592 14.1785 69.4488 14.4015 69.7431 14.6269C70.0254 14.8463 70.1624 15.1384 70.1644 15.5545C70.1624 15.9223 70.0296 16.1889 69.7447 16.4029C69.4526 16.6192 69.102 16.728 68.6786 16.7285C68.2775 16.7274 67.9259 16.592 67.5978 16.3087C67.2707 16.0233 67.0592 15.6801 66.9535 15.2649L66.9155 15.117L65.8354 15.554L65.728 15.5972L65.7562 15.7097C65.9322 16.4228 66.3176 16.9889 66.8999 17.3858C67.4718 17.778 68.0682 17.9785 68.6786 17.9785V17.8452Z" fill="white"/>
<path d="M73.8515 13.442H75.5729C76.0051 13.442 76.3515 13.2972 76.6119 13.0072C76.8723 12.716 77.0026 12.3967 77.0026 12.0463C77.0026 11.6963 76.8723 11.3753 76.6119 11.0853C76.3515 10.7941 76.0051 10.6488 75.5729 10.6488H73.8515V13.442ZM73.8515 17.666H72.8245V9.66602H75.551C76.2281 9.66602 76.815 9.89095 77.3098 10.3415C77.8062 10.792 78.053 11.3608 78.053 12.0463C78.053 12.7311 77.8062 13.2988 77.3098 13.7493C76.815 14.2004 76.2281 14.4259 75.551 14.4259H73.8515V17.666Z" fill="white"/>
<path d="M73.8516 13.4415V13.5748H75.5729C76.0344 13.5764 76.4265 13.415 76.7114 13.0958C76.9896 12.7858 77.1369 12.4295 77.136 12.0458C77.1369 11.6619 76.9901 11.3051 76.7114 10.9958C76.427 10.6754 76.0344 10.5134 75.5729 10.515H73.8516H73.7182V13.5748H73.8516V13.4415H73.9849V10.7816H75.5729C75.976 10.7838 76.276 10.9119 76.5125 11.1738L76.5145 11.1759L76.5125 11.1738C76.7546 11.4452 76.8682 11.7291 76.8693 12.0458C76.8682 12.3624 76.7552 12.6452 76.5125 12.9176C76.2765 13.1791 75.976 13.3067 75.5729 13.3082H73.8516V13.4415H73.9849H73.8516ZM73.8516 17.6655V17.5322H72.9578V9.79883H75.551C76.1984 9.79989 76.7473 10.0108 77.2202 10.44C77.6901 10.8686 77.9182 11.392 77.9197 12.0458C77.9182 12.6983 77.6901 13.2212 77.2202 13.6504H77.2197C76.7473 14.08 76.1984 14.291 75.551 14.292H73.8516H73.7182V17.6655H73.8516V17.5322V17.6655H73.9849V14.5587H75.551C76.2573 14.5598 76.8828 14.3196 77.3994 13.8472C77.9218 13.3754 78.1885 12.7628 78.1864 12.0458C78.1885 11.328 77.9218 10.715 77.3994 10.2426C76.8828 9.77069 76.2573 9.53109 75.551 9.53216H72.6912V17.7988H73.8516H73.9849V17.6655H73.8516Z" fill="white"/>
<path d="M80.7839 15.9615C81.376 16.5609 82.1006 16.8604 82.9574 16.8604C83.814 16.8604 84.5391 16.5609 85.1303 15.9615C85.723 15.362 86.0194 14.5958 86.0194 13.6651C86.0194 12.7344 85.723 11.9682 85.1303 11.3687C84.5391 10.7692 83.814 10.4698 82.9574 10.4698C82.1006 10.4698 81.376 10.7692 80.7839 11.3687C80.1927 11.9682 79.8959 12.7344 79.8959 13.6651C79.8959 14.5958 80.1927 15.362 80.7839 15.9615ZM85.8907 16.6312C85.1042 17.44 84.126 17.8438 82.9574 17.8438C81.7875 17.8438 80.8099 17.44 80.0251 16.6312C79.238 15.8234 78.8464 14.8344 78.8464 13.6651C78.8464 12.4958 79.238 11.5067 80.0251 10.699C80.8099 9.89002 81.7875 9.48588 82.9574 9.48588C84.1198 9.48588 85.0954 9.89215 85.8855 10.7042C86.6746 11.5162 87.0694 12.5031 87.0694 13.6651C87.0694 14.8344 86.6755 15.8234 85.8907 16.6312Z" fill="white"/>
<path d="M80.7839 15.9629L80.6891 16.0566C81.3031 16.6801 82.0694 16.9968 82.9574 16.9952C83.8449 16.9968 84.6121 16.6801 85.2251 16.0566C85.8433 15.4326 86.1542 14.6253 86.1527 13.6665C86.1542 12.7077 85.8433 11.9004 85.2251 11.2764C84.6121 10.6529 83.8449 10.3362 82.9574 10.3378C82.0694 10.3362 81.3031 10.6529 80.6891 11.2764L80.685 11.2805L80.6891 11.2764C80.0725 11.9004 79.7615 12.7077 79.7626 13.6665C79.7615 14.6253 80.0725 15.4326 80.6891 16.0566L80.7839 15.9629L80.8787 15.8692C80.3131 15.2936 80.0303 14.5696 80.0293 13.6665C80.0303 12.7634 80.3131 12.0394 80.8787 11.4638C81.4495 10.8884 82.1313 10.6061 82.9574 10.6045C83.7829 10.6061 84.4662 10.8884 85.0355 11.4638C85.6022 12.0394 85.885 12.7634 85.8861 13.6665C85.885 14.5696 85.6022 15.2936 85.0355 15.8692C84.4662 16.4446 83.7829 16.7269 82.9574 16.7285C82.1313 16.7269 81.4495 16.4446 80.8787 15.8692L80.7839 15.9629ZM85.8907 16.6326L85.7954 16.54C85.0307 17.3233 84.0959 17.7102 82.9574 17.7118C81.8183 17.7102 80.8834 17.3233 80.1203 16.54L80.1167 16.5358L80.1203 16.54C79.3574 15.754 78.9807 14.8061 78.9798 13.6665C78.9807 12.5269 79.3574 11.579 80.1203 10.793C80.8834 10.0097 81.8183 9.62225 82.9574 9.62065C84.0886 9.62225 85.0214 10.0113 85.7902 10.7988C86.5558 11.5884 86.9345 12.5348 86.9361 13.6665C86.9345 14.8061 86.5569 15.754 85.7954 16.54L85.8907 16.6326L85.9865 16.7253C86.7949 15.8952 87.2037 14.8654 87.2027 13.6665C87.2037 12.4744 86.7933 11.4468 85.9813 10.6129C85.1689 9.77585 84.1511 9.35251 82.9574 9.35398C81.7574 9.35251 80.7365 9.77385 79.9293 10.6077V10.6072C79.1194 11.4378 78.7121 12.4676 78.7131 13.6665C78.7121 14.8654 79.1194 15.8952 79.9293 16.7258V16.7253C80.7365 17.5592 81.7574 17.9796 82.9574 17.9785C84.1569 17.9796 85.1777 17.5592 85.9861 16.7253L85.8907 16.6326Z" fill="white"/>
<path d="M88.512 17.666V9.66602H89.763L93.651 15.8895H93.6953L93.651 14.3477V9.66602H94.6797V17.666H93.6068L89.539 11.141H89.4948L89.539 12.6832V17.666H88.512Z" fill="white"/>
<path d="M88.512 17.6655H88.6453V9.79883H89.6891L93.5771 16.0223H93.6953H93.8323L93.7844 14.3452V9.79883H94.5464V17.5322H93.6807L89.6131 11.0071H89.4948H89.3579L89.4057 12.6843V17.5322H88.512V17.6655H88.6453H88.512V17.7988H89.5391H89.6724V12.6806L89.6281 11.1368L89.4948 11.1404V11.2738H89.5391V11.1404L89.426 11.2114L93.5328 17.7988H94.6797H94.8131V9.53216H93.6511H93.5177V14.3488L93.562 15.8926L93.6953 15.889V15.7556H93.6511V15.889L93.764 15.8182L89.8369 9.53216H88.512H88.3787V17.7988H88.512V17.6655Z" fill="white"/>
<path d="M97.4729 9.04055H96.5781L97.1598 7.60975H98.277L97.4729 9.04055ZM96.512 17.666V9.66602H97.539V17.666H96.512Z" fill="white"/>
<path d="M97.4729 9.04003V8.90669H96.776L97.25 7.74256H98.0495L97.3563 8.9743L97.4729 9.04003V8.90669V9.04003L97.5885 9.10509L98.5052 7.47589H97.1599H97.0703L96.3797 9.17336H97.4729H97.5505L97.5885 9.10509L97.4729 9.04003ZM96.512 17.6655H96.6453V9.79883H97.4057V17.5322H96.512V17.6655H96.6453H96.512V17.7988H97.5391H97.6724V9.53216H96.512H96.3787V17.7988H96.512V17.6655Z" fill="white"/>
<path d="M101.349 17.666L98.5339 9.66602H99.6735L101.864 16.1576H101.908L104.188 9.66602H105.327L102.422 17.666H101.349Z" fill="white"/>
<path d="M101.349 17.6655L101.475 17.6212L98.7225 9.79883H99.5777L101.768 16.2904H101.908H102.002L104.282 9.79883H105.136L102.329 17.5322H101.349V17.6655L101.475 17.6212L101.349 17.6655V17.7988H102.422H102.515L105.517 9.53216H104.188H104.093L101.782 16.1128L101.908 16.1571V16.0238H101.864V16.1571L101.99 16.1144L99.7689 9.53216H98.534H98.3459L101.255 17.7988H101.349V17.6655Z" fill="white"/>
<path d="M111.16 10.6488H107.517V13.1853H110.802V14.1467H107.517V16.6832H111.16V17.666H106.49V9.66602H111.16V10.6488Z" fill="white"/>
<path d="M111.16 10.6483V10.515H107.384V13.3182H110.669V14.0124L107.384 14.0128V16.816H111.026V17.5322H106.623V9.79883H111.026V10.6483H111.16V10.515V10.6483H111.293V9.66549V9.53216H106.356V17.7988H111.293V16.6827V16.5494H107.65V14.2795H110.935V13.1848V13.0515H107.65V10.7816H111.293V10.6483H111.16Z" fill="white"/>
<path d="M112.769 17.666V9.66602H113.797V16.6832H117.26V17.666H112.769Z" fill="white"/>
<path d="M112.769 17.6655H112.903V9.79883H113.664V16.816H117.127V17.5322H112.769V17.6655H112.903H112.769V17.7988H117.394V16.6827V16.5494H113.93V9.53216H112.769H112.636V17.7988H112.769V17.6655Z" fill="white"/>
<path d="M121.239 17.666V9.66602H122.489L126.377 15.8895H126.421L126.377 14.3477V9.66602H127.407V17.666H126.333L122.265 11.141H122.221L122.265 12.6832V17.666H121.239Z" fill="white"/>
<path d="M121.239 17.6655H121.372V9.79883H122.416L126.304 16.0223H126.421H126.559L126.511 14.3452V9.79883H127.273V17.5322H126.407L122.34 11.0071H122.221H122.084L122.132 12.6843V17.5322H121.239V17.6655H121.372H121.239V17.7988H122.265H122.399V12.6806L122.355 11.1368L122.221 11.1404V11.2738H122.265V11.1404L122.152 11.2114L126.259 17.7988H127.407H127.54V9.53216H126.377H126.244V14.3488L126.288 15.8926L126.421 15.889V15.7556H126.377V15.889L126.491 15.8182L122.564 9.53216H121.239H121.105V17.7988H121.239V17.6655Z" fill="white"/>
<path d="M130.672 15.9615C131.264 16.5609 131.988 16.8604 132.845 16.8604C133.701 16.8604 134.427 16.5609 135.019 15.9615C135.611 15.362 135.908 14.5958 135.908 13.6651C135.908 12.7344 135.611 11.9682 135.019 11.3687C134.427 10.7692 133.701 10.4698 132.845 10.4698C131.988 10.4698 131.264 10.7692 130.672 11.3687C130.081 11.9682 129.784 12.7344 129.784 13.6651C129.784 14.5958 130.081 15.362 130.672 15.9615ZM135.779 16.6312C134.992 17.44 134.015 17.8438 132.845 17.8438C131.676 17.8438 130.697 17.44 129.913 16.6312C129.127 15.8234 128.735 14.8344 128.735 13.6651C128.735 12.4958 129.127 11.5067 129.913 10.699C130.697 9.89002 131.676 9.48588 132.845 9.48588C134.008 9.48588 134.983 9.89215 135.773 10.7042C136.563 11.5162 136.957 12.5031 136.957 13.6651C136.957 14.8344 136.564 15.8234 135.779 16.6312Z" fill="white"/>
<path d="M130.672 15.9629L130.577 16.0566C131.191 16.6801 131.957 16.9968 132.845 16.9952C133.733 16.9968 134.5 16.6801 135.113 16.0566C135.731 15.4326 136.043 14.6253 136.041 13.6665C136.043 12.7077 135.731 11.9004 135.113 11.2764C134.5 10.6529 133.733 10.3362 132.845 10.3378C131.957 10.3362 131.191 10.6529 130.577 11.2764C129.96 11.9004 129.649 12.7077 129.651 13.6665C129.649 14.6253 129.96 15.4326 130.577 16.0566L130.672 15.9629L130.767 15.8692C130.201 15.2936 129.919 14.5696 129.917 13.6665C129.919 12.7634 130.201 12.0394 130.767 11.4638C131.337 10.8884 132.02 10.6061 132.845 10.6045C133.671 10.6061 134.355 10.8884 134.923 11.4638H134.924C135.491 12.0394 135.773 12.7634 135.775 13.6665C135.773 14.5696 135.491 15.2936 134.924 15.8692C134.355 16.4446 133.671 16.7269 132.845 16.7285C132.02 16.7269 131.337 16.4446 130.767 15.8692L130.672 15.9629ZM135.779 16.6326L135.683 16.54C134.919 17.3233 133.984 17.7102 132.845 17.7118C131.707 17.7102 130.771 17.3233 130.008 16.54C129.245 15.754 128.869 14.8061 128.868 13.6665C128.869 12.5269 129.245 11.579 130.008 10.793C130.771 10.0097 131.707 9.62225 132.845 9.62065C133.977 9.62225 134.909 10.0113 135.677 10.7988C136.444 11.5884 136.823 12.5348 136.824 13.6665C136.823 14.8061 136.445 15.754 135.683 16.54L135.779 16.6326L135.875 16.7253C136.683 15.8952 137.092 14.8654 137.091 13.6665C137.092 12.4744 136.681 11.4468 135.869 10.6129C135.057 9.77585 134.039 9.35251 132.845 9.35398C131.645 9.35251 130.624 9.77385 129.817 10.6077V10.6072C129.007 11.4378 128.6 12.4676 128.601 13.6665C128.6 14.8654 129.007 15.8952 129.817 16.7258V16.7253C130.624 17.5592 131.645 17.9796 132.845 17.9785C134.045 17.9796 135.065 17.5592 135.875 16.7253L135.779 16.6326Z" fill="white"/>
<defs>
<linearGradient id="paint0_linear" x1="29.5663" y1="11.9465" x2="7.18968" y2="34.3231" gradientUnits="userSpaceOnUse">
<stop stop-color="#00A0FF"/>
<stop offset="0.00657445" stop-color="#00A1FF"/>
<stop offset="0.2601" stop-color="#00BEFF"/>
<stop offset="0.5122" stop-color="#00D2FF"/>
<stop offset="0.7604" stop-color="#00DFFF"/>
<stop offset="1" stop-color="#00E3FF"/>
</linearGradient>
<linearGradient id="paint1_linear" x1="45.6126" y1="27.0003" x2="13.3499" y2="27.0003" gradientUnits="userSpaceOnUse">
<stop stop-color="#FFE000"/>
<stop offset="0.4087" stop-color="#FFBD00"/>
<stop offset="0.7754" stop-color="#FFA500"/>
<stop offset="1" stop-color="#FF9C00"/>
</linearGradient>
<linearGradient id="paint2_linear" x1="33.6026" y1="30.0615" x2="3.25823" y2="60.4059" gradientUnits="userSpaceOnUse">
<stop stop-color="#FF3A44"/>
<stop offset="1" stop-color="#C31162"/>
</linearGradient>
<linearGradient id="paint3_linear" x1="10.2297" y1="0.567203" x2="23.7797" y2="14.1172" gradientUnits="userSpaceOnUse">
<stop stop-color="#32A071"/>
<stop offset="0.0685" stop-color="#2DA771"/>
<stop offset="0.4762" stop-color="#15CF74"/>
<stop offset="0.8009" stop-color="#06E775"/>
<stop offset="1" stop-color="#00F076"/>
</linearGradient>
<linearGradient id="paint4_linear" x1="45.6123" y1="27.0003" x2="13.3501" y2="27.0003" gradientUnits="userSpaceOnUse">
<stop stop-color="#CCB300"/>
<stop offset="0.4087" stop-color="#CC9700"/>
<stop offset="0.7754" stop-color="#CC8400"/>
<stop offset="1" stop-color="#CC7D00"/>
</linearGradient>
<linearGradient id="paint5_linear" x1="33.6027" y1="30.0615" x2="3.25833" y2="60.4059" gradientUnits="userSpaceOnUse">
<stop stop-color="#CC2E36"/>
<stop offset="1" stop-color="#9C0E4E"/>
</linearGradient>
<linearGradient id="paint6_linear" x1="29.5663" y1="11.9446" x2="7.18967" y2="34.3213" gradientUnits="userSpaceOnUse">
<stop stop-color="#008DE0"/>
<stop offset="0.00657445" stop-color="#008DE0"/>
<stop offset="0.2601" stop-color="#00A7E0"/>
<stop offset="0.5122" stop-color="#00B8E0"/>
<stop offset="0.7604" stop-color="#00C4E0"/>
<stop offset="1" stop-color="#00C7E0"/>
</linearGradient>
<linearGradient id="paint7_linear" x1="33.603" y1="30.0598" x2="3.25854" y2="60.4047" gradientUnits="userSpaceOnUse">
<stop stop-color="#E0333C"/>
<stop offset="1" stop-color="#AB0F56"/>
</linearGradient>
<linearGradient id="paint8_linear" x1="45.6126" y1="27.0013" x2="13.3499" y2="27.0013" gradientUnits="userSpaceOnUse">
<stop stop-color="#E0C500"/>
<stop offset="0.4087" stop-color="#E0A600"/>
<stop offset="0.7754" stop-color="#E09100"/>
<stop offset="1" stop-color="#E08900"/>
</linearGradient>
<linearGradient id="paint9_linear" x1="45.6126" y1="27.0013" x2="13.35" y2="27.0013" gradientUnits="userSpaceOnUse">
<stop stop-color="#FFE840"/>
<stop offset="0.4087" stop-color="#FFCE40"/>
<stop offset="0.7754" stop-color="#FFBC40"/>
<stop offset="1" stop-color="#FFB540"/>
</linearGradient>
<linearGradient id="paint10_linear" x1="29.5663" y1="11.9448" x2="7.18967" y2="34.3214" gradientUnits="userSpaceOnUse">
<stop stop-color="#40B8FF"/>
<stop offset="0.00657445" stop-color="#40B9FF"/>
<stop offset="0.2601" stop-color="#40CEFF"/>
<stop offset="0.5122" stop-color="#40DDFF"/>
<stop offset="0.7604" stop-color="#40E7FF"/>
<stop offset="1" stop-color="#40EAFF"/>
</linearGradient>
<linearGradient id="paint11_linear" x1="10.2298" y1="0.566721" x2="23.7798" y2="14.1167" gradientUnits="userSpaceOnUse">
<stop stop-color="#65B895"/>
<stop offset="0.0685" stop-color="#62BD95"/>
<stop offset="0.4762" stop-color="#50DB97"/>
<stop offset="0.8009" stop-color="#44ED98"/>
<stop offset="1" stop-color="#40F498"/>
</linearGradient>
</defs>
</svg>
