<svg width="156" height="26" viewBox="0 0 156 26" fill="none" xmlns="http://www.w3.org/2000/svg">
<path fill-rule="evenodd" clip-rule="evenodd" d="M34.7163 20.1578C37.6591 20.1578 39.9781 17.7722 39.9781 14.807C39.9781 11.8642 37.6591 9.47923 34.7163 9.47923C31.7959 9.47923 29.411 11.8642 29.411 14.807C29.411 17.7722 31.7959 20.1578 34.7163 20.1578ZM29.411 20.626C29.4078 20.8436 29.3199 21.0515 29.166 21.2054C29.0122 21.3594 28.8044 21.4474 28.5868 21.4508C28.3688 21.4478 28.1606 21.3598 28.0064 21.2057C27.8523 21.0515 27.7643 20.8433 27.7612 20.6253V5.19922C27.7612 4.75348 28.1397 4.375 28.5861 4.375C28.8038 4.37823 29.0116 4.46608 29.1656 4.61994C29.3196 4.7738 29.4076 4.98157 29.411 5.19922V10.9727H29.4552C30.4805 9.41263 32.2417 7.98574 34.8502 7.98574C35.747 7.98199 36.6358 8.15586 37.4651 8.49732C38.2944 8.83879 39.0479 9.34108 39.6821 9.97523C40.3163 10.6094 40.8187 11.3628 41.1602 12.1921C41.5018 13.0214 41.6757 13.9101 41.6721 14.807C41.6721 18.5971 38.662 21.6513 34.8502 21.6513C32.2417 21.6513 30.4805 20.202 29.4552 18.6643H29.411V20.6253V20.626ZM49.9248 9.47857C46.982 9.47857 44.663 11.8642 44.663 14.8063C44.663 17.7722 46.9814 20.1578 49.9248 20.1578C52.8445 20.1578 55.2302 17.7722 55.2302 14.807C55.2302 11.8642 52.8445 9.47923 49.9248 9.47923V9.47857ZM55.2302 18.6637H55.186C54.16 20.2026 52.3981 21.6506 49.7903 21.6506C45.9791 21.6506 42.9684 18.5971 42.9684 14.8063C42.9647 13.9094 43.1387 13.0206 43.4803 12.1913C43.8219 11.362 44.3243 10.6085 44.9586 9.97434C45.5929 9.34018 46.3465 8.8379 47.1759 8.49647C48.0053 8.15505 48.894 7.98124 49.791 7.98508C52.3981 7.98508 54.16 9.41197 55.1853 10.9721H55.2295V9.01107C55.2327 8.79319 55.3208 8.58516 55.4749 8.43114C55.629 8.27712 55.8372 8.18925 56.055 8.18619C56.2726 8.18959 56.4802 8.27752 56.6341 8.43136C56.7879 8.5852 56.8758 8.79287 56.8792 9.01041V20.6253C56.8762 20.8431 56.7884 21.0511 56.6345 21.2052C56.4807 21.3593 56.2728 21.4474 56.055 21.4508C55.837 21.4478 55.6288 21.3598 55.4747 21.2057C55.3205 21.0515 55.2326 20.8433 55.2295 20.6253V18.6637H55.2302ZM66.1131 20.1578C69.0559 20.1578 71.3743 17.7722 71.3743 14.807C71.3743 11.8642 69.0559 9.47923 66.1125 9.47923C63.1928 9.47923 60.8078 11.8642 60.8078 14.807C60.8078 17.7722 63.1928 20.1578 66.1131 20.1578ZM60.8078 20.626C60.8078 21.0717 60.4287 21.4508 59.9823 21.4508C59.7645 21.4474 59.5566 21.3593 59.4028 21.2052C59.2489 21.0511 59.1611 20.8431 59.1581 20.6253V5.19922C59.1581 4.75348 59.5365 4.375 59.9823 4.375C60.2 4.37806 60.408 4.46584 60.5622 4.61971C60.7163 4.77359 60.8044 4.98146 60.8078 5.19922V10.9727H60.852C61.8773 9.41263 63.6385 7.98574 66.247 7.98574C67.1439 7.98199 68.0327 8.15588 68.8621 8.49739C69.6914 8.83889 70.4449 9.34124 71.0792 9.97546C71.7134 10.6097 72.2157 11.3632 72.5572 12.1926C72.8988 13.0219 73.0726 13.9107 73.0689 14.8076C73.0689 18.5977 70.0588 21.652 66.247 21.652C63.6385 21.652 61.8773 20.2026 60.852 18.665H60.8078V20.626ZM78.3828 24.7721C78.1824 25.1961 77.6918 25.3741 77.2909 25.1961C76.8893 24.995 76.7106 24.4827 76.9117 24.1029L78.4942 20.7374L73.1889 9.34537C72.9878 8.96623 73.1665 8.45324 73.5674 8.25279C73.9696 8.07476 74.4595 8.25279 74.66 8.67677L79.3639 18.9538L84.0679 8.67677C84.2684 8.25279 84.759 8.07476 85.1599 8.25279C85.5621 8.45324 85.7401 8.96623 85.539 9.34537L78.3828 24.7721ZM92.6339 9.47857C89.7359 9.47857 87.3727 11.8866 87.3727 14.8063C87.3727 17.7498 89.7359 20.1578 92.6339 20.1578C94.1274 20.1578 95.4652 19.4219 96.424 18.4632C96.7134 18.1962 97.1816 18.2403 97.4711 18.5305C97.7836 18.8199 97.7836 19.3547 97.4941 19.6224C96.1563 20.9148 94.5065 21.6513 92.6339 21.6513C88.8214 21.6513 85.6788 18.5971 85.6788 14.807C85.6788 11.0393 88.8214 7.98508 92.6339 7.98508C94.4617 7.98508 96.1563 8.69852 97.4941 10.0146C97.7612 10.3041 97.7836 10.8389 97.4941 11.129C97.3494 11.2716 97.1555 11.3534 96.9523 11.3576C96.7491 11.3618 96.552 11.288 96.4016 11.1514C95.398 10.1703 94.0832 9.50098 92.6339 9.47923V9.47857ZM111.067 14.0494C110.688 11.485 108.504 9.47923 105.829 9.47923C103.154 9.47923 100.991 11.485 100.613 14.0487H111.067V14.0494ZM111.959 15.5659H100.612C100.991 18.1507 103.154 20.1585 105.829 20.1585C107.613 20.1585 109.172 19.2881 110.109 17.906C110.243 17.6838 110.465 17.5269 110.755 17.5269C111.402 17.5269 111.714 18.2397 111.402 18.7309C110.376 20.291 108.281 21.6506 105.829 21.6506C102.039 21.6506 98.9395 18.5747 98.9395 14.8063C98.9395 11.04 102.039 7.98508 105.829 7.98508C109.596 7.98508 112.673 10.9945 112.74 14.807C112.74 15.2303 112.383 15.5653 111.959 15.5653V15.5659ZM114.49 20.6253V9.01107C114.494 8.79342 114.582 8.58565 114.736 8.43179C114.89 8.27793 115.097 8.19008 115.315 8.18685C115.761 8.18685 116.139 8.56533 116.139 9.01107V10.5494H116.184C116.764 9.32295 118.525 7.98508 120.487 7.98508C123.63 7.98508 125.503 10.103 125.503 13.1355V20.626C125.5 20.8437 125.412 21.0517 125.258 21.2057C125.104 21.3597 124.896 21.4476 124.678 21.4508C124.46 21.4476 124.252 21.3596 124.098 21.2054C123.944 21.0513 123.856 20.8432 123.853 20.6253V13.1355C123.853 10.9503 122.471 9.45681 120.353 9.45681C118.28 9.45681 116.139 11.1956 116.139 13.3142V20.6253C116.136 20.8431 116.048 21.0511 115.895 21.2052C115.741 21.3593 115.533 21.4474 115.315 21.4508C115.097 21.4476 114.889 21.3596 114.735 21.2054C114.581 21.0513 114.493 20.8432 114.49 20.6253ZM127.615 8.36422H128.551V6.0907C128.555 5.87316 128.643 5.66548 128.797 5.51164C128.95 5.3578 129.158 5.26988 129.376 5.26648C129.593 5.26971 129.801 5.35756 129.955 5.51142C130.109 5.66528 130.197 5.87305 130.2 6.0907V8.36422H132.274C132.697 8.36422 133.032 8.69852 133.032 9.1225C133.033 9.22233 133.014 9.32133 132.976 9.41372C132.938 9.50612 132.882 9.59006 132.812 9.66065C132.741 9.73124 132.657 9.78706 132.565 9.82486C132.472 9.86265 132.373 9.88166 132.274 9.88078H130.2V18.7758C130.2 19.7787 130.781 20.0681 131.516 20.0681C131.784 20.0681 132.028 19.9343 132.229 19.8004C132.385 19.689 132.541 19.6224 132.742 19.6224C133.165 19.6224 133.478 19.9343 133.478 20.3576C133.478 21.1383 132.185 21.5392 131.539 21.5392C129.889 21.5392 128.551 20.6035 128.551 18.7751V9.88078H127.614C127.515 9.88158 127.416 9.8625 127.323 9.82466C127.231 9.78683 127.147 9.73099 127.077 9.66041C127.006 9.58983 126.95 9.50592 126.913 9.41357C126.875 9.32122 126.856 9.22227 126.857 9.1225C126.857 8.69918 127.19 8.36488 127.615 8.36488V8.36422ZM145.628 14.0494C145.249 11.485 143.064 9.47923 140.389 9.47923C137.714 9.47923 135.551 11.485 135.173 14.0487H145.628V14.0494ZM146.52 15.5659H135.173C135.551 18.1507 137.714 20.1585 140.389 20.1585C142.173 20.1585 143.733 19.2881 144.669 17.906C144.803 17.6838 145.026 17.5269 145.316 17.5269C145.962 17.5269 146.275 18.2397 145.962 18.7309C144.937 20.291 142.841 21.6506 140.389 21.6506C136.599 21.6506 133.5 18.5747 133.5 14.8063C133.5 11.04 136.599 7.98508 140.389 7.98508C144.157 7.98508 147.233 10.9945 147.3 14.807C147.3 15.2303 146.944 15.5653 146.52 15.5653V15.5659Z" fill="#9DBDCC"/>
<mask id="mask0" style="mask-type:alpha" maskUnits="userSpaceOnUse" x="149" y="7" width="7" height="15">
<path d="M149.041 7.98242H155.863V21.4482H149.041V7.98242Z" fill="#C3B8C8"/>
</mask>
<g mask="url(#mask0)">
<path fill-rule="evenodd" clip-rule="evenodd" d="M150.691 10.2566H150.736C151.316 9.09677 152.474 7.98242 154.035 7.98242C154.436 7.98242 154.838 8.04902 155.262 8.16045C155.573 8.22771 155.863 8.51718 155.863 8.94115C155.863 9.36447 155.484 9.72119 155.127 9.67702C154.859 9.6546 154.681 9.54316 154.035 9.54316C152.184 9.54316 150.691 11.3044 150.691 13.1994V20.6226C150.691 21.0684 150.335 21.4482 149.888 21.4482C149.442 21.4482 149.041 21.0684 149.041 20.6226V9.00841C149.041 8.56333 149.42 8.18419 149.866 8.18419C150.312 8.18419 150.691 8.54025 150.691 8.98599V10.2573V10.2566Z" fill="#9DBDCC"/>
</g>
<path fill-rule="evenodd" clip-rule="evenodd" d="M154.499 19.5148H153.936V20.2414H154.499C154.703 20.2414 154.856 20.0878 154.856 19.8735C154.856 19.8264 154.848 19.7796 154.83 19.736C154.812 19.6924 154.786 19.6527 154.752 19.6193C154.719 19.586 154.68 19.5595 154.636 19.5416C154.592 19.5236 154.546 19.5145 154.499 19.5148ZM154.672 20.3529L154.979 20.9562L154.826 20.9661L154.529 20.3733H153.936V20.9562H153.794V19.3829H154.499C154.631 19.3804 154.76 19.4307 154.855 19.5227C154.951 19.6146 155.006 19.7408 155.009 19.8735C155.011 19.9788 154.979 20.0819 154.919 20.1681C154.858 20.2542 154.772 20.3189 154.672 20.3529ZM154.356 19.1066C154.214 19.1055 154.073 19.1324 153.942 19.1858C153.811 19.2393 153.691 19.3181 153.591 19.4179C153.49 19.5177 153.41 19.6364 153.355 19.7672C153.301 19.898 153.272 20.0383 153.272 20.1801C153.272 20.7821 153.752 21.2621 154.356 21.2621C154.497 21.2619 154.637 21.2336 154.768 21.1791C154.899 21.1245 155.017 21.0446 155.117 20.9441C155.217 20.8435 155.295 20.7243 155.349 20.5932C155.402 20.4621 155.429 20.3217 155.428 20.1801C155.428 19.5867 154.947 19.1066 154.356 19.1066ZM154.356 21.4059C154.031 21.405 153.719 21.2755 153.489 21.0457C153.26 20.8159 153.13 20.5044 153.129 20.1794C153.129 19.5148 153.681 18.9629 154.356 18.9629C155.02 18.9629 155.571 19.5148 155.571 20.1801C155.57 20.5033 155.443 20.8133 155.215 21.0428C154.988 21.2723 154.679 21.4028 154.356 21.4059Z" fill="#9DBDCC"/>
<path fill-rule="evenodd" clip-rule="evenodd" d="M16.4603 14.8724C14.8864 15.3425 13.1602 14.2183 13.1602 14.2183C13.1602 14.2183 13.987 12.3312 15.5616 11.861C17.1355 11.3909 18.8624 12.5151 18.8624 12.5151C18.8624 12.5151 18.0356 14.4016 16.461 14.8724" fill="#9DBDCC"/>
<mask id="mask1" style="mask-type:alpha" maskUnits="userSpaceOnUse" x="0" y="0" width="22" height="22">
<path d="M0.255615 0.662109H21.7987V21.8828H0.255615V0.662109Z" fill="#C3B8C8"/>
</mask>
<g mask="url(#mask1)">
<path fill-rule="evenodd" clip-rule="evenodd" d="M8.50045 21.8783C8.43506 21.8782 8.36994 21.87 8.30659 21.8539C3.56568 20.6195 0.255615 16.3329 0.255615 11.4291C0.255615 5.48947 5.08818 0.65625 11.0272 0.65625C16.9668 0.65625 21.7987 5.48947 21.7987 11.4278C21.8018 13.6913 21.0907 15.8981 19.7666 17.734C18.4425 19.5698 16.573 20.9412 14.4243 21.6527C14.2331 21.7089 14.0275 21.6887 13.8509 21.5962C13.6744 21.5038 13.5406 21.3464 13.4779 21.1572C13.4151 20.9681 13.4282 20.7619 13.5145 20.5823C13.6008 20.4026 13.7534 20.2635 13.9403 20.1942C15.7823 19.584 17.3849 18.4082 18.5199 16.8342C19.6549 15.2602 20.2644 13.3683 20.2617 11.4278C20.2617 6.33611 16.1195 2.19325 11.0272 2.19325C5.93482 2.19457 1.79196 6.33677 1.79196 11.4285C1.79196 15.6333 4.62925 19.3093 8.69298 20.3663C8.87411 20.4131 9.03194 20.5243 9.13687 20.6792C9.2418 20.8341 9.28662 21.0219 9.26291 21.2074C9.23919 21.393 9.14859 21.5635 9.00809 21.687C8.86759 21.8105 8.68685 21.8785 8.49979 21.8783" fill="#9DBDCC"/>
</g>
<path fill-rule="evenodd" clip-rule="evenodd" d="M14.7001 16.077C14.3236 15.7836 13.9035 15.8647 13.5462 16.323L12.145 18.1263V16.4496L12.1443 16.4331C12.1602 15.111 11.9683 12.312 10.2354 10.4848C7.90125 8.02273 3.65488 8.26011 3.65488 8.26011C3.65488 8.26011 3.19265 12.488 5.52684 14.9495C6.98011 16.4812 9.30836 17.1696 10.6212 17.1696C10.6185 21.5169 10.6205 19.5651 10.6238 24.455C10.6238 24.9944 10.9186 25.3274 11.3656 25.3386C11.8272 25.3498 12.141 24.9931 12.145 24.4432V20.6102L14.7495 17.254C15.101 16.801 15.0786 16.3704 14.7001 16.0763" fill="#9DBDCC"/>
<path fill-rule="evenodd" clip-rule="evenodd" d="M14.9047 9.64653C14.6291 11.2666 12.856 12.3157 12.856 12.3157C12.856 12.3157 11.5307 10.7378 11.8069 9.11771C12.0832 7.49763 13.8569 6.44922 13.8569 6.44922C13.8569 6.44922 15.1816 8.0271 14.9053 9.64653" fill="#9DBDCC"/>
<path fill-rule="evenodd" clip-rule="evenodd" d="M16.0141 24.1527H15.8908V23.1162L15.4161 24.1527H15.3026L14.8193 23.1162V24.1527H14.696V22.834H14.8193L15.3547 23.9945L15.8908 22.834H16.0141V24.1527ZM14.125 22.9579V24.1527H14.0024V22.9579H13.5454V22.8346H14.5819V22.9579H14.125Z" fill="#9DBDCC"/>
</svg>
