<svg width="169" height="32" viewBox="0 0 169 32" fill="none" xmlns="http://www.w3.org/2000/svg">
<g clip-path="url(#clip0)">
<path d="M7.63296 25.4617V17.9047H21.2039V12.6838H7.63296V6.1291H30.6793V0.941406H7.63296H2.62673H0.950928V31.0568H6.72283H7.63296H30.8449V25.4617H7.63296Z" fill="#9DBDCC"/>
<path d="M31.3782 0.941406L46.7287 15.9997L62.0786 0.941406H31.3782Z" fill="#9DBDCC"/>
<path d="M31.3782 31.0583H62.0786L46.7287 16L31.3782 31.0583Z" fill="#9DBDCC"/>
<path d="M96.589 0.941406H83.0989H76.3121H62.7439V6.58945H76.3121V31.058H83.0989V6.58945H96.589V0.941406Z" fill="#9DBDCC"/>
<path d="M132.669 31.0574L119.184 19.5851H124.56C127.302 19.5851 129.524 17.3425 129.524 14.5747V5.95183C129.524 3.18464 127.302 0.941406 124.56 0.941406H98.0776V31.0574H104.533V19.5851H110.973L122.655 31.0574H132.657H132.669ZM104.529 14.6895V6.08746H121.079C122.176 6.08746 123.066 6.98565 123.066 8.09207V12.6849C123.066 13.7919 122.176 14.6895 121.079 14.6895H104.532H104.529Z" fill="#9DBDCC"/>
<path d="M160.47 31.0568H168.25L151.369 0.941406H144.748L129.53 28.8434L127.999 31.0568H135.198L138.538 24.626H157.24L160.469 31.0568H160.47ZM141.482 18.9475L147.727 6.92262H148.325L154.378 18.9475H141.483H141.482Z" fill="#9DBDCC"/>
</g>
<defs>
<clipPath id="clip0">
<rect width="167.314" height="30.1165" fill="white" transform="translate(0.941406 0.941406)"/>
</clipPath>
</defs>
</svg>
