<svg width="48" height="50" viewBox="0 0 48 50" fill="none" xmlns="http://www.w3.org/2000/svg">
<path d="M25.4715 0.835182C14.8135 3.45452 6.52682 10.6241 2.67823 20.5152C-1.17035 30.4062 0.250137 42.5681 8.59369 47.7026C19.4736 54.3979 37.1414 45.7622 44.3022 30.8247C53.5907 11.4486 44.3022 -3.79269 25.4715 0.835182Z" fill="#9DBDCC"/>
<path d="M27.703 4.04206C15.632 7.02973 8.03412 17.6463 6.08261 23.5701C4.1311 29.494 2.89202 41.6695 10.5408 46.4099C20.5147 52.5913 37.9721 42.2225 42.628 30.8234C50.0445 12.6655 42.7917 0.307467 27.703 4.04206Z" fill="#FCFDFE"/>
<path d="M28.1001 10.0198C18.5625 12.4153 12.5593 20.9276 11.0174 25.6773C9.47543 30.427 8.49641 40.1892 14.5399 43.99C22.4205 48.9462 36.2431 39.839 39.9218 30.6993C45.7818 16.1404 40.022 7.02542 28.1001 10.0198Z" fill="#9DBDCC"/>
<path d="M31.4128 23.1681C28.6295 22.4798 26.1059 26.3763 25.1359 28.6081C24.1659 30.8399 24.7273 35.9827 27.6812 35.9827C30.635 35.9827 33.5889 32.0867 32.6043 32.0867C31.1273 32.0867 30.3109 32.1908 30.635 30.1388C30.8548 28.7476 37.8291 28.1896 37.0351 31.5998C36.7287 32.9158 33.2098 39.6275 26.8097 39.6275C23.5096 39.6275 20.6067 37.3151 20.1144 32.9322C19.6221 28.5493 22.6876 22.9332 25.6938 21.2153C29.7389 18.9039 33.0966 18.9175 35.5581 20.3784C38.0197 21.8394 38.0197 25.7559 35.5581 26.2429C33.0966 26.7299 33.382 23.6551 31.4128 23.1681Z" fill="white"/>
<path d="M26.4248 13.6994C30.3799 14.6805 28.0727 20.2379 24.242 20.2379C23.1288 21.7117 22.1774 22.7837 21.452 24.4454C20.4512 26.7379 17.4222 35.6623 16.8021 37.5352C16.3135 39.0107 15.1035 39.3833 13.9522 39.1395C12.8009 38.8958 12.4621 37.5352 12.6171 37.0677C13.0821 35.1978 14.1981 30.9903 14.9421 29.1203C15.8721 26.7829 15.8721 23.5104 19.1271 23.0429C22.382 22.5754 22.3283 20.3663 21.9752 18.932C21.452 16.8063 22.3606 12.6911 26.4248 13.6994Z" fill="white"/>
</svg>
