<svg width="125" height="36" viewBox="0 0 125 36" fill="none" xmlns="http://www.w3.org/2000/svg">
<g clip-path="url(#clip0)">
<path fill-rule="evenodd" clip-rule="evenodd" d="M95.3904 35.4881C97.4902 36.1081 118.048 35.8351 121.158 26.5965C119.05 26.355 112.984 28.2317 110.939 28.5866C109.857 28.7723 108.643 28.9677 107.616 29.3819C106.758 29.729 105.888 30.3865 105.082 30.8548C104.103 31.426 103.347 31.6606 102.275 31.9841C101.113 32.3347 100.014 33.0951 98.8021 33.4623C97.9129 33.7317 96.891 33.907 96.09 34.4032L95.3904 35.4881Z" fill="#9DBDCC"/>
<path fill-rule="evenodd" clip-rule="evenodd" d="M84.047 26.4305C85.0506 31.8739 95.2447 36.1539 96.8711 35.6673C97.4318 35.4999 107.746 31.0498 108.572 30.673C109.341 30.319 110.237 30.0722 110.645 29.2289C107.326 29.1216 95.1556 27.3165 92.3404 27.3025C89.5812 27.2903 86.6333 26.0982 83.874 26.0834C84.1221 26.0302 84.3527 27.3313 84.4837 27.388L84.047 26.4305Z" fill="#E1EEF4"/>
<path fill-rule="evenodd" clip-rule="evenodd" d="M92.8599 11.5383C92.9097 11.9909 92.7638 12.4008 92.7708 12.8455C92.7848 13.6356 93.1298 14.2059 93.349 14.9367C93.6006 15.7739 92.4826 16.4515 92.6415 17.3297C93.0634 19.6554 93.163 22.385 94.343 24.5146C94.8051 25.3492 94.6286 26.4166 95.1283 27.2581C95.6864 28.1982 98.2308 28.6482 99.3147 28.4336C100.687 28.1624 100.186 27.7369 98.8544 25.2977C98.3565 24.3864 96.4611 18.4913 95.91 16.4803C95.7108 15.753 94.8496 9.50294 92.8599 11.1895V11.5383Z" fill="#9DBDCC"/>
<path fill-rule="evenodd" clip-rule="evenodd" d="M99.3803 27.6843C100.311 27.6721 102.055 27.6433 102.987 27.5866C104.528 27.4933 110.181 26.6666 111.245 25.696C116.977 20.4645 111.287 8.62193 111.181 7.0121C113.096 6.97286 115.643 6.38854 117.455 7.01904C117.467 7.6417 117.831 8.02977 118.006 8.57743C118.31 9.53234 118.094 10.5466 118.154 11.5346C118.235 12.8453 118.34 14.2057 118.226 15.5295C118.069 17.3661 118.115 20.441 116.867 21.9688C116.082 22.9263 115.281 23.7234 114.859 24.9617C114.585 25.764 114.491 26.2838 114.491 27.134C114.492 28.5851 114.379 28.5695 115.797 28.6942C116.238 28.7334 117.974 28.6479 118.103 28.7944C118.629 29.3935 117.911 29.5148 117.496 29.6735C115.986 30.2421 114.071 29.9988 112.482 30.0005C109.664 30.0057 99.8782 28.7822 98.9139 28.6157C98.3759 28.5232 99.348 28.5198 98.9139 28.3052L99.3803 27.6843Z" fill="#9DBDCC"/>
<path fill-rule="evenodd" clip-rule="evenodd" d="M121.733 6.74728C120.505 6.74728 119.279 6.73858 118.07 6.83712C116.534 6.96183 117.112 6.26416 117.27 7.49552C118.97 20.8197 111.312 27.8983 111.614 28.9552C112.137 30.7848 118.287 29.4767 118.287 29.4767C119.735 29.7 121.357 27.5041 122.076 26.2666C123.339 24.0891 124.057 21.4136 124.264 18.8864C124.734 13.1639 122.37 6.93564 121.733 6.83448V6.74728Z" fill="#E1EEF4"/>
<path fill-rule="evenodd" clip-rule="evenodd" d="M93.1202 3.35166C92.7324 5.01032 92.4791 6.79367 92.7464 8.50291C92.9018 9.49968 92.4756 10.2645 92.859 11.1889C93.2442 12.1176 92.9228 13.4798 94.081 13.1484C94.9885 12.8894 97.3075 9.53459 104.024 7.79308C106.176 7.23584 109.917 7.75382 112.092 7.25239C111.771 6.0158 110.616 5.96262 109.588 5.10451C107.475 3.3412 104.624 3.05775 101.931 3.00543C99.8965 2.96706 97.836 2.80838 95.8148 2.97843C94.9265 3.05343 94.0775 3.33855 93.2084 3.43797L93.1202 3.35166Z" fill="#9DBDCC"/>
<path fill-rule="evenodd" clip-rule="evenodd" d="M108.56 0.565142C111.686 0.565142 116.08 0.279961 118.576 2.46622C119.992 3.70716 121.325 5.051 121.72 6.8396C120.65 7.26429 117.893 7.63234 116.781 7.11782C116.235 6.86405 116.074 6.24226 115.627 5.77047C115.263 5.38764 114.906 5.31612 114.492 5.02398C114.004 4.68039 113.754 4.24786 113.287 3.89903C112.525 3.33132 111.495 3.1386 110.727 2.55781C109.961 1.97876 109.154 1.59241 108.386 1.00028L108.56 0.565142Z" fill="#9DBDCC"/>
<path fill-rule="evenodd" clip-rule="evenodd" d="M88.5861 3.69865C91.6179 3.70475 105.759 3.77016 110.568 6.70901C112.435 7.85053 115.192 7.48687 117.277 7.19298C117.191 2.68268 114.887 0.928093 114.158 0.741472C112.283 0.260094 103.859 0.303696 101.844 0.303696C96.6665 0.30544 89.0211 1.65364 85.6199 4.39715L88.5861 3.69865Z" fill="#EFF6FA"/>
<path fill-rule="evenodd" clip-rule="evenodd" d="M93.9075 3.69956C91.5282 3.69956 87.9829 3.26353 85.8385 4.2664C81.6521 6.22592 82.1403 23.0689 83.2217 24.9299C83.5422 25.4819 83.8968 26.2432 84.3117 26.7167C84.8978 27.3865 85.6647 27.3472 86.6203 27.4763C89.0712 27.8086 91.6732 28.0405 94.1504 27.9106C94.7434 27.8801 95.3784 27.9839 95.6597 27.4118C95.9514 26.8153 95.685 25.3049 95.4736 24.7171C95.174 23.8756 94.9574 23.293 94.7862 22.3634C94.6185 21.4408 94.3006 20.5565 94.0988 19.64C93.6822 17.7624 93.773 15.6869 93.649 13.7352C93.435 10.322 93.4734 6.7448 93.9075 3.35248V3.69956Z" fill="#9DBDCC"/>
<path fill-rule="evenodd" clip-rule="evenodd" d="M11.2993 33.764C10.7848 33.9053 10.2258 34.0213 9.62573 34.112C9.02567 34.2018 8.48849 34.248 8.01508 34.248C6.36949 34.248 5.12133 33.785 4.26884 32.858C3.41634 31.9301 2.99008 30.445 2.99008 28.3991V19.4213H1.15845V17.037H2.99008V13.2488L5.70479 12.204V17.037H11.2993V19.4213H5.70479V27.1215C5.70479 28.0093 5.72488 28.7017 5.76506 29.2014C5.80611 29.7002 5.93713 30.1668 6.15811 30.6011C6.36949 31.0049 6.6621 31.2996 7.03507 31.4871C7.40803 31.6728 7.97228 31.7662 8.72869 31.7662C9.17153 31.7662 9.63272 31.6964 10.1123 31.5586C10.59 31.4191 10.9359 31.3031 11.1473 31.2106H11.2993V33.764Z" fill="#9DBDCC"/>
<path fill-rule="evenodd" clip-rule="evenodd" d="M27.7758 25.7898H15.902C15.902 26.825 16.0505 27.7258 16.3475 28.4941C16.6462 29.2624 17.0515 29.8929 17.5669 30.3847C18.0708 30.867 18.6665 31.2298 19.3522 31.4696C20.0387 31.712 20.7943 31.8306 21.6223 31.8306C22.722 31.8306 23.826 31.6047 24.9371 31.1495C26.0464 30.6934 26.8386 30.247 27.3129 29.8057H27.4483V32.8954C26.5407 33.2974 25.6105 33.6349 24.6584 33.9052C23.7055 34.1782 22.7036 34.3125 21.6555 34.3125C18.9827 34.3125 16.8978 33.5547 15.4007 32.0408C13.9027 30.5243 13.155 28.372 13.155 25.5832C13.155 22.824 13.873 20.6333 15.3107 19.0122C16.7484 17.391 18.6386 16.58 20.9803 16.58C23.1596 16.58 24.8375 17.2454 26.0123 18.5761C27.188 19.9069 27.7758 21.7975 27.7758 24.2463V25.7898ZM25.1589 23.601C25.1485 22.1159 24.7895 20.9647 24.0811 20.1519C23.3727 19.3392 22.2957 18.9311 20.8493 18.9311C19.3924 18.9311 18.2307 19.3784 17.3668 20.2723C16.5012 21.1661 16.013 22.2754 15.902 23.601H25.1589Z" fill="#9DBDCC"/>
<path fill-rule="evenodd" clip-rule="evenodd" d="M41.6373 20.1396H41.4862C41.0836 20.035 40.694 19.9617 40.3176 19.9146C39.9411 19.8684 39.4904 19.8449 38.9681 19.8449C38.1348 19.8449 37.3295 20.0393 36.5565 20.4265C35.7826 20.8155 35.0331 21.3169 34.3099 21.9317V33.9199H31.5952V17.0359H34.3099V19.53C35.3851 18.6239 36.332 17.9813 37.1513 17.6028C37.9706 17.2252 38.8074 17.0359 39.6625 17.0359C40.1341 17.0359 40.4757 17.049 40.687 17.0734C40.8984 17.0996 41.2155 17.1476 41.6373 17.2182V20.1396Z" fill="#9DBDCC"/>
<path fill-rule="evenodd" clip-rule="evenodd" d="M53.944 20.1396H53.7929C53.3902 20.035 53.0015 19.9617 52.6242 19.9146C52.2477 19.8684 51.7979 19.8449 51.2747 19.8449C50.4405 19.8449 49.637 20.0393 48.8622 20.4265C48.0892 20.8155 47.3406 21.3169 46.6165 21.9317V33.9199H43.9019V17.0359H46.6165V19.53C47.6918 18.6239 48.6386 17.9813 49.4579 17.6028C50.2772 17.2252 51.114 17.0359 51.9691 17.0359C52.4408 17.0359 52.7823 17.049 52.9937 17.0734C53.2042 17.0996 53.5212 17.1476 53.944 17.2182V20.1396Z" fill="#9DBDCC"/>
<path fill-rule="evenodd" clip-rule="evenodd" d="M68.2173 30.9151L65.5149 32.265C65.2729 32.436 64.9043 32.5258 64.4973 32.8327C64.0911 33.1406 63.6981 33.3847 63.3164 33.5635C62.8648 33.7964 62.3486 33.9891 61.7669 34.1461C61.1843 34.3004 60.5021 34.3789 59.7203 34.3789C58.2748 34.3789 57.051 33.8766 56.0474 32.872C55.0438 31.8665 54.5425 30.5846 54.5425 29.0279C54.5425 27.7504 54.8037 26.7178 55.3251 25.9277C55.8474 25.1394 56.5899 24.5194 57.5533 24.0659C58.5263 23.6142 59.6968 23.3081 61.0663 23.1459C62.4359 22.9863 63.9033 22.8651 65.4686 22.7848V22.3427C65.4686 21.693 65.3594 21.1541 65.1445 20.7276C64.9288 20.3003 64.6196 19.9663 64.2186 19.7213C63.8369 19.4884 63.3775 19.3306 62.8394 19.2495C62.3023 19.1684 61.7433 19.1274 61.1615 19.1274C60.4575 19.1274 59.6688 19.2277 58.7954 19.4283C57.9219 19.6306 57.024 19.9219 56.1007 20.3029H55.9496V17.4164C56.4824 17.2647 57.2467 17.099 58.2425 16.9176C59.2382 16.7362 60.2182 16.6447 61.1834 16.6447C62.3206 16.6447 63.3076 16.7441 64.1488 16.9403C64.9873 17.1365 65.714 17.4714 66.3272 17.9449C66.9307 18.4079 67.391 19.0071 67.7081 19.7413C68.0252 20.4765 68.1833 21.3878 68.1833 22.4753L68.2173 30.9151ZM65.4686 29.7823V25.0705C64.6493 25.1219 63.6832 25.197 62.5739 25.299C61.4638 25.3993 60.5851 25.5458 59.9352 25.7368C59.1648 25.9705 58.5429 26.3315 58.0686 26.8216C57.5926 27.3108 57.3559 27.9849 57.3559 28.8422C57.3559 29.8128 57.6302 30.5418 58.1804 31.0319C58.7298 31.5229 59.5754 31.7662 60.7152 31.7662C61.6542 31.7662 62.5163 31.5717 63.3015 31.1819C64.0867 30.7938 64.8091 30.3273 65.4686 29.7823Z" fill="#9DBDCC"/>
</g>
<defs>
<clipPath id="clip0">
<rect width="123.812" height="35.9725" fill="white" transform="translate(0.831787 0.0136719)"/>
</clipPath>
</defs>
</svg>
