<svg width="129" height="44" viewBox="0 0 129 44" fill="none" xmlns="http://www.w3.org/2000/svg">
<path fill-rule="evenodd" clip-rule="evenodd" d="M6.12499 8.74339C4.61754 10.5188 3.47188 12.559 2.62772 14.7691C1.74909 17.0761 1.28394 19.4476 1.28394 21.9763C1.28394 24.8277 1.89553 27.4747 2.95074 29.9904C3.99303 32.4782 5.4251 34.6173 7.30941 36.5003C9.13987 38.3253 11.2934 39.78 13.7677 40.8561C16.2442 41.9321 18.9361 42.5217 21.7356 42.5217C24.589 42.5217 27.2335 41.9493 29.7552 40.8561C32.1865 39.8016 34.3551 38.3532 36.2136 36.5003C38.0699 34.6431 39.4826 32.4588 40.5205 29.9904C41.5822 27.4553 42.1873 24.8277 42.1873 21.9763C42.1873 19.4476 41.72 17.0761 40.8436 14.7691C39.9972 12.559 38.8645 10.5619 37.342 8.74339C35.8496 6.9615 34.1053 5.47876 32.1241 4.33603C29.0166 2.54338 25.8251 1.48242 22.1125 1.48242C21.9316 1.48242 21.7507 1.48242 21.5741 1.48242C17.9132 1.48242 14.5645 2.53262 11.401 4.33603C9.41121 5.468 7.63243 6.97012 6.12499 8.74339Z" fill="#9DBDCC"/>
<path fill-rule="evenodd" clip-rule="evenodd" d="M90.9525 8.81836C88.9605 8.81836 87.13 9.14116 85.4073 9.84057C83.6845 10.54 82.177 11.5084 80.8892 12.7996C79.5971 14.0908 78.5721 15.5435 77.926 17.2113C77.2283 18.877 76.9053 20.7062 76.9053 22.6968C76.9053 24.5799 77.2283 26.4091 77.926 28.0748C78.5721 29.6888 79.5971 31.1952 80.8892 32.4865C82.233 33.7239 83.7383 34.7461 85.4611 35.4455C87.13 36.0911 89.0143 36.4677 90.9525 36.4677C92.9423 36.4677 94.7189 36.0911 96.4956 35.4455C98.1645 34.7461 99.7258 33.7239 101.018 32.4865C102.362 31.1952 103.331 29.6888 104.031 28.021C104.731 26.3553 105.054 24.5799 105.054 22.6968C105.054 20.7062 104.731 18.877 104.031 17.2113C103.385 15.5435 102.416 14.0908 101.072 12.7996C99.7796 11.5084 98.2184 10.54 96.4956 9.84057C94.7728 9.14116 92.9423 8.81836 90.9525 8.81836ZM90.9525 17.6417C92.2963 17.6417 93.373 18.0721 94.1806 19.0384C94.9881 19.953 95.4188 21.1366 95.4188 22.6968C95.4188 24.1495 94.9881 25.3869 94.1806 26.2477C93.373 27.1623 92.2963 27.5927 90.9525 27.5927C89.6066 27.5927 88.5836 27.1623 87.7761 26.2477C86.9147 25.3869 86.5378 24.1495 86.5378 22.6968C86.5378 21.1366 86.9147 19.953 87.7761 19.0384C88.5836 18.0721 89.6066 17.6417 90.9525 17.6417Z" fill="#9DBDCC"/>
<path fill-rule="evenodd" clip-rule="evenodd" d="M72.3791 28.4844C72.5944 27.2491 72.7021 25.6889 72.7021 23.8059V9.55078H63.2332V23.9135C63.2332 25.5275 63.0695 26.6573 62.641 27.3567C62.2103 28.0023 61.5642 28.323 60.5952 28.323C59.6261 28.323 58.98 28.0023 58.5493 27.3567C58.1725 26.7649 57.9571 25.5813 57.9571 23.9135V9.55078H48.5378V23.8059C48.4839 25.7965 48.6454 27.3029 48.8608 28.4844C49.0762 29.7218 49.5068 30.6902 49.9914 31.4972C51.0681 33.1651 52.5217 34.4025 54.35 35.2633C56.1267 36.1779 58.2263 36.6083 60.5952 36.6083C62.964 36.6083 65.0077 36.1779 66.8381 35.2633C68.6686 34.4025 70.1222 33.1651 71.1451 31.4972C71.6835 30.6902 72.112 29.668 72.3791 28.4844Z" fill="#9DBDCC"/>
<path fill-rule="evenodd" clip-rule="evenodd" d="M118.345 9.55078H108.872V35.9089H127.547V27.3567H118.345V9.55078Z" fill="#9DBDCC"/>
<path fill-rule="evenodd" clip-rule="evenodd" d="M35.4044 8.90358C32.8762 5.84123 29.5943 3.84845 25.5565 3.09524C21.5747 2.34202 17.8061 2.93598 14.2528 4.87282C12.4245 5.89288 10.8632 7.1841 9.62499 8.68837C8.3329 10.2486 7.36382 12.024 6.71778 14.0147C6.07173 16.0591 5.91022 18.2111 6.12557 20.3072C6.66394 18.9622 7.4715 17.7269 8.44057 16.5433C9.84034 14.8755 11.5631 13.6381 13.4991 12.7234C15.4373 11.8626 17.5369 11.3784 19.7442 11.3246C21.9516 11.3246 24.1029 11.755 26.0949 12.6158C28.1945 13.4767 30.025 14.7679 31.5863 16.4895C32.1785 17.0813 32.663 17.7807 33.1433 18.478C33.8453 18.478 34.543 18.5318 35.1374 18.6932C36.6965 19.1236 37.9369 19.9306 38.906 21.1142L38.9577 20.361C39.1213 18.2649 38.906 16.2743 38.3116 14.3375C37.7216 12.4006 36.7525 10.5714 35.4044 8.90358Z" fill="#F5F5F5"/>
<path fill-rule="evenodd" clip-rule="evenodd" d="M5.6932 28.271C5.96239 29.8829 6.44693 31.4431 7.25448 32.8419C8.00821 34.2407 9.03112 35.532 10.3232 36.6618L10.9693 37.1998C13.1744 38.7041 15.5433 39.7801 18.1275 40.3181C19.7964 40.6409 21.4654 40.5333 23.0783 40.1545C24.8011 39.7801 26.4162 39.0785 27.9237 38.0585C26.5239 37.7378 25.2857 36.9846 24.3166 35.8548L23.9397 35.4244C21.8961 35.6396 19.8503 35.5858 17.8044 35.1554C15.2202 34.5636 12.9591 33.4875 10.8616 31.9811C8.8696 30.4747 7.20065 28.5379 5.96239 26.2804L5.63936 25.6348C5.58553 26.4956 5.58553 27.408 5.6932 28.271Z" fill="#F5F5F5"/>
<path fill-rule="evenodd" clip-rule="evenodd" d="M24.8567 14.7149C22.9724 13.9079 20.9287 13.5312 18.829 13.5312C16.7832 13.585 14.8451 14.0155 13.0684 14.8763C11.294 15.6833 9.73269 16.8669 8.4406 18.3733C7.52536 19.501 6.77164 20.7384 6.28711 22.0296C6.66397 23.6437 7.25618 25.1501 8.11758 26.6565C9.35583 28.7526 10.9709 30.528 12.9608 31.9268C14.8989 33.3257 17.1062 34.2403 19.4751 34.7783C20.9287 35.0473 22.4361 35.1549 23.9414 35.1011C23.3492 34.1327 22.9724 33.1105 22.8108 31.9268C22.5955 30.7432 22.6515 29.5596 22.8647 28.2705C23.1339 26.7103 23.7261 25.2577 24.5336 23.9127C25.395 22.5676 26.5256 21.3302 27.8715 20.3618C28.7329 19.7162 29.6482 19.232 30.5634 18.8554L30.0789 18.3174C28.5714 16.7593 26.8486 15.5219 24.8567 14.7149Z" fill="#F5F5F5"/>
<path fill-rule="evenodd" clip-rule="evenodd" d="M39.2289 23.9125L38.7422 23.1055C38.0445 25.5265 36.7524 27.6764 35.0813 29.6132C34.7066 31.2273 34.0605 32.6799 33.1991 34.0249C32.3399 35.3699 31.2093 36.5535 29.9172 37.5715C30.8325 37.6296 31.7477 37.4639 32.6629 37.1454C33.5222 36.8225 34.3276 36.3383 35.1373 35.6927C36.214 34.6705 37.2348 33.4869 38.0962 32.2495L38.2598 32.0343C38.6346 31.2273 39.0136 30.4202 39.2806 29.667C39.5519 28.86 39.7113 28.053 39.7673 27.3019C39.819 26.4949 39.819 25.7955 39.6596 25.0961C39.5519 24.6657 39.3883 24.2891 39.2289 23.9125Z" fill="#EFF6FA"/>
<path fill-rule="evenodd" clip-rule="evenodd" d="M3.80896 14.4452C3.11338 16.3821 2.73221 18.4244 2.62669 20.6302C2.57501 23.4816 3.11338 26.2255 4.18582 28.8058C4.72419 30.0432 5.37024 31.2268 6.1778 32.3566C6.93152 33.4327 7.79291 34.4549 8.76199 35.3695C6.66233 33.0561 5.42408 30.366 5.04722 27.3553C4.93954 26.3331 4.93954 25.3647 4.99338 24.3425C4.29349 22.4056 3.91663 20.4688 3.91663 18.4782C3.91663 16.5973 4.23965 14.7681 4.83187 12.885C5.3164 11.5938 5.96245 10.3564 6.66233 9.22656C5.42408 10.8406 4.50884 12.5622 3.80896 14.4452Z" fill="#9DBDCC"/>
<path fill-rule="evenodd" clip-rule="evenodd" d="M40.5686 15.575C40.0862 14.0147 39.4402 12.5083 38.6305 11.1095C37.8251 9.76447 36.856 8.52706 35.6716 7.39939C34.5949 6.27172 33.3544 5.30331 31.959 4.49414C33.1391 5.30331 34.2158 6.27172 35.1849 7.34774C36.6923 9.06506 37.8251 10.8943 38.5228 12.9387C39.2249 15.037 39.5479 17.189 39.3842 19.4465C39.3325 20.1459 39.2249 20.7915 39.1172 21.4909C39.3842 21.9213 39.6556 22.4593 39.8709 22.9973C40.4093 24.5576 40.5169 26.2254 40.2456 27.8911C41.0553 25.5798 41.486 23.1587 41.43 20.6301C41.3223 18.9085 41.0553 17.189 40.5686 15.575Z" fill="#9DBDCC"/>
<path fill-rule="evenodd" clip-rule="evenodd" d="M34.2175 20.6836C34.7559 21.8134 35.0789 23.0508 35.2426 24.2883C35.4019 25.5257 35.4579 26.7093 35.3503 27.8908L35.1349 29.0744C36.75 27.1935 37.8268 25.0953 38.4728 22.6742C38.0938 22.2976 37.7191 21.921 37.2884 21.5982C36.427 21.0064 35.4019 20.6836 34.2175 20.6836Z" fill="#9DBDCC"/>
<path fill-rule="evenodd" clip-rule="evenodd" d="M30.9927 34.8848C31.6388 33.9702 32.1772 32.948 32.554 31.9258C30.4005 33.486 28.0317 34.562 25.4475 35.1C25.8244 35.6918 26.3089 36.1761 26.8473 36.5527C27.3857 36.9293 27.9779 37.1983 28.6777 37.4135C29.5391 36.6603 30.3467 35.7994 30.9927 34.8848Z" fill="#F5F5F5"/>
<path fill-rule="evenodd" clip-rule="evenodd" d="M20.1758 40.6402L22.4908 40.7478C24.4806 40.6918 26.3649 40.3173 28.1954 39.7234C29.9182 39.1337 31.5871 38.3246 33.0364 37.3066C32.1255 37.737 31.1564 38.0577 30.1335 38.1094C29.8105 38.1653 29.4336 38.1653 29.0568 38.1653C26.4188 39.8869 23.4577 40.6918 20.1758 40.6402Z" fill="#F5F5F5"/>
<path fill-rule="evenodd" clip-rule="evenodd" d="M32.9816 25.0427C32.6607 23.6439 32.1762 22.3527 31.4763 21.1152C30.238 21.4918 29.1613 22.1375 28.1384 22.9983C27.0616 23.9129 26.1464 25.0427 25.4465 26.3339C24.8543 27.6251 24.4774 28.8604 24.3698 30.1516C24.2082 31.3891 24.3698 32.5189 24.6928 33.5949C24.8543 33.9715 24.962 34.2943 25.1773 34.6171C26.5232 34.4557 27.7615 34.0791 28.9998 33.5411C30.2919 33.0569 31.4763 32.3575 32.6025 31.4967L32.7102 31.4429C32.9299 30.6358 33.0892 29.8288 33.1969 29.0218C33.3046 27.6768 33.2486 26.3877 32.9816 25.0427Z" fill="#F5F5F5"/>
</svg>
