<svg width="24" height="24" viewBox="0 0 24 24" fill="none" xmlns="http://www.w3.org/2000/svg">
<circle cx="9" cy="9" r="9" fill="#E3ECE8"/>
<path d="M10.2555 15.296C10.0315 15.8934 9.71152 16.4107 9.29552 16.848C8.87952 17.2747 8.38885 17.6 7.82352 17.824C7.26885 18.048 6.66085 18.16 5.99952 18.16C4.99685 18.16 4.12752 17.9414 3.39152 17.504C2.66618 17.056 2.10085 16.4267 1.69552 15.616C1.30085 14.8054 1.10352 13.84 1.10352 12.72C1.10352 11.6 1.30085 10.6347 1.69552 9.82403C2.10085 9.01336 2.66618 8.38936 3.39152 7.95203C4.12752 7.50403 4.98618 7.28003 5.96752 7.28003C6.65018 7.28003 7.25818 7.37603 7.79152 7.56803C8.32485 7.74936 8.77818 8.0267 9.15152 8.40003C9.53552 8.7627 9.83952 9.2107 10.0635 9.74403L8.79952 10.336C8.56485 9.72803 8.22352 9.26936 7.77552 8.96003C7.33818 8.64003 6.76752 8.48003 6.06352 8.48003C5.34885 8.48003 4.71952 8.6507 4.17552 8.99203C3.63152 9.3227 3.20485 9.8027 2.89552 10.432C2.59685 11.0614 2.44752 11.824 2.44752 12.72C2.44752 13.6054 2.59152 14.368 2.87952 15.008C3.16752 15.6374 3.57818 16.1227 4.11152 16.464C4.64485 16.7947 5.27418 16.96 5.99952 16.96C6.70352 16.96 7.31685 16.784 7.83952 16.432C8.36218 16.0694 8.74085 15.5307 8.97552 14.816L10.2555 15.296Z" fill="#292929"/>
<path d="M15.0015 17.9999V7.43994H18.7615C20.0095 7.43994 20.9215 7.70127 21.4975 8.22394C22.0735 8.74661 22.3615 9.45594 22.3615 10.3519C22.3615 10.8853 22.2068 11.3706 21.8975 11.8079C21.5881 12.2346 21.1508 12.5066 20.5855 12.6239V12.6399C21.2148 12.7573 21.7108 13.0453 22.0735 13.5039C22.4468 13.9519 22.6335 14.4639 22.6335 15.0399C22.6335 15.9359 22.2975 16.6559 21.6255 17.1999C20.9535 17.7333 19.9935 17.9999 18.7455 17.9999H15.0015ZM16.2815 16.7999H19.0495C19.8068 16.7999 20.3668 16.6453 20.7295 16.3359C21.1028 16.0266 21.2895 15.5946 21.2895 15.0399C21.2895 14.4746 21.1028 14.0426 20.7295 13.7439C20.3668 13.4346 19.8068 13.2799 19.0495 13.2799H16.2815V16.7999ZM16.2815 12.0799H18.7775C20.2708 12.0799 21.0175 11.5039 21.0175 10.3519C21.0175 9.21061 20.2708 8.63994 18.7775 8.63994H16.2815V12.0799Z" fill="#292929"/>
<path d="M10.5 6V4.5M10.5 3V4.5M10.5 4.5H9M10.5 4.5H12" stroke="#292929"/>
<path d="M20.5 6V4.5M20.5 3V4.5M20.5 4.5H19M20.5 4.5H22" stroke="#292929"/>
</svg>
