<svg width="24" height="24" viewBox="0 0 24 24" fill="none" xmlns="http://www.w3.org/2000/svg">
<circle cx="9" cy="9" r="9" fill="#E3ECE8"/>
<circle cx="12" cy="12" r="3.5" stroke="#292929"/>
<path d="M7.35355 12.3536C7.54882 12.1583 7.54882 11.8417 7.35355 11.6464L4.17157 8.46447C3.97631 8.2692 3.65973 8.2692 3.46447 8.46447C3.2692 8.65973 3.2692 8.97631 3.46447 9.17157L6.29289 12L3.46447 14.8284C3.2692 15.0237 3.2692 15.3403 3.46447 15.5355C3.65973 15.7308 3.97631 15.7308 4.17157 15.5355L7.35355 12.3536ZM0 12.5H7V11.5H0V12.5Z" fill="#292929"/>
<path d="M16.6464 11.6464C16.4512 11.8417 16.4512 12.1583 16.6464 12.3536L19.8284 15.5355C20.0237 15.7308 20.3403 15.7308 20.5355 15.5355C20.7308 15.3403 20.7308 15.0237 20.5355 14.8284L17.7071 12L20.5355 9.17157C20.7308 8.97631 20.7308 8.65972 20.5355 8.46446C20.3403 8.2692 20.0237 8.2692 19.8284 8.46446L16.6464 11.6464ZM23.4209 11.5L17 11.5L17 12.5L23.4209 12.5L23.4209 11.5Z" fill="#292929"/>
</svg>
