<svg width="24" height="24" viewBox="0 0 24 24" fill="none" xmlns="http://www.w3.org/2000/svg">
<path d="M16.394 12.8947H8.78571L5.65385 6.05263H20.5646C20.9642 6.05263 21.2023 6.49816 20.9803 6.8304L17.2255 12.4503C17.04 12.728 16.728 12.8947 16.394 12.8947Z" fill="#292929"/>
<path d="M2 4H4.07224C4.46343 4 4.81869 4.2281 4.98151 4.5838L8.78571 12.8947M8.78571 12.8947H16.322C16.6948 12.8947 17.0366 12.6874 17.2089 12.3568L20 7M8.78571 12.8947L7.11586 15.1397C6.89137 15.4415 6.85523 15.8438 7.02234 16.1808L7.15299 16.4443C7.32179 16.7847 7.66893 17 8.04889 17H19.6429" stroke="#292929" stroke-width="1.5"/>
<circle cx="9.5" cy="20.5" r="1.5" fill="#292929"/>
<circle cx="17.5" cy="20.5" r="1.5" fill="#292929"/>
</svg>
