<svg width="695" height="450" viewBox="0 0 695 450" fill="none" xmlns="http://www.w3.org/2000/svg">
<path d="M493.07 318.389C493.07 318.389 564.835 285.685 627.074 276.408C689.314 267.131 694.077 272.32 694.734 283.955C695.39 295.591 643.661 321.849 563.192 328.767C482.888 335.685 473.035 329.867 473.035 329.867L493.07 318.389Z" fill="#E1DEE5"/>
<path d="M484.038 330.182C484.038 330.182 587.498 333.641 631.345 347.163C675.192 360.528 686.195 375.779 677.655 388.515C669.116 401.251 602.77 394.333 562.044 379.71C521.152 365.087 484.038 330.182 484.038 330.182Z" fill="#E1DEE5"/>
<path d="M496.025 332.069C520.659 323.106 546.606 316.974 572.06 310.371C601.127 302.981 630.03 295.591 659.097 288.515C664.845 287.1 670.593 285.685 676.505 284.427C678.639 283.955 680.774 283.484 682.745 283.012C684.059 282.698 685.537 281.911 686.85 281.754C687.507 281.597 687.179 280.811 686.686 280.968C685.537 281.125 684.223 281.125 682.909 281.282C681.103 281.597 679.296 282.069 677.654 282.383C672.727 283.484 667.801 284.742 662.874 285.842C649.408 289.144 635.942 292.446 622.476 295.748C594.065 302.823 565.819 310.056 537.573 317.603C532.811 318.861 527.884 320.276 523.122 321.691C513.925 324.364 504.401 327.194 495.861 331.597C495.368 331.597 495.697 332.226 496.025 332.069Z" fill="#CBA8BF"/>
<path d="M494.22 338.043C538.724 352.037 585.035 359.27 629.867 372.634C636.107 374.521 642.348 376.408 648.588 378.452C654.664 380.496 660.905 382.855 667.145 384.584C668.13 384.899 668.787 383.483 667.802 383.012C657.785 377.98 646.289 374.993 635.45 371.848C624.119 368.546 612.788 365.559 601.292 362.729C578.63 357.068 555.803 352.194 533.141 346.691C520.331 343.546 507.358 340.402 494.713 336.943C493.727 336.471 493.399 337.729 494.22 338.043Z" fill="#CBA8BF"/>
<path d="M547.263 316.346C546.935 316.503 546.442 316.66 546.114 316.975C545.949 316.975 546.114 317.132 546.278 317.132C546.606 316.817 546.935 316.66 547.263 316.346C547.427 316.503 547.427 316.346 547.263 316.346Z" fill="#CBA8BF"/>
<path d="M546.441 316.974C546.277 316.974 545.949 317.131 545.784 317.131C545.949 317.131 545.949 316.974 546.113 316.974C546.277 316.817 546.605 316.502 546.77 316.345C547.262 315.873 547.755 315.244 548.083 314.773C549.069 313.515 549.89 312.257 550.875 311.156C553.01 308.483 555.309 306.125 557.608 303.609C559.743 301.25 561.878 299.049 564.177 296.848C566.476 294.647 568.94 292.603 570.91 290.244C571.074 290.087 570.746 289.93 570.582 289.93C567.954 291.659 565.819 294.018 563.684 296.062C561.385 298.42 559.086 300.779 556.787 303.137C554.652 305.496 552.517 307.854 550.218 310.213C549.069 311.313 547.919 312.571 546.934 313.672C546.113 314.615 544.963 315.559 545.127 316.817V316.974C545.784 317.288 545.949 317.288 546.441 316.974Z" fill="#CBA8BF"/>
<path d="M583.226 307.54C590.78 310.528 598.991 311.785 606.874 313.358C610.979 314.144 615.085 314.93 619.026 315.716C622.967 316.502 627.073 317.446 631.014 317.289C631.343 317.289 631.507 316.817 631.179 316.66C627.566 315.087 623.789 314.458 620.011 313.829C615.742 313.043 611.636 312.257 607.366 311.471C599.32 310.056 591.273 308.483 583.554 306.125C582.897 306.125 582.569 307.226 583.226 307.54Z" fill="#CBA8BF"/>
<path d="M609.996 300.308C612.131 298.422 614.101 296.535 616.236 294.648C618.371 292.761 620.177 290.56 622.312 288.673C624.447 286.786 626.582 285.057 628.717 283.327C629.702 282.541 630.852 281.598 632.001 280.811C633.151 280.025 634.3 279.239 635.122 278.139C635.286 277.824 634.957 277.51 634.793 277.667C633.644 277.981 632.658 278.925 631.837 279.711C630.688 280.654 629.538 281.44 628.553 282.384C626.418 284.271 624.119 286 621.984 287.887C619.849 289.774 617.714 291.346 615.579 293.233C613.444 295.277 611.474 297.321 609.503 299.679C608.846 300.151 609.503 300.78 609.996 300.308Z" fill="#CBA8BF"/>
<path d="M652.363 287.885C657.126 283.011 662.545 278.766 667.8 274.363C667.964 274.206 667.8 273.891 667.636 274.049C661.395 277.193 656.304 282.068 651.706 287.099C651.049 287.571 651.87 288.357 652.363 287.885Z" fill="#CBA8BF"/>
<path d="M638.733 294.961C644.317 295.747 649.736 296.533 655.155 297.634C657.783 298.106 660.575 298.735 663.202 299.363C665.994 299.992 668.621 300.936 671.413 301.25C671.742 301.25 671.906 300.936 671.577 300.779C666.979 297.948 660.903 297.005 655.648 296.062C650.064 295.118 644.481 294.489 638.897 294.018C638.405 294.018 638.24 294.804 638.733 294.961Z" fill="#CBA8BF"/>
<path d="M535.275 320.119C536.096 321.534 538.724 321.849 540.202 322.163C542.665 322.635 545.128 323.107 547.427 323.736C549.891 324.364 552.19 324.993 554.653 325.78C556.952 326.566 559.416 327.352 561.879 327.666C562.207 327.666 562.372 327.352 562.043 327.195C558.102 324.679 553.011 323.421 548.577 322.32C546.278 321.691 543.815 321.22 541.516 320.748C540.366 320.591 539.381 320.434 538.231 320.276C537.246 320.119 536.26 319.805 535.275 319.805C535.275 319.962 535.111 319.962 535.275 320.119Z" fill="#CBA8BF"/>
<path d="M533.469 347.635C538.067 345.748 542.501 343.862 546.935 341.818C549.07 340.874 551.205 339.773 553.34 338.673C555.31 337.729 557.774 336.629 559.416 335.056C559.744 334.742 559.416 334.428 559.087 334.585C556.788 335.056 554.653 336.314 552.519 337.415C550.384 338.516 548.249 339.459 546.114 340.56C541.68 342.761 537.41 344.962 532.976 347.006C532.484 347.006 532.976 347.792 533.469 347.635Z" fill="#CBA8BF"/>
<path d="M574.196 356.597C583.228 352.037 592.753 348.578 601.785 343.861C601.95 343.704 601.785 343.39 601.621 343.547C596.695 345.276 592.096 347.32 587.334 349.207C582.736 351.094 577.973 353.138 573.704 355.811C573.047 356.125 573.539 356.912 574.196 356.597Z" fill="#CBA8BF"/>
<path d="M615.743 367.446C620.505 365.873 625.267 364.144 630.03 362.414C632.329 361.628 634.628 360.685 637.091 359.899C639.226 359.112 641.69 358.483 643.496 357.226C643.824 356.911 643.496 356.439 643.167 356.439C640.868 356.439 638.569 357.54 636.434 358.326C633.971 359.27 631.672 360.056 629.209 360.999C624.61 362.729 620.012 364.616 615.578 366.66C614.921 366.817 615.25 367.603 615.743 367.446Z" fill="#CBA8BF"/>
<path d="M652.857 377.981C655.813 376.88 658.933 375.936 662.053 375.15C663.695 374.836 665.173 374.521 666.815 374.207C668.458 373.892 669.936 373.735 671.414 373.106C671.742 372.949 671.906 372.477 671.414 372.32C668.293 371.848 664.681 372.635 661.725 373.421C658.44 374.364 655.32 375.465 652.364 376.723C651.707 377.037 652.2 378.295 652.857 377.981Z" fill="#CBA8BF"/>
<path d="M632.164 373.892C634.627 377.037 637.255 380.182 640.047 383.169C642.674 386.156 645.466 389.144 648.751 391.502C649.243 391.817 649.9 391.188 649.572 390.716C648.422 389.144 647.108 387.729 645.795 386.314C644.317 384.899 643.003 383.326 641.689 381.754C638.897 378.766 636.105 375.936 633.314 373.106C632.821 372.634 631.671 373.263 632.164 373.892Z" fill="#CBA8BF"/>
<path d="M589.14 362.099C591.274 366.973 593.902 371.533 597.351 375.621C600.799 379.709 604.576 383.64 609.01 386.785C609.339 387.099 609.831 386.47 609.503 386.156C605.89 382.382 602.277 378.609 598.993 374.363C595.873 370.275 592.917 366.03 590.125 361.627C589.961 361.156 588.811 361.47 589.14 362.099Z" fill="#CBA8BF"/>
<path d="M549.563 352.981C553.504 358.798 557.774 364.302 562.536 369.333C565 371.849 567.463 374.364 569.926 376.88C571.24 378.138 572.39 379.396 573.703 380.496C575.017 381.597 576.331 383.012 577.809 383.798C578.302 384.113 579.123 383.484 578.794 382.855C577.809 381.597 576.495 380.497 575.346 379.396C574.032 378.295 572.882 377.195 571.733 375.937C569.105 373.578 566.642 371.063 564.343 368.39C559.58 363.201 554.982 357.855 550.712 352.352C550.22 351.88 549.234 352.352 549.563 352.981Z" fill="#CBA8BF"/>
<path d="M517.866 344.804C519.509 347.949 521.151 350.936 523.286 353.766C524.271 355.181 525.421 356.439 526.734 357.697C527.884 358.955 529.198 360.37 530.676 361.313C531.333 361.785 531.989 360.999 531.661 360.37C530.84 358.955 529.526 357.697 528.541 356.439C527.391 355.024 526.406 353.766 525.256 352.351C523.121 349.678 520.822 347.005 518.687 344.332C518.359 343.703 517.538 344.175 517.866 344.804Z" fill="#CBA8BF"/>
<path d="M544.472 396.846C543.98 397.318 544.472 397.947 544.965 398.104H545.129C555.475 398.104 566.149 397.161 576.167 394.33C577.809 393.859 579.616 393.073 579.616 391.186C579.616 389.142 577.481 388.198 575.674 387.884C570.255 387.098 564.671 388.67 559.416 390.085C554.161 391.658 548.742 393.23 544.472 396.846Z" fill="#DDC5D6"/>
<path d="M669.937 417.445C663.861 413.2 655.978 411.313 648.753 410.527C643.99 410.055 639.228 410.055 634.63 410.369C631.017 410.684 627.24 410.998 623.627 411.785C619.357 410.841 615.087 409.898 610.817 408.797C609.996 408.64 609.175 408.483 608.354 408.325C608.026 408.168 607.533 408.011 607.205 407.854C606.876 407.696 606.548 407.854 606.383 408.011C606.219 408.011 606.055 408.011 605.891 407.854C606.876 407.696 607.861 407.539 608.847 407.539C612.624 407.067 616.401 406.439 620.178 405.495C624.119 404.552 628.061 403.294 631.838 401.879C634.958 400.778 638.407 399.52 640.87 397.476C642.841 395.747 644.319 392.759 642.676 390.558C641.198 388.514 638.078 388.671 635.779 388.986C628.882 389.772 621.985 391.501 615.58 394.332C611.803 395.904 608.19 397.948 604.906 400.306C602.442 402.036 599.486 404.08 597.516 406.439C593.246 405.652 588.976 404.866 584.706 404.237C566.642 401.722 548.578 399.363 530.513 397.319C528.214 397.005 525.915 396.847 523.616 396.69C525.915 396.061 528.378 395.432 530.677 394.646C535.111 393.388 539.545 391.973 543.979 390.401C552.026 387.571 560.073 384.111 566.642 378.923C568.613 377.35 573.539 373.891 572.061 370.904C570.583 367.916 565.657 368.703 563.029 369.174C554.325 370.432 545.95 374.363 538.56 378.766C534.455 381.124 530.677 383.954 527.229 387.099C524.109 389.772 520.824 392.602 518.525 395.904C518.197 396.061 517.868 396.218 517.54 396.376C515.405 396.218 513.106 396.218 510.971 396.218C510.971 396.061 511.135 395.904 511.135 395.747C513.763 393.703 516.226 391.03 518.525 388.828C521.481 385.841 524.273 383.011 526.9 379.866C529.528 376.721 532.155 373.42 534.455 369.96C536.589 366.816 539.053 363.671 539.874 359.898C540.531 357.225 540.038 353.765 537.411 352.193C534.619 350.621 531.827 353.451 529.856 355.023C524.273 359.74 520.003 365.715 516.719 372.162C513.106 379.394 510.314 387.413 509 395.432C508.672 395.747 508.508 396.061 508.179 396.218V396.376C505.387 396.376 502.76 396.69 499.968 396.847C499.804 396.847 499.804 397.005 499.968 397.005C502.76 396.847 505.387 396.847 508.179 396.847C508.343 397.162 508.672 397.319 509.164 397.162C509.329 397.162 509.329 397.005 509.493 396.847C509.657 396.847 509.657 396.847 509.821 396.847C509.986 396.847 510.15 396.847 510.314 396.847C512.285 397.005 514.255 397.005 516.062 397.162C516.062 397.319 516.062 397.476 516.226 397.476C516.226 397.476 516.226 397.476 516.39 397.634C516.719 403.294 519.346 409.112 522.138 413.986C525.094 419.017 529.035 424.206 533.962 427.822C536.097 429.395 539.381 431.281 542.173 430.181C544.636 429.08 543.651 425.778 543.158 423.891C541.516 418.231 537.575 412.728 533.469 408.325C531.17 405.81 528.543 403.451 525.751 401.407C524.437 400.306 522.959 399.363 521.481 398.42C520.988 398.105 520.66 397.791 520.167 397.634C520.167 397.634 520.167 397.634 520.332 397.634C526.9 398.262 533.305 399.363 539.71 400.464C540.202 403.451 542.009 406.124 543.815 408.64C545.786 411.313 547.921 413.829 550.22 416.187C554.982 421.061 560.402 425.149 566.314 428.608C568.777 430.024 571.733 431.281 574.525 429.866C576.988 428.451 577.316 425.935 576.167 423.577C573.539 417.759 567.135 413.671 561.88 410.055C558.431 407.854 554.818 405.81 551.205 403.923C549.727 403.137 548.249 402.508 546.771 401.879C549.07 402.193 551.369 402.665 553.668 402.979C571.076 405.652 588.648 407.539 605.727 411.47C606.383 414.143 607.533 416.659 608.683 419.174C610.161 422.476 611.639 425.778 613.281 429.08C616.565 435.369 621.163 440.873 626.09 446.061C627.732 447.791 630.688 450.464 633.316 449.206C636.108 447.948 634.794 444.332 633.973 442.288C631.509 435.841 628.225 429.709 623.955 424.049C621.656 421.061 619.193 418.231 616.401 415.558C615.58 414.772 614.923 414.143 614.102 413.357C616.894 413.986 619.685 414.615 622.477 415.244C624.94 417.759 629.374 418.86 632.659 420.118C636.6 421.533 640.541 422.791 644.483 423.891C652.53 425.935 660.741 427.193 669.116 427.508C671.415 427.665 675.028 427.979 674.864 424.835C674.864 421.376 672.236 419.017 669.937 417.445Z" fill="#DCBFD3"/>
<path d="M529.855 137.413C551.696 118.702 557.773 109.111 564.834 95.432C571.896 81.7527 585.033 54.0797 618.206 60.2118C651.379 66.5011 651.379 93.7024 643.66 110.055C635.942 126.564 624.118 127.036 624.775 149.206C625.432 171.376 628.88 195.118 592.752 216.659C556.623 238.2 489.128 272.791 474.841 260.841C460.554 249.049 507.849 156.124 529.855 137.413Z" fill="#E1DEE5"/>
<path d="M508.506 222.476C515.567 213.357 522.629 204.237 529.69 194.96C536.587 185.684 543.485 176.407 550.546 167.287C564.834 148.734 579.285 130.338 594.229 112.413C598.335 107.539 602.604 102.507 606.71 97.6331C610.815 92.7589 615.249 88.0419 619.027 82.8532C619.519 82.2243 618.534 81.5953 617.877 82.067C613.443 85.9979 609.666 90.5576 605.889 95.1174C602.112 99.5199 598.335 103.922 594.722 108.325C587.332 117.13 580.27 126.092 573.045 135.212C558.757 153.294 545.127 171.847 531.332 190.243C523.45 200.778 516.06 211.627 508.506 222.476C508.341 222.476 508.506 222.476 508.506 222.476Z" fill="#CBA8BF"/>
<path d="M566.476 143.86C568.611 133.483 571.239 123.106 574.523 112.886C577.643 102.665 582.57 93.0742 586.675 83.1685C586.84 82.854 586.347 82.6968 586.183 83.0113C580.107 91.9735 576.165 102.351 572.717 112.414C569.104 122.634 566.969 133.169 566.148 143.86C565.984 144.018 566.312 144.018 566.476 143.86Z" fill="#CBA8BF"/>
<path d="M582.405 126.092C591.273 122.79 599.977 119.331 608.845 116.029C613.115 114.456 617.549 112.727 621.818 111.155C623.953 110.368 626.088 109.582 628.387 108.796C630.194 108.167 632.329 107.695 633.807 106.438C634.135 106.123 633.807 105.494 633.478 105.494C631.343 105.494 629.373 106.595 627.566 107.224C625.431 108.01 623.132 108.796 620.997 109.582C616.563 111.312 611.965 112.884 607.531 114.614C598.992 117.916 590.452 121.217 581.913 124.991C581.256 125.148 581.748 126.249 582.405 126.092Z" fill="#CBA8BF"/>
<path d="M538.065 183.01C551.696 180.022 564.998 175.777 578.135 171.375C584.704 169.173 591.273 167.129 597.678 164.771C604.082 162.57 610.98 160.683 616.727 157.381C617.22 157.066 616.892 156.438 616.399 156.438C609.666 157.538 603.097 160.368 596.693 162.57C590.124 164.771 583.719 166.972 577.15 169.173C564.012 173.419 550.875 177.349 537.901 182.224C537.409 182.381 537.573 183.01 538.065 183.01Z" fill="#CBA8BF"/>
<path d="M531.168 193.703C533.96 185.684 535.438 177.193 536.916 168.86C537.573 164.929 538.23 160.998 538.723 157.225C539.379 152.822 539.544 148.577 539.708 144.174C539.708 143.703 539.051 143.546 538.887 144.017C537.08 152.351 535.931 160.684 534.617 169.017C533.303 177.193 531.333 185.37 530.511 193.546C530.347 194.175 531.004 194.175 531.168 193.703Z" fill="#CBA8BF"/>
<path d="M686.358 207.382C683.895 204.866 679.132 204.866 676.012 205.338C667.637 206.438 659.426 210.055 652.364 214.3C644.646 218.86 637.42 224.52 631.016 230.809C630.687 230.967 630.523 230.967 630.195 231.124C627.895 231.753 625.761 232.539 623.461 233.168C615.25 235.841 607.039 238.828 598.828 241.973C596.365 242.916 594.066 243.86 591.603 244.803C593.409 243.545 595.051 242.13 596.693 240.558C599.157 238.199 601.62 235.684 603.755 233.011C608.025 227.665 611.473 221.69 613.937 215.401C614.758 213.042 616.4 209.583 614.265 207.539C611.966 205.338 609.338 208.011 607.532 209.426C602.113 213.986 597.679 219.331 594.23 225.306C590.453 231.753 587.825 238.986 586.84 246.533V246.69C579.45 249.52 572.224 252.508 564.999 255.495C564.178 255.652 563.356 255.967 562.7 256.438C562.7 256.438 562.7 256.596 562.535 256.596C558.758 258.168 554.981 259.74 551.204 261.313C548.905 262.256 546.77 263.199 544.471 264.3C545.785 262.728 546.934 260.998 547.92 259.426C549.89 256.596 551.533 253.608 553.175 250.621C556.131 244.803 558.266 238.357 558.266 231.91C558.266 229.552 558.101 226.721 555.966 225.149C554.16 223.734 551.861 223.891 550.055 225.149C547.591 227.036 545.785 230.181 544.471 232.853C542.993 235.684 542.008 238.828 541.351 241.973C539.544 249.835 539.216 258.483 540.037 266.501C539.709 266.659 539.216 266.816 538.887 267.13C535.11 269.017 531.169 271.376 528.213 274.52C528.049 274.677 528.213 274.992 528.542 274.992C531.99 273.262 535.275 271.061 538.887 269.332C542.008 267.759 545.128 266.344 548.248 265.086C549.233 267.445 550.711 269.646 552.025 271.847C553.667 274.206 555.31 276.564 557.116 278.923C560.729 283.325 564.999 287.413 570.582 289.457C572.881 290.401 575.509 290.715 577.808 289.772C579.943 288.828 581.092 286.627 580.764 284.426C580.271 281.596 577.972 279.395 576.166 277.508C573.867 275.306 571.567 273.105 568.94 271.218C566.148 269.174 563.028 267.445 559.908 265.872C558.266 265.086 556.623 264.3 554.981 263.671C554.324 263.514 553.667 263.199 553.175 262.885C556.131 261.627 559.251 260.369 562.207 259.111C573.538 268.86 588.975 276.093 604.412 273.577C606.875 273.262 610.816 272.633 612.13 270.275C613.28 268.074 610.981 266.501 609.174 265.558C602.441 261.784 595.544 258.64 587.825 257.067C583.72 256.281 579.45 255.652 575.18 255.495C573.867 255.495 572.553 255.495 571.403 255.495C571.896 255.338 572.224 255.181 572.717 255.023C583.884 250.464 596.693 245.432 607.86 241.344C609.667 243.703 625.596 250.935 635.614 252.979C640.54 253.923 645.631 254.709 650.722 255.023C655.649 255.338 660.575 255.023 664.353 251.879C665.009 251.407 664.681 250.621 664.188 250.306C655.649 244.489 645.96 240.872 635.614 238.828C630.523 237.885 625.432 237.256 620.177 237.57C619.52 237.57 619.027 237.57 618.371 237.728C619.192 237.413 620.013 237.099 620.834 236.784C624.611 235.526 628.388 234.269 632.165 233.011C633.479 233.011 634.793 232.854 636.106 232.696C638.898 232.382 641.526 231.91 644.153 231.438C649.08 230.495 654.007 229.552 658.769 227.979C663.039 226.721 667.637 225.149 671.414 222.948C675.191 220.904 679.132 218.703 682.253 215.715C684.88 213.514 688.986 209.897 686.358 207.382Z" fill="#DCBFD3"/>
<path d="M205.026 272.791C183.677 236.785 176.944 228.609 165.613 237.886C154.282 247.162 153.789 260.527 153.789 260.527C153.789 260.527 128.992 209.898 110.435 206.754C91.8775 203.452 100.91 246.534 100.91 244.961C100.91 243.389 61.0039 194.961 24.5468 198.106C-11.9103 201.408 -2.38547 251.879 25.6964 270.747C53.7782 289.615 105.015 291.659 105.015 291.659C105.015 291.659 52.7929 291.188 65.6021 320.119C78.5756 349.207 162.821 345.905 162.821 345.905C162.821 345.905 111.748 347.477 121.273 364.773C130.798 382.068 226.375 368.075 226.375 368.075C226.375 368.075 226.375 308.798 205.026 272.791Z" fill="#E1DEE5"/>
<path d="M40.6398 236.785C68.0648 246.376 93.5191 260.527 117.331 276.565C142.293 293.546 165.448 312.885 188.111 332.54C201.248 343.86 213.893 355.653 227.524 366.502C228.181 366.974 229.166 366.187 228.509 365.558C217.342 354.867 205.682 344.804 194.023 334.426C182.363 324.206 170.703 314.143 158.715 304.238C136.052 285.684 111.912 268.546 85.8007 254.552C71.5134 247.005 56.5693 240.401 41.1325 235.37C40.1472 235.055 39.8187 236.47 40.6398 236.785Z" fill="#CBA8BF"/>
<path d="M113.39 227.351C119.63 238.043 125.706 248.892 131.126 259.899C133.917 265.559 136.545 271.219 139.008 277.037C140.158 279.867 141.307 282.54 142.293 285.37C143.442 288.2 144.263 291.188 145.906 293.704C146.07 294.018 146.727 293.861 146.727 293.546C146.398 290.559 145.084 287.729 143.935 284.899C142.785 282.068 141.8 279.395 140.651 276.565C138.187 270.905 135.724 265.244 132.932 259.741C127.349 248.421 121.108 237.414 113.718 227.194C113.554 227.037 113.39 227.194 113.39 227.351Z" fill="#CBA8BF"/>
<path d="M90.0712 319.961C103.045 319.804 115.854 319.175 128.827 318.231C135.232 317.76 141.637 317.131 147.877 316.502C150.997 316.187 154.282 315.873 157.402 315.401C160.522 315.087 163.807 314.929 166.598 313.829C167.091 313.672 167.091 313.043 166.434 312.885C163.314 312.571 160.029 313.357 156.909 313.672C153.789 314.143 150.505 314.458 147.384 314.772C140.98 315.401 134.739 316.03 128.335 316.659C115.525 317.76 102.88 318.389 90.0712 318.86C89.5785 319.017 89.5785 319.961 90.0712 319.961Z" fill="#CBA8BF"/>
<path d="M178.586 264.773C184.334 276.88 189.26 289.458 193.694 302.194C195.993 308.483 197.964 314.773 199.935 321.062C200.92 324.207 201.905 327.351 202.726 330.496C203.547 333.641 204.204 336.943 205.518 339.93C205.682 340.244 206.175 340.244 206.175 339.773C206.011 336.471 204.861 333.169 204.04 330.024C203.219 326.88 202.398 323.578 201.413 320.433C199.606 313.987 197.471 307.54 195.172 301.251C190.738 288.515 185.155 276.408 179.079 264.301C179.079 263.829 178.257 264.301 178.586 264.773Z" fill="#CBA8BF"/>
<path d="M154.446 362.572C163.314 360.842 172.181 358.798 181.049 356.597C185.319 355.496 189.589 354.396 193.859 353.295C198.293 352.037 203.055 351.094 207.325 349.364C207.982 349.05 207.817 348.106 206.996 348.264C202.562 349.05 198.293 350.622 193.859 351.723C189.425 352.823 185.155 353.924 180.721 355.025C171.853 357.069 162.985 359.113 154.117 361C152.968 361.314 153.46 362.886 154.446 362.572Z" fill="#CBA8BF"/>
<path d="M224.24 385.056C219.477 383.955 214.551 383.955 209.624 383.955C206.011 383.955 202.398 384.27 198.786 384.584C197.636 383.012 195.994 381.754 194.516 380.339C192.709 378.609 190.739 377.037 188.768 375.465C184.991 372.477 180.885 369.647 176.123 367.918C174.317 367.289 171.689 366.345 169.718 366.817C167.583 367.446 167.912 369.333 168.733 370.905C170.704 374.993 174.973 377.352 178.915 379.553C183.349 382.069 187.947 384.27 193.202 385.056C186.14 385.842 179.079 386.943 172.017 388.358C167.419 384.27 161.507 381.911 155.431 380.339C149.026 378.767 142.129 377.352 135.396 377.981C132.604 378.295 120.616 380.496 124.393 385.213C126.2 387.414 130.305 387.729 132.933 388.358C136.546 389.144 140.323 389.616 144.1 390.087C148.534 390.559 152.968 390.716 157.402 390.559C159.208 390.559 161.015 390.402 162.985 390.245C153.46 392.446 143.936 395.119 134.575 397.949C128.991 399.679 123.408 401.408 117.824 403.452C112.077 396.691 101.238 394.018 92.3701 394.804C90.7279 394.962 81.3673 396.062 83.338 399.05C83.8306 399.836 85.1444 400.15 85.9655 400.465C87.4435 400.937 88.7573 401.565 90.2353 401.88C92.8628 402.666 95.8188 403.138 98.4463 403.609C101.402 404.081 104.523 404.396 107.643 404.553C109.778 404.71 112.077 404.867 114.212 404.553C112.241 405.339 110.434 405.968 108.464 406.754C103.866 408.641 99.2674 410.842 94.9977 413.358C94.9977 413.358 94.8335 413.358 94.8335 413.201C92.0417 412.572 88.5931 413.358 85.9655 413.987C83.0095 414.616 80.2178 415.716 77.5902 416.974C72.1709 419.49 67.4085 423.578 63.9599 428.295C62.6461 430.182 59.8543 433.327 60.8397 435.842C61.6608 438.044 64.4525 438.358 66.5874 437.886C69.5434 437.257 72.4994 435.685 75.1269 434.27C77.9187 432.698 80.5462 430.968 83.0095 429.081C85.9655 426.88 88.5931 424.364 91.0564 421.849C93.027 419.647 94.8335 417.446 95.983 414.93C102.388 411.471 109.121 408.641 116.018 406.282C114.704 407.383 113.39 408.484 112.241 409.584C110.106 411.786 108.135 414.301 106.493 416.974C103.045 422.32 100.581 428.452 99.9243 434.742C99.5959 437.257 98.7748 448.421 104.523 445.119C107.15 443.704 109.285 440.088 110.763 437.729C112.569 434.742 114.047 431.597 115.197 428.452C116.511 424.679 117.168 420.905 117.66 416.974C117.989 413.201 118.153 409.113 119.138 405.339C123.572 403.767 128.006 402.352 132.44 401.094C135.396 400.15 138.516 399.207 141.637 398.421C140.323 399.521 139.009 400.779 137.695 402.037C134.739 405.182 132.276 408.955 130.634 412.886C130.305 413.83 129.813 414.93 129.648 415.874C129.32 416.974 128.991 418.075 128.991 419.176C128.991 420.905 130.962 420.905 132.276 420.276C136.217 418.232 139.502 414.616 141.965 411.157C145.085 407.069 147.713 400.779 149.519 396.062C153.789 394.962 158.059 393.861 162.328 392.76C160.194 395.905 158.551 399.364 157.402 403.138C156.088 407.54 155.103 412.415 155.76 417.132C155.924 418.704 156.416 421.22 158.059 422.163C159.701 423.106 161.179 421.848 162 420.591C164.628 416.817 166.27 412.572 166.105 408.012C165.941 405.339 166.106 402.509 165.941 399.836C165.777 397.32 166.434 394.647 165.777 392.131C174.152 390.245 182.363 388.672 190.903 387.729C191.888 387.572 193.038 387.414 194.187 387.414C193.859 387.729 193.53 387.886 193.038 388.201C190.903 389.773 189.096 391.503 187.29 393.389C183.677 397.163 180.721 401.565 178.422 406.282C177.601 408.169 176.287 410.685 177.765 412.572C179.243 414.301 181.871 413.83 183.841 413.201C188.768 411.314 192.217 406.911 194.844 402.666C196.486 399.993 197.964 397.163 199.114 394.333C200.099 391.974 201.413 389.458 201.577 386.943C203.548 386.786 205.519 386.628 207.489 386.628C213.073 386.471 218.656 386.786 224.404 386.314C224.568 385.999 224.732 385.213 224.24 385.056Z" fill="#DCBFD3"/>
<path d="M216.85 194.646L213.401 210.526L212.908 212.885L208.146 234.897C208.146 234.897 178.258 228.136 143.771 191.187C142.457 189.771 140.979 188.199 139.666 186.627C139.337 186.155 138.844 185.683 138.516 185.212C129.812 174.52 121.93 161.312 115.525 147.947L115.032 147.161C98.6102 112.57 91.0561 75.6202 98.1176 69.1737C107.807 60.8403 115.032 60.9975 151.489 87.5699L153.132 88.8278C157.073 91.658 161.179 94.8027 165.777 98.2618C171.853 102.822 177.272 107.853 182.035 113.042L183.513 114.771C215.372 150.463 216.85 194.646 216.85 194.646Z" fill="#E1DEE5"/>
<path d="M151.489 87.5702C152.474 94.8029 153.295 102.193 154.28 109.426C154.937 115.243 155.594 121.061 156.087 126.878C156.415 129.709 156.58 132.696 156.908 135.526C157.072 137.099 157.072 138.828 157.401 140.4C148.533 129.394 139.829 118.388 130.961 107.382C122.75 97.1614 114.539 86.9412 106.164 76.8783C105.999 76.5638 105.507 76.8783 105.671 77.1928C119.63 95.4318 133.917 113.356 148.204 131.281C151.489 135.369 154.609 139.457 157.729 143.388C157.729 143.702 157.893 144.017 157.893 144.331C158.058 144.646 158.386 144.646 158.55 144.489C169.389 158.168 180.063 171.847 190.902 185.684C194.843 190.715 198.784 195.747 202.89 200.778C206.174 204.866 209.295 208.954 212.743 212.885C213.729 213.828 214.55 214.929 215.535 215.872C215.863 216.187 216.685 215.872 216.356 215.401C215.371 213.828 214.221 212.099 213.236 210.526C207.817 202.822 201.576 195.589 195.664 188.357C188.439 179.237 181.049 170.275 173.823 161.312C168.896 155.023 163.805 148.891 158.879 142.602C158.879 140.4 158.55 138.199 158.386 136.155C158.222 133.168 157.893 130.338 157.565 127.35C157.072 121.375 156.415 115.4 155.758 109.583C154.937 102.665 153.952 95.7463 152.967 88.828L151.489 87.5702Z" fill="#CBA8BF"/>
<path d="M183.676 114.613C183.676 121.532 183.676 128.45 183.183 135.525C182.69 145.903 182.362 156.595 180.884 166.972C180.884 167.286 180.391 167.286 180.391 166.972C180.72 156.437 181.869 145.903 181.869 135.525C182.033 127.978 182.033 120.588 182.033 113.041L183.676 114.613Z" fill="#CBA8BF"/>
<path d="M115.688 148.105C120.779 147.947 125.87 147.79 130.961 147.476C135.066 147.161 139.172 147.004 143.277 146.532C147.383 146.218 151.981 146.218 155.922 144.96C156.415 144.803 156.415 144.174 155.922 144.174C152.145 143.859 148.04 144.645 144.263 145.117C140.157 145.589 136.052 145.903 131.946 146.218C126.363 146.69 120.779 147.161 115.196 147.318L115.688 148.105Z" fill="#CBA8BF"/>
<path d="M188.109 182.853C182.69 184.268 177.107 184.74 171.687 185.369C166.432 185.84 161.177 186.312 155.922 186.627C150.503 186.941 145.248 186.941 139.828 186.941C139.5 186.469 139.007 185.998 138.679 185.526C144.591 185.526 150.503 185.526 156.415 185.211C161.67 184.897 166.925 184.583 172.18 184.111C177.435 183.639 182.69 182.696 187.945 182.381C188.438 182.224 188.438 182.696 188.109 182.853Z" fill="#CBA8BF"/>
<path d="M209.953 262.569C204.862 259.268 199.114 256.909 193.859 254.079C188.44 251.249 183.185 248.104 178.094 244.959C169.39 239.456 161.015 233.324 152.968 226.878C153.461 224.676 153.461 222.161 153.625 219.959C153.789 217.129 153.625 214.142 153.461 211.311C153.297 208.481 152.968 205.808 152.64 202.978C152.311 200.777 151.819 198.576 150.505 196.689C149.519 195.274 147.877 193.701 146.071 193.701C144.264 193.701 143.115 194.959 142.786 196.689C142.13 201.72 142.951 207.381 144.1 212.255C144.921 215.714 146.071 219.016 147.549 222.318C138.188 214.613 129.156 206.595 120.288 198.418C121.273 195.903 121.273 192.915 121.438 190.399C121.766 186.783 121.766 183.324 121.438 179.708C120.945 174.047 119.96 168.387 117.825 163.041C117.168 161.311 116.347 157.852 113.883 157.695C111.584 157.538 109.942 160.368 109.121 162.098C106.658 167.129 107.807 173.104 109.285 178.135C110.599 183.167 112.405 188.355 114.705 193.23C107.315 186.154 100.089 178.764 93.0274 171.217C90.0714 168.072 87.2796 164.771 84.4879 161.469C84.4879 159.896 83.6668 158.167 83.1741 156.752C82.0246 153.45 80.875 150.305 79.7255 147.16C77.2621 140.399 74.4704 133.796 70.5291 127.506C67.5731 122.789 57.5556 109.267 52.3005 118.858C50.1656 122.947 51.3152 127.978 52.6289 132.066C53.9427 136.311 56.2418 140.242 59.0336 143.859C62.1538 147.947 65.9309 151.72 70.2006 155.022C72.1713 156.594 74.3062 158.009 76.441 159.267C78.5759 160.525 80.875 162.098 83.5025 162.412C86.4585 166.186 89.5787 169.959 92.8632 173.576C83.0099 168.387 70.6933 167.129 59.8547 169.488C56.406 170.274 45.7316 172.947 49.5087 178.293C51.3152 180.808 54.928 180.651 57.884 180.808C61.9896 180.966 66.2593 181.28 70.3648 181.28C74.963 181.28 79.5612 181.123 83.9952 180.494C86.1301 180.179 88.4292 179.865 90.5641 179.393C92.5347 178.921 94.6696 178.45 96.476 177.506C97.7898 178.921 99.1036 180.337 100.417 181.909C94.8338 182.066 89.2503 183.796 84.4879 186.469C81.8603 187.884 79.5612 189.613 77.2621 191.5C74.963 193.387 72.6639 195.431 71.0217 198.104C69.5437 200.462 68.8868 203.293 69.5437 205.966C70.2006 208.639 72.3355 209.11 74.963 208.639C77.919 208.167 80.5466 206.595 82.8457 204.865C85.309 203.135 87.6081 201.091 89.9072 199.205C92.5347 196.846 94.998 194.488 97.2971 191.815C99.1036 189.613 101.567 187.098 102.224 184.11C106.494 188.67 110.763 193.072 115.197 197.318C120.288 202.192 125.379 207.066 130.634 211.783C119.795 211.154 108.793 211.154 98.7751 215.714C96.8045 216.657 94.5054 217.758 94.1769 220.117C93.8485 222.161 95.1623 223.733 97.2971 224.047C100.253 224.362 103.538 224.047 106.494 223.576C109.614 223.104 112.734 222.632 115.69 221.689C119.139 220.745 122.587 219.645 125.872 218.387C127.514 217.758 129.156 217.129 130.798 216.343C131.784 215.871 132.933 215.4 134.083 214.928C143.936 223.733 154.118 232.381 164.956 240.085C155.103 238.513 144.593 240.714 136.546 246.532C134.74 247.79 132.112 249.676 131.127 251.72C129.977 254.079 132.44 255.022 134.411 255.18C140.159 255.966 146.235 253.922 151.49 251.72C154.775 250.463 157.731 248.89 160.687 247.003C162 246.217 163.314 245.274 164.628 244.33C165.613 243.544 166.927 242.758 167.584 241.657C169.062 242.758 170.704 243.859 172.182 244.959C177.93 248.89 184.006 252.507 190.246 255.808C196.323 259.11 202.563 262.412 209.46 263.827C210.281 264.299 210.774 263.041 209.953 262.569Z" fill="#DCBFD3"/>
<path d="M171.033 174.206C161.344 148.577 175.138 130.18 185.648 117.759C196.158 105.338 205.519 94.4885 201.413 76.8784C197.308 59.4255 199.771 39.1424 213.566 27.5072C227.36 15.8719 236.721 23.5764 236.721 23.5764C236.721 23.5764 259.876 -2.83879 289.929 8.79645C319.981 20.4317 336.568 47.3186 337.881 71.3752C339.031 95.4319 328.521 138.357 337.06 150.778C345.6 163.199 351.676 178.136 347.57 189.614C339.524 212.885 304.052 220.747 277.612 221.533C228.346 223.262 180.722 199.835 171.033 174.206Z" fill="#605663"/>
<path d="M314.726 176.406C314.726 176.406 329.342 186.626 344.615 207.696C359.887 228.765 379.429 262.256 379.429 262.256C379.429 262.256 375.16 298.419 370.561 306.595C365.963 314.771 361.365 313.042 361.365 313.042C361.365 313.042 346.749 305.18 335.747 291.186C324.744 277.035 314.726 176.406 314.726 176.406Z" fill="white"/>
<path d="M491.565 40.1471C491.565 40.1471 506.181 33.7006 520.633 42.8201C535.084 51.9396 538.04 64.2038 536.234 77.5686C534.756 88.4177 524.081 112.789 525.888 125.21C527.694 137.632 542.474 148.009 539.025 164.833C535.577 181.814 516.199 194.707 496.328 192.663C476.457 190.462 452.481 173.952 451.824 147.537C451.495 121.279 491.565 40.1471 491.565 40.1471Z" fill="#746781"/>
<path d="M428.532 137.569C428.532 137.569 428.86 159.425 428.532 160.683C428.203 161.783 413.095 167.444 413.095 167.444C413.095 167.444 402.092 195.588 421.142 200.463C440.356 205.494 464.825 188.356 470.244 182.695C475.663 177.192 482.232 164.614 482.232 164.614C482.232 164.614 469.587 161.469 468.602 158.639C467.617 155.651 467.945 135.525 467.945 135.525L428.532 137.569Z" fill="#E5CFCC"/>
<path d="M374.01 214.3C374.01 214.3 372.532 231.753 371.875 250.778C371.383 267.445 369.412 284.269 369.412 284.269C369.412 284.269 390.104 273.42 396.18 264.457C402.256 255.338 405.869 246.061 403.734 237.57C401.6 229.08 390.925 210.369 387.641 209.897C384.356 209.426 374.01 214.3 374.01 214.3Z" fill="#E5CFCC"/>
<path d="M531.827 232.067C524.601 221.847 492.907 244.017 492.907 244.017C492.907 244.017 503.91 266.501 502.432 280.495C501.282 291.03 495.206 300.149 488.144 308.483C489.294 309.741 490.443 311.156 491.593 312.413C496.027 317.917 499.968 323.891 503.417 330.181C514.912 321.219 525.751 310.527 531.335 300.778C545.293 276.564 540.859 244.646 531.827 232.067Z" fill="#E5CFCC"/>
<path d="M401.435 170.904C401.435 170.904 390.761 172.005 381.4 186.942C371.875 201.879 371.711 219.332 371.711 219.332L399.793 220.433C399.793 220.433 405.212 194.804 405.212 185.684C405.212 176.722 401.435 170.904 401.435 170.904Z" fill="white"/>
<path d="M489.785 167.602C489.785 167.602 503.252 164.929 510.806 175.15C518.36 185.37 536.096 234.426 536.096 234.426C536.096 234.426 524.764 238.829 512.284 242.917C499.803 247.005 491.263 251.408 491.263 251.408C491.263 251.408 466.63 235.999 464.988 215.558C463.674 195.118 486.173 167.445 489.785 167.602Z" fill="white"/>
<path d="M196.98 378.294C195.666 394.174 194.352 414.457 193.531 427.665C197.637 427.665 201.742 427.508 205.848 427.508C212.252 427.508 218.657 427.508 224.897 427.35C247.56 427.35 270.223 427.193 292.885 427.35C304.052 427.35 315.383 427.35 326.55 427.35C331.97 427.35 337.225 427.35 342.644 427.35C341.659 412.885 340.017 391.344 339.36 376.407C338.21 352.193 342.151 298.105 342.151 298.105C342.151 298.105 350.527 261.155 336.404 228.293C326.222 204.394 324.087 185.369 311.278 170.589C306.351 165.085 298.961 160.84 290.75 155.966C274.164 146.06 245.425 150.148 245.425 150.148C245.425 150.148 206.833 164.771 187.455 187.255C169.226 208.482 174.81 254.551 180.722 272.476C187.127 291.973 194.188 303.922 194.188 303.922C194.188 303.922 199.115 352.665 196.98 378.294Z" fill="white"/>
<path d="M244.604 118.072C244.604 118.072 245.59 148.733 244.276 152.192C243.126 155.651 237.214 158.638 237.214 158.638C237.214 158.638 257.578 179.079 275.97 174.676C294.199 170.274 294.856 161.311 294.856 161.311C294.856 161.311 289.601 157.852 287.302 154.55C284.838 151.406 285.824 130.336 285.824 130.336L244.604 118.072Z" fill="#D7B3AD"/>
<path d="M229.332 89.1419C229.332 89.1419 240.663 82.3809 246.575 63.6702C252.487 44.9595 251.83 30.6512 249.202 27.0349C246.575 23.4185 227.197 25.1481 219.15 37.4123C211.103 49.6764 215.209 74.991 218.657 81.5948C222.106 88.1985 229.332 89.1419 229.332 89.1419Z" fill="#51382F"/>
<path d="M235.079 88.0414C235.079 88.0414 225.882 77.5068 218.657 81.5948C211.267 85.6829 215.208 97.9471 226.539 100.62C234.093 102.35 240.005 98.576 240.005 98.576L235.079 88.0414Z" fill="#FF9E98"/>
<path d="M433.458 43.2303C433.458 43.2303 425.083 44.9599 414.409 54.5511C403.57 64.1423 402.092 69.6454 400.614 72.3184C399.136 74.8341 390.867 87.5408 390.867 87.5408C390.867 87.5408 388.856 67.4302 397.724 48.8767C407.906 27.493 432.966 17.9158 460.391 21.3749C487.816 24.834 500.953 41.8152 504.402 64.9285C508.015 89.4568 500.789 100.149 500.789 100.149C500.789 100.149 491.429 99.9914 488.637 98.5763C485.845 97.1612 464.004 77.3499 450.045 61.7838C438.057 48.5762 433.458 43.2303 433.458 43.2303Z" fill="#746781"/>
<path d="M445.58 144.489C472.284 143.31 492.435 117.748 490.589 87.3932C488.742 57.0387 465.597 33.3868 438.893 34.5653C412.189 35.7439 392.038 61.3064 393.885 91.661C395.732 122.016 418.876 145.667 445.58 144.489Z" fill="#E5CFCC"/>
<path d="M455.301 87.8599C458.17 87.1016 462.847 86.4262 467.38 88.428C467.878 88.6206 468.33 88.8763 468.782 89.1319" stroke="#222222" stroke-width="0.811215" stroke-miterlimit="10"/>
<path d="M410.094 87.9403C412.818 86.7935 417.345 85.479 422.133 86.8332C422.655 86.9549 423.141 87.1454 423.627 87.336" stroke="#222222" stroke-width="0.811215" stroke-miterlimit="10"/>
<path d="M501.519 113.427C506.678 111.648 509.529 106.163 507.886 101.178C506.244 96.1917 500.729 93.5924 495.569 95.3718C490.41 97.1512 487.559 102.636 489.201 107.621C490.844 112.607 496.359 115.207 501.519 113.427Z" fill="#E5CFCC"/>
<path d="M399.048 107.087C401.169 102.396 398.909 96.5253 394.002 93.9754C389.094 91.4254 383.396 93.1614 381.275 97.8529C379.154 102.544 381.414 108.415 386.321 110.965C391.229 113.515 396.927 111.779 399.048 107.087Z" fill="#E5CFCC"/>
<path d="M501.461 113.349C496.258 115.162 490.789 112.523 489.167 107.59" stroke="#222222" stroke-width="0.811215" stroke-miterlimit="10"/>
<path d="M399.113 107.1C397.028 111.757 391.314 113.477 386.429 110.944" stroke="#222222" stroke-width="0.811215" stroke-miterlimit="10"/>
<path d="M493.828 104.339C494.938 103.911 496.979 103.257 499.412 103.539C501.479 103.755 503.01 104.582 504.051 105.163" stroke="#222222" stroke-width="0.811215" stroke-miterlimit="10"/>
<path d="M383.54 101.222C384.65 100.793 386.691 100.139 389.124 100.421C391.191 100.637 392.722 101.464 393.763 102.046" stroke="#222222" stroke-width="0.811215" stroke-miterlimit="10"/>
<path d="M487.991 114.215C481.73 127.179 466.208 145.437 441.648 145.619" stroke="#222222" stroke-width="0.811215" stroke-miterlimit="10"/>
<path d="M389.811 87.4724C391.186 87.9547 388.403 90.3582 395.35 95.0538C416.436 75.5337 430.225 63.6813 437.707 52.1617C440.749 47.4777 440.168 41.9141 441.209 49.5903C445.091 77.9045 480.481 104.108 491.818 100.773C496.99 99.2112 502.093 91.5065 504.465 85.4605C512.431 65.214 489.49 30.6173 457.231 21.5162C452.47 20.1883 433.007 16.4614 413.498 29.3974C382.894 49.7684 383.583 85.3338 389.811 87.4724Z" fill="#746781"/>
<path d="M437.043 117.839L430.604 119.598C429.995 119.764 429.795 120.564 430.24 121.053L436.175 127.575C436.351 127.769 436.599 127.87 436.848 127.851L443.755 127.322C443.943 127.307 444.119 127.225 444.255 127.089L450.482 120.818C450.916 120.381 450.763 119.602 450.195 119.357L443.9 116.647C443.629 116.53 443.323 116.57 443.094 116.752L440.061 119.165C439.754 119.409 439.324 119.391 439.023 119.122L437.797 118.026C437.586 117.837 437.304 117.767 437.043 117.839Z" fill="#CE969E"/>
<path d="M429.516 120.009C434.009 121.676 441.382 123.411 448.746 120.442C449.553 120.164 450.292 119.77 451.031 119.376" stroke="#222222" stroke-width="0.811215" stroke-miterlimit="10"/>
<ellipse rx="2.97057" ry="3.08572" transform="matrix(0.969159 0.246368 -0.205131 0.97872 418.936 94.5918)" fill="#222222"/>
<path d="M535.635 239.279C539.699 252.411 544.169 283.488 529.54 302.747C514.911 322.006 484.84 342.87 471.633 350.895" stroke="#222222" stroke-width="0.811215" stroke-miterlimit="10"/>
<ellipse rx="2.95931" ry="3.09619" transform="matrix(0.925062 0.379235 -0.349844 0.936996 458.895 95.5058)" fill="#222222"/>
<path d="M395.634 85.6897C408.775 78.4333 436.245 60.2065 440.999 45.3501C443.258 52.691 449.762 68.8871 457.708 74.9439" stroke="#222222" stroke-width="0.811215" stroke-miterlimit="10"/>
<path d="M228.018 162.884L239.677 156.752C239.677 156.752 258.234 175.934 275.149 172.79C292.064 169.645 292.557 158.796 292.557 158.796C292.557 158.796 306.023 166.186 307.337 169.173C308.65 172.161 307.829 217.287 303.067 231.595C298.304 245.903 293.706 260.369 290.258 259.111C286.973 257.696 228.018 162.884 228.018 162.884Z" fill="#CBA8BF"/>
<path d="M417.857 165.242C417.857 165.242 400.614 168.701 397.329 172.318C394.045 175.934 398.479 184.582 395.359 195.903C392.074 207.223 380.086 217.286 376.802 228.922C373.517 240.557 379.101 249.362 382.221 253.293C385.506 257.224 389.939 261.626 389.939 261.626C389.939 261.626 372.696 274.834 362.843 289.771C352.99 304.708 350.034 328.45 356.11 343.387C362.186 358.325 373.189 369.016 373.189 369.016C373.189 369.016 371.711 388.356 372.86 402.664C374.174 418.23 375.652 425.777 375.652 425.777H504.566C504.566 425.777 511.956 390.4 509.821 367.758C507.85 347.161 504.238 335.368 496.848 315.872C489.458 296.375 482.56 283.324 482.56 283.324L493.563 249.991C493.563 249.991 479.604 244.016 475.499 223.576C471.393 203.135 478.126 185.683 485.516 178.135C492.906 170.588 498.818 167.915 499.804 167.601C500.789 167.286 479.604 163.67 479.604 163.67C479.604 163.67 461.704 197.161 430.502 196.374C399.3 195.745 417.857 165.242 417.857 165.242Z" fill="#8597A2"/>
<path d="M347.899 337.886C347.899 337.886 363.007 334.899 365.142 333.798C367.441 332.697 374.01 319.333 380.086 313.043C386.162 306.597 388.626 304.867 387.969 303.767C386.984 302.351 381.4 304.395 376.309 308.641C371.218 312.886 367.77 316.345 367.77 316.345C367.77 316.345 372.204 308.641 381.729 302.037C386.162 299.05 389.447 298.263 387.969 296.377C386.491 294.49 380.251 296.062 373.682 300.779C367.113 305.653 363.5 310.685 363.5 310.685C363.5 310.685 366.949 304.238 373.517 299.207C380.086 294.175 382.878 292.446 382.385 290.716C382.057 288.987 373.517 291.345 367.934 296.691C362.186 301.88 359.23 306.125 359.23 306.125C359.23 306.125 363.993 297.792 368.427 294.49C372.861 291.188 377.459 288.043 377.13 286.471C376.638 284.899 371.218 285.528 364.485 291.188C357.752 296.848 353.811 304.395 353.811 304.395C353.811 304.395 355.453 299.364 351.84 300.936C348.227 302.509 341.002 312.572 341.002 312.572C341.002 312.572 343.629 320.905 345.6 327.352C347.899 333.798 347.899 337.886 347.899 337.886Z" fill="#D7B3AD"/>
<path d="M232.452 158.326C232.452 158.326 263.161 209.112 275.15 226.565C286.974 244.018 292.557 250.464 292.557 250.464C292.557 250.464 300.768 225.307 302.575 205.181C304.381 185.056 304.381 164.301 304.381 164.301C304.381 164.301 313.577 169.332 318.504 175.464C320.639 178.137 320.31 180.496 320.31 180.496C320.31 180.496 321.296 205.339 319.325 206.754C317.519 208.169 307.501 206.125 307.501 206.125C307.501 206.125 320.639 218.703 319.654 221.534C318.668 224.521 299.29 275.779 295.349 278.452C291.408 281.125 278.927 256.597 265.789 243.703C252.651 230.81 241.648 225.307 241.977 223.892C242.305 222.477 246.247 204.71 243.783 204.71C241.32 204.71 236.229 212.571 234.094 211.785C231.959 210.999 212.417 169.804 215.537 166.345C218.657 162.886 229.989 157.382 232.452 158.326Z" fill="white"/>
<path d="M220.194 163.41L234.67 212.287L244.575 204.263L241.528 223.96C255.243 233.93 284.501 258.539 291.815 277.214" stroke="#222222" stroke-width="0.811215" stroke-miterlimit="10"/>
<path d="M507.523 304.238C504.238 301.25 500.954 298.106 497.505 295.275C493.235 302.98 486.995 309.898 481.083 316.502C471.558 327.036 459.406 332.54 459.406 332.54C459.406 332.54 431.981 330.81 430.503 334.898C429.025 338.986 447.91 339.93 447.91 339.93C447.91 339.93 439.206 345.276 431.817 347.005C424.427 348.735 412.274 347.948 413.424 350.936C414.573 353.923 424.919 354.238 430.174 354.081C435.265 353.923 440.849 351.722 440.849 351.722C440.849 351.722 436.251 355.653 423.441 357.697C414.738 359.112 412.11 358.483 412.931 361.156C413.916 363.829 424.098 363.2 430.01 362.257C436.086 361.313 442.163 359.426 442.163 359.426C442.163 359.426 435.265 364.301 425.74 366.03C420.485 366.974 415.887 367.445 416.708 369.647C417.365 371.533 429.517 371.062 434.773 369.647C440.028 368.232 446.104 365.087 446.104 365.087C446.104 365.087 443.148 368.389 434.444 371.848C428.204 374.206 426.069 374.678 427.218 375.936C430.01 378.452 442.327 375.464 451.687 369.647C461.212 363.829 470.244 352.508 470.244 352.508C470.244 352.508 500.625 335.37 519.675 316.187C515.569 311.942 511.628 308.011 507.523 304.238Z" fill="#E5CFCC"/>
<path d="M310.128 79.8659C309.635 79.0797 308.979 78.2935 308.157 77.9791C307.008 77.3501 305.694 77.3501 304.545 78.1363C303.395 78.9225 303.067 80.3376 302.902 81.7527C302.738 82.8533 302.738 83.9539 303.067 85.0546C303.231 85.8407 303.559 86.6269 304.052 87.0986C304.709 87.7275 305.694 87.8848 306.515 87.7275C307.501 87.5703 308.65 87.2558 309.307 86.6269C309.964 86.1552 310.292 85.5263 310.457 84.7401C310.785 83.7967 310.949 82.5388 310.621 81.5954C310.785 81.1237 310.457 80.4948 310.128 79.8659Z" fill="#472D24"/>
<path d="M279.091 80.3376C278.598 79.3942 277.777 78.7652 276.956 78.2935C275.807 77.6646 274.164 77.6646 273.015 78.4508C271.865 79.3942 271.373 80.8093 271.208 82.2244C271.044 83.4822 271.044 84.5829 271.373 85.8407C271.537 86.6269 271.865 87.4131 272.522 88.042C273.179 88.6709 274.164 88.8282 275.15 88.8282C276.135 88.6709 277.449 88.3564 278.27 87.7275C278.927 87.2558 279.255 86.4697 279.584 85.6835C279.912 84.5829 280.076 83.325 279.748 82.2244C279.912 81.5954 279.584 80.9665 279.091 80.3376Z" fill="#472D24"/>
<path d="M293.339 280.133V423.847" stroke="#222222" stroke-width="0.811215" stroke-miterlimit="10"/>
<path d="M280.241 66.8153C278.763 66.3436 277.449 65.7146 275.971 65.5574C274.329 65.2429 272.687 65.2429 271.044 65.4002C269.566 65.5574 268.088 65.8719 266.775 66.8153C265.625 67.6014 264.64 69.0165 264.804 70.4316C264.968 71.5322 266.118 72.3184 267.267 71.6895C267.431 71.6895 267.431 71.5322 267.596 71.5322C267.431 71.6895 267.431 71.6895 267.596 71.5322C267.76 71.375 268.088 71.375 268.253 71.2178C267.924 71.375 267.924 71.375 268.253 71.2178C268.745 71.0605 269.074 70.9033 269.566 70.9033C270.552 70.5888 271.373 70.4316 272.358 70.2744C272.687 70.2744 272.687 70.2744 272.358 70.2744C272.522 70.2744 272.687 70.2744 272.851 70.2744C273.179 70.2744 273.508 70.2744 273.836 70.1171C274.657 69.9599 274.821 69.9599 274.493 70.1171C274.329 70.1171 274.329 70.1171 274.657 70.1171C274.986 70.1171 275.314 70.1171 275.643 69.9599C276.792 69.8027 278.106 69.6454 279.42 69.8027C280.405 69.9599 281.39 69.6454 281.554 68.5448C281.719 68.0731 281.226 67.1297 280.241 66.8153Z" fill="#472D24"/>
<path d="M302.903 69.1747C303.888 69.0175 304.873 68.8602 305.859 69.0175C306.844 69.0175 307.501 69.1747 308.486 69.332C308.65 69.332 308.815 69.4892 309.143 69.4892C309.307 69.4892 309.307 69.4892 309.471 69.6464C309.8 69.8036 309.143 69.4892 309.471 69.6464C309.8 69.8036 310.293 69.9609 310.621 70.1181C311.278 70.4326 311.935 71.0615 312.756 71.376C312.92 71.5332 313.084 71.5332 313.249 71.5332C313.249 71.5332 314.07 71.6905 313.577 71.5332C313.249 71.376 313.905 71.5332 313.905 71.5332C314.07 71.5332 314.07 71.5332 314.234 71.5332C314.727 71.5332 315.219 71.376 315.383 70.9043C316.04 69.8037 315.383 68.5458 314.727 67.7596C313.577 66.5018 311.606 65.7156 309.8 65.4011C308.486 65.2439 307.172 65.2439 305.859 65.4011C304.709 65.5584 303.559 65.8728 302.41 66.3445C300.439 67.2879 301.096 69.4892 302.903 69.1747Z" fill="#472D24"/>
<path d="M271.372 106.91C271.372 106.91 280.897 108.325 294.363 108.168C305.694 108.011 309.471 107.067 309.471 107.067C309.471 107.067 305.366 123.105 290.914 123.42C276.299 123.734 271.372 106.91 271.372 106.91Z" fill="#472D24"/>
<path d="M281.389 109.27C282.703 110.37 284.674 110.842 286.316 111.314C289.6 111.943 293.377 111.943 296.662 111.785C299.125 111.628 301.753 111.314 304.052 110.213C305.366 109.584 306.187 108.641 306.844 107.697C304.544 108.012 300.603 108.326 294.363 108.326C288.943 108.326 284.017 108.169 280.24 107.854C280.568 108.326 280.897 108.798 281.389 109.27Z" fill="white"/>
<path d="M296.99 121.219C294.691 119.647 292.063 118.546 289.272 118.075C286.808 117.603 284.017 117.603 281.553 117.76C280.404 117.76 279.254 117.917 278.105 118.075C281.061 121.062 285.33 123.42 290.75 123.42C293.377 123.42 295.676 122.792 297.647 121.848C297.483 121.534 297.318 121.376 296.99 121.219Z" fill="#FB6776"/>
<path d="M335.09 243.074C334.762 239.143 334.269 235.055 333.612 231.124C332.956 227.665 332.134 224.52 329.343 222.162C324.416 217.917 317.355 215.401 310.786 213.986C311.607 211.156 311.607 208.325 311.771 205.495C311.935 202.193 312.099 198.891 312.099 195.59C312.264 189.3 312.592 182.854 311.443 176.564C309.636 167.13 303.56 157.854 293.05 156.281C292.393 156.124 292.229 157.067 292.886 157.225C303.232 160.212 307.83 171.376 308.487 180.81C308.979 186.313 308.487 191.973 308.322 197.476C308.158 202.665 307.337 208.325 308.158 213.514C302.082 215.558 295.349 218.86 291.079 223.577C288.616 226.25 288.123 229.552 287.959 233.011C287.795 237.099 287.795 241.03 287.795 245.118C288.123 253.451 289.273 261.785 290.422 269.961C290.751 272.477 290.422 276.565 293.543 277.351C295.349 277.822 297.484 277.665 299.29 277.665C301.097 277.665 302.903 277.508 304.71 277.194C304.71 277.351 304.71 277.351 304.71 277.508C304.71 278.294 304.545 279.08 305.038 279.709C305.695 280.495 306.844 280.495 307.666 279.866C308.322 279.238 308.651 278.451 308.815 277.508C309.308 275.778 309.144 274.049 308.487 272.319C308.158 271.533 307.666 270.59 306.844 270.275C305.859 269.804 304.71 270.118 304.217 271.061C303.724 272.005 303.888 273.105 304.053 274.049C304.053 274.206 304.053 274.521 304.053 274.678C302.575 274.835 301.261 274.835 299.783 274.835C298.962 274.835 297.976 274.835 297.155 274.835C296.663 274.835 294.364 274.835 294.035 274.521C294.035 274.678 294.035 272.477 294.035 272.477C293.871 271.69 293.871 270.747 293.707 269.961C293.542 268.231 293.378 266.502 293.214 264.772C292.557 258.011 292.229 251.25 291.9 244.646C291.736 241.344 291.572 238.042 291.408 234.741C291.243 231.124 290.587 227.822 293.214 224.992C295.513 222.634 298.305 220.59 301.261 218.86C302.082 219.489 303.067 219.646 304.217 219.803C305.695 219.961 307.173 219.961 308.815 219.803C310.293 219.646 311.771 219.489 313.249 219.017C314.234 218.703 315.548 218.546 316.369 217.917C320.146 219.489 323.759 221.376 326.715 223.892C329.671 226.407 329.507 229.552 329.671 233.011C330 236.47 330.164 239.929 330.328 243.388C330.821 250.149 331.313 256.91 331.478 263.514C331.478 265.244 331.478 266.973 331.478 268.703C331.478 269.489 331.478 270.433 331.478 271.219C331.478 271.69 331.806 273.105 331.642 273.263C331.313 273.892 327.372 274.049 326.387 274.206C324.909 274.363 323.267 274.363 321.789 274.521C321.789 274.363 321.789 274.363 321.789 274.206C321.789 273.42 321.789 272.477 321.46 271.533C321.132 270.59 320.146 269.961 319.161 270.275C318.176 270.59 317.683 271.376 317.355 272.319C316.862 273.892 316.698 275.778 317.355 277.508C317.519 278.294 318.011 279.08 318.504 279.709C319.161 280.495 320.311 280.967 321.132 280.181C321.789 279.552 321.789 278.609 321.624 277.822C321.624 277.665 321.624 277.508 321.46 277.194C325.073 277.508 329.343 277.194 332.627 276.093C335.583 275.149 334.762 270.904 334.762 268.546C335.747 259.741 335.747 251.407 335.09 243.074ZM306.516 274.521C306.516 274.521 306.352 274.521 306.516 274.521C306.516 274.049 306.516 273.577 306.516 273.263C306.68 273.734 306.844 274.363 306.844 274.835C306.68 274.678 306.516 274.521 306.516 274.521ZM306.188 278.294C306.023 278.451 306.023 278.451 306.188 278.294C306.023 278.451 306.023 278.451 306.188 278.294ZM313.413 216.659C312.099 216.973 310.786 217.288 309.472 217.445C308.158 217.602 306.844 217.602 305.531 217.602C304.874 217.602 304.217 217.602 303.56 217.445C305.202 216.502 307.009 215.873 308.651 215.086C308.979 215.401 309.472 215.558 309.965 215.244C311.278 215.558 312.428 216.03 313.742 216.344C313.577 216.502 313.577 216.659 313.413 216.659ZM320.146 273.105C320.146 273.577 320.311 273.892 320.311 274.363C320.146 274.521 320.146 274.521 320.146 274.678C320.146 274.521 320.146 274.363 320.146 274.206C319.982 273.734 320.146 273.42 320.146 273.105Z" fill="#472D24"/>
<path d="M249.038 240.243C249.038 240.872 248.217 241.187 247.724 240.715C244.768 238.356 243.455 233.325 242.305 230.023C240.827 225.935 239.349 221.69 238.2 217.602C233.93 203.293 231.302 187.885 231.302 172.79C231.302 166.186 232.123 158.954 235.736 153.136C237.871 149.677 240.991 146.532 244.768 144.803C244.768 145.903 244.768 147.004 244.604 147.947C240.663 150.62 237.871 154.394 236.229 159.268C234.094 165.872 234.587 172.947 235.244 179.709C235.736 186.784 236.722 193.702 238.2 200.62C239.513 207.539 241.156 214.3 243.126 220.904C244.112 224.205 245.261 227.507 246.246 230.652C247.396 233.639 249.367 237.256 249.038 240.243Z" fill="#472D24"/>
<path d="M263.49 238.042C261.683 236.47 259.056 236.155 256.757 236.784C255.279 237.099 253.965 237.885 252.815 238.671C251.994 239.143 251.502 239.772 250.68 240.401C250.024 240.872 249.202 241.029 248.546 241.344C244.768 242.916 242.798 245.589 242.469 249.52C242.305 251.564 241.977 254.394 243.947 255.809C245.425 256.91 247.56 256.91 249.531 256.596C254.129 255.809 258.563 253.294 261.683 249.992C264.311 247.004 267.431 241.344 263.49 238.042Z" fill="#A0928D"/>
<path d="M247.725 251.721C248.218 251.878 248.71 252.192 249.367 252.192C250.024 252.192 250.681 252.192 251.174 252.035C252.323 251.878 253.473 251.249 254.622 250.463C256.593 249.048 258.071 247.004 259.056 244.802C259.056 244.645 258.892 244.488 258.728 244.645C257.085 246.06 255.772 247.79 253.965 249.048C253.144 249.677 252.159 250.148 251.174 250.463C250.188 250.777 249.039 251.092 247.889 251.092C247.561 251.249 247.396 251.563 247.725 251.721Z" fill="#472D24"/>
<path d="M254.95 241.973C254.621 241.03 254.293 240.087 253.636 239.143C252.486 237.571 250.844 236.313 248.709 236.47C246.739 236.47 244.932 237.728 244.604 239.772C244.44 241.03 244.604 242.288 245.097 243.389C245.261 244.018 245.589 244.646 245.918 245.275C246.246 245.904 246.739 246.69 247.56 247.005C248.545 247.477 249.366 247.162 250.352 246.848C251.173 246.533 251.994 246.219 252.979 245.904C253.8 245.59 254.621 245.275 255.114 244.646C255.442 243.703 255.278 242.76 254.95 241.973Z" fill="#472D24"/>
<path d="M278.105 293.389C278.105 293.389 293.246 300.905 309.34 304.207C325.434 307.351 340.838 310.842 340.838 310.842C340.345 310.056 346.257 316.188 349.049 327.351C351.84 338.358 351.348 340.716 351.348 340.716C351.348 340.716 337.882 347.949 305.53 350.465C272.029 352.98 256.1 348.106 244.276 344.962C232.452 341.502 253.636 287.257 278.105 293.389Z" fill="white"/>
<path d="M193.526 303.477C201.907 318.31 230.403 348.414 277.339 350.165C324.274 351.916 347.691 344.086 353.532 339.952" stroke="#222222" stroke-width="0.811215" stroke-miterlimit="10"/>
<path d="M227.812 216.664C229.336 234.902 240.003 275.025 270.481 289.615C300.958 304.205 330.42 309.798 341.341 310.771" stroke="#222222" stroke-width="0.811215" stroke-miterlimit="10"/>
<path d="M415.249 172.895C411.694 180.919 409.459 196.677 428.964 195.509C448.47 194.342 460.458 186.269 464.013 182.378" stroke="#222222" stroke-width="0.811215" stroke-miterlimit="10"/>
<path d="M254.48 123.288C240.578 118.76 232.313 130.898 215.332 113.89C202.577 97.5539 197.162 84.6379 199.562 64.6108C204.798 33.6571 226.963 16.0659 252.375 11.8638C272.561 8.6056 297.484 15.2165 316.614 40.1203C331.831 59.9294 332.256 92.7406 316.957 107.793C302.243 122.269 289.638 128.24 283.356 132.468C250.669 154.303 269.527 128.227 254.48 123.288Z" fill="#605663"/>
<path d="M266.652 141.177C239.352 139.972 218.75 113.838 220.638 82.8055C222.526 51.7726 246.188 27.5921 273.489 28.797C300.79 30.0018 321.391 56.1357 319.503 87.1686C317.615 118.202 293.953 142.382 266.652 141.177Z" fill="#D7B3AD"/>
<path d="M256.714 83.2832C253.781 82.5079 248.999 81.8175 244.365 83.864C243.856 84.0609 243.394 84.3223 242.932 84.5837" stroke="#222222" stroke-width="0.811215" stroke-miterlimit="10"/>
<path d="M302.931 83.3664C300.146 82.194 295.518 80.85 290.623 82.2345C290.089 82.359 289.592 82.5537 289.095 82.7485" stroke="#222222" stroke-width="0.811215" stroke-miterlimit="10"/>
<path d="M209.463 109.421C204.188 107.602 201.274 101.995 202.953 96.8975C204.633 91.8002 210.27 89.1427 215.545 90.9619C220.82 92.7811 223.735 98.388 222.056 103.485C220.376 108.583 214.738 111.24 209.463 109.421Z" fill="#D7B3AD"/>
<path d="M314.225 102.94C312.056 98.1433 314.366 92.1417 319.384 89.5348C324.401 86.9278 330.226 88.7027 332.395 93.499C334.563 98.2954 332.253 104.297 327.236 106.904C322.218 109.511 316.393 107.736 314.225 102.94Z" fill="#D7B3AD"/>
<path d="M209.523 109.343C214.842 111.196 220.433 108.498 222.091 103.455" stroke="#222222" stroke-width="0.811215" stroke-miterlimit="10"/>
<path d="M314.157 102.954C316.289 107.715 322.131 109.474 327.125 106.884" stroke="#222222" stroke-width="0.811215" stroke-miterlimit="10"/>
<path d="M217.326 100.131C216.191 99.6929 214.104 99.0245 211.617 99.3127C209.504 99.5335 207.939 100.379 206.875 100.973" stroke="#222222" stroke-width="0.811215" stroke-miterlimit="10"/>
<path d="M330.077 96.9438C328.942 96.5054 326.856 95.837 324.369 96.1252C322.255 96.346 320.69 97.1914 319.626 97.7857" stroke="#222222" stroke-width="0.811215" stroke-miterlimit="10"/>
<path d="M223.292 110.227C229.694 123.481 245.563 142.147 270.672 142.333" stroke="#222222" stroke-width="0.811215" stroke-miterlimit="10"/>
<path d="M323.667 82.8866C322.261 83.3797 325.106 85.8368 318.004 90.6374C296.447 70.6811 282.35 58.5638 274.701 46.7867C271.591 41.9981 272.184 36.3101 271.121 44.1578C267.152 73.1048 230.971 99.8943 219.38 96.4848C214.092 94.8877 208.876 87.0108 206.451 80.8298C198.307 60.1307 221.761 24.7608 254.74 15.4563C259.608 14.0988 279.506 10.2886 299.451 23.5137C330.738 44.3399 330.034 80.7002 323.667 82.8866Z" fill="#605663"/>
<path d="M275.376 113.931L281.984 115.736C282.597 115.903 282.806 116.698 282.365 117.183L276.258 123.894C276.083 124.087 275.834 124.188 275.582 124.169L268.517 123.627C268.324 123.612 268.143 123.528 268.004 123.388L261.61 116.948C261.176 116.512 261.322 115.746 261.886 115.504L268.37 112.712C268.645 112.593 268.958 112.635 269.192 112.821L272.294 115.288C272.606 115.536 273.044 115.521 273.346 115.251L274.614 114.117C274.825 113.928 275.11 113.859 275.376 113.931Z" fill="#A96C75"/>
<path d="M277.09 118.065C272.496 119.769 270.944 119.627 263.415 116.592C262.59 116.308 261.835 115.905 261.08 115.502" stroke="#222222" stroke-width="0.811215" stroke-miterlimit="10"/>
<ellipse rx="3.03695" ry="3.15467" transform="matrix(-0.969164 0.246369 0.205132 0.978724 293.892 90.1658)" fill="#222222"/>
<ellipse rx="3.03436" ry="3.15739" transform="matrix(-0.922345 0.378122 0.350731 0.93937 253.041 91.0996)" fill="#222222"/>
<path d="M317.714 81.0636C304.279 73.6451 276.196 55.0109 271.336 39.8224C269.026 47.3274 262.376 63.8855 254.253 70.0776" stroke="#222222" stroke-width="0.811215" stroke-miterlimit="10"/>
</svg>
