<svg width="584" height="334" viewBox="0 0 584 334" fill="none" xmlns="http://www.w3.org/2000/svg">
<path d="M107.14 21.1854C131.369 14.2975 150.193 12.1297 157.35 20.8971C164.508 29.6644 182.22 84.5751 150.738 85.8993C119.255 87.2235 107.14 21.1854 107.14 21.1854Z" fill="#534362"/>
<path d="M23.9077 42.8753C23.9077 42.8753 21.4506 46.4847 22.8394 52.8493C23.3428 55.0111 24.137 57.0946 25.2003 59.0431C31.8986 71.6121 50.316 70.95 50.316 70.95L55.3797 63.2292L81.4996 23.4291C81.4996 23.4291 84.7045 15.6015 77.814 12.5687C77.814 12.5687 75.9124 -0.416843 60.8387 0.0103119C53.3607 0.223889 49.2904 3.98286 47.1325 7.70978C47.1325 7.70978 26.7494 2.76545 21.4933 23.4291C19.111 32.8478 21.675 40.3871 23.8329 42.918" fill="#534362"/>
<path d="M47.5611 6.44922C46.0669 10.1687 45.1935 14.1082 44.9758 18.1105" stroke="#272425" stroke-width="1.47995" stroke-miterlimit="10" stroke-linecap="round"/>
<path d="M21.2876 39.0938C23.3494 42.0518 25.6569 45.202 29.0862 46.3126" stroke="#272425" stroke-width="1.47995" stroke-miterlimit="10" stroke-linecap="round"/>
<path d="M22.8921 52.9023C23.3946 55.0643 24.1889 57.148 25.253 59.0961C31.9513 71.6651 50.3687 71.003 50.3687 71.003L55.4324 63.2822L51.4691 57.0137L44.9845 54.6964C44.9845 54.6964 30.8723 61.8726 22.9028 52.9023" fill="#534362"/>
<path d="M43.2664 45.2039C43.2664 59.3213 54.0241 70.7691 67.3031 70.7691C80.582 70.7691 91.3398 59.3213 91.3398 45.2039C91.3398 31.0864 80.582 19.6387 67.3031 19.6387C54.0241 19.6387 43.2664 31.1291 43.2664 45.2039Z" fill="#FFE9B7"/>
<path d="M51.4598 96.2711C53.1081 99.3927 55.4777 102.076 58.3717 104.099C72.0031 113.336 88.4122 110.591 88.4122 110.591L91.2325 97.0827L107.139 21.1986C86.126 14.9515 59.8245 17.0659 52.7845 31.8775C46.5563 44.9378 41.6955 78.683 51.5025 96.3245" fill="#534362"/>
<path d="M51.4575 96.2697C53.1059 99.3912 55.4754 102.075 58.3694 104.097C72.0009 113.334 88.4099 110.59 88.4099 110.59L91.2302 97.0813L90.4397 94.0912L65.3881 87.7266C65.3881 87.7266 65.0249 100.328 51.5002 96.2697" fill="#534362"/>
<path d="M118.439 91.6035H75.9954V149.515H118.439V91.6035Z" fill="#E8CEC9"/>
<path d="M154.306 66.2589C155.609 97.8577 152.58 130.07 116.924 131.22C93.9204 132.945 79.5818 124.321 75.6826 100.178C61.7092 78.8843 58.5898 50.1902 79.5818 34.8233C100.574 19.4564 126.341 22.2756 138.242 34.1719C147.75 43.6761 152.005 63.9594 152.005 63.9594" fill="#E8CEC9"/>
<path d="M128.935 101.337L132.439 102.691C133.493 103.099 133.738 104.584 132.886 105.399L128.77 109.334C128.431 109.659 127.977 109.803 127.535 109.727L122.566 108.87C122.224 108.811 121.915 108.624 121.691 108.341L118.019 103.699C117.331 102.829 117.707 101.464 118.731 101.112L122.544 99.7992C123.053 99.6243 123.603 99.7536 123.989 100.139L125.469 101.614C125.982 102.125 126.763 102.17 127.34 101.722L127.559 101.553C127.961 101.24 128.476 101.16 128.935 101.337Z" fill="#CE969E"/>
<path d="M138.215 81.5719C138.215 81.5719 138.715 84.3904 140.515 84.0527C140.76 84.0063 140.989 83.9198 141.187 83.7988C142.446 83.037 142.809 81.0539 142.809 81.0539C142.809 81.0539 142.835 78.8905 141.414 78.4258C141.186 78.3497 140.937 78.3192 140.691 78.3369C138.543 78.4664 138.208 81.5744 138.208 81.5744" fill="#222222"/>
<path d="M111.754 81.3335C111.754 81.3335 112.379 84.1813 114.148 84.078C114.558 84.0542 114.953 83.9037 115.285 83.645C115.33 83.6122 115.375 83.577 115.415 83.5392C115.852 83.1338 116.158 82.5903 116.287 81.9873C116.415 81.3843 116.361 80.7532 116.132 80.1853C115.947 79.6533 115.654 79.1711 115.276 78.7727C114.999 78.4933 114.633 78.336 114.252 78.332C112.462 78.3295 111.754 81.3335 111.754 81.3335Z" fill="#222222"/>
<path d="M114.533 68.339C106.657 68.2041 102.55 72.5833 102.55 72.5833" stroke="#18181F" stroke-width="1.47995" stroke-miterlimit="10" stroke-linecap="round"/>
<path d="M138.116 66.6137C145.38 66.205 147.409 71.6619 147.409 71.6619" stroke="#18181F" stroke-width="1.47995" stroke-miterlimit="10" stroke-linecap="round"/>
<path d="M132.459 103.626C127.623 105.365 120.381 105.35 116.931 101.326" stroke="#18181F" stroke-width="1.47995" stroke-miterlimit="10" stroke-linecap="round"/>
<path d="M116.391 41.8063C137.394 40.9413 154.789 46.8083 155.462 74.3063C155.462 74.3063 163.578 39.2114 146.485 27.7422C132.469 18.3448 116.391 22.5523 116.391 22.5523V41.8063Z" fill="#534362"/>
<path d="M115.884 41.8063C136.887 40.9413 153.634 56.5705 154.307 84.0793C154.307 84.0793 162.59 46.2273 148.895 35.3135C140.455 28.6072 131.578 38.1328 116.429 35.5271L115.884 41.8063Z" fill="#534362"/>
<path d="M83.9172 75.9803C83.9172 75.9803 115.304 75.9803 116.383 38.1131V22.5219C116.383 22.5219 65.1045 10.6257 60.8313 51.3549C56.5581 92.0841 83.9172 75.9803 83.9172 75.9803Z" fill="#534362"/>
<path d="M85.8763 96.7924C83.9594 98.6293 81.6616 100.022 79.146 100.872C66.5401 104.972 53.788 86.2264 62.2917 77.1814C70.7953 68.1364 83.9106 75.9794 83.9106 75.9794L85.8763 96.7924Z" fill="#E8CEC9"/>
<path d="M77.8205 90.7118C78.1707 89.5433 78.1603 88.2964 77.7906 87.1339C77.421 85.9713 76.7093 84.9472 75.7484 84.1953C74.779 83.4778 73.6598 82.989 72.4745 82.7655C71.2892 82.542 70.0687 82.5897 68.9044 82.9049" stroke="#18181F" stroke-width="1.47995" stroke-miterlimit="10" stroke-linecap="round"/>
<path d="M18.396 359.932H176.109C173.823 264.783 166.174 215.393 166.174 215.393L171.152 166.911C171.152 166.911 150.309 154.225 132.586 146.258H128.313L74.3 145.799L60.7113 145.682C50.7004 149.534 41.217 154.636 32.4868 160.867L36.5677 208.634C34.7516 241.738 18.4067 359.964 18.4067 359.964" fill="white"/>
<path d="M60.6775 145.637C65.5391 149.567 70.7738 153.011 76.3067 155.921C85.4048 160.817 95.4492 163.701 105.76 164.379C116.902 164.998 124.434 158.089 128.621 152.632C130.162 150.64 131.491 148.493 132.585 146.225L128.173 144.089L118.462 139.326H75.9969L72.9522 140.554L60.6775 145.637Z" fill="#E8CEC9"/>
<path d="M176.112 359.93C173.826 264.782 166.177 215.392 166.177 215.392L171.155 166.91C171.155 166.91 150.313 154.223 132.59 146.257L128.178 144.121C128.178 144.121 128.178 144.847 128.306 146.257C128.434 147.666 128.519 149.866 128.648 152.664C130.218 183.056 134.139 288.04 118.456 359.984L176.112 359.93Z" fill="#C6B6CE"/>
<path d="M2.85034 359.931H77.706C89.3825 251.882 81.3809 184.253 76.3065 155.965C75.5267 151.693 74.8323 148.286 74.2767 145.798C73.4969 142.328 73.0055 140.598 73.0055 140.598L60.6773 145.681C50.6665 149.533 41.1831 154.635 32.4529 160.866L36.5338 208.633C34.7177 241.737 2.85034 359.963 2.85034 359.963" fill="#C6B6CE"/>
<path d="M191.289 240.99L213.2 203.357L243.539 222.174C243.539 222.174 223.242 274.5 213.2 292.088L191.289 240.99Z" fill="#E8CEC9"/>
<path d="M231.821 179.436C232.184 178.433 241.948 150.977 246.777 153.497C251.605 156.018 242.813 178.315 242.813 178.315C242.813 178.315 267.235 183.59 260.077 199.534C255.729 209.209 251.082 207.351 251.082 207.351L243.604 222.173L218.659 207.864L231.821 179.436Z" fill="#E8CEC9"/>
<path d="M213.198 203.357C220.036 188.108 221.745 172.207 231.723 178.593C241.701 184.979 249.125 194.013 242.694 195.679C239.083 196.598 233.411 192.23 233.411 192.593C233.411 192.956 239.297 206.283 230.633 214.197L213.198 203.357Z" fill="#E8CEC9"/>
<path d="M231.725 178.594C241.725 185.001 249.128 194.014 242.686 195.68C239.075 196.598 233.403 192.231 233.403 192.594C233.403 192.957 239.289 206.284 230.625 214.197" stroke="#22304D" stroke-width="1.71439" stroke-miterlimit="10" stroke-linecap="round"/>
<path d="M233.41 192.572C229.308 189.56 226.904 187.873 226.904 187.873" stroke="#22304D" stroke-width="1.71439" stroke-miterlimit="10" stroke-linecap="round"/>
<path d="M256.455 196.65C255.473 198.455 254.832 200.431 253.827 202.214C252.917 204.081 251.31 205.515 249.351 206.208C247.375 206.763 244.907 205.802 244.341 203.827" stroke="#22304D" stroke-width="1.71439" stroke-miterlimit="10" stroke-linecap="round"/>
<path d="M251.431 192.475C250.327 196.207 248.251 199.579 245.416 202.246C244.793 202.907 244.014 203.402 243.151 203.687C242.724 203.782 242.283 203.788 241.854 203.705C241.424 203.622 241.017 203.453 240.655 203.207C240.294 202.961 239.987 202.643 239.753 202.274C239.519 201.905 239.363 201.492 239.295 201.06" stroke="#22304D" stroke-width="1.71439" stroke-miterlimit="10" stroke-linecap="round"/>
<path d="M147.275 220.147C147.275 220.147 154.027 255.174 166.323 281.016C170.179 289.132 174.581 296.351 179.473 301.306C182.753 304.606 186.257 306.902 189.975 307.714C199.461 309.849 206.234 305.77 210.604 301.232L210.732 301.093C212.028 299.721 213.201 298.238 214.236 296.661C214.917 295.628 215.541 294.559 216.105 293.457C216.554 292.571 216.789 292.026 216.789 292.026C216.789 292.026 215.39 286.954 213.061 278.859C209.258 265.714 202.976 244.569 196.171 224.109C187.283 197.412 177.508 171.91 171.141 166.859L147.275 220.147Z" fill="#C6B6CE"/>
<path d="M179.784 244.707L203.863 288.896L210.604 301.305L210.732 301.166C211.149 300.653 212.431 299.094 214.236 296.723C214.888 295.858 215.614 294.887 216.373 293.819C219.616 289.352 222.622 284.718 225.379 279.936C233.925 264.986 238.679 245.177 238.839 244.504C239.202 242.934 237.568 237.167 237.568 237.167L233.786 246.501L227.857 252.78C227.857 252.78 220.913 259.187 210.529 252C200.145 244.813 209.536 209.562 209.536 209.562L196.139 224.15L179.784 244.707Z" fill="#C6B6CE"/>
<path d="M195.806 224.158C188.84 231.931 184.621 241.776 183.799 252.18" stroke="#22304D" stroke-width="1.71439" stroke-miterlimit="10" stroke-linecap="round"/>
<path d="M195.541 224.555C191.63 226.619 187.983 229.147 184.677 232.083" stroke="#22304D" stroke-width="1.71439" stroke-miterlimit="10" stroke-linecap="round"/>
<path d="M173.373 293.722C170.275 241.972 166.162 215.393 166.162 215.393C166.162 215.393 168.299 200.72 166.162 191.846" stroke="#22304D" stroke-width="1.71439" stroke-miterlimit="10" stroke-linecap="round"/>
<path d="M166.173 215.391C166.173 215.391 171.653 207.82 172.401 201.316" stroke="#22304D" stroke-width="1.71439" stroke-miterlimit="10" stroke-linecap="round"/>
<path d="M46.5752 284.55L74.7355 281.634L100.952 267.72L101.422 265.039L108.205 226.232L94.702 229.436L68.8385 235.576L49.0323 240.414L46.8209 280.022L46.5752 284.55Z" fill="#E8CEC9"/>
<path d="M94.7012 229.435L100.555 265.284L100.951 267.73C103.643 266.171 106.046 264.665 108.204 263.191C120.116 255.065 124.229 248.348 125.393 244.407C126.761 239.741 129.399 219.654 122.071 219.846C118.439 219.931 108.183 226.253 108.183 226.253C113.45 216.941 114.475 206.572 111.067 206.487C107.66 206.401 94.7012 229.435 94.7012 229.435Z" fill="#E8CEC9"/>
<path d="M120.106 247.011C122.898 244.426 125.087 241.257 126.516 237.732C127.282 235.683 127.43 233.456 126.944 231.324" stroke="#22304D" stroke-width="1.71439" stroke-miterlimit="10" stroke-linecap="round"/>
<path d="M119.083 241.758C121.535 239.924 123.641 237.667 125.3 235.094C126.945 232.492 127.646 229.405 127.288 226.348C127.176 225.085 126.611 223.906 125.696 223.027" stroke="#22304D" stroke-width="1.71439" stroke-miterlimit="10" stroke-linecap="round"/>
<path d="M117.67 235.213C120.622 232.569 122.969 229.32 124.55 225.687C125.15 224.589 125.354 223.319 125.127 222.088C124.732 221.087 124.075 220.209 123.226 219.547" stroke="#22304D" stroke-width="1.71439" stroke-miterlimit="10" stroke-linecap="round"/>
<path d="M2.85124 292.142C5.48994 301.187 10.543 306.484 18.395 306.484C34.9643 306.484 74.737 281.645 74.737 281.645L69.3955 278.11C67.9946 277.172 66.6887 276.099 65.4962 274.907C61.9623 271.376 59.5504 266.881 58.563 261.985C58.2302 260.322 58.062 258.63 58.0609 256.934C58.0573 250.267 60.6693 243.864 65.336 239.1L68.808 235.587L49.0338 240.435L39.2909 242.806L44.9742 185.524L32.4538 160.824C18.9398 171.503 7.31673 217.636 2.54144 250.238C0.00957096 267.399 -0.0438442 282.072 2.89398 292.132" fill="#C6B6CE"/>
<path d="M41.0529 242.357L24.302 246.437" stroke="#22304D" stroke-width="1.71439" stroke-miterlimit="10" stroke-linecap="round"/>
<path d="M40.1142 242.346C35.5709 240.547 30.857 239.213 26.0447 238.363" stroke="#22304D" stroke-width="1.71439" stroke-miterlimit="10" stroke-linecap="round"/>
<path d="M461.685 21.3887C461.685 21.3887 430.908 14.1164 416.283 28.5649C401.658 43.0135 406.112 68.0768 406.358 86.0279C406.604 103.979 382.385 111.038 379.159 139.796C379.159 139.796 398.965 159.659 458.972 159.659L461.685 21.3887Z" fill="#22304D"/>
<path d="M534.843 333.343L523.915 298.466L496.684 155.369C512.366 163.143 526.81 169.091 540.804 182.91C547.727 189.734 554.553 198.501 561.359 210.365C581.902 246.182 608.257 333.493 534.843 333.386" fill="#9CCEB8"/>
<path d="M544.898 298.453C541.917 266.16 536.661 223.701 528.628 203.251L540.806 182.865C526.811 169.047 512.368 163.098 496.685 155.324L496.397 163.301H444.926L444.702 155.335L430.729 161.881C402.6 174.525 376.993 208.441 355.04 243.67L334.422 215.083L308.483 258.589C308.483 258.589 330.074 305.384 356.055 301.198C371.919 298.635 399.855 256.998 400.806 258.194C402.59 260.33 386.674 304.84 407.837 368.999L547.953 356.204C547.953 354.635 546.992 321.167 544.898 298.453Z" fill="#9CCEB8"/>
<path d="M334.431 215.082C320.799 192.582 309.657 178.497 305.469 178.24C301.281 177.984 306.9 189.987 306.9 189.987C306.9 189.987 275.14 180.921 273.847 185.118C272.555 189.314 295.213 191.931 295.213 191.931C295.213 191.931 267.309 186.591 266.658 194.066C266.006 201.542 290.16 205.439 290.16 205.439C290.16 205.439 274.307 203.709 274.307 206.934C274.307 210.16 291.773 211.964 291.773 211.964L310.736 254.936L334.431 215.082Z" fill="#D7B3AD"/>
<path d="M306.653 195.98C306.594 198.839 307.087 201.681 308.106 204.353C309.149 207.041 311.183 209.227 313.79 210.461" stroke="#22304D" stroke-width="1.71439" stroke-miterlimit="10" stroke-linecap="round"/>
<path d="M400.792 258.193C414.445 223.796 410.984 211.836 410.984 211.836" stroke="#22304D" stroke-width="1.71439" stroke-miterlimit="10" stroke-linecap="round"/>
<path d="M402.737 217.078C404.005 221.074 405.733 224.908 407.886 228.504" stroke="#22304D" stroke-width="1.71439" stroke-miterlimit="10" stroke-linecap="round"/>
<path d="M353.478 241.447L362.825 253.279" stroke="#22304D" stroke-width="1.71439" stroke-miterlimit="10" stroke-linecap="round"/>
<path d="M355.248 243.029L364.436 248.636" stroke="#22304D" stroke-width="1.71439" stroke-miterlimit="10" stroke-linecap="round"/>
<path d="M520.677 290.047C520.677 290.047 457.807 295.13 454.795 295.183C435.352 295.557 429.156 295.707 428.226 298.174C427.297 300.64 441.26 301.954 441.26 301.954C441.26 301.954 422.297 310.326 422.554 313.701C422.81 317.075 428.023 318.271 428.023 318.271C428.023 318.271 435.095 330.541 442.039 332.816C448.983 335.09 473.383 331.203 473.383 331.203L532.225 330.712L520.677 290.047Z" fill="#D7B3AD"/>
<path d="M428.096 317.866C432.805 317.508 437.409 316.3 441.685 314.299" stroke="#22304D" stroke-width="1.71439" stroke-miterlimit="10" stroke-linecap="round"/>
<path d="M521.178 289.557L466.534 293.903L485.7 340.207C485.7 340.207 515.345 342.898 534.019 334.75L521.178 289.557Z" fill="#9CCEB8"/>
<path d="M466.534 293.957C479.493 293.018 530.002 292.516 530.002 292.516" stroke="#22304D" stroke-width="1.71439" stroke-miterlimit="10" stroke-linecap="round"/>
<path d="M518.432 290.113C521.281 288.418 524.423 287.273 527.695 286.738L520.729 221.213" stroke="#22304D" stroke-width="1.71439" stroke-miterlimit="10" stroke-linecap="round"/>
<path d="M449.86 152.867L430.737 161.837C430.737 161.837 440.694 173.467 470.873 173.467C501.053 173.467 509.727 161.837 509.727 161.837L491.887 152.867H449.86Z" fill="#D7B3AD"/>
<path d="M491.884 106.254H449.858V161.891H491.884V106.254Z" fill="#D7B3AD"/>
<path d="M407.259 73.5121C407.259 98.49 408.496 114.756 421.061 128.125C436.676 140.051 457.123 144.517 478.286 125.145C499.449 105.774 509.384 70.1062 497.911 53.5539C486.437 37.0017 473.18 33.168 451.514 33.168C429.849 33.168 408.984 51.6668 407.259 73.5121Z" fill="#D7B3AD"/>
<path d="M460.727 85.5853C460.727 87.1731 459.696 88.4597 458.426 88.4597C457.156 88.4597 456.142 87.1672 456.142 85.5853C456.142 84.0034 457.172 82.7109 458.442 82.7109C459.712 82.7109 460.742 83.9975 460.742 85.5853" fill="#222222"/>
<path d="M421.635 80.4075C425.086 76.9582 432.562 78.6828 434.288 80.4075" stroke="#222222" stroke-width="1.71439" stroke-miterlimit="10" stroke-linecap="round"/>
<path d="M452.691 77.802C456.142 74.3527 463.618 76.0773 465.343 77.802" stroke="#222222" stroke-width="1.71439" stroke-miterlimit="10" stroke-linecap="round"/>
<path d="M431.03 87.8842C431.03 89.4719 429.956 90.7585 428.633 90.7585C427.31 90.7585 426.237 89.4719 426.237 87.8842C426.237 86.2964 427.31 85.0098 428.633 85.0098C429.956 85.0098 431.03 86.2964 431.03 87.8842Z" fill="#222222"/>
<path d="M423.632 44.79C423.632 44.79 434.668 75.4704 487.185 75.2141L512.173 78.5032C512.173 78.5032 523.828 28.3125 467.902 28.3125C428.803 28.3125 423.632 44.8113 423.632 44.8113" fill="#22304D"/>
<path d="M455.819 22.2363C522.352 10.2546 522.865 34.9655 522.865 65.3042C522.865 85.8183 526.262 95.4293 542.479 102.541C562.777 111.469 561.815 138.7 561.815 138.7C561.815 138.7 545.94 158.573 487.173 158.573V78.546L455.819 22.2363Z" fill="#22304D"/>
<path d="M484.898 80.0568C492.922 70.7894 506.467 74.4489 506.747 83.5724C507.028 92.6958 494.701 103.319 484.898 98.9391V80.0568Z" fill="#D7B3AD"/>
<path d="M490.879 88.7269C490.811 88.1271 490.918 87.5204 491.189 86.9808C491.46 86.4413 491.882 85.9923 492.405 85.6888C493.473 85.0964 494.711 84.8828 495.917 85.0827C496.741 85.1559 497.537 85.4243 498.237 85.8657" stroke="#222222" stroke-width="1.71439" stroke-miterlimit="10" stroke-linecap="round"/>
<path d="M450.048 105.383L453.798 105.154C454.926 105.086 455.768 106.334 455.333 107.429L453.231 112.721C453.058 113.157 452.706 113.478 452.272 113.592L447.398 114.883C447.063 114.971 446.703 114.93 446.382 114.767L441.109 112.076C440.121 111.572 439.894 110.175 440.679 109.427L443.598 106.646C443.987 106.275 444.541 106.164 445.052 106.353L447.013 107.078C447.692 107.329 448.421 107.045 448.759 106.397L448.887 106.152C449.122 105.7 449.557 105.413 450.048 105.383Z" fill="#955760"/>
<path d="M441.888 109.93C442.884 110.497 443.983 110.86 445.121 110.999C446.259 111.137 447.413 111.049 448.516 110.738C449.619 110.427 450.65 109.9 451.547 109.187C452.445 108.475 453.193 107.591 453.746 106.588" stroke="#222222" stroke-width="1.71439" stroke-miterlimit="10" stroke-linecap="round"/>
</svg>
