<svg width="81" height="80" viewBox="0 0 81 80" fill="none" xmlns="http://www.w3.org/2000/svg">
<g clip-path="url(#clip0)">
<circle cx="33.8333" cy="33.3333" r="33.3333" fill="#C7D9D1"/>
<path d="M38.8831 75.7384C31.0608 75.6303 30.395 72.7651 30.395 72.7651C30.395 71.6298 30.395 70.4945 30.395 69.4133C30.395 67.0887 30.395 64.7641 30.395 62.4395C30.395 62.4395 34.4449 63.0882 39.105 63.0882C43.7651 63.1422 47.3157 62.4395 47.3157 62.4395L47.1493 72.711C47.1493 73.1216 46.7054 75.8466 38.8831 75.7384Z" stroke="#161616" stroke-width="0.8" stroke-miterlimit="10"/>
<path d="M30.9048 69.5957C32.4804 70.2082 35.4143 71.0248 38.5654 71.1268C42.1513 71.2289 45.6285 70.2082 47.3127 69.5957" stroke="#161616" stroke-width="0.8" stroke-miterlimit="10"/>
<path d="M38.8539 63.4493C38.8539 63.4493 48.6632 63.8298 49.6 60.8951C50.5368 57.9605 55.0557 21.495 56.5437 8.72389H21.1641C21.1641 8.72389 27.1709 57.6888 28.1077 61.1668C28.6037 63.2863 38.8539 63.4493 38.8539 63.4493Z" fill="#F0F5F3"/>
<path d="M56.5437 8.72389C55.0557 21.495 50.5368 57.9605 49.6 60.8951C48.6632 63.8298 38.8539 63.4493 38.8539 63.4493C38.8539 63.4493 28.6037 63.2863 28.1077 61.1668C27.1709 57.6888 21.1641 8.72389 21.1641 8.72389M56.5437 8.72389H21.1641M56.5437 8.72389V5.20508H21.1641V8.72389" stroke="#161616" stroke-width="0.8" stroke-miterlimit="10"/>
</g>
<defs>
<clipPath id="clip0">
<rect width="80" height="80" fill="white" transform="translate(0.5)"/>
</clipPath>
</defs>
</svg>
