<svg width="24" height="24" viewBox="0 0 24 24" fill="none" xmlns="http://www.w3.org/2000/svg">
<circle cx="10" cy="10" r="10" fill="#C7D9D1"/>
<path d="M22.4756 7.91519L18.3617 3.12768C18.3261 3.08629 18.2631 3.08105 18.221 3.11599L3.56236 15.2664C3.52021 15.3014 3.51488 15.3632 3.55045 15.4046L7.6644 20.1921C7.69997 20.2335 7.76297 20.2388 7.80512 20.2038L22.4637 8.05339C22.5059 8.01846 22.5112 7.95658 22.4756 7.91519Z" fill="#F0F5F3" stroke="#161616" stroke-width="0.8"/>
<path d="M6.60529 19.2633L4.30545 16.5869L1.00489 19.3227L3.30472 21.9991L6.60529 19.2633Z" fill="#F0F5F3" stroke="#161616" stroke-width="0.8"/>
<path d="M5.45758 20.2174L3.15775 17.541L1.00823 19.3227L3.30807 21.9991L5.45758 20.2174Z" fill="#F0F5F3" stroke="#161616" stroke-width="0.8"/>
<path d="M4.30338 21.173L2.00354 18.4966L1.0051 19.3242L3.30493 22.0006L4.30338 21.173Z" fill="#F0F5F3" stroke="#161616" stroke-width="0.8"/>
<path d="M7.18399 15.0439L8.64118 16.7397" stroke="#161616" stroke-width="0.8"/>
<path d="M16.9673 6.93213L18.4245 8.6279" stroke="#161616" stroke-width="0.8"/>
<path d="M13.4377 9.85889L14.8949 11.5546L13.4377 9.85889Z" fill="#F0F5F3"/>
<path d="M13.4377 9.85889L14.8949 11.5546" stroke="#161616" stroke-width="0.8"/>
<path d="M11.7106 11.2896L13.1678 12.9853L11.7106 11.2896Z" fill="#F0F5F3"/>
<path d="M11.7106 11.2896L13.1678 12.9853" stroke="#161616" stroke-width="0.8"/>
<path d="M15.8429 10.5134L14.6433 9.11743C14.6077 9.07604 14.5447 9.0708 14.5026 9.10573L10.7791 12.1921C10.7369 12.227 10.7316 12.2889 10.7672 12.3303L11.9668 13.7263C12.0023 13.7677 12.0653 13.7729 12.1075 13.738L15.831 10.6516C15.8731 10.6167 15.8784 10.5548 15.8429 10.5134Z" fill="#F0F5F3" stroke="#161616" stroke-width="0.8"/>
</svg>
