<svg width="159" height="159" viewBox="0 0 159 159" fill="none" xmlns="http://www.w3.org/2000/svg">
<g clip-path="url(#clip0)">
<path d="M130.534 87.1606C128.802 113.594 104.817 132.28 77.6224 130.424C50.4282 128.568 26.9439 101.835 28.6751 75.4016C30.4063 48.9681 70.0146 27.7431 97.2088 29.599C124.403 31.4548 132.265 60.7271 130.534 87.1606Z" fill="#3E8373"/>
<path d="M46.4807 74.0897C46.0031 73.9202 45.5409 73.6737 45.0941 73.3502C44.6627 73.0267 44.3469 72.6184 44.1466 72.1254C43.9001 71.4321 43.7768 70.6155 43.7768 69.6757C43.7768 68.7667 43.8308 67.9964 43.9386 67.3647C44.0464 66.7176 44.2313 66.0628 44.4932 65.4004L44.7012 64.915C44.9477 64.2834 45.1249 63.8674 45.2328 63.6671C45.4947 63.0662 45.9569 62.2882 46.6194 61.333C47.2356 60.4086 47.7209 59.723 48.0753 59.2762C48.4451 58.814 48.8225 58.4211 49.2077 58.0976C49.5928 57.7586 50.1552 57.335 50.8947 56.8265C51.3415 56.503 51.8884 56.3412 52.5355 56.3412C53.0439 56.3412 53.5061 56.4645 53.9221 56.711C54.3535 56.9575 54.677 57.3427 54.8927 57.8665C55.0468 58.1284 55.1238 58.4905 55.1238 58.9527C55.1238 59.6922 54.9467 60.4933 54.5923 61.3561C54.238 62.2189 53.8143 62.8737 53.3213 63.3205C53.2134 63.4283 53.0671 63.4822 52.8822 63.4822C52.6973 63.4822 52.497 63.4283 52.2813 63.3205C52.0656 63.2126 51.873 63.0816 51.7036 62.9276C51.5649 62.6657 51.4879 62.5116 51.4725 62.4654C51.4571 62.4192 51.4879 62.3883 51.5649 62.3729C51.7036 62.2035 51.9038 61.8799 52.1658 61.4023C52.4431 60.9093 52.628 60.5241 52.7204 60.2468L52.8591 59.5997C52.9515 59.1992 52.9977 58.9373 52.9977 58.814C52.9977 58.6753 52.9438 58.5521 52.836 58.4442C52.7897 58.398 52.7281 58.3749 52.6511 58.3749C52.5278 58.3749 52.3121 58.4519 52.004 58.606C51.6496 58.7601 51.226 59.0759 50.7329 59.5535C50.2553 60.0157 49.7777 60.5704 49.3001 61.2174C48.5914 62.1418 48.0445 62.9045 47.6593 63.5053C47.2896 64.1062 47.0045 64.7148 46.8042 65.331L46.55 65.9319C46.5654 65.9935 46.5423 66.1476 46.4807 66.3941C46.4191 66.6406 46.3497 66.8409 46.2727 66.9949C46.057 67.8885 45.9492 68.6974 45.9492 69.4215C45.9492 69.9915 46.0031 70.4846 46.1109 70.9005C46.2342 71.3165 46.4037 71.6246 46.6194 71.8249C46.7426 71.9328 46.9198 71.9867 47.1509 71.9867C47.3974 71.9867 47.6747 71.9328 47.9829 71.8249C48.3064 71.7017 48.6453 71.563 48.9997 71.409C49.354 71.2549 49.6006 71.147 49.7392 71.0854C50.0936 70.9468 50.4248 70.785 50.7329 70.6001C51.0565 70.4152 51.2953 70.2457 51.4494 70.0917C51.8499 69.799 52.1735 69.6526 52.42 69.6526C52.6203 69.591 52.7743 69.6526 52.8822 69.8375C53.0054 70.0224 53.0671 70.2766 53.0671 70.6001C53.0671 70.8158 52.9207 71.0777 52.628 71.3858C52.3352 71.6786 51.9886 71.9405 51.588 72.1716C51.4185 72.3411 51.0411 72.5413 50.4556 72.7724C49.9626 73.1268 49.3849 73.4426 48.7224 73.72C48.0753 73.9973 47.4821 74.1359 46.9429 74.1359C46.8196 74.1359 46.6656 74.1205 46.4807 74.0897ZM56.2692 72.4027C56.0843 72.4027 55.938 72.3719 55.8301 72.3102C55.7223 72.2486 55.5682 72.1331 55.3679 71.9636C55.0598 71.6401 54.821 71.3088 54.6515 70.9699C54.4821 70.6155 54.4204 70.3074 54.4666 70.0455C54.5129 69.9376 54.5283 69.8298 54.5129 69.7219C54.5129 69.6141 54.5129 69.5447 54.5129 69.5139C54.4512 69.4523 54.4204 69.4138 54.4204 69.3984C54.4204 69.3676 54.4358 69.3445 54.4666 69.3291C54.4975 69.2982 54.5206 69.2674 54.536 69.2366C54.6284 69.2366 54.6592 69.1519 54.6284 68.9824C54.5976 68.8591 54.6515 68.5895 54.7902 68.1736C54.9288 67.7576 55.106 67.3724 55.3217 67.0181C55.4912 66.7407 55.7377 66.3941 56.0612 65.9781C56.4002 65.5621 56.7006 65.2463 56.9625 65.0306C57.7329 64.3681 58.4262 63.9675 59.0424 63.8289C59.3506 63.7518 59.651 63.7133 59.9437 63.7133C60.3905 63.7133 60.7372 63.8366 60.9837 64.0831C61.3226 64.2217 61.5691 64.422 61.7232 64.6839C61.8773 64.9459 61.9774 65.2925 62.0236 65.7239C62.039 65.8163 62.0467 65.9704 62.0467 66.1861C62.0467 67.3262 61.6153 68.5125 60.7526 69.745C60.3982 70.2535 60.0439 70.6617 59.6895 70.9699C59.3352 71.278 58.9038 71.5861 58.3953 71.8943C58.118 72.0791 57.8253 72.2024 57.5172 72.264C57.209 72.3256 56.7931 72.3719 56.2692 72.4027ZM58.6264 69.5833C58.9192 69.3213 59.1272 69.0594 59.2504 68.7975C59.3891 68.5202 59.5817 68.0426 59.8282 67.3647C59.9206 67.226 59.9668 66.9487 59.9668 66.5327C59.9668 66.163 59.9129 65.955 59.8051 65.9088C59.728 65.8471 59.6356 65.8163 59.5277 65.8163C59.3891 65.8163 59.1657 65.9242 58.8575 66.1399C58.3183 66.6021 57.8638 67.0874 57.4941 67.5958C57.1397 68.0888 56.8932 68.6589 56.7545 69.3059C56.7391 69.3676 56.7314 69.46 56.7314 69.5833C56.7314 70.1071 56.9163 70.369 57.2861 70.369C57.6404 70.369 58.0872 70.1071 58.6264 69.5833ZM74.1403 72.0329C73.94 72.0329 73.786 72.0021 73.6781 71.9405C73.5549 71.8943 73.3931 71.7864 73.1928 71.6169C73.0079 71.4321 72.8384 71.1779 72.6844 70.8543C72.5457 70.5154 72.4764 70.1148 72.4764 69.6526C72.4764 69.3599 72.4918 69.1057 72.5226 68.89C72.5688 68.6589 72.5919 68.5125 72.5919 68.4509C72.5919 68.3738 72.5688 68.3353 72.5226 68.3353C72.122 68.3353 71.2516 69.0671 69.9112 70.5308C69.865 70.5616 69.8264 70.6001 69.7956 70.6463C69.6107 70.785 69.4413 70.9313 69.2872 71.0854C69.0561 71.3011 68.8635 71.4629 68.7095 71.5707C68.5708 71.6632 68.4167 71.7171 68.2473 71.7325C68.1394 71.7325 68.0239 71.6863 67.9006 71.5938L67.6464 71.3858C67.5694 71.3396 67.5 71.2549 67.4384 71.1316C67.3768 71.0084 67.346 70.8928 67.346 70.785V70.7157V70.6694L67.8775 69.1211C68.2627 68.2737 68.4552 67.773 68.4552 67.6189C68.4552 67.5881 68.4475 67.5727 68.4321 67.5727C68.2935 67.5573 68.0855 67.6805 67.8082 67.9425C67.5463 68.189 67.1688 68.5818 66.6758 69.1211L65.6358 70.2072C65.5126 70.3305 65.1813 70.7002 64.6421 71.3165C64.3031 71.7325 64.126 71.9405 64.1106 71.9405C63.7716 71.9405 63.4635 71.8095 63.1862 71.5476C62.9242 71.2857 62.7933 70.9699 62.7933 70.6001C62.7933 70.4152 62.8241 70.1687 62.8857 69.8606C62.9474 69.5524 63.0167 69.2289 63.0937 68.89C63.1245 68.7667 63.1553 68.628 63.1862 68.474C63.2324 68.3199 63.2786 68.1427 63.3248 67.9425C63.3556 67.7884 63.3864 67.6189 63.4173 67.434C63.4635 67.2492 63.5482 67.0103 63.6715 66.7176C63.7947 66.4095 63.9719 65.9858 64.203 65.4466C64.2646 65.2463 64.2954 65.0383 64.2954 64.8226C64.2954 64.7148 64.2877 64.6146 64.2723 64.5222C64.2569 64.4143 64.2492 64.345 64.2492 64.3142C64.2492 64.0831 64.3571 63.8905 64.5728 63.7364C64.8039 63.567 65.0581 63.4822 65.3354 63.4822C65.736 63.4822 66.0364 63.6286 66.2367 63.9213C66.437 64.1986 66.5371 64.4914 66.5371 64.7995C66.5371 65.0614 66.4755 65.3156 66.3522 65.5621L66.098 66.1861C66.0364 66.3248 65.9208 66.579 65.7514 66.9487C65.5973 67.3031 65.5203 67.5188 65.5203 67.5958C65.5203 67.642 65.5357 67.6651 65.5665 67.6651H65.5896C65.6666 67.6651 65.7899 67.5804 65.9594 67.4109C66.4524 66.9487 67.0455 66.4711 67.7388 65.9781C68.4475 65.4697 68.956 65.1693 69.2641 65.0768C69.3873 65.0768 69.5491 65.1384 69.7494 65.2617C69.9497 65.3849 70.1269 65.5544 70.2809 65.7701C70.435 65.9704 70.512 66.1938 70.512 66.4403L70.4889 66.6252C70.4735 66.6868 70.4042 66.9487 70.2809 67.4109C70.1731 67.8731 70.0884 68.1427 70.0267 68.2198C70.3195 67.8808 70.8279 67.4648 71.552 66.9718C72.2761 66.4634 72.8076 66.2015 73.1466 66.1861C73.655 66.1861 73.9862 66.3941 74.1403 66.8101C74.2944 67.226 74.4022 67.8346 74.4638 68.6358C74.5255 69.3907 74.6102 69.8991 74.7181 70.161C74.7489 70.2535 74.8567 70.3305 75.0416 70.3921C75.2265 70.4537 75.3728 70.5308 75.4807 70.6232C75.6039 70.7002 75.6656 70.862 75.6656 71.1085C75.6656 71.4475 75.5115 71.6863 75.2034 71.8249C74.9106 71.9636 74.5563 72.0329 74.1403 72.0329ZM79.9949 62.9507C79.9487 62.9969 79.9025 63.02 79.8562 63.02C79.7946 63.02 79.6945 62.9738 79.5558 62.8814C79.4017 62.866 79.1937 62.735 78.9318 62.4885C78.6853 62.242 78.5621 62.0802 78.5621 62.0032C78.5467 61.8183 78.5621 61.5564 78.6083 61.2174C78.6545 60.8631 78.7393 60.5473 78.8625 60.2699C79.0012 59.9926 79.1783 59.8462 79.394 59.8308C79.5019 59.8462 79.6482 59.8848 79.8331 59.9464C80.018 59.9926 80.226 60.0619 80.4571 60.1544C80.7498 60.7398 80.8962 61.2406 80.8962 61.6565C80.8962 62.2728 80.5958 62.7042 79.9949 62.9507ZM77.8688 72.5413C77.499 72.5413 77.1755 72.3488 76.8982 71.9636C76.6362 71.5784 76.4745 71.1008 76.4128 70.5308C76.4745 69.9607 76.5207 69.5447 76.5515 69.2828C76.721 68.5279 76.929 67.642 77.1755 66.6252C77.4374 65.5929 77.5915 65.0229 77.6377 64.915C77.7147 64.7764 77.838 64.7071 78.0074 64.7071C78.1769 64.7071 78.3618 64.7764 78.5621 64.915C78.7778 65.0383 78.9549 65.2155 79.0936 65.4466C79.2169 65.616 79.2785 65.8086 79.2785 66.0243C79.2785 66.3479 79.1244 67.0258 78.8163 68.058C78.6006 68.8283 78.4619 69.3753 78.4003 69.6988C78.3387 70.0224 78.3156 70.369 78.331 70.7388C78.2693 71.4321 78.2077 71.9097 78.1461 72.1716C78.0845 72.4335 77.992 72.5567 77.8688 72.5413ZM89.4073 67.1567C89.4073 67.4032 89.2841 68.0349 89.0376 69.0517C89.0068 69.1904 88.9374 69.4908 88.8296 69.953C88.7372 70.3998 88.6832 70.7388 88.6678 70.9699C88.6678 71.1393 88.6986 71.3165 88.7603 71.5014C88.8373 71.6709 88.8758 71.771 88.8758 71.8018C88.8758 71.9559 88.8065 72.11 88.6678 72.264C88.5292 72.4027 88.352 72.472 88.1363 72.472C87.7511 72.472 87.4199 72.3102 87.1426 71.9867C86.8652 71.6478 86.7266 71.2087 86.7266 70.6694C86.7266 70.2072 86.8961 69.3445 87.235 68.0811C87.2658 67.9116 87.2889 67.7884 87.3043 67.7114C87.3351 67.6189 87.3506 67.5419 87.3506 67.4803C87.3506 67.4032 87.3274 67.3647 87.2812 67.3647C87.1734 67.3647 87.0193 67.4417 86.819 67.5958C86.6187 67.7345 86.403 67.8962 86.1719 68.0811L85.5942 68.5664C85.3477 68.7205 84.8316 69.1442 84.0458 69.8375C83.938 69.9145 83.6761 70.1302 83.2601 70.4846C82.8595 70.8235 82.6284 70.993 82.5668 70.993C82.5052 70.993 82.3665 70.9468 82.1508 70.8543C81.9505 70.7465 81.7579 70.6155 81.5731 70.4614C81.4036 70.3074 81.3188 70.1302 81.3188 69.9299C81.3188 69.6988 81.4575 69.1673 81.7348 68.3353C82.0121 67.5034 82.3434 66.6868 82.7286 65.8857C82.7748 65.7624 82.8287 65.5313 82.8903 65.1924C82.952 64.6377 83.0521 64.2911 83.1908 64.1524C83.2832 63.9983 83.4142 63.9213 83.5836 63.9213C83.8918 63.9213 84.1768 64.0754 84.4387 64.3835C84.716 64.6916 84.8547 65.0306 84.8547 65.4004C84.8547 65.6623 84.7776 66.0089 84.6236 66.4403C84.4849 66.8563 84.3848 67.1028 84.3231 67.1798C84.3694 67.149 84.4618 67.072 84.6005 66.9487C84.7545 66.8101 84.9548 66.6637 85.2013 66.5096C85.7252 66.1091 86.118 65.8394 86.3799 65.7008C86.6418 65.5467 86.8267 65.4312 86.9346 65.3541C86.9962 65.3079 87.0424 65.2771 87.0732 65.2617C87.1195 65.2309 87.1503 65.2155 87.1657 65.2155C87.2119 65.2001 87.2966 65.1693 87.4199 65.123C87.5585 65.0614 87.6664 65.0306 87.7434 65.0306C87.9745 65.0306 88.2133 65.1153 88.4598 65.2848C88.7217 65.4389 88.8527 65.6006 88.8527 65.7701C88.8527 65.8163 88.9066 65.9011 89.0145 66.0243C89.1223 66.1322 89.2148 66.2708 89.2918 66.4403C89.3688 66.5944 89.4073 66.8332 89.4073 67.1567ZM93.8672 77.2558C93.328 77.2558 92.7887 77.1248 92.2495 76.8629C91.7103 76.6164 91.2712 76.2929 90.9322 75.8923C90.5933 75.4917 90.4238 75.0834 90.4238 74.6675C90.4238 74.5442 90.4855 74.4518 90.6087 74.3901C90.732 74.3285 90.8552 74.2977 90.9785 74.2977C91.1788 74.2977 91.3559 74.3208 91.51 74.367C91.6795 74.4133 91.7642 74.4672 91.7642 74.5288C92.0261 74.7753 92.2803 74.9602 92.5268 75.0834C92.7887 75.2221 93.0121 75.2914 93.197 75.2914C93.7054 75.2914 94.106 74.6752 94.3987 73.4426L94.4681 73.1422C94.9303 71.1085 95.2307 69.8837 95.3694 69.4677C95.3231 69.4677 95.2384 69.4985 95.1152 69.5602L94.5605 69.8375C93.9905 70.1302 93.5437 70.2766 93.2201 70.2766L92.9428 70.2535C92.7733 70.2535 92.5654 70.2072 92.3188 70.1148C92.0877 70.0069 91.8875 69.876 91.718 69.7219C91.5331 69.5524 91.4099 69.3599 91.3482 69.1442C91.302 68.9131 91.2789 68.6358 91.2789 68.3122C91.2789 68.0349 91.4099 67.5958 91.6718 66.9949C91.9337 66.3941 92.288 65.8394 92.7348 65.331C93.197 64.8842 93.8364 64.4528 94.653 64.0369C95.4695 63.6055 96.1166 63.3898 96.5942 63.3898C96.7791 63.3898 96.9331 63.436 97.0564 63.5284C97.3491 63.5901 97.6418 63.7672 97.9346 64.06C98.2273 64.3373 98.4738 64.6916 98.6741 65.123C98.8744 65.5544 98.9745 66.0089 98.9745 66.4865C98.9745 66.7484 98.9129 66.9256 98.7896 67.0181C98.7742 67.2183 98.7357 67.3493 98.6741 67.4109C98.6125 67.4571 98.5123 67.4957 98.3737 67.5265C98.2196 67.5419 98.0732 67.6035 97.9346 67.7114C97.8113 67.8192 97.7112 68.0503 97.6341 68.4047L97.5186 68.8669C97.5032 68.8977 97.4647 68.9593 97.403 69.0517C97.3568 69.1442 97.3029 69.2751 97.2413 69.4446C97.1951 69.5987 97.1719 69.7527 97.1719 69.9068L97.0795 70.161C96.9563 70.5616 96.8946 70.7773 96.8946 70.8081L96.8022 71.2703C96.3554 73.5043 95.8932 75.0603 95.4156 75.9385C94.938 76.8167 94.4219 77.2558 93.8672 77.2558ZM93.7748 68.6126C94.0059 68.6126 94.3448 68.4894 94.7916 68.2429C95.2384 67.9964 95.6544 67.6805 96.0396 67.2954C96.4401 66.8948 96.702 66.4711 96.8253 66.0243C96.8869 65.8086 96.9177 65.6777 96.9177 65.6315C96.9177 65.4466 96.7714 65.3464 96.4786 65.331H96.34C95.9086 65.331 95.3077 65.5775 94.5374 66.0705C94.2909 66.3941 94.0983 66.5867 93.9597 66.6483C93.8364 66.7099 93.7825 66.7407 93.7979 66.7407C93.7363 66.864 93.6592 66.9872 93.5668 67.1105C93.4898 67.2337 93.4281 67.3262 93.3819 67.3878C93.1508 67.6497 93.0353 67.9039 93.0353 68.1504C93.0353 68.3199 93.0969 68.4355 93.2201 68.4971C93.3434 68.5433 93.5283 68.5818 93.7748 68.6126ZM109.246 62.9507C109.061 62.9507 108.837 62.866 108.575 62.6965C108.314 62.527 108.082 62.3113 107.882 62.0494C107.697 61.7721 107.605 61.4948 107.605 61.2174C107.605 61.125 107.767 60.84 108.09 60.3624C108.306 60.0696 108.414 59.8925 108.414 59.8308C108.522 59.8308 108.66 59.854 108.83 59.9002C108.999 59.9464 109.146 60.0003 109.269 60.0619C109.361 60.2776 109.546 60.555 109.823 60.8939C110.008 61.125 110.139 61.3176 110.216 61.4717C110.309 61.6257 110.355 61.7875 110.355 61.957C110.355 62.2959 110.262 62.5501 110.078 62.7196C109.908 62.8737 109.631 62.9507 109.246 62.9507ZM106.103 71.8018C106.056 71.8018 105.941 71.7633 105.756 71.6863C105.587 71.6092 105.471 71.5553 105.409 71.5245C105.409 71.4783 105.386 71.4012 105.34 71.2934C105.309 71.1701 105.294 71.0931 105.294 71.0623C105.155 71.0007 105.04 70.9005 104.947 70.7619C104.87 70.6078 104.855 70.4537 104.901 70.2997C105.117 69.9299 105.502 69.0825 106.056 67.7576C106.627 66.4172 106.942 65.6469 107.004 65.4466C107.004 65.1076 107.112 64.8688 107.328 64.7302C107.435 64.6531 107.543 64.6146 107.651 64.6146C107.913 64.6146 108.159 64.7918 108.391 65.1461C108.622 65.5005 108.737 65.9165 108.737 66.3941C108.737 66.579 108.56 67.1105 108.206 67.9887C107.867 68.8514 107.482 69.7219 107.05 70.6001C106.804 71.0931 106.619 71.4167 106.496 71.5707C106.388 71.7248 106.257 71.8018 106.103 71.8018ZM117.826 72.0098C116.856 71.979 116.37 71.4321 116.37 70.369C116.37 70.0763 116.393 69.7913 116.44 69.5139C116.47 69.175 116.486 68.9362 116.486 68.7975V68.682V68.4278C116.44 68.1196 116.339 67.9656 116.185 67.9656C115.908 67.9656 115.392 68.2352 114.637 68.7744C113.897 69.2982 113.119 69.9299 112.303 70.6694C112.056 70.9313 111.848 71.1779 111.679 71.409C111.525 71.6092 111.409 71.7325 111.332 71.7787C111.255 71.8249 111.132 71.848 110.962 71.848C110.747 71.8172 110.5 71.6555 110.223 71.3627C109.946 71.07 109.761 70.8081 109.668 70.577C109.668 70.1456 109.745 69.7373 109.899 69.3522C110.053 68.9516 110.285 68.4509 110.593 67.85C110.731 67.3878 110.909 66.9256 111.124 66.4634C111.355 65.9242 111.517 65.5159 111.61 65.2386C111.717 64.9459 111.787 64.6454 111.818 64.3373C111.818 64.3219 111.81 64.3142 111.794 64.3142C111.794 64.2526 111.818 64.1986 111.864 64.1524C111.91 64.1062 111.964 64.0831 112.026 64.0831C112.056 64.0369 112.149 64.0138 112.303 64.0138C112.703 64.0138 113.05 64.1216 113.343 64.3373C113.636 64.553 113.782 64.8842 113.782 65.331C113.782 65.5621 113.736 65.7855 113.643 66.0012C113.566 66.2015 113.412 66.5404 113.181 67.0181L112.927 67.5265C112.881 67.6189 112.811 67.7576 112.719 67.9425C112.626 68.1119 112.58 68.2198 112.58 68.266C112.965 68.0041 113.42 67.6574 113.944 67.226C114.714 66.6098 115.346 66.1322 115.839 65.7932C116.332 65.4543 116.694 65.2848 116.925 65.2848C117.125 65.2848 117.402 65.4004 117.757 65.6315C118.127 65.8471 118.342 66.0474 118.404 66.2323C118.404 66.3402 118.388 66.5019 118.358 66.7176C118.342 66.9333 118.327 67.1259 118.311 67.2954L118.335 68.0118C118.35 68.135 118.358 68.3199 118.358 68.5664C118.358 69.0594 118.327 69.4061 118.265 69.6064C118.281 69.6218 118.296 69.6449 118.311 69.6757C118.327 69.7065 118.335 69.7296 118.335 69.745L118.311 69.7913C118.327 69.9453 118.412 70.1918 118.566 70.5308C118.72 70.8697 118.797 71.0546 118.797 71.0854C118.797 71.2549 118.681 71.4475 118.45 71.6632C118.234 71.8634 118.026 71.979 117.826 72.0098ZM43.577 98.5288C43.0685 98.2669 42.8143 97.8509 42.8143 97.2809C42.8143 97.0344 42.8683 96.7108 42.9761 96.3102C43.1148 95.771 43.2996 95.2549 43.5307 94.7619C43.654 94.4691 43.7773 94.1456 43.9005 93.7913C44.0238 93.4369 44.1239 93.0517 44.2009 92.6358C44.5091 91.927 44.7787 91.2414 45.0098 90.579C45.2563 89.9011 45.4104 89.4697 45.472 89.2848C45.4874 89.177 45.7416 88.5915 46.2346 87.5284L46.6275 86.6965C46.9972 85.6642 47.3362 84.8323 47.6443 84.2006C47.9679 83.5689 48.3684 82.891 48.846 82.1669C49.0926 81.7663 49.4623 81.5661 49.9553 81.5661C50.2481 81.5661 50.51 81.6354 50.7411 81.7741C50.9722 81.9127 51.1262 82.1053 51.2033 82.3518C51.3419 82.6753 51.4421 83.0297 51.5037 83.4149C51.5807 83.8 51.6347 84.4856 51.6655 85.4717C51.6809 85.7798 51.6886 86.2266 51.6886 86.812C51.7194 88.1062 51.7579 89.0922 51.8041 89.7701C51.8503 90.4326 51.9505 91.0412 52.1046 91.5958C52.197 92.2121 52.2509 92.6203 52.2663 92.8206C52.3588 93.5447 52.4435 94.1071 52.5205 94.5077C52.5976 94.9082 52.6746 95.1085 52.7516 95.1085C52.9365 95.1085 53.1907 94.6771 53.5143 93.8144C53.8532 92.9516 54.3539 91.1721 55.0164 88.476C55.1089 88.1678 55.2167 87.721 55.34 87.1356C55.4632 86.5501 55.5557 85.9801 55.6173 85.4254C55.7868 84.7938 55.9485 84.139 56.1026 83.4611C56.2721 82.7678 56.3568 82.3903 56.3568 82.3287C56.3568 82.2517 56.3568 82.1746 56.3568 82.0976C56.3722 82.0206 56.3722 81.9281 56.3568 81.8203C56.4184 81.8203 56.4801 81.7201 56.5417 81.5198C56.6187 81.3196 56.6572 81.1347 56.6572 80.9652C56.6572 80.5184 56.7651 80.1872 56.9808 79.9715C57.1502 79.6633 57.3967 79.5093 57.7203 79.5093C57.9668 79.5093 58.1979 79.594 58.4136 79.7635C58.6293 79.9175 58.7602 80.1024 58.8065 80.3181C58.8527 80.6417 58.637 81.8203 58.1594 83.854C58.1594 84.0388 58.0515 84.5935 57.8358 85.5179C57.6972 86.0417 57.5893 86.5424 57.5123 87.02C57.4507 87.4668 57.3736 87.852 57.2812 88.1755C57.2042 88.4991 57.1348 88.6531 57.0732 88.6377C56.4415 91.3493 55.6327 93.8298 54.6467 96.0791C54.4156 96.6184 54.1382 97.0344 53.8147 97.3271C53.4912 97.6352 53.1522 97.7893 52.7979 97.7893C52.3665 97.7893 51.9736 97.5659 51.6192 97.1191C51.157 96.5182 50.8181 95.9097 50.6024 95.2934C50.3867 94.6617 50.2095 93.7604 50.0709 92.5895C49.7936 90.8794 49.6549 89.1538 49.6549 87.4129V86.6734C49.6703 85.5949 49.601 85.0557 49.4469 85.0557C49.3545 85.0557 49.2466 85.1943 49.1234 85.4717C49.0001 85.749 48.846 86.1572 48.6612 86.6965C48.5841 86.943 48.2375 87.852 47.6212 89.4235L47.2283 90.4403C46.951 90.9949 46.743 91.5573 46.6044 92.1273C46.1268 93.3599 45.7493 94.4537 45.472 95.409C45.2101 96.3642 45.0637 96.9034 45.0329 97.0267C44.9867 97.1961 44.9405 97.3579 44.8942 97.512C44.8634 97.666 44.8249 97.8047 44.7787 97.9279C44.6554 98.2515 44.5553 98.4672 44.4783 98.575C44.4012 98.6983 44.3011 98.7599 44.1778 98.7599C44.0238 98.7599 43.8235 98.6829 43.577 98.5288ZM59.2257 96.4027C59.0408 96.4027 58.8944 96.3719 58.7866 96.3102C58.6787 96.2486 58.5247 96.1331 58.3244 95.9636C58.0163 95.6401 57.7775 95.3088 57.608 94.9699C57.4385 94.6155 57.3769 94.3074 57.4231 94.0455C57.4693 93.9376 57.4847 93.8298 57.4693 93.7219C57.4693 93.6141 57.4693 93.5447 57.4693 93.5139C57.4077 93.4523 57.3769 93.4138 57.3769 93.3984C57.3769 93.3676 57.3923 93.3445 57.4231 93.3291C57.4539 93.2982 57.477 93.2674 57.4924 93.2366C57.5849 93.2366 57.6157 93.1519 57.5849 92.9824C57.5541 92.8591 57.608 92.5895 57.7466 92.1736C57.8853 91.7576 58.0625 91.3724 58.2782 91.0181C58.4477 90.7407 58.6942 90.3941 59.0177 89.9781C59.3566 89.5621 59.6571 89.2463 59.919 89.0306C60.6893 88.3681 61.3826 87.9675 61.9989 87.8289C62.307 87.7518 62.6075 87.7133 62.9002 87.7133C63.347 87.7133 63.6936 87.8366 63.9401 88.0831C64.2791 88.2217 64.5256 88.422 64.6796 88.6839C64.8337 88.9459 64.9339 89.2925 64.9801 89.7239C64.9955 89.8163 65.0032 89.9704 65.0032 90.1861C65.0032 91.3262 64.5718 92.5125 63.709 93.745C63.3547 94.2535 63.0003 94.6617 62.646 94.9699C62.2916 95.278 61.8602 95.5861 61.3518 95.8943C61.0745 96.0791 60.7818 96.2024 60.4736 96.264C60.1655 96.3256 59.7495 96.3719 59.2257 96.4027ZM61.5829 93.5833C61.8756 93.3213 62.0836 93.0594 62.2069 92.7975C62.3455 92.5202 62.5381 92.0426 62.7846 91.3647C62.8771 91.226 62.9233 90.9487 62.9233 90.5327C62.9233 90.163 62.8694 89.955 62.7615 89.9088C62.6845 89.8471 62.592 89.8163 62.4842 89.8163C62.3455 89.8163 62.1221 89.9242 61.814 90.1399C61.2748 90.6021 60.8203 91.0874 60.4505 91.5958C60.0962 92.0888 59.8497 92.6589 59.711 93.3059C59.6956 93.3676 59.6879 93.46 59.6879 93.5833C59.6879 94.1071 59.8728 94.369 60.2425 94.369C60.5969 94.369 61.0437 94.1071 61.5829 93.5833ZM68.8003 95.9636C68.6308 96.0868 68.4459 96.1485 68.2456 96.1485C68.0145 96.1485 67.8142 96.0637 67.6448 95.8943C67.3366 95.5861 67.0747 95.0084 66.859 94.161C66.6587 93.3136 66.5586 92.2198 66.5586 90.8794C66.6356 90.0474 66.6741 89.1615 66.6741 88.2217C66.7974 88.1447 66.9592 88.1062 67.1595 88.1062C67.4368 88.1062 67.7141 88.1678 67.9914 88.2911C68.1455 88.3681 68.2533 88.4914 68.315 88.6608C68.392 88.8149 68.4382 89.0768 68.4536 89.4466C68.4844 89.8163 68.4998 90.4172 68.4998 91.2492L68.4536 91.8038L68.4074 92.9593C68.4074 93.2058 68.4228 93.3445 68.4536 93.3753C68.469 93.4061 68.4844 93.4446 68.4998 93.4908C68.5152 93.5216 68.5307 93.537 68.5461 93.537C68.5615 93.537 68.677 93.4292 68.8927 93.2135L69.2856 92.5433C69.4705 92.2044 69.6014 91.981 69.6784 91.8731C69.7555 91.7961 69.8941 91.6112 70.0944 91.3185L70.4642 90.8563C70.5104 90.7792 70.5874 90.6714 70.6953 90.5327C70.8185 90.3787 70.8956 90.2631 70.9264 90.1861C71.0959 89.9088 71.273 89.67 71.4579 89.4697C71.6428 89.2694 71.7661 89.1693 71.8277 89.1693C71.8431 89.1847 71.8739 89.1924 71.9201 89.1924C71.9817 89.1924 72.0819 89.1693 72.2205 89.123C72.3592 89.0768 72.4594 89.046 72.521 89.0306C72.5826 88.969 72.6442 88.9382 72.7059 88.9382C72.7983 88.9382 72.883 88.969 72.9601 89.0306C73.1141 89.1538 73.1912 89.2617 73.1912 89.3541C73.1912 89.4928 73.0987 89.8394 72.9138 90.3941C72.729 90.9487 72.5826 91.2492 72.4748 91.2954L72.2437 91.5265C72.1974 91.7268 71.897 92.2198 71.3424 93.0055C70.7877 93.7913 70.2793 94.4768 69.8171 95.0623C69.663 95.2626 69.4859 95.4475 69.2856 95.6169C69.1007 95.7864 68.9389 95.902 68.8003 95.9636ZM76.0119 96.9804C74.2555 96.9804 73.3773 95.979 73.3773 93.9761C73.3773 93.252 73.5545 92.4355 73.9088 91.5265C74.2786 90.6021 74.7331 89.7778 75.2723 89.0537C75.827 88.3142 76.3739 87.8212 76.9131 87.5747C77.2059 87.4206 77.5448 87.3436 77.93 87.3436C78.6233 87.3436 79.2241 87.4976 79.7326 87.8058C80.2564 88.0985 80.5183 88.6608 80.5183 89.4928C80.5183 89.9704 80.3565 90.4942 80.033 91.0643C79.7095 91.6343 79.3012 92.1196 78.8082 92.5202C78.3306 92.9054 77.8607 93.098 77.3985 93.098C76.7052 93.098 76.1197 92.8746 75.6421 92.4278C75.3802 92.9516 75.2492 93.4523 75.2492 93.9299C75.2492 94.3151 75.2954 94.6155 75.3879 94.8312C75.4803 95.0315 75.696 95.1316 76.035 95.1316C76.3585 95.1316 76.6204 95.0854 76.8207 94.993C77.021 94.9005 77.2059 94.7927 77.3753 94.6694C77.5448 94.5462 77.6758 94.4537 77.7682 94.3921L77.8607 94.3459H77.8375C78.1149 94.1918 78.3151 94.0763 78.4384 93.9992C78.5771 93.9068 78.6926 93.8452 78.7851 93.8144C79.0162 93.8144 79.2318 93.8837 79.4321 94.0224C79.6324 94.161 79.7326 94.3305 79.7326 94.5308C79.7326 94.6848 79.5939 94.939 79.3166 95.2934C79.0393 95.6323 78.7542 95.8712 78.4615 96.0098L78.1842 96.1485H78.2073C78.0686 96.3334 77.93 96.4258 77.7913 96.4258H77.6064C77.5448 96.549 77.3368 96.6723 76.9825 96.7956C76.6435 96.9188 76.32 96.9804 76.0119 96.9804ZM77.2136 91.4109C77.645 91.4109 77.9993 91.226 78.2766 90.8563C78.5694 90.4865 78.7157 90.1168 78.7157 89.747C78.7157 89.5775 78.6695 89.4235 78.5771 89.2848C78.5 89.1461 78.3922 89.0768 78.2535 89.0768C77.9916 89.0768 77.6989 89.2001 77.3753 89.4466C77.0518 89.6931 76.7668 90.0166 76.5203 90.4172L76.2198 90.9025C76.2815 90.8717 76.3277 90.8563 76.3585 90.8563C76.4818 90.8563 76.5742 90.9102 76.6358 91.0181C76.6974 91.1259 76.7668 91.2183 76.8438 91.2954C76.9208 91.3724 77.0441 91.4109 77.2136 91.4109ZM92.8818 94.6925C92.9896 94.8466 93.0436 94.993 93.0436 95.1316C93.0436 95.2857 92.9896 95.4244 92.8818 95.5476C92.7739 95.6709 92.6815 95.7325 92.6045 95.7325C92.2347 95.7325 91.8187 95.6478 91.3565 95.4783C90.9097 95.2934 90.6863 95.0315 90.6863 94.6925V93.2597C90.6863 92.6435 90.6324 92.2891 90.5246 92.1967C90.2935 92.0734 89.9853 92.2506 89.6002 92.7282C89.215 93.1904 88.7451 93.8837 88.1905 94.8081C87.9748 95.147 87.7899 95.3935 87.6358 95.5476C87.4818 95.6863 87.3431 95.7556 87.2198 95.7556C87.112 95.7556 87.0196 95.7248 86.9425 95.6632C86.4649 95.5245 86.2261 95.2549 86.2261 94.8543C86.2261 94.8081 86.2415 94.7079 86.2723 94.5539C86.411 94.0763 86.5574 93.5447 86.7114 92.9593C86.8809 92.3738 87.0119 91.8731 87.1043 91.4571C87.0581 91.3647 86.981 91.3185 86.8732 91.3185C86.7191 91.3185 86.5419 91.3955 86.3417 91.5496C86.28 91.5958 86.1645 91.6728 85.995 91.7807C85.8409 91.8731 85.6792 92.0041 85.5097 92.1736C85.3556 92.3276 85.1939 92.5433 85.0244 92.8206C84.9628 92.9285 84.8549 93.0902 84.7009 93.3059C83.9305 94.4768 83.4606 95.1393 83.2911 95.2934C83.2141 95.5091 83.1371 95.6632 83.06 95.7556C82.9984 95.8326 82.9214 95.8712 82.8289 95.8712C82.7673 95.8712 82.6903 95.848 82.5978 95.8018C82.3051 95.6632 82.0663 95.4706 81.8814 95.2241C81.712 94.9622 81.6272 94.654 81.6272 94.2997C81.6272 94.0686 81.6966 93.6064 81.8352 92.9131C81.9739 92.2198 82.1279 91.5727 82.2974 90.9718C82.4207 90.7253 82.5131 90.4711 82.5747 90.2092C82.6518 89.9319 82.6903 89.7393 82.6903 89.6315C82.7365 89.3387 82.8289 88.9459 82.9676 88.4528C83.1063 87.9444 83.2064 87.6671 83.268 87.6209C83.3605 87.5284 83.5299 87.4822 83.7765 87.4822C83.9459 87.4822 84.1077 87.513 84.2618 87.5747C84.4158 87.6363 84.5237 87.7287 84.5853 87.852C84.7856 88.0831 84.8857 88.3989 84.8857 88.7995C84.8857 89.1693 84.8087 89.5621 84.6546 89.9781C84.5006 90.3325 84.308 90.8486 84.0769 91.5265C84.0769 91.5265 84.0923 91.5111 84.1231 91.4803C84.4929 90.9564 84.9705 90.371 85.5559 89.7239C85.8332 89.4158 86.1414 89.177 86.4803 89.0075C86.8347 88.838 87.1197 88.7533 87.3354 88.7533C87.7052 88.8149 88.0133 88.9998 88.2598 89.3079C88.5217 89.6006 88.6835 90.0089 88.7451 90.5327C88.7451 90.7176 88.7297 90.9487 88.6989 91.226C88.6681 91.488 88.645 91.6574 88.6296 91.7345C88.6912 91.6574 88.8452 91.4725 89.0918 91.1798C89.3537 90.8717 89.6695 90.5559 90.0393 90.2323C90.3782 89.9704 90.694 89.8394 90.9868 89.8394C91.2333 89.8394 91.449 89.9396 91.6339 90.1399C91.9728 90.3402 92.2347 90.6637 92.4196 91.1105C92.6199 91.5573 92.72 92.0657 92.72 92.6358C92.72 92.836 92.7123 92.9901 92.6969 93.098C92.6815 93.2058 92.6738 93.3599 92.6738 93.5602C92.6738 93.7758 92.6969 93.9838 92.7431 94.1841C92.7894 94.369 92.8356 94.5385 92.8818 94.6925ZM97.5347 96.4258C96.9646 96.3642 96.5872 96.1177 96.4023 95.6863C96.279 95.563 96.202 95.4629 96.1712 95.3858C96.1558 95.3088 96.1558 95.2318 96.1712 95.1547C96.3561 95.1547 96.4639 95.1239 96.4947 95.0623C96.4947 95.0161 96.5178 94.9853 96.564 94.9699C96.6257 94.9545 96.6873 94.9545 96.7489 94.9699C97.1495 95.0007 97.7041 94.785 98.4128 94.3228C99.137 93.8606 99.915 93.2443 100.747 92.474C101.178 91.9193 101.471 91.5265 101.625 91.2954C101.779 91.0489 101.856 90.8486 101.856 90.6945C101.856 90.6175 101.818 90.5019 101.741 90.3479C101.664 90.2246 101.54 90.163 101.371 90.163C101.094 90.163 100.716 90.317 100.239 90.6252C99.576 91.0412 99.0445 91.4263 98.6439 91.7807C98.2434 92.1196 97.8736 92.5202 97.5347 92.9824C97.3344 93.2443 97.1418 93.4831 96.9569 93.6988C96.7874 93.8991 96.6719 94.0378 96.6103 94.1148C96.6103 94.1764 96.5178 94.2535 96.3329 94.3459C96.1635 94.4383 96.0171 94.4846 95.8939 94.4846C95.8168 94.4537 95.7244 94.3921 95.6165 94.2997C95.5241 94.2072 95.4702 94.0994 95.4548 93.9761C95.424 93.9453 95.3546 93.8991 95.2468 93.8375C95.1543 93.7604 95.085 93.6757 95.0388 93.5833C94.9926 93.4908 94.9695 93.383 94.9695 93.2597C94.9695 93.0286 95.0465 92.6358 95.2006 92.0811C95.3392 91.4494 95.4933 90.8255 95.6628 90.2092C95.8476 89.5775 95.9709 89.2309 96.0325 89.1693C96.0479 89.1384 96.0787 89.0537 96.125 88.915C96.1866 88.7764 96.2174 88.63 96.2174 88.476C96.2482 88.3373 96.2944 88.1832 96.3561 88.0138C96.4331 87.8289 96.4716 87.721 96.4716 87.6902C96.5486 87.6286 96.7951 87.02 97.2111 85.8645C97.2111 85.8029 97.3806 85.3946 97.7195 84.6397C98.2126 83.4842 98.5207 82.7447 98.6439 82.4211C98.721 82.2979 98.8519 82.0745 99.0368 81.7509C99.0676 81.7047 99.1293 81.6046 99.2217 81.4505C99.3295 81.281 99.4143 81.1809 99.4759 81.1501C99.5838 81.1193 99.8149 81.1963 100.169 81.3812C100.539 81.5661 100.778 81.7432 100.886 81.9127C100.901 81.9435 100.916 81.982 100.932 82.0283C100.963 82.0591 100.978 82.0976 100.978 82.1438C100.978 82.2208 100.932 82.3595 100.839 82.5598C100.762 82.7601 100.67 82.9681 100.562 83.1838C100.47 83.384 100.4 83.5381 100.354 83.646L99.6839 85.0326C99.0368 86.45 98.4822 87.8289 98.02 89.1693C97.8813 89.6006 97.7581 89.9473 97.6502 90.2092L97.5347 90.7176L98.1355 90.0474C98.4128 89.7701 98.7595 89.4851 99.1755 89.1924C99.3604 89.0691 99.63 88.9304 99.9843 88.7764C100.339 88.6223 100.585 88.5299 100.724 88.4991C101.217 88.3758 101.641 88.3142 101.995 88.3142C102.565 88.3142 103.089 88.7225 103.566 89.539C103.705 89.7855 103.774 90.1014 103.774 90.4865C103.774 90.7638 103.736 91.0412 103.659 91.3185C103.582 91.5958 103.482 91.8423 103.358 92.058C103.281 92.1196 103.204 92.2044 103.127 92.3122C103.05 92.4047 103.012 92.4817 103.012 92.5433C102.996 92.6358 102.865 92.8437 102.619 93.1673C102.372 93.4908 102.103 93.8144 101.81 94.1379C101.409 94.5539 100.878 94.9699 100.215 95.3858C99.5683 95.8018 99.0291 96.0868 98.5977 96.2409C98.5053 96.2563 98.3281 96.2871 98.0662 96.3334C97.8197 96.3642 97.6425 96.395 97.5347 96.4258ZM106.37 96.3565C105.862 96.1562 105.485 95.848 105.238 95.4321C105.007 95.0007 104.891 94.446 104.891 93.7681C104.891 93.6141 104.907 93.3368 104.938 92.9362C104.953 92.8129 104.961 92.6666 104.961 92.4971C104.961 92.2352 104.93 92.0426 104.868 91.9193C104.807 91.7807 104.699 91.642 104.545 91.5034C104.499 91.4571 104.391 91.357 104.221 91.2029C104.052 91.0489 103.975 90.9333 103.99 90.8563V90.787C103.99 90.6791 104.013 90.5636 104.059 90.4403C104.121 90.3016 104.175 90.2169 104.221 90.1861C104.267 90.1707 104.36 90.1245 104.499 90.0474C104.637 89.9704 104.745 89.9473 104.822 89.9781C104.884 89.9781 104.976 90.0166 105.099 90.0937C105.238 90.1707 105.307 90.24 105.307 90.3016C105.4 90.4865 105.639 90.1861 106.024 89.4004C106.239 89.0768 106.532 88.761 106.902 88.4528C107.272 88.1293 107.611 87.8828 107.919 87.7133C108.027 87.6671 108.265 87.6055 108.635 87.5284C109.02 87.436 109.321 87.3898 109.537 87.3898C109.783 87.3898 110.068 87.4899 110.392 87.6902C110.731 87.8905 111.008 88.1062 111.224 88.3373C111.547 88.5684 111.709 89.0075 111.709 89.6546C111.709 90.0397 111.647 90.371 111.524 90.6483C111.462 90.8794 111.154 91.2337 110.6 91.7114C110.06 92.1736 109.621 92.474 109.282 92.6126C108.943 92.6897 108.566 92.7282 108.15 92.7282C107.734 92.7282 107.449 92.6897 107.295 92.6126C107.187 92.551 107.095 92.5818 107.018 92.7051C106.956 92.8129 106.902 93.0671 106.856 93.4677L106.833 93.6988C106.833 93.8683 106.871 94.0301 106.948 94.1841C107.056 94.369 107.156 94.5 107.249 94.577C107.341 94.654 107.48 94.6925 107.665 94.6925L107.873 94.6694C108.042 94.654 108.219 94.5693 108.404 94.4152C108.604 94.2612 108.836 94.0532 109.097 93.7913C109.375 93.5293 109.537 93.3753 109.583 93.3291C109.66 93.175 109.868 93.098 110.207 93.098C110.345 93.098 110.523 93.1211 110.738 93.1673C110.892 93.2905 110.969 93.4446 110.969 93.6295C110.969 93.8914 110.846 94.2457 110.6 94.6925C110.523 94.8466 110.284 95.1085 109.883 95.4783C109.498 95.848 109.19 96.1023 108.959 96.2409C108.543 96.472 108.081 96.5876 107.572 96.5876C107.187 96.5876 106.786 96.5105 106.37 96.3565ZM108.081 91.1567C108.45 91.0643 108.735 90.9564 108.936 90.8332C109.151 90.6945 109.398 90.4326 109.675 90.0474C109.798 89.6777 109.822 89.4543 109.745 89.3772C109.652 89.2848 109.544 89.2386 109.421 89.2386C109.267 89.2386 109.082 89.3233 108.866 89.4928C108.712 89.539 108.497 89.6854 108.219 89.9319C107.957 90.163 107.734 90.3941 107.549 90.6252C107.364 90.8409 107.31 90.9718 107.387 91.0181C107.356 91.0643 107.434 91.1028 107.618 91.1336C107.803 91.149 107.957 91.1567 108.081 91.1567ZM114.32 96.0791C114.197 96.0791 114.019 96.0483 113.788 95.9867C113.573 95.9251 113.442 95.8712 113.396 95.8249C113.303 95.7479 113.211 95.6323 113.118 95.4783C113.026 95.3088 112.98 95.1162 112.98 94.9005C112.98 94.5616 113.103 94.2072 113.349 93.8375C113.442 93.6526 113.673 93.0132 114.043 91.9193L114.505 90.6483C114.536 90.3864 114.52 90.2015 114.459 90.0937C114.397 89.9704 114.266 89.9011 114.066 89.8857C113.896 89.8857 113.773 89.8317 113.696 89.7239C113.619 89.6006 113.58 89.4081 113.58 89.1461C113.627 88.6993 113.804 88.3758 114.112 88.1755C114.358 88.0523 114.697 87.9906 115.129 87.9906C115.514 87.9906 115.768 88.0446 115.891 88.1524C116.015 88.2449 116.123 88.4528 116.215 88.7764C116.307 89.0999 116.377 89.4004 116.423 89.6777C116.5 89.6315 116.7 89.4235 117.024 89.0537L117.532 88.5222C117.794 88.3373 118.095 88.1601 118.434 87.9906C118.772 87.8212 119.011 87.7364 119.15 87.7364C119.304 87.7364 119.504 87.8135 119.751 87.9675C119.997 88.1216 120.159 88.268 120.236 88.4066C120.467 88.838 120.583 89.1924 120.583 89.4697C120.583 89.6854 120.529 89.8548 120.421 89.9781C120.005 90.5019 119.543 90.7638 119.034 90.7638C118.911 90.7638 118.811 90.7561 118.734 90.7407C118.657 90.7253 118.564 90.6175 118.457 90.4172C118.349 90.2169 118.287 90.0628 118.272 89.955C118.272 89.9088 118.156 90.0012 117.925 90.2323C117.709 90.448 117.571 90.5867 117.509 90.6483L117.116 91.0643C116.87 91.357 116.616 91.7422 116.354 92.2198C116.107 92.6974 115.737 93.4215 115.244 94.3921L114.944 95.1085C114.79 95.4629 114.674 95.7171 114.597 95.8712C114.52 96.0098 114.428 96.0791 114.32 96.0791Z" fill="white"/>
</g>
<defs>
<clipPath id="clip0">
<rect width="115.542" height="116.177" fill="white" transform="translate(0.472107 58.168) rotate(-30)"/>
</clipPath>
</defs>
</svg>
