<svg width="313" height="402" viewBox="0 0 313 402" fill="none" xmlns="http://www.w3.org/2000/svg">
<path d="M0.000244141 93.5844C0.000244141 92.8507 0.595045 92.2559 1.32877 92.2559H3.42836C3.67293 92.2559 3.8712 92.4541 3.8712 92.6987V114.901C3.8712 115.145 3.67293 115.344 3.42836 115.344H1.32877C0.595044 115.344 0.000244141 114.749 0.000244141 114.015V93.5844Z" fill="#979797"/>
<path d="M-0.000488281 135.451C-0.000488281 134.217 1.03936 133.217 2.32208 133.217H3.09628C3.52385 133.217 3.87047 133.55 3.87047 133.962V172.689C3.87047 173.101 3.52385 173.434 3.09628 173.434H2.32208C1.03936 173.434 -0.000488281 172.434 -0.000488281 171.2V135.451Z" fill="#979797"/>
<path d="M-0.000488281 189.076C-0.000488281 187.842 1.03936 186.842 2.32208 186.842H3.09628C3.52385 186.842 3.87047 187.175 3.87047 187.587V226.314C3.87047 226.726 3.52385 227.059 3.09628 227.059H2.32208C1.03936 227.059 -0.000488281 226.059 -0.000488281 224.825V189.076Z" fill="#979797"/>
<path d="M308.905 151.84C308.905 151.429 309.251 151.096 309.679 151.096C310.962 151.096 312.002 152.096 312.002 153.33V215.146C312.002 216.38 310.962 217.38 309.679 217.38C309.251 217.38 308.905 217.046 308.905 216.635V151.84Z" fill="#979797"/>
<path fill-rule="evenodd" clip-rule="evenodd" d="M265.548 14.7949H46.4521C21.6529 14.7949 1.54907 34.1347 1.54907 57.9914V594.223C1.54907 618.08 21.6529 637.42 46.4521 637.42H265.548C290.347 637.42 310.451 618.08 310.451 594.223V57.9914C310.451 34.1347 290.347 14.7949 265.548 14.7949ZM10.8394 57.9914C10.8394 39.0706 26.7837 23.7321 46.4521 23.7321H68.9686C71.6365 24.6353 73.5488 27.081 73.5488 29.9563C73.5488 39.0642 81.2239 46.4475 90.6916 46.4475H220.534C230.002 46.4475 237.677 39.0642 237.677 29.9563C237.677 27.081 239.59 24.6353 242.257 23.7321H265.548C285.216 23.7321 301.161 39.0706 301.161 57.9914V594.223C301.161 613.144 285.216 628.483 265.548 628.483H46.4521C26.7837 628.483 10.8394 613.144 10.8394 594.223V57.9914Z" fill="#292929"/>
<rect x="138.581" y="31.1758" width="34.0644" height="2.97907" rx="1.48953" fill="#979797"/>
<ellipse cx="188.891" cy="32.6652" rx="3.87094" ry="3.72383" fill="#979797"/>
<mask id="mask0" style="mask-type:alpha" maskUnits="userSpaceOnUse" x="10" y="24" width="292" height="606">
<path fill-rule="evenodd" clip-rule="evenodd" d="M10.9178 56.8678C10.8857 57.4644 10.8694 58.065 10.8694 58.6693V594.93C10.8694 613.852 26.8324 629.192 46.5238 629.192H265.876C285.568 629.192 301.531 613.852 301.531 594.93V58.6693C301.531 58.5954 301.531 58.5216 301.53 58.4478C301.406 39.6279 285.491 24.4082 265.876 24.4082H242.558C239.887 25.3114 237.973 27.7573 237.973 30.6327C237.973 39.7411 230.289 47.1248 220.81 47.1248H90.8151C81.3363 47.1248 73.6522 39.7411 73.6522 30.6327C73.6522 27.7573 71.7377 25.3114 69.0667 24.4082H46.5238C37.6393 24.4082 29.5138 27.5308 23.2709 32.6962C20.866 34.6861 18.7405 36.9792 16.9586 39.5136C13.4416 44.5161 11.2633 50.459 10.9178 56.8678Z" fill="white"/>
</mask>
<g mask="url(#mask0)">
<rect x="10.8696" y="21.666" width="290.661" height="596.555" fill="#F6FAFA"/>
<rect x="10.2986" y="37.1641" width="291.403" height="590.585" rx="22.1421" fill="white"/>
<mask id="mask1" style="mask-type:alpha" maskUnits="userSpaceOnUse" x="10" y="37" width="292" height="603">
<rect x="10.2986" y="37.1641" width="291.403" height="602.411" rx="22.1421" fill="#C4C4C4"/>
</mask>
<g mask="url(#mask1)">
<g opacity="0.5">
<mask id="mask2" style="mask-type:alpha" maskUnits="userSpaceOnUse" x="10" y="141" width="292" height="499">
<rect x="10.2981" y="141.314" width="291.306" height="498.583" fill="#F6FAFA"/>
</mask>
<g mask="url(#mask2)">
<path d="M121.53 468.859C105.996 462.37 90.2414 457.078 74.0627 453.014C69.9675 452.005 66.0744 450.966 62.0156 450.185C57.9569 449.404 53.8982 448.622 49.9686 447.356C46.0755 446.317 42.275 444.566 38.4745 442.815C34.674 441.063 30.8735 439.312 27.4042 437.045C20.0979 432.8 13.454 427.524 7.47258 421.217C1.4911 414.909 -3.58937 407.767 -7.56678 399.76C-15.6872 384.003 -19.8191 366.014 -22.2613 348.233C-22.789 343.659 -23.3168 339.085 -24.4508 334.603C-25.5848 330.121 -26.9209 325.669 -28.4591 321.249C-29.9973 316.828 -32.1053 312.726 -34.2133 308.624C-36.3213 304.522 -38.1542 300.844 -39.0496 296.558C-41.2447 288.048 -41.4553 279.005 -40.3804 270.232C-39.8247 265.96 -39.1034 261.429 -38.1435 257.095C-37.1836 252.761 -36.4258 248.458 -35.0253 244.29C-34.3067 242.319 -33.5882 240.349 -32.9062 238.151C-32.1876 236.181 -31.34 233.725 -30.86 231.558C-29.6981 227.194 -28.9768 222.663 -28.2555 218.133C-27.5342 213.602 -27.4556 208.936 -27.1385 204.467C-27.0235 200.028 -26.4313 195.983 -24.9942 192.042C-22.3222 184.191 -17.1717 177.593 -10.9574 172.463C-4.77958 167.106 1.9119 162.369 9.02441 158.964C12.6817 157.247 16.2099 156.014 20.0132 155.205C23.6508 154.654 27.5636 154.527 30.8869 155.885C32.4476 156.579 34.2467 157.47 35.4397 158.453C36.6326 159.435 37.5308 161.161 38.4655 163.114C40.3349 167.019 42.6815 171.317 44.9551 175.162C54.1225 190.992 65.9002 205.031 78.635 217.296C85.0207 223.543 91.701 229.046 98.7856 234.488C102.328 237.209 105.834 239.703 109.505 241.939C113.213 244.403 116.848 246.412 120.152 248.936C123.419 251.234 126.355 254.047 128.757 257.406C130.06 259.07 131.16 260.765 131.856 262.521C132.791 264.474 133.762 266.653 134.697 268.606C136.805 272.708 139.115 276.779 141.389 280.623C143.662 284.467 146.376 288.478 148.816 292.064C153.694 299.236 157.635 307.016 160.638 315.404C163.642 323.791 166.039 332.271 167.664 341.1C171.117 358.727 171.299 376.617 168.507 394.027C167.193 402.603 165.274 411.271 162.913 419.773L159.189 432.67C158.027 437.035 156.938 441.854 156.932 446.974C156.929 449.534 156.89 451.867 157.089 454.397C157.325 457.153 157.856 459.167 158.221 461.439L160.374 474.842L164.716 501.875C165.081 504.147 166.99 505.719 169.011 505.413C171.032 505.107 172.356 503.044 171.991 500.773L167.649 473.74L165.459 460.109C165.095 457.838 164.73 455.566 164.438 453.749C164.311 451.674 164.185 449.598 164.261 447.493C164.412 443.281 165.041 439.463 166.203 435.098L169.927 422.201C172.251 413.472 174.135 404.577 175.577 395.516C177.02 386.454 177.581 377.062 177.334 367.791C177.087 358.521 175.995 349.145 174.297 339.862C172.599 330.579 169.926 321.676 166.648 312.865C163.369 304.053 159.117 295.623 153.963 288.026C151.286 284.243 148.883 280.884 146.609 277.04C144.336 273.196 142.062 269.352 140.193 265.447C139.258 263.494 138.323 261.541 137.352 259.361C136.381 257.182 134.767 254.866 133.464 253.202C130.585 249.45 127.135 246.017 123.391 243.326C119.646 240.636 116.011 238.627 112.542 236.36C109.073 234.093 105.567 231.599 102.061 229.105C95.2516 224.087 88.5713 218.583 82.4242 212.534C69.9644 200.692 58.6639 187.046 49.606 171.897C47.3324 168.053 45.2609 164.178 43.1529 160.077C42.2182 158.124 40.7698 155.551 38.8247 153.751C36.8795 151.952 34.6761 151.122 32.4362 150.065C28.0295 148.406 23.5104 148.625 19.2665 149.268C15.059 150.138 10.9246 151.463 7.30376 153.408C-0.176451 157.1 -7.23564 162.126 -13.5791 167.741C-20.1246 173.386 -25.7719 180.758 -28.7021 189.579C-30.2683 194.004 -30.9166 198.989 -30.9951 203.655C-31.0737 208.321 -31.4273 212.563 -31.9465 217.063C-32.5022 221.336 -33.2235 225.866 -34.422 230.004C-34.9019 232.171 -35.6204 234.141 -36.339 236.112C-37.0575 238.082 -37.9416 240.31 -38.6237 242.508C-39.9878 246.903 -40.9111 251.464 -41.669 255.768C-42.6288 260.102 -43.3501 264.632 -43.8329 269.359C-44.8348 278.586 -44.5512 288.084 -42.2467 297.275C-41.0761 301.985 -39.1337 306.344 -36.8236 310.416C-34.7521 314.29 -32.8463 318.423 -31.3445 322.616C-29.8428 326.81 -28.5432 331.035 -27.4092 335.517C-26.3117 339.772 -25.8204 344.118 -25.2927 348.692C-24.7649 353.266 -23.833 357.779 -22.9011 362.292C-21.9691 366.805 -21.0372 371.317 -19.7011 375.769C-17.2309 384.703 -13.9889 393.287 -9.77293 401.49C-5.55694 409.694 -0.237891 417.033 5.98217 423.537C12.2022 430.041 19.0847 435.514 26.5931 439.728C30.2644 441.964 34.1015 443.943 38.0676 445.436C41.8681 447.187 45.8341 448.68 49.9658 449.916C54.0975 451.152 58.1197 451.706 62.2149 452.714C66.2737 453.496 70.1668 454.535 74.2255 455.316C90.1657 459.184 105.921 464.476 121.417 470.738C121.858 470.904 122.428 470.585 122.759 470.069C122.282 469.676 121.97 469.025 121.53 468.859Z" fill="#F6FAFA"/>
<path d="M184.614 557.755C197.05 560.298 207.004 563.361 214.144 565.776C224.738 569.565 226.862 571.21 233.95 572.521C239.375 573.642 250.813 575.505 263.402 570.758C277.449 565.318 286.02 554.119 290.753 547.756C295.409 541.503 295.613 539.558 300.807 533.943C309.173 524.69 312.372 526.197 317.796 518.836C323.297 511.364 325.138 503.05 326.851 495.155C328.718 486.333 327.362 486.406 329.357 477.87C332.145 466.303 335.036 464.72 335.598 457.075C336.134 449.231 333.524 443.104 331.578 438.608C330.631 436.205 322.262 416.48 310.67 416.252C306.653 416.162 306.32 418.527 296.956 423.567C287.847 428.474 280.12 430.678 276.077 431.803C264.383 435.022 253.867 435.363 251.513 435.464C242.352 435.732 238.744 434.579 232.552 437.394C228.765 439.093 229.226 439.841 222.062 444.296C214.642 448.884 212.978 448.694 207.605 452.211C202.411 455.706 198.957 459.28 196.527 461.611C190.744 467.605 185.858 474.897 182.558 481.076C176.955 491.995 171.298 489.151 168.408 502.75C165.518 516.349 168.796 507.407 163.859 515.715C164.561 520.243 161.921 534.942 161.921 534.942C170.743 541.569 167.138 542.126 180.39 552.558" fill="#BFDDDA" fill-opacity="0.06"/>
<path d="M117.654 452.618C97.1551 445.574 79.9926 441.345 67.5232 438.61C48.8696 434.833 44.4795 435.29 32.8972 431.086C23.9467 428.03 5.44175 420.9 -9.93604 403.74C-26.991 384.398 -31.614 361.801 -34.0353 349.077C-36.423 336.57 -35.3021 333.733 -38.963 321.644C-44.7069 301.885 -50.606 301.243 -53.3302 286.568C-56.0881 271.675 -52.7449 258.726 -49.5187 246.461C-45.8409 232.794 -43.8626 234.043 -40.5868 220.66C-36.2752 202.455 -39.4453 197.839 -34.6765 186.889C-29.7235 175.689 -21.3152 169.505 -15.1011 164.993C-11.9187 162.503 15.0983 142.564 32.6329 152.064C38.718 155.341 37.4802 158.863 47.8125 173.694C57.8596 188.126 67.8198 197.687 73.0513 202.65C88.2095 216.957 103.716 226.327 107.17 228.457C120.698 236.578 126.95 238.054 134.161 247.152C138.589 252.683 137.349 253.319 144.814 265.486C152.565 278.052 155.196 279.199 160.665 288.566C165.883 297.75 168.435 305.57 170.366 310.822C174.63 323.927 176.6 338.053 177.01 349.312C177.391 369.012 173.547 384.48 171.156 393.508C165.506 414.584 159.745 420.581 161.046 436.142C161.131 438.127 161.349 438.094 164.075 455.655C165.757 466.495 167.104 475.167 168.046 481.238" fill="#BFDDDA" fill-opacity="0.06"/>
</g>
</g>
<path d="M97.1369 397.878C97.4672 396.861 98.9057 396.861 99.236 397.878L99.8593 399.796C100.007 400.251 100.431 400.559 100.909 400.559H102.926C103.995 400.559 104.44 401.927 103.575 402.555L101.942 403.742C101.556 404.023 101.394 404.521 101.542 404.975L102.165 406.895C102.496 407.912 101.332 408.757 100.467 408.129L98.8352 406.943C98.4484 406.662 97.9245 406.662 97.5377 406.943L95.906 408.129C95.0412 408.757 93.8774 407.912 94.2077 406.895L94.8312 404.975C94.9789 404.521 94.8171 404.023 94.4304 403.742L92.7977 402.555C91.933 401.927 92.3775 400.559 93.4465 400.559H95.464C95.9422 400.559 96.3659 400.251 96.5136 399.796L97.1369 397.878Z" fill="#BFDDDA"/>
<path d="M233.385 173.426L233.374 167.78L230.573 172.485H230.064L227.263 167.813V173.426H226.2V165.676H227.108L230.341 171.123L233.529 165.676H234.437L234.448 173.426H233.385ZM241.922 170.525C241.922 170.606 241.914 170.713 241.9 170.846H237.139C237.206 171.363 237.431 171.78 237.814 172.097C238.206 172.407 238.689 172.562 239.265 172.562C239.966 172.562 240.531 172.326 240.959 171.854L241.545 172.54C241.28 172.85 240.948 173.086 240.549 173.249C240.158 173.411 239.719 173.492 239.232 173.492C238.612 173.492 238.062 173.367 237.582 173.116C237.102 172.857 236.729 172.5 236.464 172.042C236.205 171.584 236.076 171.068 236.076 170.492C236.076 169.924 236.202 169.411 236.453 168.953C236.711 168.495 237.062 168.141 237.504 167.89C237.955 167.632 238.46 167.503 239.021 167.503C239.582 167.503 240.08 167.632 240.516 167.89C240.959 168.141 241.302 168.495 241.545 168.953C241.796 169.411 241.922 169.935 241.922 170.525ZM239.021 168.4C238.512 168.4 238.084 168.555 237.737 168.865C237.397 169.175 237.198 169.58 237.139 170.082H240.903C240.844 169.588 240.641 169.186 240.294 168.876C239.955 168.558 239.53 168.4 239.021 168.4ZM246.531 167.503C247.276 167.503 247.867 167.721 248.302 168.156C248.745 168.584 248.966 169.215 248.966 170.049V173.426H247.904V170.171C247.904 169.603 247.767 169.175 247.494 168.887C247.221 168.599 246.83 168.455 246.32 168.455C245.745 168.455 245.291 168.625 244.959 168.964C244.627 169.296 244.46 169.776 244.46 170.403V173.426H243.398V167.558H244.416V168.444C244.63 168.141 244.918 167.909 245.28 167.746C245.649 167.584 246.066 167.503 246.531 167.503ZM252.616 173.492C252.136 173.492 251.675 173.429 251.232 173.304C250.789 173.171 250.442 173.005 250.192 172.806L250.634 171.964C250.893 172.149 251.206 172.297 251.575 172.407C251.944 172.518 252.317 172.573 252.694 172.573C253.624 172.573 254.089 172.308 254.089 171.776C254.089 171.599 254.026 171.459 253.9 171.355C253.775 171.252 253.616 171.178 253.424 171.134C253.24 171.082 252.974 171.027 252.627 170.968C252.155 170.894 251.767 170.809 251.465 170.713C251.169 170.617 250.915 170.455 250.701 170.226C250.487 169.997 250.38 169.676 250.38 169.263C250.38 168.732 250.601 168.307 251.044 167.99C251.487 167.665 252.081 167.503 252.826 167.503C253.218 167.503 253.609 167.551 254 167.647C254.391 167.743 254.712 167.872 254.963 168.034L254.509 168.876C254.029 168.566 253.465 168.411 252.815 168.411C252.365 168.411 252.022 168.484 251.786 168.632C251.55 168.78 251.431 168.975 251.431 169.219C251.431 169.411 251.498 169.562 251.631 169.673C251.764 169.783 251.926 169.865 252.118 169.916C252.317 169.968 252.594 170.027 252.948 170.093C253.421 170.175 253.801 170.263 254.089 170.359C254.384 170.448 254.635 170.603 254.841 170.824C255.048 171.046 255.151 171.355 255.151 171.754C255.151 172.285 254.923 172.71 254.465 173.027C254.015 173.337 253.398 173.492 252.616 173.492ZM259.779 173.083C259.624 173.215 259.432 173.319 259.203 173.393C258.974 173.459 258.738 173.492 258.495 173.492C257.904 173.492 257.446 173.334 257.122 173.016C256.797 172.699 256.635 172.245 256.635 171.654V168.433H255.638V167.558H256.635V166.274H257.697V167.558H259.38V168.433H257.697V171.61C257.697 171.928 257.775 172.171 257.93 172.341C258.092 172.511 258.321 172.595 258.616 172.595C258.941 172.595 259.218 172.503 259.447 172.319L259.779 173.083ZM262.082 168.543C262.267 168.204 262.54 167.946 262.902 167.768C263.263 167.591 263.702 167.503 264.219 167.503V168.532C264.16 168.525 264.079 168.521 263.975 168.521C263.4 168.521 262.946 168.695 262.614 169.042C262.289 169.381 262.127 169.868 262.127 170.503V173.426H261.064V167.558H262.082V168.543ZM271.074 167.558V173.426H270.066V172.54C269.852 172.843 269.568 173.079 269.214 173.249C268.867 173.411 268.487 173.492 268.073 173.492C267.291 173.492 266.675 173.278 266.225 172.85C265.774 172.415 265.549 171.776 265.549 170.935V167.558H266.612V170.813C266.612 171.381 266.749 171.813 267.022 172.108C267.295 172.396 267.686 172.54 268.195 172.54C268.756 172.54 269.199 172.37 269.524 172.031C269.848 171.691 270.011 171.212 270.011 170.592V167.558H271.074ZM275.234 167.503C276.046 167.503 276.666 167.702 277.094 168.101C277.529 168.499 277.747 169.093 277.747 169.883V173.426H276.739V172.651C276.562 172.924 276.308 173.134 275.975 173.282C275.651 173.422 275.263 173.492 274.813 173.492C274.156 173.492 273.628 173.334 273.23 173.016C272.839 172.699 272.643 172.282 272.643 171.765C272.643 171.248 272.831 170.835 273.208 170.525C273.584 170.208 274.182 170.049 275.001 170.049H276.684V169.839C276.684 169.381 276.551 169.031 276.285 168.787C276.02 168.543 275.629 168.422 275.112 168.422C274.765 168.422 274.426 168.481 274.093 168.599C273.761 168.71 273.481 168.861 273.252 169.053L272.809 168.256C273.112 168.012 273.473 167.828 273.894 167.702C274.315 167.569 274.761 167.503 275.234 167.503ZM274.99 172.673C275.396 172.673 275.747 172.584 276.042 172.407C276.337 172.223 276.551 171.964 276.684 171.632V170.813H275.045C274.145 170.813 273.695 171.116 273.695 171.721C273.695 172.016 273.809 172.249 274.038 172.418C274.267 172.588 274.584 172.673 274.99 172.673ZM282.303 173.492C281.706 173.492 281.171 173.363 280.698 173.105C280.233 172.846 279.868 172.492 279.602 172.042C279.336 171.584 279.204 171.068 279.204 170.492C279.204 169.916 279.336 169.403 279.602 168.953C279.868 168.495 280.233 168.141 280.698 167.89C281.171 167.632 281.706 167.503 282.303 167.503C282.835 167.503 283.307 167.61 283.721 167.824C284.141 168.038 284.466 168.348 284.695 168.754L283.887 169.274C283.702 168.994 283.473 168.783 283.2 168.643C282.927 168.503 282.625 168.433 282.292 168.433C281.909 168.433 281.562 168.518 281.252 168.687C280.949 168.857 280.709 169.101 280.532 169.418C280.362 169.728 280.277 170.086 280.277 170.492C280.277 170.905 280.362 171.271 280.532 171.588C280.709 171.898 280.949 172.138 281.252 172.308C281.562 172.477 281.909 172.562 282.292 172.562C282.625 172.562 282.927 172.492 283.2 172.352C283.473 172.212 283.702 172.001 283.887 171.721L284.695 172.23C284.466 172.636 284.141 172.95 283.721 173.171C283.307 173.385 282.835 173.492 282.303 173.492ZM281.783 175.906C281.399 175.906 281.071 175.825 280.798 175.662L281.03 175.12C281.252 175.245 281.503 175.308 281.783 175.308C282.196 175.308 282.403 175.16 282.403 174.865C282.403 174.732 282.351 174.625 282.248 174.544C282.145 174.47 281.986 174.433 281.772 174.433H281.473L281.75 173.348H282.359L282.193 173.979C282.503 174.009 282.739 174.105 282.901 174.267C283.071 174.437 283.156 174.647 283.156 174.898C283.156 175.208 283.03 175.452 282.78 175.629C282.529 175.813 282.196 175.906 281.783 175.906ZM228.182 180.503C228.994 180.503 229.614 180.702 230.042 181.101C230.477 181.499 230.695 182.093 230.695 182.883V186.426H229.687V185.651C229.51 185.924 229.256 186.134 228.924 186.282C228.599 186.422 228.211 186.492 227.761 186.492C227.104 186.492 226.576 186.334 226.178 186.016C225.787 185.699 225.591 185.282 225.591 184.765C225.591 184.248 225.779 183.835 226.156 183.525C226.532 183.208 227.13 183.049 227.949 183.049H229.632V182.839C229.632 182.381 229.499 182.031 229.234 181.787C228.968 181.543 228.577 181.422 228.06 181.422C227.713 181.422 227.374 181.481 227.041 181.599C226.709 181.71 226.429 181.861 226.2 182.053L225.757 181.256C226.06 181.012 226.421 180.828 226.842 180.702C227.263 180.569 227.709 180.503 228.182 180.503ZM227.938 185.673C228.344 185.673 228.695 185.584 228.99 185.407C229.285 185.223 229.499 184.964 229.632 184.632V183.813H227.994C227.093 183.813 226.643 184.116 226.643 184.721C226.643 185.016 226.757 185.249 226.986 185.418C227.215 185.588 227.532 185.673 227.938 185.673ZM229.034 179.672C228.857 179.672 228.702 179.636 228.569 179.562C228.444 179.488 228.285 179.377 228.093 179.23C227.982 179.126 227.887 179.052 227.805 179.008C227.724 178.957 227.643 178.931 227.562 178.931C227.399 178.931 227.267 178.993 227.163 179.119C227.06 179.237 227.005 179.403 226.997 179.617H226.399C226.414 179.204 226.517 178.875 226.709 178.632C226.909 178.388 227.167 178.266 227.484 178.266C227.661 178.266 227.816 178.307 227.949 178.388C228.09 178.462 228.248 178.573 228.425 178.72C228.551 178.824 228.65 178.901 228.724 178.953C228.798 178.997 228.876 179.019 228.957 179.019C229.119 179.019 229.252 178.96 229.355 178.842C229.459 178.724 229.514 178.562 229.521 178.355H230.119C230.104 178.754 229.997 179.075 229.798 179.318C229.606 179.554 229.352 179.672 229.034 179.672ZM235.207 186.492C234.624 186.492 234.1 186.363 233.635 186.105C233.17 185.846 232.805 185.492 232.539 185.042C232.281 184.584 232.152 184.068 232.152 183.492C232.152 182.916 232.281 182.403 232.539 181.953C232.805 181.495 233.17 181.141 233.635 180.89C234.1 180.632 234.624 180.503 235.207 180.503C235.79 180.503 236.311 180.632 236.768 180.89C237.233 181.141 237.595 181.495 237.853 181.953C238.119 182.403 238.252 182.916 238.252 183.492C238.252 184.068 238.119 184.584 237.853 185.042C237.595 185.492 237.233 185.846 236.768 186.105C236.311 186.363 235.79 186.492 235.207 186.492ZM235.207 185.562C235.584 185.562 235.92 185.477 236.215 185.308C236.517 185.13 236.754 184.887 236.923 184.577C237.093 184.26 237.178 183.898 237.178 183.492C237.178 183.086 237.093 182.728 236.923 182.418C236.754 182.101 236.517 181.857 236.215 181.687C235.92 181.518 235.584 181.433 235.207 181.433C234.831 181.433 234.491 181.518 234.189 181.687C233.894 181.857 233.657 182.101 233.48 182.418C233.31 182.728 233.226 183.086 233.226 183.492C233.226 183.898 233.31 184.26 233.48 184.577C233.657 184.887 233.894 185.13 234.189 185.308C234.491 185.477 234.831 185.562 235.207 185.562Z" fill="#C5BAC8" fill-opacity="0.6"/>
<ellipse cx="57.2539" cy="370.466" rx="3.27786" ry="3.27869" fill="#BFDDDA"/>
<ellipse cx="76.9165" cy="389.48" rx="3.27786" ry="3.27868" fill="#BFDDDA"/>
<path d="M152.428 415.847C118.21 417.273 73.5372 394.456 57.3789 370.688" stroke="#BFDDDA" stroke-opacity="0.6" stroke-width="16.9175" stroke-linecap="round"/>
<path d="M202.376 180.217C227.793 190.608 250.421 213.763 262.535 236.936C275.738 262.194 277.43 295.037 272.237 318.922" stroke="#D1C7D6" stroke-opacity="0.4" stroke-width="17.6569" stroke-linecap="round"/>
<ellipse cx="206.772" cy="403.296" rx="3.27786" ry="3.27869" fill="#E1C8BE" fill-opacity="0.4"/>
<ellipse cx="229.713" cy="388.874" rx="3.27787" ry="3.27869" fill="#E1C8BE" fill-opacity="0.4"/>
<ellipse cx="263.151" cy="344.937" rx="3.27786" ry="3.27869" fill="#E1C8BE" fill-opacity="0.4"/>
<ellipse cx="272.327" cy="318.706" rx="3.27787" ry="3.27868" fill="#B09FB9"/>
<ellipse cx="274.951" cy="293.13" rx="3.27787" ry="3.27868" fill="#B09FB9"/>
<ellipse cx="271.673" cy="265.591" rx="3.27787" ry="3.27869" fill="#B09FB9"/>
<ellipse cx="262.494" cy="239.367" rx="3.27787" ry="3.27869" fill="#B09FB9"/>
<ellipse cx="247.415" cy="215.757" rx="3.27786" ry="3.27869" fill="#B09FB9"/>
<ellipse cx="228.405" cy="196.738" rx="3.27787" ry="3.27869" fill="#B09FB9"/>
<ellipse cx="204.148" cy="181.656" rx="3.27786" ry="3.27868" fill="#B09FB9"/>
<ellipse cx="177.929" cy="173.132" rx="3.27786" ry="3.27868" fill="#E1C8BE" fill-opacity="0.4"/>
<ellipse cx="152.358" cy="170.511" rx="3.27786" ry="3.27869" fill="#E1C8BE" fill-opacity="0.4"/>
<ellipse cx="124.823" cy="173.132" rx="3.27786" ry="3.27868" fill="#E1C8BE" fill-opacity="0.4"/>
<ellipse cx="97.2867" cy="182.972" rx="3.27786" ry="3.27869" fill="#E1C8BE" fill-opacity="0.4"/>
<ellipse cx="74.346" cy="198.05" rx="3.27786" ry="3.27869" fill="#E1C8BE" fill-opacity="0.4"/>
<ellipse cx="55.3321" cy="217.726" rx="3.27786" ry="3.27869" fill="#E1C8BE" fill-opacity="0.4"/>
<ellipse cx="40.9121" cy="241.331" rx="3.27786" ry="3.27868" fill="#E1C8BE" fill-opacity="0.4"/>
<ellipse cx="32.3904" cy="266.904" rx="3.27786" ry="3.27869" fill="#E1C8BE" fill-opacity="0.4"/>
<ellipse cx="29.7661" cy="294.443" rx="3.27786" ry="3.27869" fill="#E1C8BE" fill-opacity="0.4"/>
<ellipse cx="33.0447" cy="320.677" rx="3.27786" ry="3.27868" fill="#E1C8BE" fill-opacity="0.4"/>
<ellipse cx="42.2244" cy="346.908" rx="3.27786" ry="3.27868" fill="#E1C8BE" fill-opacity="0.4"/>
<ellipse cx="248.727" cy="368.546" rx="3.27787" ry="3.27869" fill="#E1C8BE" fill-opacity="0.4"/>
<path fill-rule="evenodd" clip-rule="evenodd" d="M152 204.509C103.21 204.509 63.5673 244.276 63.5673 293.442C63.5673 342.609 103.21 382.376 152 382.376C200.791 382.376 240.434 342.609 240.434 293.442C240.434 244.276 200.791 204.509 152 204.509ZM42.7322 293.442C42.7322 232.869 91.6037 183.674 152 183.674C212.397 183.674 261.269 232.869 261.269 293.442C261.269 352.385 214.994 400.552 156.855 403.105C156.204 403.133 155.78 403.812 156.053 404.404C156.159 404.634 156.357 404.808 156.596 404.893C158.104 405.433 159.539 406.257 160.822 407.369C166.376 412.184 166.975 420.59 162.161 426.145C157.348 431.7 148.944 432.299 143.39 427.484C137.837 422.669 137.238 414.263 142.051 408.709C143.692 406.815 145.751 405.497 147.971 404.774C148.197 404.7 148.386 404.539 148.487 404.324C148.743 403.78 148.351 403.153 147.751 403.13C89.3279 400.886 42.7322 352.589 42.7322 293.442Z" fill="#BFDDDA"/>
<g filter="url(#filter0_ddd)">
<ellipse cx="152.592" cy="293.943" rx="90.887" ry="90.91" fill="white"/>
</g>
<path d="M228.044 300.666L233.71 295.403L228.044 289.736" stroke="#9A8AA2" stroke-opacity="0.4" stroke-width="1.87962" stroke-linecap="round" stroke-linejoin="round"/>
<path d="M136.264 308.87H126.796L124.989 313.24H120.153L129.243 292.846H133.904L143.023 313.24H138.071L136.264 308.87ZM134.778 305.287L131.545 297.479L128.311 305.287H134.778ZM144.819 291.623H149.364V313.24H144.819V291.623ZM164.829 312.483C164.383 312.813 163.829 313.065 163.169 313.24C162.528 313.396 161.848 313.473 161.129 313.473C159.265 313.473 157.818 312.997 156.788 312.046C155.778 311.094 155.273 309.696 155.273 307.85V301.412H152.855V297.916H155.273V294.099H159.818V297.916H163.722V301.412H159.818V307.792C159.818 308.453 159.983 308.967 160.313 309.336C160.663 309.686 161.149 309.861 161.77 309.861C162.489 309.861 163.101 309.666 163.606 309.278L164.829 312.483ZM173.703 297.333C176.13 297.333 177.995 297.916 179.296 299.081C180.598 300.227 181.248 301.965 181.248 304.296V313.24H176.995V311.288C176.14 312.745 174.548 313.473 172.217 313.473C171.013 313.473 169.964 313.269 169.07 312.861C168.196 312.454 167.526 311.89 167.06 311.172C166.594 310.453 166.361 309.637 166.361 308.724C166.361 307.268 166.905 306.122 167.992 305.287C169.099 304.451 170.799 304.034 173.091 304.034H176.703C176.703 303.043 176.402 302.286 175.8 301.761C175.198 301.218 174.295 300.946 173.091 300.946C172.256 300.946 171.43 301.082 170.614 301.354C169.818 301.606 169.138 301.956 168.575 302.402L166.944 299.227C167.798 298.625 168.818 298.159 170.003 297.828C171.207 297.498 172.44 297.333 173.703 297.333ZM173.353 310.414C174.13 310.414 174.819 310.239 175.422 309.89C176.024 309.521 176.451 308.987 176.703 308.287V306.685H173.586C171.722 306.685 170.789 307.297 170.789 308.521C170.789 309.103 171.013 309.569 171.459 309.919C171.925 310.249 172.557 310.414 173.353 310.414Z" fill="#222222"/>
<path d="M115.529 317.468H118.664C119.451 317.468 120.149 317.624 120.758 317.936C121.367 318.248 121.839 318.687 122.172 319.254C122.512 319.814 122.682 320.459 122.682 321.188C122.682 321.918 122.512 322.566 122.172 323.133C121.839 323.693 121.367 324.129 120.758 324.441C120.149 324.752 119.451 324.908 118.664 324.908H115.529V317.468ZM118.601 323.984C119.203 323.984 119.731 323.867 120.184 323.633C120.645 323.399 120.999 323.073 121.247 322.655C121.495 322.23 121.619 321.741 121.619 321.188C121.619 320.636 121.495 320.15 121.247 319.732C120.999 319.307 120.645 318.978 120.184 318.744C119.731 318.51 119.203 318.393 118.601 318.393H116.592V323.984H118.601ZM124.161 319.275H125.181V324.908H124.161V319.275ZM124.671 318.191C124.473 318.191 124.306 318.127 124.172 318C124.044 317.872 123.98 317.716 123.98 317.532C123.98 317.348 124.044 317.192 124.172 317.065C124.306 316.93 124.473 316.863 124.671 316.863C124.869 316.863 125.032 316.926 125.16 317.054C125.295 317.174 125.362 317.327 125.362 317.511C125.362 317.702 125.295 317.865 125.16 318C125.032 318.127 124.869 318.191 124.671 318.191ZM129.181 319.222C129.96 319.222 130.555 319.413 130.966 319.796C131.384 320.179 131.593 320.749 131.593 321.507V324.908H130.626V324.164C130.456 324.426 130.212 324.628 129.893 324.77C129.581 324.905 129.209 324.972 128.777 324.972C128.146 324.972 127.64 324.82 127.257 324.515C126.881 324.21 126.694 323.81 126.694 323.314C126.694 322.818 126.874 322.421 127.236 322.124C127.597 321.819 128.171 321.667 128.957 321.667H130.573V321.465C130.573 321.025 130.445 320.689 130.19 320.455C129.935 320.221 129.56 320.104 129.064 320.104C128.731 320.104 128.405 320.161 128.086 320.274C127.767 320.381 127.498 320.526 127.278 320.71L126.853 319.945C127.144 319.711 127.491 319.534 127.895 319.413C128.298 319.286 128.727 319.222 129.181 319.222ZM128.947 324.185C129.336 324.185 129.673 324.1 129.956 323.93C130.24 323.753 130.445 323.505 130.573 323.186V322.4H129C128.135 322.4 127.703 322.69 127.703 323.271C127.703 323.555 127.813 323.778 128.033 323.941C128.252 324.104 128.557 324.185 128.947 324.185ZM141.65 317.022V324.908H140.672V324.015C140.445 324.327 140.158 324.565 139.811 324.728C139.464 324.89 139.081 324.972 138.663 324.972C138.118 324.972 137.629 324.852 137.196 324.611C136.764 324.37 136.424 324.033 136.176 323.601C135.935 323.162 135.815 322.659 135.815 322.092C135.815 321.525 135.935 321.025 136.176 320.593C136.424 320.161 136.764 319.824 137.196 319.583C137.629 319.343 138.118 319.222 138.663 319.222C139.067 319.222 139.439 319.3 139.779 319.456C140.119 319.605 140.403 319.828 140.629 320.126V317.022H141.65ZM138.748 324.079C139.102 324.079 139.425 323.998 139.715 323.835C140.006 323.665 140.233 323.431 140.396 323.133C140.559 322.829 140.64 322.481 140.64 322.092C140.64 321.702 140.559 321.358 140.396 321.061C140.233 320.756 140.006 320.522 139.715 320.359C139.425 320.196 139.102 320.115 138.748 320.115C138.387 320.115 138.061 320.196 137.77 320.359C137.487 320.522 137.26 320.756 137.09 321.061C136.927 321.358 136.846 321.702 136.846 322.092C136.846 322.481 136.927 322.829 137.09 323.133C137.26 323.431 137.487 323.665 137.77 323.835C138.061 323.998 138.387 324.079 138.748 324.079ZM145.993 324.972C145.433 324.972 144.93 324.848 144.484 324.6C144.037 324.352 143.687 324.012 143.431 323.58C143.183 323.14 143.059 322.644 143.059 322.092C143.059 321.539 143.183 321.047 143.431 320.614C143.687 320.175 144.037 319.835 144.484 319.594C144.93 319.346 145.433 319.222 145.993 319.222C146.553 319.222 147.052 319.346 147.491 319.594C147.938 319.835 148.285 320.175 148.533 320.614C148.788 321.047 148.916 321.539 148.916 322.092C148.916 322.644 148.788 323.14 148.533 323.58C148.285 324.012 147.938 324.352 147.491 324.6C147.052 324.848 146.553 324.972 145.993 324.972ZM145.993 324.079C146.354 324.079 146.677 323.998 146.96 323.835C147.25 323.665 147.477 323.431 147.64 323.133C147.803 322.829 147.885 322.481 147.885 322.092C147.885 321.702 147.803 321.358 147.64 321.061C147.477 320.756 147.25 320.522 146.96 320.359C146.677 320.196 146.354 320.115 145.993 320.115C145.631 320.115 145.306 320.196 145.015 320.359C144.732 320.522 144.505 320.756 144.335 321.061C144.172 321.358 144.09 321.702 144.09 322.092C144.09 322.481 144.172 322.829 144.335 323.133C144.505 323.431 144.732 323.665 145.015 323.835C145.306 323.998 145.631 324.079 145.993 324.079ZM155.636 324.972C155.062 324.972 154.548 324.848 154.095 324.6C153.649 324.352 153.298 324.012 153.043 323.58C152.788 323.14 152.66 322.644 152.66 322.092C152.66 321.539 152.788 321.047 153.043 320.614C153.298 320.175 153.649 319.835 154.095 319.594C154.548 319.346 155.062 319.222 155.636 319.222C156.146 319.222 156.6 319.325 156.996 319.53C157.4 319.736 157.712 320.033 157.932 320.423L157.156 320.923C156.979 320.653 156.759 320.451 156.497 320.317C156.235 320.182 155.944 320.115 155.625 320.115C155.257 320.115 154.924 320.196 154.626 320.359C154.336 320.522 154.106 320.756 153.935 321.061C153.773 321.358 153.691 321.702 153.691 322.092C153.691 322.489 153.773 322.839 153.935 323.144C154.106 323.442 154.336 323.672 154.626 323.835C154.924 323.998 155.257 324.079 155.625 324.079C155.944 324.079 156.235 324.012 156.497 323.877C156.759 323.743 156.979 323.541 157.156 323.271L157.932 323.76C157.712 324.15 157.4 324.451 156.996 324.664C156.6 324.869 156.146 324.972 155.636 324.972ZM159.253 319.275H160.273V324.908H159.253V319.275ZM159.763 318.191C159.564 318.191 159.398 318.127 159.263 318C159.136 317.872 159.072 317.716 159.072 317.532C159.072 317.348 159.136 317.192 159.263 317.065C159.398 316.93 159.564 316.863 159.763 316.863C159.961 316.863 160.124 316.926 160.252 317.054C160.386 317.174 160.454 317.327 160.454 317.511C160.454 317.702 160.386 317.865 160.252 318C160.124 318.127 159.961 318.191 159.763 318.191ZM164.676 324.972C164.102 324.972 163.589 324.848 163.135 324.6C162.689 324.352 162.338 324.012 162.083 323.58C161.828 323.14 161.7 322.644 161.7 322.092C161.7 321.539 161.828 321.047 162.083 320.614C162.338 320.175 162.689 319.835 163.135 319.594C163.589 319.346 164.102 319.222 164.676 319.222C165.186 319.222 165.64 319.325 166.037 319.53C166.44 319.736 166.752 320.033 166.972 320.423L166.196 320.923C166.019 320.653 165.799 320.451 165.537 320.317C165.275 320.182 164.984 320.115 164.666 320.115C164.297 320.115 163.964 320.196 163.667 320.359C163.376 320.522 163.146 320.756 162.976 321.061C162.813 321.358 162.731 321.702 162.731 322.092C162.731 322.489 162.813 322.839 162.976 323.144C163.146 323.442 163.376 323.672 163.667 323.835C163.964 323.998 164.297 324.079 164.666 324.079C164.984 324.079 165.275 324.012 165.537 323.877C165.799 323.743 166.019 323.541 166.196 323.271L166.972 323.76C166.752 324.15 166.44 324.451 166.037 324.664C165.64 324.869 165.186 324.972 164.676 324.972ZM168.22 317.022H169.241V324.908H168.22V317.022ZM173.601 324.972C173.041 324.972 172.538 324.848 172.092 324.6C171.646 324.352 171.295 324.012 171.04 323.58C170.792 323.14 170.668 322.644 170.668 322.092C170.668 321.539 170.792 321.047 171.04 320.614C171.295 320.175 171.646 319.835 172.092 319.594C172.538 319.346 173.041 319.222 173.601 319.222C174.161 319.222 174.661 319.346 175.1 319.594C175.546 319.835 175.893 320.175 176.141 320.614C176.396 321.047 176.524 321.539 176.524 322.092C176.524 322.644 176.396 323.14 176.141 323.58C175.893 324.012 175.546 324.352 175.1 324.6C174.661 324.848 174.161 324.972 173.601 324.972ZM173.601 324.079C173.963 324.079 174.285 323.998 174.568 323.835C174.859 323.665 175.086 323.431 175.249 323.133C175.412 322.829 175.493 322.481 175.493 322.092C175.493 321.702 175.412 321.358 175.249 321.061C175.086 320.756 174.859 320.522 174.568 320.359C174.285 320.196 173.963 320.115 173.601 320.115C173.24 320.115 172.914 320.196 172.623 320.359C172.34 320.522 172.113 320.756 171.943 321.061C171.78 321.358 171.699 321.702 171.699 322.092C171.699 322.481 171.78 322.829 171.943 323.133C172.113 323.431 172.34 323.665 172.623 323.835C172.914 323.998 173.24 324.079 173.601 324.079ZM178.179 320.678C177.981 320.678 177.811 320.611 177.669 320.476C177.528 320.335 177.457 320.157 177.457 319.945C177.457 319.739 177.528 319.569 177.669 319.435C177.811 319.293 177.981 319.222 178.179 319.222C178.378 319.222 178.544 319.289 178.679 319.424C178.814 319.559 178.881 319.732 178.881 319.945C178.881 320.157 178.81 320.335 178.668 320.476C178.534 320.611 178.371 320.678 178.179 320.678ZM178.179 324.972C177.981 324.972 177.811 324.905 177.669 324.77C177.528 324.628 177.457 324.451 177.457 324.239C177.457 324.033 177.528 323.863 177.669 323.728C177.811 323.587 177.981 323.516 178.179 323.516C178.378 323.516 178.544 323.583 178.679 323.718C178.814 323.852 178.881 324.026 178.881 324.239C178.881 324.451 178.81 324.628 178.668 324.77C178.534 324.905 178.371 324.972 178.179 324.972ZM185.047 317.468V324.908H183.994V318.393H182.315V317.468H185.047ZM189.522 320.593C190.252 320.664 190.808 320.891 191.191 321.273C191.574 321.649 191.765 322.131 191.765 322.719C191.765 323.144 191.659 323.53 191.446 323.877C191.233 324.217 190.915 324.49 190.489 324.696C190.071 324.894 189.558 324.993 188.948 324.993C188.417 324.993 187.907 324.915 187.418 324.759C186.929 324.596 186.529 324.373 186.217 324.09L186.706 323.25C186.961 323.491 187.287 323.686 187.684 323.835C188.08 323.976 188.502 324.047 188.948 324.047C189.501 324.047 189.93 323.93 190.234 323.697C190.546 323.463 190.702 323.14 190.702 322.729C190.702 322.318 190.55 322 190.245 321.773C189.94 321.546 189.48 321.433 188.863 321.433H188.268V320.689L190.139 318.393H186.557V317.468H191.467V318.191L189.522 320.593Z" fill="#ABAEB8"/>
<path d="M84.047 275.077C83.0861 275.077 82.2166 274.866 81.4387 274.445C80.6699 274.015 80.0659 273.429 79.6266 272.688C79.1873 271.937 78.9676 271.095 78.9676 270.162C78.9676 269.228 79.1873 268.391 79.6266 267.65C80.0659 266.899 80.6745 266.314 81.4524 265.893C82.2303 265.462 83.0998 265.247 84.0608 265.247C84.8112 265.247 85.4976 265.375 86.12 265.632C86.7423 265.879 87.2731 266.249 87.7124 266.744L86.8201 267.609C86.0971 266.849 85.1956 266.469 84.1157 266.469C83.4018 266.469 82.7566 266.629 82.18 266.95C81.6034 267.27 81.1504 267.714 80.8209 268.281C80.5006 268.839 80.3404 269.466 80.3404 270.162C80.3404 270.858 80.5006 271.489 80.8209 272.056C81.1504 272.615 81.6034 273.054 82.18 273.374C82.7566 273.695 83.4018 273.855 84.1157 273.855C85.1865 273.855 86.0879 273.47 86.8201 272.702L87.7124 273.567C87.2731 274.061 86.7377 274.436 86.1062 274.692C85.4839 274.948 84.7975 275.077 84.047 275.077ZM93.3637 267.622C94.288 267.622 95.0202 267.892 95.5602 268.432C96.1093 268.963 96.3839 269.746 96.3839 270.78V274.967H95.066V270.931C95.066 270.226 94.8966 269.695 94.558 269.338C94.2194 268.981 93.7343 268.803 93.1028 268.803C92.389 268.803 91.8261 269.013 91.4143 269.434C91.0024 269.846 90.7965 270.441 90.7965 271.219V274.967H89.4786V264.781H90.7965V268.721C91.0711 268.373 91.428 268.103 91.8673 267.911C92.3158 267.718 92.8146 267.622 93.3637 267.622ZM101.472 267.622C102.479 267.622 103.248 267.869 103.779 268.364C104.319 268.858 104.589 269.595 104.589 270.574V274.967H103.339V274.006C103.12 274.344 102.804 274.605 102.392 274.788C101.989 274.962 101.509 275.049 100.951 275.049C100.136 275.049 99.4818 274.852 98.9876 274.459C98.5025 274.065 98.26 273.548 98.26 272.908C98.26 272.267 98.4934 271.754 98.9601 271.37C99.4269 270.976 100.168 270.78 101.184 270.78H103.271V270.519C103.271 269.951 103.106 269.517 102.777 269.215C102.447 268.913 101.962 268.762 101.321 268.762C100.891 268.762 100.47 268.835 100.058 268.981C99.6465 269.119 99.2988 269.306 99.015 269.544L98.4659 268.556C98.8411 268.254 99.2896 268.025 99.8113 267.869C100.333 267.705 100.887 267.622 101.472 267.622ZM101.17 274.033C101.674 274.033 102.108 273.923 102.475 273.704C102.841 273.475 103.106 273.155 103.271 272.743V271.727H101.239C100.122 271.727 99.5642 272.102 99.5642 272.853C99.5642 273.219 99.706 273.507 99.9897 273.718C100.273 273.928 100.667 274.033 101.17 274.033ZM110.913 267.622C111.837 267.622 112.569 267.892 113.109 268.432C113.658 268.963 113.933 269.746 113.933 270.78V274.967H112.615V270.931C112.615 270.226 112.446 269.695 112.107 269.338C111.768 268.981 111.283 268.803 110.652 268.803C109.938 268.803 109.375 269.013 108.963 269.434C108.551 269.846 108.345 270.441 108.345 271.219V274.967H107.028V267.691H108.291V268.789C108.556 268.414 108.913 268.126 109.361 267.924C109.819 267.723 110.336 267.622 110.913 267.622ZM119.583 275.049C118.842 275.049 118.178 274.889 117.593 274.569C117.016 274.248 116.563 273.809 116.233 273.251C115.904 272.683 115.739 272.043 115.739 271.329C115.739 270.615 115.904 269.979 116.233 269.421C116.563 268.853 117.016 268.414 117.593 268.103C118.178 267.782 118.842 267.622 119.583 267.622C120.242 267.622 120.828 267.755 121.34 268.02C121.862 268.286 122.265 268.67 122.548 269.174L121.546 269.819C121.317 269.471 121.034 269.21 120.695 269.036C120.356 268.862 119.981 268.775 119.569 268.775C119.094 268.775 118.663 268.881 118.279 269.091C117.904 269.302 117.606 269.604 117.387 269.997C117.176 270.382 117.071 270.825 117.071 271.329C117.071 271.841 117.176 272.294 117.387 272.688C117.606 273.072 117.904 273.37 118.279 273.58C118.663 273.791 119.094 273.896 119.569 273.896C119.981 273.896 120.356 273.809 120.695 273.635C121.034 273.461 121.317 273.2 121.546 272.853L122.548 273.484C122.265 273.988 121.862 274.376 121.34 274.651C120.828 274.916 120.242 275.049 119.583 275.049ZM130.723 271.37C130.723 271.471 130.714 271.603 130.696 271.768H124.793C124.875 272.409 125.154 272.926 125.63 273.319C126.115 273.704 126.715 273.896 127.428 273.896C128.298 273.896 128.998 273.603 129.529 273.017L130.256 273.869C129.927 274.253 129.515 274.546 129.021 274.747C128.536 274.948 127.991 275.049 127.387 275.049C126.618 275.049 125.937 274.894 125.342 274.582C124.747 274.262 124.285 273.818 123.955 273.251C123.635 272.683 123.475 272.043 123.475 271.329C123.475 270.624 123.63 269.988 123.941 269.421C124.262 268.853 124.697 268.414 125.246 268.103C125.804 267.782 126.431 267.622 127.126 267.622C127.822 267.622 128.44 267.782 128.98 268.103C129.529 268.414 129.954 268.853 130.256 269.421C130.568 269.988 130.723 270.638 130.723 271.37ZM127.126 268.734C126.495 268.734 125.964 268.926 125.534 269.311C125.113 269.695 124.866 270.199 124.793 270.821H129.46C129.387 270.208 129.135 269.709 128.705 269.325C128.284 268.931 127.758 268.734 127.126 268.734ZM143.104 264.781V274.967H141.841V273.814C141.548 274.216 141.177 274.523 140.729 274.733C140.281 274.944 139.786 275.049 139.246 275.049C138.542 275.049 137.91 274.894 137.352 274.582C136.794 274.271 136.354 273.837 136.034 273.278C135.723 272.711 135.567 272.061 135.567 271.329C135.567 270.597 135.723 269.951 136.034 269.393C136.354 268.835 136.794 268.4 137.352 268.089C137.91 267.778 138.542 267.622 139.246 267.622C139.768 267.622 140.249 267.723 140.688 267.924C141.127 268.116 141.493 268.405 141.786 268.789V264.781H143.104ZM139.356 273.896C139.814 273.896 140.23 273.791 140.605 273.58C140.981 273.361 141.274 273.059 141.484 272.674C141.695 272.281 141.8 271.832 141.8 271.329C141.8 270.825 141.695 270.382 141.484 269.997C141.274 269.604 140.981 269.302 140.605 269.091C140.23 268.881 139.814 268.775 139.356 268.775C138.889 268.775 138.468 268.881 138.093 269.091C137.727 269.302 137.434 269.604 137.215 269.997C137.004 270.382 136.899 270.825 136.899 271.329C136.899 271.832 137.004 272.281 137.215 272.674C137.434 273.059 137.727 273.361 138.093 273.58C138.468 273.791 138.889 273.896 139.356 273.896ZM152.173 271.37C152.173 271.471 152.164 271.603 152.146 271.768H146.243C146.325 272.409 146.604 272.926 147.08 273.319C147.565 273.704 148.165 273.896 148.879 273.896C149.748 273.896 150.448 273.603 150.979 273.017L151.707 273.869C151.377 274.253 150.965 274.546 150.471 274.747C149.986 274.948 149.441 275.049 148.837 275.049C148.069 275.049 147.387 274.894 146.792 274.582C146.197 274.262 145.735 273.818 145.405 273.251C145.085 272.683 144.925 272.043 144.925 271.329C144.925 270.624 145.08 269.988 145.392 269.421C145.712 268.853 146.147 268.414 146.696 268.103C147.254 267.782 147.881 267.622 148.577 267.622C149.272 267.622 149.89 267.782 150.43 268.103C150.979 268.414 151.405 268.853 151.707 269.421C152.018 269.988 152.173 270.638 152.173 271.37ZM148.577 268.734C147.945 268.734 147.414 268.926 146.984 269.311C146.563 269.695 146.316 270.199 146.243 270.821H150.91C150.837 270.208 150.585 269.709 150.155 269.325C149.734 268.931 149.208 268.734 148.577 268.734ZM164.266 271.37C164.266 271.471 164.257 271.603 164.238 271.768H158.335C158.418 272.409 158.697 272.926 159.173 273.319C159.658 273.704 160.257 273.896 160.971 273.896C161.841 273.896 162.541 273.603 163.071 273.017L163.799 273.869C163.47 274.253 163.058 274.546 162.564 274.747C162.078 274.948 161.534 275.049 160.93 275.049C160.161 275.049 159.479 274.894 158.884 274.582C158.29 274.262 157.827 273.818 157.498 273.251C157.178 272.683 157.017 272.043 157.017 271.329C157.017 270.624 157.173 269.988 157.484 269.421C157.804 268.853 158.239 268.414 158.788 268.103C159.347 267.782 159.974 267.622 160.669 267.622C161.365 267.622 161.982 267.782 162.522 268.103C163.071 268.414 163.497 268.853 163.799 269.421C164.11 269.988 164.266 270.638 164.266 271.37ZM160.669 268.734C160.038 268.734 159.507 268.926 159.077 269.311C158.656 269.695 158.409 270.199 158.335 270.821H163.003C162.93 270.208 162.678 269.709 162.248 269.325C161.827 268.931 161.301 268.734 160.669 268.734ZM169.981 267.622C170.905 267.622 171.637 267.892 172.177 268.432C172.727 268.963 173.001 269.746 173.001 270.78V274.967H171.683V270.931C171.683 270.226 171.514 269.695 171.175 269.338C170.837 268.981 170.352 268.803 169.72 268.803C169.006 268.803 168.443 269.013 168.032 269.434C167.62 269.846 167.414 270.441 167.414 271.219V274.967H166.096V267.691H167.359V268.789C167.624 268.414 167.981 268.126 168.43 267.924C168.887 267.723 169.404 267.622 169.981 267.622ZM182.44 267.691V273.978C182.44 275.251 182.125 276.189 181.493 276.793C180.862 277.406 179.919 277.712 178.665 277.712C177.979 277.712 177.324 277.616 176.702 277.424C176.08 277.241 175.576 276.976 175.192 276.628L175.823 275.612C176.162 275.905 176.579 276.134 177.073 276.298C177.576 276.472 178.093 276.559 178.624 276.559C179.475 276.559 180.102 276.358 180.505 275.955C180.917 275.553 181.123 274.939 181.123 274.116V273.539C180.811 273.914 180.427 274.198 179.969 274.39C179.521 274.573 179.031 274.665 178.5 274.665C177.805 274.665 177.173 274.518 176.606 274.225C176.048 273.923 175.608 273.507 175.288 272.976C174.968 272.436 174.808 271.823 174.808 271.137C174.808 270.45 174.968 269.842 175.288 269.311C175.608 268.771 176.048 268.354 176.606 268.062C177.173 267.769 177.805 267.622 178.5 267.622C179.05 267.622 179.558 267.723 180.024 267.924C180.5 268.126 180.889 268.423 181.191 268.817V267.691H182.44ZM178.651 273.512C179.127 273.512 179.553 273.411 179.928 273.21C180.313 273.008 180.61 272.729 180.821 272.372C181.04 272.006 181.15 271.594 181.15 271.137C181.15 270.432 180.917 269.865 180.45 269.434C179.983 268.995 179.384 268.775 178.651 268.775C177.91 268.775 177.306 268.995 176.839 269.434C176.373 269.865 176.139 270.432 176.139 271.137C176.139 271.594 176.244 272.006 176.455 272.372C176.675 272.729 176.972 273.008 177.347 273.21C177.732 273.411 178.166 273.512 178.651 273.512ZM186.222 268.913C186.45 268.492 186.789 268.171 187.237 267.952C187.686 267.732 188.23 267.622 188.871 267.622V268.899C188.798 268.89 188.697 268.885 188.569 268.885C187.855 268.885 187.292 269.1 186.88 269.53C186.478 269.951 186.276 270.556 186.276 271.343V274.967H184.959V267.691H186.222V268.913ZM193.131 267.622C194.138 267.622 194.907 267.869 195.438 268.364C195.978 268.858 196.248 269.595 196.248 270.574V274.967H194.999V274.006C194.779 274.344 194.463 274.605 194.051 274.788C193.649 274.962 193.168 275.049 192.61 275.049C191.795 275.049 191.141 274.852 190.647 274.459C190.162 274.065 189.919 273.548 189.919 272.908C189.919 272.267 190.152 271.754 190.619 271.37C191.086 270.976 191.827 270.78 192.843 270.78H194.93V270.519C194.93 269.951 194.765 269.517 194.436 269.215C194.106 268.913 193.621 268.762 192.98 268.762C192.55 268.762 192.129 268.835 191.717 268.981C191.306 269.119 190.958 269.306 190.674 269.544L190.125 268.556C190.5 268.254 190.949 268.025 191.47 267.869C191.992 267.705 192.546 267.622 193.131 267.622ZM192.829 274.033C193.333 274.033 193.768 273.923 194.134 273.704C194.5 273.475 194.765 273.155 194.93 272.743V271.727H192.898C191.782 271.727 191.223 272.102 191.223 272.853C191.223 273.219 191.365 273.507 191.649 273.718C191.933 273.928 192.326 274.033 192.829 274.033ZM204.991 267.691L201.806 274.967H200.461L197.276 267.691H198.649L201.147 273.525L203.701 267.691H204.991ZM206.221 267.691H207.539V274.967H206.221V267.691ZM206.88 266.291C206.624 266.291 206.409 266.208 206.235 266.044C206.07 265.879 205.988 265.677 205.988 265.44C205.988 265.202 206.07 265 206.235 264.835C206.409 264.662 206.624 264.575 206.88 264.575C207.136 264.575 207.347 264.657 207.511 264.822C207.685 264.977 207.772 265.174 207.772 265.412C207.772 265.659 207.685 265.87 207.511 266.044C207.347 266.208 207.136 266.291 206.88 266.291ZM216.919 264.781V274.967H215.656V273.814C215.363 274.216 214.993 274.523 214.544 274.733C214.096 274.944 213.602 275.049 213.062 275.049C212.357 275.049 211.725 274.894 211.167 274.582C210.609 274.271 210.17 273.837 209.849 273.278C209.538 272.711 209.383 272.061 209.383 271.329C209.383 270.597 209.538 269.951 209.849 269.393C210.17 268.835 210.609 268.4 211.167 268.089C211.725 267.778 212.357 267.622 213.062 267.622C213.583 267.622 214.064 267.723 214.503 267.924C214.942 268.116 215.309 268.405 215.601 268.789V264.781H216.919ZM213.172 273.896C213.629 273.896 214.046 273.791 214.421 273.58C214.796 273.361 215.089 273.059 215.299 272.674C215.51 272.281 215.615 271.832 215.615 271.329C215.615 270.825 215.51 270.382 215.299 269.997C215.089 269.604 214.796 269.302 214.421 269.091C214.046 268.881 213.629 268.775 213.172 268.775C212.705 268.775 212.284 268.881 211.909 269.091C211.542 269.302 211.25 269.604 211.03 269.997C210.819 270.382 210.714 270.825 210.714 271.329C210.714 271.832 210.819 272.281 211.03 272.674C211.25 273.059 211.542 273.361 211.909 273.58C212.284 273.791 212.705 273.896 213.172 273.896ZM222.062 267.622C223.069 267.622 223.838 267.869 224.369 268.364C224.909 268.858 225.179 269.595 225.179 270.574V274.967H223.929V274.006C223.71 274.344 223.394 274.605 222.982 274.788C222.579 274.962 222.099 275.049 221.541 275.049C220.726 275.049 220.072 274.852 219.578 274.459C219.093 274.065 218.85 273.548 218.85 272.908C218.85 272.267 219.083 271.754 219.55 271.37C220.017 270.976 220.758 270.78 221.774 270.78H223.861V270.519C223.861 269.951 223.696 269.517 223.367 269.215C223.037 268.913 222.552 268.762 221.911 268.762C221.481 268.762 221.06 268.835 220.648 268.981C220.237 269.119 219.889 269.306 219.605 269.544L219.056 268.556C219.431 268.254 219.88 268.025 220.401 267.869C220.923 267.705 221.477 267.622 222.062 267.622ZM221.76 274.033C222.264 274.033 222.698 273.923 223.065 273.704C223.431 273.475 223.696 273.155 223.861 272.743V271.727H221.829C220.712 271.727 220.154 272.102 220.154 272.853C220.154 273.219 220.296 273.507 220.58 273.718C220.863 273.928 221.257 274.033 221.76 274.033ZM228.881 268.913C229.109 268.492 229.448 268.171 229.896 267.952C230.345 267.732 230.889 267.622 231.53 267.622V268.899C231.457 268.89 231.356 268.885 231.228 268.885C230.514 268.885 229.951 269.1 229.539 269.53C229.137 269.951 228.935 270.556 228.935 271.343V274.967H227.618V267.691H228.881V268.913Z" fill="#222222"/>
<rect width="291.403" height="112.547" transform="translate(10.2993 37.1699)" fill="#F6FAFA"/>
<ellipse cx="37.0117" cy="124.446" rx="13.7607" ry="13.7642" fill="#BFDDDA"/>
<path d="M115.774 111.65C116.192 110.883 117.294 110.883 117.712 111.65L121.409 118.432C121.568 118.723 121.849 118.927 122.175 118.988L129.766 120.41C130.625 120.571 130.965 121.618 130.365 122.253L125.059 127.867C124.831 128.107 124.724 128.438 124.767 128.767L125.76 136.428C125.873 137.294 124.982 137.941 124.193 137.566L117.216 134.254C116.917 134.112 116.569 134.112 116.27 134.254L109.293 137.566C108.504 137.941 107.613 137.294 107.725 136.428L108.719 128.767C108.762 128.438 108.655 128.107 108.427 127.867L103.121 122.253C102.521 121.618 102.861 120.571 103.72 120.41L111.311 118.988C111.637 118.927 111.918 118.723 112.076 118.432L115.774 111.65Z" fill="#BFDDDA"/>
<path d="M75.8584 106.773C75.3698 106.773 74.9001 106.695 74.4491 106.538C74.0044 106.382 73.66 106.175 73.4157 105.918L73.6881 105.383C73.9262 105.621 74.2424 105.815 74.637 105.965C75.0316 106.109 75.4387 106.181 75.8584 106.181C76.4471 106.181 76.8887 106.075 77.1831 105.862C77.4774 105.643 77.6246 105.361 77.6246 105.016C77.6246 104.753 77.5432 104.543 77.3804 104.387C77.2238 104.23 77.0296 104.111 76.7979 104.03C76.5661 103.942 76.2436 103.848 75.8302 103.748C75.3354 103.623 74.9408 103.504 74.6464 103.391C74.3521 103.272 74.0984 103.093 73.8854 102.855C73.6788 102.617 73.5754 102.295 73.5754 101.888C73.5754 101.556 73.6631 101.255 73.8385 100.986C74.0138 100.71 74.2832 100.491 74.6464 100.328C75.0097 100.165 75.4607 100.084 75.9993 100.084C76.3751 100.084 76.7415 100.137 77.0985 100.244C77.4618 100.344 77.7749 100.485 78.038 100.666L77.8031 101.221C77.5275 101.039 77.2332 100.904 76.92 100.817C76.6068 100.723 76.2999 100.676 75.9993 100.676C75.4231 100.676 74.9878 100.789 74.6934 101.014C74.4053 101.233 74.2612 101.518 74.2612 101.869C74.2612 102.132 74.3395 102.345 74.4961 102.508C74.659 102.664 74.8594 102.787 75.0974 102.874C75.3417 102.956 75.6673 103.047 76.0745 103.147C76.5567 103.266 76.9451 103.385 77.2394 103.504C77.5401 103.616 77.7937 103.792 78.0004 104.03C78.2071 104.262 78.3105 104.578 78.3105 104.979C78.3105 105.311 78.2196 105.614 78.038 105.89C77.8626 106.159 77.5902 106.375 77.2206 106.538C76.8511 106.695 76.397 106.773 75.8584 106.773Z" fill="#565A6B"/>
<path d="M34.2015 100.14H36.8791C37.5743 100.14 38.1881 100.281 38.7205 100.563C39.2528 100.839 39.6662 101.227 39.9606 101.728C40.255 102.223 40.4022 102.79 40.4022 103.429C40.4022 104.067 40.255 104.637 39.9606 105.138C39.6662 105.633 39.2528 106.022 38.7205 106.303C38.1881 106.579 37.5743 106.717 36.8791 106.717H34.2015V100.14ZM36.8415 106.116C37.4177 106.116 37.9219 106.003 38.3541 105.777C38.7862 105.546 39.1213 105.229 39.3593 104.828C39.5973 104.421 39.7163 103.955 39.7163 103.429C39.7163 102.902 39.5973 102.439 39.3593 102.038C39.1213 101.631 38.7862 101.315 38.3541 101.089C37.9219 100.857 37.4177 100.742 36.8415 100.742H34.8967V106.116H36.8415Z" fill="#565A6B"/>
<path d="M157.326 107.271C157.125 107.515 156.887 107.7 156.612 107.825C156.342 107.957 156.048 108.023 155.728 108.023C155.34 108.023 154.971 107.926 154.62 107.731C154.275 107.544 153.887 107.224 153.455 106.773C152.822 106.754 152.252 106.598 151.745 106.303C151.238 106.009 150.84 105.611 150.552 105.11C150.264 104.609 150.12 104.049 150.12 103.429C150.12 102.796 150.267 102.226 150.561 101.719C150.862 101.211 151.275 100.814 151.801 100.526C152.334 100.231 152.926 100.084 153.577 100.084C154.228 100.084 154.814 100.228 155.334 100.516C155.86 100.804 156.273 101.205 156.574 101.719C156.875 102.226 157.025 102.796 157.025 103.429C157.025 103.98 156.909 104.487 156.677 104.951C156.452 105.408 156.132 105.79 155.719 106.097C155.312 106.404 154.842 106.607 154.31 106.707C154.792 107.215 155.268 107.468 155.738 107.468C156.226 107.468 156.643 107.268 156.987 106.867L157.326 107.271ZM150.806 103.429C150.806 103.942 150.925 104.406 151.163 104.819C151.407 105.232 151.739 105.558 152.158 105.796C152.584 106.034 153.057 106.153 153.577 106.153C154.097 106.153 154.567 106.034 154.986 105.796C155.406 105.558 155.735 105.232 155.973 104.819C156.211 104.406 156.33 103.942 156.33 103.429C156.33 102.915 156.211 102.451 155.973 102.038C155.735 101.625 155.406 101.299 154.986 101.061C154.567 100.823 154.097 100.704 153.577 100.704C153.057 100.704 152.584 100.823 152.158 101.061C151.739 101.299 151.407 101.625 151.163 102.038C150.925 102.451 150.806 102.915 150.806 103.429Z" fill="#565A6B"/>
<path d="M196.18 107.271C195.979 107.515 195.741 107.7 195.466 107.825C195.196 107.957 194.902 108.023 194.583 108.023C194.194 108.023 193.825 107.926 193.474 107.731C193.13 107.544 192.741 107.224 192.309 106.773C191.677 106.754 191.107 106.598 190.599 106.303C190.092 106.009 189.694 105.611 189.406 105.11C189.118 104.609 188.974 104.049 188.974 103.429C188.974 102.796 189.121 102.226 189.415 101.719C189.716 101.211 190.129 100.814 190.656 100.526C191.188 100.231 191.78 100.084 192.431 100.084C193.083 100.084 193.668 100.228 194.188 100.516C194.714 100.804 195.128 101.205 195.428 101.719C195.729 102.226 195.879 102.796 195.879 103.429C195.879 103.98 195.763 104.487 195.532 104.951C195.306 105.408 194.987 105.79 194.573 106.097C194.166 106.404 193.696 106.607 193.164 106.707C193.646 107.215 194.122 107.468 194.592 107.468C195.081 107.468 195.497 107.268 195.842 106.867L196.18 107.271ZM189.66 103.429C189.66 103.942 189.779 104.406 190.017 104.819C190.261 105.232 190.593 105.558 191.013 105.796C191.439 106.034 191.911 106.153 192.431 106.153C192.951 106.153 193.421 106.034 193.84 105.796C194.26 105.558 194.589 105.232 194.827 104.819C195.065 104.406 195.184 103.942 195.184 103.429C195.184 102.915 195.065 102.451 194.827 102.038C194.589 101.625 194.26 101.299 193.84 101.061C193.421 100.823 192.951 100.704 192.431 100.704C191.911 100.704 191.439 100.823 191.013 101.061C190.593 101.299 190.261 101.625 190.017 102.038C189.779 102.451 189.66 102.915 189.66 103.429Z" fill="#565A6B"/>
<path d="M231.273 106.773C230.785 106.773 230.315 106.695 229.864 106.538C229.419 106.382 229.075 106.175 228.83 105.918L229.103 105.383C229.341 105.621 229.657 105.815 230.052 105.965C230.446 106.109 230.854 106.181 231.273 106.181C231.862 106.181 232.303 106.075 232.598 105.862C232.892 105.643 233.039 105.361 233.039 105.016C233.039 104.753 232.958 104.543 232.795 104.387C232.639 104.23 232.444 104.111 232.213 104.03C231.981 103.942 231.658 103.848 231.245 103.748C230.75 103.623 230.356 103.504 230.061 103.391C229.767 103.272 229.513 103.093 229.3 102.855C229.094 102.617 228.99 102.295 228.99 101.888C228.99 101.556 229.078 101.255 229.253 100.986C229.429 100.71 229.698 100.491 230.061 100.328C230.425 100.165 230.875 100.084 231.414 100.084C231.79 100.084 232.156 100.137 232.513 100.244C232.877 100.344 233.19 100.485 233.453 100.666L233.218 101.221C232.942 101.039 232.648 100.904 232.335 100.817C232.022 100.723 231.715 100.676 231.414 100.676C230.838 100.676 230.403 100.789 230.108 101.014C229.82 101.233 229.676 101.518 229.676 101.869C229.676 102.132 229.754 102.345 229.911 102.508C230.074 102.664 230.274 102.787 230.512 102.874C230.756 102.956 231.082 103.047 231.489 103.147C231.972 103.266 232.36 103.385 232.654 103.504C232.955 103.616 233.209 103.792 233.415 104.03C233.622 104.262 233.725 104.578 233.725 104.979C233.725 105.311 233.634 105.614 233.453 105.89C233.277 106.159 233.005 106.375 232.635 106.538C232.266 106.695 231.812 106.773 231.273 106.773Z" fill="#565A6B"/>
<path d="M270.125 106.773C269.636 106.773 269.166 106.695 268.715 106.538C268.27 106.382 267.925 106.175 267.681 105.918L267.954 105.382C268.192 105.62 268.508 105.815 268.903 105.965C269.297 106.109 269.705 106.181 270.125 106.181C270.713 106.181 271.155 106.075 271.45 105.862C271.744 105.642 271.891 105.36 271.891 105.016C271.891 104.753 271.81 104.543 271.647 104.386C271.49 104.229 271.296 104.11 271.064 104.029C270.832 103.941 270.51 103.847 270.096 103.747C269.601 103.622 269.207 103.503 268.912 103.39C268.618 103.271 268.364 103.092 268.151 102.854C267.944 102.616 267.841 102.293 267.841 101.886C267.841 101.554 267.928 101.253 268.104 100.984C268.279 100.708 268.549 100.489 268.912 100.326C269.276 100.163 269.727 100.082 270.265 100.082C270.641 100.082 271.008 100.135 271.365 100.242C271.728 100.342 272.042 100.483 272.305 100.664L272.07 101.219C271.794 101.037 271.5 100.903 271.186 100.815C270.873 100.721 270.566 100.674 270.265 100.674C269.689 100.674 269.254 100.787 268.959 101.012C268.671 101.231 268.527 101.517 268.527 101.867C268.527 102.131 268.605 102.344 268.762 102.506C268.925 102.663 269.125 102.785 269.363 102.873C269.608 102.954 269.933 103.045 270.341 103.146C270.823 103.265 271.212 103.384 271.506 103.503C271.807 103.615 272.061 103.791 272.267 104.029C272.474 104.261 272.577 104.577 272.577 104.978C272.577 105.31 272.487 105.614 272.305 105.89C272.129 106.159 271.857 106.375 271.487 106.538C271.118 106.695 270.663 106.773 270.125 106.773Z" fill="#565A6B"/>
<path d="M114.37 100.74H112.058V100.138H117.378V100.74H115.066V106.717H114.37V100.74Z" fill="#565A6B"/>
<path d="M40.8907 129.955V131.609H33.1316V130.301L37.3119 126.331C37.7831 125.88 38.0988 125.489 38.2592 125.159C38.4297 124.818 38.5149 124.482 38.5149 124.151C38.5149 123.66 38.3495 123.284 38.0186 123.023C37.6878 122.763 37.2016 122.632 36.5601 122.632C35.4874 122.632 34.6654 122.998 34.094 123.73L32.7256 122.677C33.1367 122.126 33.688 121.7 34.3797 121.399C35.0814 121.089 35.8634 120.933 36.7255 120.933C37.8683 120.933 38.7805 121.204 39.4622 121.745C40.1439 122.286 40.4847 123.023 40.4847 123.956C40.4847 124.527 40.3644 125.063 40.1238 125.565C39.8832 126.066 39.4221 126.637 38.7404 127.279L35.9285 129.955H40.8907Z" fill="#222222"/>
<path d="M75.9503 125.593C77.053 125.653 77.89 125.954 78.4614 126.495C79.0429 127.026 79.3336 127.723 79.3336 128.585C79.3336 129.186 79.1882 129.723 78.8975 130.194C78.6068 130.655 78.1757 131.021 77.6043 131.292C77.0329 131.562 76.3362 131.698 75.5142 131.698C74.7523 131.698 74.0306 131.577 73.3489 131.337C72.6772 131.086 72.1359 130.755 71.7249 130.344L72.2512 129.487C72.6021 129.848 73.0682 130.144 73.6496 130.374C74.2311 130.595 74.8526 130.705 75.5142 130.705C76.3763 130.705 77.043 130.52 77.5141 130.149C77.9853 129.768 78.2208 129.247 78.2208 128.585C78.2208 127.933 77.9853 127.422 77.5141 127.051C77.043 126.68 76.3312 126.495 75.3789 126.495H74.627V125.698L77.5442 122.044H72.161V121.082H78.9276V121.848L75.9503 125.593Z" fill="#222222"/>
<path d="M121.071 128.841H118.966V131.607H117.883V128.841H111.943V128.059L117.522 121.082H118.725L113.342 127.878H117.913V125.442H118.966V127.878H121.071V128.841Z" fill="#222222"/>
<path d="M152.839 125.397C154.362 125.397 155.47 125.673 156.162 126.224C156.864 126.766 157.214 127.527 157.214 128.51C157.214 129.121 157.069 129.668 156.778 130.149C156.498 130.63 156.072 131.011 155.5 131.292C154.929 131.562 154.227 131.698 153.395 131.698C152.643 131.698 151.926 131.577 151.245 131.337C150.573 131.086 150.032 130.755 149.621 130.344L150.147 129.487C150.498 129.848 150.959 130.144 151.53 130.374C152.102 130.595 152.718 130.705 153.38 130.705C154.252 130.705 154.924 130.51 155.395 130.119C155.876 129.728 156.117 129.207 156.117 128.555C156.117 127.833 155.846 127.287 155.305 126.916C154.773 126.545 153.871 126.36 152.598 126.36H150.358L150.899 121.082H156.658V122.044H151.846L151.485 125.397H152.839Z" fill="#222222"/>
<path d="M193.775 125.307C194.466 125.307 195.078 125.437 195.609 125.698C196.15 125.959 196.571 126.329 196.872 126.811C197.173 127.282 197.323 127.833 197.323 128.465C197.323 129.106 197.168 129.673 196.857 130.164C196.546 130.655 196.115 131.036 195.564 131.307C195.023 131.567 194.411 131.698 193.729 131.698C192.336 131.698 191.268 131.242 190.527 130.329C189.785 129.407 189.414 128.109 189.414 126.435C189.414 125.262 189.614 124.269 190.015 123.457C190.416 122.645 190.978 122.034 191.699 121.623C192.421 121.202 193.263 120.991 194.226 120.991C195.268 120.991 196.1 121.182 196.722 121.563L196.286 122.435C195.785 122.104 195.103 121.939 194.241 121.939C193.078 121.939 192.166 122.31 191.504 123.051C190.842 123.783 190.512 124.851 190.512 126.254C190.512 126.505 190.527 126.791 190.557 127.111C190.817 126.54 191.233 126.099 191.805 125.788C192.376 125.467 193.033 125.307 193.775 125.307ZM193.684 130.78C194.446 130.78 195.063 130.575 195.534 130.164C196.015 129.743 196.256 129.186 196.256 128.495C196.256 127.803 196.015 127.252 195.534 126.841C195.063 126.43 194.421 126.224 193.609 126.224C193.078 126.224 192.607 126.324 192.196 126.525C191.795 126.725 191.479 127.001 191.248 127.352C191.018 127.703 190.903 128.094 190.903 128.525C190.903 128.926 191.008 129.297 191.218 129.638C191.439 129.978 191.76 130.254 192.181 130.465C192.602 130.675 193.103 130.78 193.684 130.78Z" fill="#222222"/>
<path d="M235.037 121.082V121.848L230.631 131.607H229.458L233.789 122.044H228.376V124.014H227.308V121.082H235.037Z" fill="#222222"/>
<path d="M272.118 126.089C272.779 126.309 273.286 126.64 273.636 127.081C273.997 127.522 274.178 128.054 274.178 128.675C274.178 129.287 274.012 129.823 273.682 130.284C273.351 130.735 272.875 131.086 272.253 131.337C271.642 131.577 270.92 131.698 270.088 131.698C268.825 131.698 267.832 131.427 267.11 130.886C266.389 130.344 266.028 129.608 266.028 128.675C266.028 128.044 266.198 127.512 266.539 127.081C266.89 126.64 267.396 126.309 268.058 126.089C267.516 125.878 267.105 125.578 266.825 125.187C266.544 124.786 266.404 124.315 266.404 123.773C266.404 122.921 266.734 122.244 267.396 121.743C268.068 121.242 268.965 120.991 270.088 120.991C270.83 120.991 271.476 121.107 272.027 121.337C272.589 121.558 273.025 121.879 273.336 122.3C273.646 122.721 273.802 123.212 273.802 123.773C273.802 124.315 273.656 124.786 273.366 125.187C273.075 125.578 272.659 125.878 272.118 126.089ZM267.486 123.803C267.486 124.385 267.717 124.846 268.178 125.187C268.639 125.527 269.276 125.698 270.088 125.698C270.9 125.698 271.536 125.527 271.997 125.187C272.469 124.846 272.704 124.39 272.704 123.818C272.704 123.227 272.464 122.761 271.982 122.42C271.511 122.079 270.88 121.909 270.088 121.909C269.286 121.909 268.649 122.079 268.178 122.42C267.717 122.761 267.486 123.222 267.486 123.803ZM270.088 130.78C271.02 130.78 271.747 130.59 272.268 130.209C272.799 129.828 273.065 129.312 273.065 128.66C273.065 128.009 272.799 127.497 272.268 127.126C271.747 126.745 271.02 126.555 270.088 126.555C269.165 126.555 268.439 126.745 267.907 127.126C267.386 127.497 267.125 128.009 267.125 128.66C267.125 129.322 267.386 129.843 267.907 130.224C268.429 130.595 269.155 130.78 270.088 130.78Z" fill="#222222"/>
</g>
</g>
<path fill-rule="evenodd" clip-rule="evenodd" d="M126.667 59.7899C126.91 60.3852 126.619 61.0627 126.018 61.3032C124.653 61.8497 123.466 62.7594 122.59 63.932C121.714 65.1045 121.182 66.4941 121.054 67.9472C120.925 69.4003 121.205 70.8603 121.863 72.1657C122.52 73.471 123.529 74.571 124.778 75.344C125.328 75.6842 125.495 76.4014 125.151 76.9459C124.808 77.4904 124.083 77.656 123.534 77.3158C121.917 76.3156 120.612 74.8922 119.761 73.2031C118.911 71.514 118.549 69.6248 118.715 67.7446C118.881 65.8643 119.569 64.0662 120.703 62.5489C121.836 61.0317 123.372 59.8545 125.139 59.1475C125.74 58.9069 126.424 59.1946 126.667 59.7899Z" fill="#91ABED"/>
<path fill-rule="evenodd" clip-rule="evenodd" d="M127.835 59.5649C127.835 58.9228 128.361 58.4023 129.009 58.4023C131.191 58.4023 133.318 59.0866 135.083 60.3569C136.849 61.6273 138.163 63.4186 138.838 65.4741C139.038 66.0847 138.701 66.7406 138.084 66.939C137.467 67.1374 136.805 66.8032 136.605 66.1926C136.083 64.6041 135.068 63.2197 133.703 62.238C132.339 61.2562 130.696 60.7274 129.009 60.7274C128.361 60.7274 127.835 60.2069 127.835 59.5649Z" fill="#F39AAF"/>
<path fill-rule="evenodd" clip-rule="evenodd" d="M138.219 67.9508C138.867 67.9844 139.364 68.5315 139.33 69.1726C139.216 71.3309 138.415 73.3981 137.041 75.0777C135.668 76.7573 133.793 77.9632 131.685 78.5226C131.058 78.6888 130.415 78.3207 130.247 77.7006C130.079 77.0804 130.451 76.4429 131.077 76.2768C132.706 75.8445 134.155 74.9125 135.217 73.6145C136.278 72.3164 136.897 70.7189 136.986 69.0509C137.02 68.4098 137.572 67.9172 138.219 67.9508Z" fill="#91ABED"/>
<path d="M127.605 78.8585C128.345 78.8585 128.947 78.2645 128.947 77.528C128.947 76.7915 128.345 76.1975 127.605 76.1975C126.866 76.1975 126.264 76.7915 126.264 77.528C126.264 78.2645 126.866 78.8585 127.605 78.8585Z" fill="#8AE1C2" stroke="#8AE1C2" stroke-width="0.362871"/>
<path fill-rule="evenodd" clip-rule="evenodd" d="M119.85 67.7168C120.498 67.7168 121.024 68.2373 121.024 68.8793V81.217C121.024 81.859 120.498 82.3795 119.85 82.3795C119.202 82.3795 118.676 81.859 118.676 81.217V68.8793C118.676 68.2373 119.202 67.7168 119.85 67.7168Z" fill="#91ABED"/>
<path d="M154.02 64.0528C155.88 64.0528 157.344 64.4973 158.411 65.3863C159.477 66.2754 160.011 67.4995 160.011 69.0587C160.011 70.618 159.477 71.8421 158.411 72.7311C157.344 73.6201 155.88 74.0647 154.02 74.0647H150.471V78.4141H148.419V64.0528H154.02ZM153.959 72.2798C155.258 72.2798 156.25 72.0062 156.933 71.4591C157.617 70.8983 157.959 70.0982 157.959 69.0587C157.959 68.0192 157.617 67.226 156.933 66.6789C156.25 66.1181 155.258 65.8377 153.959 65.8377H150.471V72.2798H153.959ZM166.597 67.438C168.102 67.438 169.251 67.8072 170.044 68.5458C170.851 69.2844 171.254 70.3854 171.254 71.8489V78.4141H169.387V76.9779C169.059 77.484 168.587 77.8738 167.972 78.1474C167.37 78.4072 166.652 78.5372 165.818 78.5372C164.6 78.5372 163.622 78.2431 162.884 77.655C162.159 77.0668 161.796 76.2941 161.796 75.3366C161.796 74.3792 162.145 73.6133 162.843 73.0388C163.54 72.4507 164.648 72.1567 166.166 72.1567H169.285V71.7669C169.285 70.9189 169.039 70.2692 168.546 69.8178C168.054 69.3665 167.329 69.1408 166.371 69.1408C165.729 69.1408 165.099 69.2502 164.484 69.4691C163.868 69.6742 163.349 69.9546 162.925 70.3102L162.104 68.8331C162.665 68.3817 163.335 68.0398 164.115 67.8072C164.894 67.5611 165.722 67.438 166.597 67.438ZM166.146 77.019C166.898 77.019 167.548 76.8548 168.095 76.5266C168.642 76.1846 169.039 75.7059 169.285 75.0905V73.5723H166.248C164.58 73.5723 163.745 74.133 163.745 75.2546C163.745 75.8017 163.957 76.2325 164.381 76.5471C164.805 76.8617 165.394 77.019 166.146 77.019ZM185.034 67.5405V78.4141H183.167V76.7728C182.77 77.3335 182.244 77.7712 181.587 78.0858C180.944 78.3867 180.24 78.5372 179.474 78.5372C178.024 78.5372 176.882 78.1405 176.048 77.3472C175.214 76.5403 174.797 75.3572 174.797 73.7979V67.5405H176.766V73.5723C176.766 74.6254 177.019 75.4256 177.525 75.9726C178.031 76.5061 178.756 76.7728 179.7 76.7728C180.739 76.7728 181.56 76.4582 182.162 75.829C182.764 75.1999 183.064 74.3108 183.064 73.1619V67.5405H185.034ZM188.784 63.1911H190.753V78.4141H188.784V63.1911ZM198.473 67.438C199.978 67.438 201.127 67.8072 201.92 68.5458C202.727 69.2844 203.13 70.3854 203.13 71.8489V78.4141H201.263V76.9779C200.935 77.484 200.463 77.8738 199.848 78.1474C199.246 78.4072 198.528 78.5372 197.694 78.5372C196.476 78.5372 195.498 78.2431 194.76 77.655C194.035 77.0668 193.672 76.2941 193.672 75.3366C193.672 74.3792 194.021 73.6133 194.719 73.0388C195.416 72.4507 196.524 72.1567 198.042 72.1567H201.161V71.7669C201.161 70.9189 200.915 70.2692 200.422 69.8178C199.93 69.3665 199.205 69.1408 198.248 69.1408C197.605 69.1408 196.976 69.2502 196.36 69.4691C195.745 69.6742 195.225 69.9546 194.801 70.3102L193.98 68.8331C194.541 68.3817 195.211 68.0398 195.991 67.8072C196.77 67.5611 197.598 67.438 198.473 67.438ZM198.022 77.019C198.774 77.019 199.424 76.8548 199.971 76.5266C200.518 76.1846 200.915 75.7059 201.161 75.0905V73.5723H198.124C196.456 73.5723 195.621 74.133 195.621 75.2546C195.621 75.8017 195.833 76.2325 196.257 76.5471C196.681 76.8617 197.27 77.019 198.022 77.019Z" fill="#4D566D"/>
<defs>
<filter id="filter0_ddd" x="51.7729" y="191.998" width="208.259" height="203.891" filterUnits="userSpaceOnUse" color-interpolation-filters="sRGB">
<feFlood flood-opacity="0" result="BackgroundImageFix"/>
<feColorMatrix in="SourceAlpha" type="matrix" values="0 0 0 0 0 0 0 0 0 0 0 0 0 0 0 0 0 0 127 0" result="hardAlpha"/>
<feOffset dx="5.51777"/>
<feGaussianBlur stdDeviation="5.51777"/>
<feColorMatrix type="matrix" values="0 0 0 0 0.654902 0 0 0 0 0.8 0 0 0 0 0.788235 0 0 0 1 0"/>
<feBlend mode="normal" in2="BackgroundImageFix" result="effect1_dropShadow"/>
<feColorMatrix in="SourceAlpha" type="matrix" values="0 0 0 0 0 0 0 0 0 0 0 0 0 0 0 0 0 0 127 0" result="hardAlpha"/>
<feOffset dy="4.41421"/>
<feGaussianBlur stdDeviation="2.20711"/>
<feColorMatrix type="matrix" values="0 0 0 0 0.654902 0 0 0 0 0.8 0 0 0 0 0.788235 0 0 0 1 0"/>
<feBlend mode="normal" in2="effect1_dropShadow" result="effect2_dropShadow"/>
<feColorMatrix in="SourceAlpha" type="matrix" values="0 0 0 0 0 0 0 0 0 0 0 0 0 0 0 0 0 0 127 0" result="hardAlpha"/>
<feOffset dx="-3.31066" dy="-3.31066"/>
<feGaussianBlur stdDeviation="3.31066"/>
<feColorMatrix type="matrix" values="0 0 0 0 0.656667 0 0 0 0 0.8 0 0 0 0 0.78697 0 0 0 1 0"/>
<feBlend mode="normal" in2="effect2_dropShadow" result="effect3_dropShadow"/>
<feBlend mode="normal" in="SourceGraphic" in2="effect3_dropShadow" result="shape"/>
</filter>
</defs>
</svg>
