<svg width="48" height="48" viewBox="0 0 48 48" fill="none" xmlns="http://www.w3.org/2000/svg">
<circle cx="18" cy="18" r="18" fill="#F7F4F9"/>
<circle cx="18" cy="18" r="18" fill="#E3ECE8"/>
<path d="M13.8364 41.6384L14.1832 40.9734L13.8364 41.6384ZM4.56048 31.6537L5.25083 31.3606L4.56048 31.6537ZM3.88273 18.1943L4.59891 18.417L3.88273 18.1943ZM25.5094 4.09631L25.5811 3.34974L25.5094 4.09631ZM38.005 10.6078C38.4191 10.6027 38.7507 10.2628 38.7456 9.8486L38.6623 3.09912C38.6572 2.68494 38.3173 2.35332 37.9031 2.35843C37.4889 2.36355 37.1573 2.70345 37.1624 3.11764L37.2365 9.11718L31.2369 9.19125C30.8228 9.19636 30.4912 9.53627 30.4963 9.95045C30.5014 10.3646 30.8413 10.6962 31.2555 10.6911L38.005 10.6078ZM43.25 24C43.25 28.4485 41.6691 32.7619 38.7728 36.2051L39.9207 37.1707C43.0419 33.4602 44.75 28.8057 44.75 24H43.25ZM38.7728 36.2051C35.8761 39.6486 31.8422 42.0089 27.3565 42.8794L27.6422 44.352C32.4598 43.4171 36.7998 40.8807 39.9207 37.1707L38.7728 36.2051ZM27.3565 42.8794C22.8706 43.75 18.2147 43.0758 14.1832 40.9734L13.4896 42.3034C17.8235 44.5635 22.8248 45.2868 27.6422 44.352L27.3565 42.8794ZM14.1832 40.9734C10.1519 38.8712 6.99671 35.4727 5.25083 31.3606L3.87012 31.9468C5.75421 36.3844 9.1553 40.0432 13.4896 42.3034L14.1832 40.9734ZM5.25083 31.3606C3.50512 27.2488 3.27496 22.675 4.59891 18.417L3.16655 17.9716C1.73698 22.5693 1.98586 27.5087 3.87012 31.9468L5.25083 31.3606ZM4.59891 18.417C5.92295 14.1587 8.72079 10.4758 12.5204 7.9989L11.7012 6.74232C7.61388 9.4068 4.59602 13.3742 3.16655 17.9716L4.59891 18.417ZM12.5204 7.9989C16.3203 5.52178 20.8855 4.40546 25.4376 4.84287L25.5811 3.34974C20.6933 2.88008 15.7882 4.07807 11.7012 6.74232L12.5204 7.9989ZM25.4376 4.84287C29.9896 5.28027 34.2423 7.24378 37.472 10.3947L38.5194 9.32103C35.0418 5.92824 30.469 3.81942 25.5811 3.34974L25.4376 4.84287Z" fill="#292929"/>
<path d="M30.2936 25V29.9324H29.8072L29.7724 29.3446C29.6705 29.5428 29.513 29.7027 29.2999 29.8243C29.0915 29.9414 28.8529 30 28.5843 30C28.0979 30 27.7111 29.8446 27.4239 29.5338C27.1413 29.2185 27 28.7883 27 28.2432C27 27.6982 27.1413 27.2703 27.4239 26.9595C27.7111 26.6441 28.0979 26.4865 28.5843 26.4865C28.839 26.4865 29.066 26.5405 29.2652 26.6486C29.469 26.7568 29.6265 26.9009 29.7377 27.0811V25H30.2936ZM28.6468 29.527C28.9803 29.527 29.2444 29.4144 29.4389 29.1892C29.6381 28.964 29.7377 28.6622 29.7377 28.2838V28.2027C29.7377 27.8243 29.6381 27.5225 29.4389 27.2973C29.2444 27.0721 28.9803 26.9595 28.6468 26.9595C28.3086 26.9595 28.0423 27.0766 27.8477 27.3108C27.6532 27.5405 27.5559 27.8514 27.5559 28.2432C27.5559 28.6351 27.6532 28.9482 27.8477 29.1824C28.0423 29.4122 28.3086 29.527 28.6468 29.527Z" fill="#292929"/>
<path d="M31.8631 25.9054C31.738 25.9054 31.6361 25.8694 31.5574 25.7973C31.4833 25.7207 31.4462 25.6216 31.4462 25.5C31.4462 25.3784 31.4833 25.2815 31.5574 25.2095C31.6361 25.1329 31.738 25.0946 31.8631 25.0946C31.9882 25.0946 32.0878 25.1329 32.1619 25.2095C32.2407 25.2815 32.28 25.3784 32.28 25.5C32.28 25.6216 32.2407 25.7207 32.1619 25.7973C32.0878 25.8694 31.9882 25.9054 31.8631 25.9054ZM32.1411 29.9324H31.5852V26.5541H32.1411V29.9324Z" fill="#292929"/>
<path d="M36.2797 29.5405C36.3724 29.5405 36.465 29.5293 36.5577 29.5068L36.5229 29.9324C36.3932 29.9775 36.2543 30 36.106 30C35.9254 30 35.7818 29.9617 35.6752 29.8851C35.5733 29.8086 35.5085 29.6802 35.4807 29.5C35.3741 29.6577 35.2166 29.7815 35.0082 29.8716C34.8044 29.9572 34.5889 30 34.362 30C34.0192 30 33.7366 29.9234 33.5142 29.7703C33.2919 29.6126 33.1807 29.3874 33.1807 29.0946C33.1807 28.8378 33.2965 28.6171 33.5281 28.4324C33.7598 28.2432 34.0956 28.1126 34.5357 28.0405L35.4598 27.8919V27.7027C35.4598 27.4775 35.388 27.2973 35.2444 27.1622C35.1008 27.027 34.9016 26.9595 34.6469 26.9595C34.4152 26.9595 34.2137 27.0135 34.0423 27.1216C33.8756 27.2297 33.7459 27.3896 33.6532 27.6014L33.2433 27.3108C33.3359 27.0586 33.5073 26.8581 33.7574 26.7095C34.0122 26.5608 34.3087 26.4865 34.6469 26.4865C35.0591 26.4865 35.3903 26.5833 35.6405 26.777C35.8906 26.9707 36.0157 27.2568 36.0157 27.6351V29.2973C36.0157 29.3784 36.0365 29.4392 36.0782 29.4797C36.1199 29.5203 36.1871 29.5405 36.2797 29.5405ZM34.3898 29.527C34.6816 29.527 34.9317 29.4595 35.1402 29.3243C35.3533 29.1892 35.4598 29.0135 35.4598 28.7973V28.3311L34.6816 28.473C34.3712 28.527 34.1396 28.6059 33.9867 28.7095C33.8339 28.8086 33.7574 28.9369 33.7574 29.0946C33.7574 29.2342 33.813 29.3423 33.9242 29.4189C34.0354 29.491 34.1906 29.527 34.3898 29.527Z" fill="#292929"/>
<path d="M38.5478 30C38.2142 30 37.9131 29.9369 37.6445 29.8108C37.3758 29.6802 37.1789 29.4887 37.0538 29.2365L37.5055 28.9324C37.5842 29.1306 37.7209 29.2793 37.9155 29.3784C38.11 29.4775 38.3393 29.527 38.6034 29.527C38.8767 29.527 39.0851 29.4797 39.2287 29.3851C39.3723 29.2905 39.4441 29.1712 39.4441 29.027C39.4441 28.8964 39.377 28.7928 39.2426 28.7162C39.1083 28.6351 38.872 28.5653 38.5339 28.5068C38.2003 28.4482 37.9363 28.3784 37.7417 28.2973C37.5472 28.2117 37.4059 28.1059 37.3179 27.9797C37.2299 27.8491 37.1859 27.6892 37.1859 27.5C37.1859 27.3153 37.2415 27.1464 37.3526 26.9932C37.4638 26.8401 37.6236 26.7185 37.8321 26.6284C38.0405 26.5338 38.2814 26.4865 38.5547 26.4865C38.9253 26.4865 39.2218 26.5541 39.4441 26.6892C39.6711 26.8198 39.8332 27.0225 39.9305 27.2973L39.458 27.5676C39.3839 27.3514 39.2704 27.1959 39.1175 27.1014C38.9693 27.0068 38.7817 26.9595 38.5547 26.9595C38.3277 26.9595 38.1355 27.009 37.978 27.1081C37.8205 27.2072 37.7417 27.3221 37.7417 27.4527C37.7417 27.6014 37.8089 27.7162 37.9433 27.7973C38.0822 27.8784 38.3277 27.9482 38.6798 28.0068C39.1616 28.0833 39.502 28.1982 39.7012 28.3514C39.9004 28.5045 40 28.7207 40 29C40 29.1937 39.9398 29.3671 39.8193 29.5203C39.7035 29.6689 39.5345 29.786 39.3121 29.8716C39.0944 29.9572 38.8396 30 38.5478 30Z" fill="#292929"/>
<path d="M11.1737 18C11.9304 18 12.5766 18.1412 13.1121 18.4235C13.6593 18.6941 14.0726 19.0588 14.352 19.5176C14.6314 19.9765 14.7711 20.4824 14.7711 21.0353C14.7711 21.5765 14.6721 22.0647 14.4742 22.5C14.2763 22.9353 14.0085 23.2824 13.6709 23.5412C13.3449 23.7882 12.9898 23.9118 12.6057 23.9118V23.9471C13.3391 23.9471 13.927 24.2176 14.3694 24.7588C14.8118 25.2882 15.033 25.9353 15.033 26.7C15.033 27.3235 14.8642 27.8882 14.5266 28.3941C14.2006 28.9 13.7291 29.2941 13.1121 29.5765C12.4951 29.8588 11.7849 30 10.9816 30C9.06065 30 7.73345 29.0706 7 27.2118L8.29227 26.5235C8.52511 27.2412 8.84527 27.7824 9.25274 28.1471C9.67186 28.5 10.2831 28.6765 11.0864 28.6765C11.8664 28.6765 12.4776 28.4824 12.92 28.0941C13.3624 27.6941 13.5836 27.1824 13.5836 26.5588C13.5836 25.8412 13.3682 25.3412 12.9375 25.0588C12.5183 24.7647 11.8489 24.6176 10.9292 24.6176H10.4752V23.2941H10.9292C12.5242 23.2941 13.3216 22.6353 13.3216 21.3176C13.3216 20.6588 13.1354 20.1647 12.7628 19.8353C12.4019 19.4941 11.878 19.3235 11.1911 19.3235C10.5159 19.3235 9.97455 19.4824 9.56708 19.8C9.17125 20.1059 8.89766 20.5412 8.74631 21.1059L7.43658 20.4882C7.71599 19.7235 8.18749 19.1176 8.85109 18.6706C9.52633 18.2235 10.3005 18 11.1737 18Z" fill="#292929"/>
<path d="M21.7041 30C20.307 30 19.2418 29.4882 18.5083 28.4647C17.7749 27.4412 17.4081 25.9529 17.4081 24C17.4081 22.0471 17.7749 20.5588 18.5083 19.5353C19.2418 18.5118 20.307 18 21.7041 18C23.1011 18 24.1664 18.5118 24.8998 19.5353C25.6333 20.5588 26 22.0471 26 24C26 25.9529 25.6333 27.4412 24.8998 28.4647C24.1664 29.4882 23.1011 30 21.7041 30ZM21.7041 28.7294C22.6238 28.7294 23.3281 28.3294 23.8171 27.5294C24.3061 26.7176 24.5506 25.5412 24.5506 24C24.5506 22.4588 24.3061 21.2882 23.8171 20.4882C23.3281 19.6765 22.6238 19.2706 21.7041 19.2706C20.7844 19.2706 20.08 19.6765 19.591 20.4882C19.1021 21.2882 18.8576 22.4588 18.8576 24C18.8576 25.5412 19.1021 26.7176 19.591 27.5294C20.08 28.3294 20.7844 28.7294 21.7041 28.7294Z" fill="#292929"/>
</svg>
