<svg width="48" height="48" viewBox="0 0 48 48" fill="none" xmlns="http://www.w3.org/2000/svg">
<circle cx="18" cy="18" r="18" fill="#E3ECE8"/>
<path d="M8.87611 11.8418H31.3598L29.5866 34.5869H21.5157M11.5359 34.5869H6.21631L7.54621 23.2144" stroke="#292929" stroke-width="1.5" stroke-linecap="square" stroke-linejoin="round"/>
<path d="M32.3704 34.5869H21.0576" stroke="#292929" stroke-width="1.5" stroke-linecap="square" stroke-linejoin="round"/>
<path d="M31.1851 16.1084H39.8903L46.9982 21.7947L45.225 34.5888H42.3818" stroke="#292929" stroke-width="1.5" stroke-linecap="square" stroke-linejoin="round"/>
<path d="M33.1401 27.478L34.0267 20.3701H39.0022L41.8454 22.5025L40.9588 27.478H33.1401Z" stroke="#292929" stroke-width="1.5" stroke-linecap="square" stroke-linejoin="round"/>
<path d="M18.8857 36.719C18.8857 38.2675 17.6303 39.5229 16.0818 39.5229C14.5332 39.5229 13.2778 38.2675 13.2778 36.719C13.2778 35.1704 14.5332 33.915 16.0818 33.915C17.6303 33.915 18.8857 35.1704 18.8857 36.719Z" stroke="#292929" stroke-width="1.5" stroke-linecap="square" stroke-linejoin="round"/>
<path d="M39.6152 36.4924C39.6152 38.041 38.3598 39.2963 36.8113 39.2963C35.2627 39.2963 34.0073 38.041 34.0073 36.4924C34.0073 34.9438 35.2627 33.6885 36.8113 33.6885C38.3598 33.6885 39.6152 34.9438 39.6152 36.4924Z" stroke="#292929" stroke-width="1.5" stroke-linecap="square" stroke-linejoin="round"/>
<path d="M11.9995 19H0.999512" stroke="#292929" stroke-width="1.5" stroke-linecap="square" stroke-linejoin="round"/>
<path d="M12.9995 15.5H5.99951" stroke="#292929" stroke-width="1.5" stroke-linecap="square" stroke-linejoin="round"/>
</svg>
