<svg width="422" height="349" viewBox="0 0 422 349" fill="none" xmlns="http://www.w3.org/2000/svg">
<path d="M158.534 17.36C158.28 18.2133 157.88 18.9267 157.334 19.5C156.787 20.0733 156.14 20.5 155.394 20.78C154.647 21.06 153.827 21.2 152.934 21.2C151.627 21.2 150.494 20.9267 149.534 20.38C148.587 19.8333 147.854 19.0533 147.334 18.04C146.827 17.0267 146.574 15.8133 146.574 14.4C146.574 12.9867 146.827 11.7733 147.334 10.76C147.854 9.74667 148.587 8.96667 149.534 8.42C150.494 7.87333 151.614 7.6 152.894 7.6C153.8 7.6 154.62 7.72667 155.354 7.98C156.087 8.22 156.707 8.6 157.214 9.12C157.734 9.62667 158.114 10.26 158.354 11.02L155.854 12.08C155.627 11.28 155.28 10.7133 154.814 10.38C154.347 10.0333 153.747 9.86 153.014 9.86C152.294 9.86 151.66 10.0333 151.114 10.38C150.58 10.7267 150.167 11.24 149.874 11.92C149.58 12.5867 149.434 13.4133 149.434 14.4C149.434 15.3733 149.567 16.2 149.834 16.88C150.114 17.56 150.52 18.0733 151.054 18.42C151.587 18.7667 152.24 18.94 153.014 18.94C153.734 18.94 154.354 18.7467 154.874 18.36C155.407 17.9733 155.78 17.3867 155.994 16.6L158.534 17.36ZM160.606 21V6.62H163.346V12.7C163.666 12.06 164.106 11.5867 164.666 11.28C165.226 10.96 165.859 10.8 166.566 10.8C167.259 10.8 167.873 10.9333 168.406 11.2C168.953 11.4667 169.379 11.8733 169.686 12.42C170.006 12.9533 170.166 13.6267 170.166 14.44V21H167.426V15.24C167.426 14.3733 167.259 13.78 166.926 13.46C166.593 13.1267 166.166 12.96 165.646 12.96C165.259 12.96 164.886 13.0533 164.526 13.24C164.179 13.4133 163.893 13.7067 163.666 14.12C163.453 14.52 163.346 15.0533 163.346 15.72V21H160.606ZM178.689 14.62C178.689 14.0467 178.522 13.6 178.189 13.28C177.869 12.96 177.442 12.8 176.909 12.8C176.415 12.8 175.982 12.9267 175.609 13.18C175.235 13.4333 174.962 13.8533 174.789 14.44L172.449 13.72C172.675 12.84 173.169 12.1333 173.929 11.6C174.702 11.0667 175.735 10.8 177.029 10.8C177.909 10.8 178.675 10.94 179.329 11.22C179.982 11.4867 180.489 11.8933 180.849 12.44C181.222 12.9867 181.409 13.6733 181.409 14.5V18.56C181.409 19.0667 181.649 19.32 182.129 19.32C182.355 19.32 182.569 19.2867 182.769 19.22L182.609 20.92C182.262 21.0933 181.829 21.18 181.309 21.18C180.842 21.18 180.422 21.1 180.049 20.94C179.675 20.78 179.382 20.54 179.169 20.22C178.955 19.8867 178.849 19.4733 178.849 18.98V18.9L179.329 18.82C179.249 19.3267 179.029 19.76 178.669 20.12C178.309 20.4667 177.869 20.7333 177.349 20.92C176.842 21.1067 176.315 21.2 175.769 21.2C175.089 21.2 174.502 21.1 174.009 20.9C173.515 20.6867 173.135 20.38 172.869 19.98C172.602 19.58 172.469 19.0867 172.469 18.5C172.469 17.7533 172.709 17.1467 173.189 16.68C173.669 16.2 174.355 15.8733 175.249 15.7L179.009 14.94L178.989 16.64L176.589 17.12C176.135 17.2133 175.789 17.34 175.549 17.5C175.322 17.6467 175.209 17.8933 175.209 18.24C175.209 18.5733 175.329 18.8267 175.569 19C175.822 19.1733 176.122 19.26 176.469 19.26C176.749 19.26 177.022 19.2267 177.289 19.16C177.555 19.0933 177.795 18.9867 178.009 18.84C178.222 18.6933 178.389 18.4933 178.509 18.24C178.629 17.9867 178.689 17.68 178.689 17.32V14.62ZM184.473 21V11H186.853L187.033 12.96C187.3 12.2667 187.687 11.7333 188.193 11.36C188.713 10.9867 189.36 10.8 190.133 10.8C190.36 10.8 190.567 10.82 190.753 10.86C190.94 10.9 191.093 10.9533 191.213 11.02L190.893 13.32C190.76 13.2667 190.593 13.2267 190.393 13.2C190.207 13.1733 189.96 13.16 189.653 13.16C189.253 13.16 188.867 13.26 188.493 13.46C188.12 13.6467 187.813 13.94 187.573 14.34C187.333 14.7267 187.213 15.22 187.213 15.82V21H184.473ZM196.08 7.94V17.74C196.08 18.22 196.2 18.5733 196.44 18.8C196.693 19.0133 197.033 19.12 197.46 19.12C197.806 19.12 198.1 19.0733 198.34 18.98C198.593 18.8733 198.82 18.7333 199.02 18.56L199.46 20.38C199.14 20.6333 198.74 20.8333 198.26 20.98C197.78 21.1267 197.273 21.2 196.74 21.2C196.073 21.2 195.48 21.1 194.96 20.9C194.453 20.7 194.053 20.38 193.76 19.94C193.48 19.5 193.34 18.9133 193.34 18.18V8.7L196.08 7.94ZM199.28 11V13.04H191.5V11H199.28ZM218.867 7.8V21H215.707L211.087 13.24L209.947 11.08H209.927L210.007 13.36V21H207.527V7.8H210.667L215.287 15.54L216.427 17.72H216.467L216.387 15.44V7.8H218.867ZM227.654 14.62C227.654 14.0467 227.487 13.6 227.154 13.28C226.834 12.96 226.407 12.8 225.874 12.8C225.38 12.8 224.947 12.9267 224.574 13.18C224.2 13.4333 223.927 13.8533 223.754 14.44L221.414 13.72C221.64 12.84 222.134 12.1333 222.894 11.6C223.667 11.0667 224.7 10.8 225.994 10.8C226.874 10.8 227.64 10.94 228.294 11.22C228.947 11.4867 229.454 11.8933 229.814 12.44C230.187 12.9867 230.374 13.6733 230.374 14.5V18.56C230.374 19.0667 230.614 19.32 231.094 19.32C231.32 19.32 231.534 19.2867 231.734 19.22L231.574 20.92C231.227 21.0933 230.794 21.18 230.274 21.18C229.807 21.18 229.387 21.1 229.014 20.94C228.64 20.78 228.347 20.54 228.134 20.22C227.92 19.8867 227.814 19.4733 227.814 18.98V18.9L228.294 18.82C228.214 19.3267 227.994 19.76 227.634 20.12C227.274 20.4667 226.834 20.7333 226.314 20.92C225.807 21.1067 225.28 21.2 224.734 21.2C224.054 21.2 223.467 21.1 222.974 20.9C222.48 20.6867 222.1 20.38 221.834 19.98C221.567 19.58 221.434 19.0867 221.434 18.5C221.434 17.7533 221.674 17.1467 222.154 16.68C222.634 16.2 223.32 15.8733 224.214 15.7L227.974 14.94L227.954 16.64L225.554 17.12C225.1 17.2133 224.754 17.34 224.514 17.5C224.287 17.6467 224.174 17.8933 224.174 18.24C224.174 18.5733 224.294 18.8267 224.534 19C224.787 19.1733 225.087 19.26 225.434 19.26C225.714 19.26 225.987 19.2267 226.254 19.16C226.52 19.0933 226.76 18.9867 226.974 18.84C227.187 18.6933 227.354 18.4933 227.474 18.24C227.594 17.9867 227.654 17.68 227.654 17.32V14.62ZM233.438 21V11H235.898L235.998 12.8C236.331 12.1333 236.785 11.6333 237.358 11.3C237.945 10.9667 238.591 10.8 239.298 10.8C240.018 10.8 240.665 10.9667 241.238 11.3C241.825 11.6333 242.265 12.1267 242.558 12.78C242.771 12.34 243.058 11.9733 243.418 11.68C243.778 11.3867 244.178 11.1667 244.618 11.02C245.058 10.8733 245.505 10.8 245.958 10.8C246.611 10.8 247.205 10.9333 247.738 11.2C248.285 11.4667 248.718 11.8667 249.038 12.4C249.358 12.9333 249.518 13.6133 249.518 14.44V21H246.778V14.98C246.778 14.2467 246.618 13.7267 246.298 13.42C245.978 13.1133 245.565 12.96 245.058 12.96C244.658 12.96 244.285 13.06 243.938 13.26C243.605 13.46 243.338 13.76 243.138 14.16C242.951 14.5467 242.858 15.0333 242.858 15.62V21H240.118V14.98C240.118 14.2467 239.951 13.7267 239.618 13.42C239.298 13.1133 238.885 12.96 238.378 12.96C238.031 12.96 237.685 13.0533 237.338 13.24C237.005 13.4267 236.725 13.72 236.498 14.12C236.285 14.52 236.178 15.0467 236.178 15.7V21H233.438ZM256.984 21.2C255.931 21.2 255.011 20.9933 254.224 20.58C253.451 20.1667 252.851 19.5733 252.424 18.8C251.998 18.0267 251.784 17.0933 251.784 16C251.784 14.9067 251.998 13.9733 252.424 13.2C252.851 12.4267 253.444 11.8333 254.204 11.42C254.978 11.0067 255.858 10.8 256.844 10.8C257.858 10.8 258.718 11.0067 259.424 11.42C260.131 11.82 260.671 12.3733 261.044 13.08C261.418 13.7733 261.604 14.5667 261.604 15.46C261.604 15.7267 261.598 15.98 261.584 16.22C261.571 16.46 261.551 16.6733 261.524 16.86H253.544V14.96H260.324L259.004 15.44C259.004 14.6 258.811 13.9533 258.424 13.5C258.051 13.0467 257.518 12.82 256.824 12.82C256.318 12.82 255.878 12.94 255.504 13.18C255.144 13.42 254.871 13.78 254.684 14.26C254.498 14.7267 254.404 15.32 254.404 16.04C254.404 16.7467 254.504 17.3333 254.704 17.8C254.918 18.2533 255.211 18.5933 255.584 18.82C255.971 19.0467 256.431 19.16 256.964 19.16C257.551 19.16 258.024 19.0467 258.384 18.82C258.744 18.5933 259.024 18.28 259.224 17.88L261.404 18.72C261.191 19.24 260.864 19.6867 260.424 20.06C259.998 20.4333 259.484 20.72 258.884 20.92C258.298 21.1067 257.664 21.2 256.984 21.2Z" fill="#292929"/>
<path d="M323.169 60.537H336.307V63.4888C334.984 64.7954 333.936 66.1422 333.161 67.5294C332.403 68.9005 331.863 70.328 331.54 71.812C331.234 73.296 331.081 74.8606 331.081 76.5059H326.967C326.967 74.7477 327.185 73.0782 327.621 71.4974C328.072 69.9006 328.766 68.3763 329.702 66.9245C330.653 65.4728 331.879 64.0695 333.379 62.7146L334.25 63.8033H323.169V60.537ZM341.712 76.5059V67.3117C341.712 66.8923 341.712 66.4648 341.712 66.0293C341.728 65.5777 341.736 65.118 341.736 64.6502C341.204 65.1341 340.615 65.5615 339.97 65.9325C339.325 66.2874 338.647 66.5293 337.938 66.6584L337.55 63.2227C337.97 63.1904 338.413 63.0856 338.881 62.9081C339.365 62.7307 339.841 62.5129 340.309 62.2548C340.776 61.9968 341.196 61.7226 341.567 61.4322C341.938 61.1257 342.22 60.8273 342.414 60.537H345.728V76.5059H341.712ZM351.745 76.5059L362.851 60.5128H365.996L354.89 76.5059H351.745ZM352.737 60.295C353.656 60.295 354.447 60.4886 355.108 60.8757C355.786 61.2467 356.31 61.7709 356.681 62.4484C357.052 63.1259 357.237 63.9243 357.237 64.8437C357.237 65.7632 357.052 66.5616 356.681 67.2391C356.31 67.9165 355.786 68.4488 355.108 68.836C354.447 69.207 353.656 69.3925 352.737 69.3925C351.834 69.3925 351.043 69.207 350.366 68.836C349.704 68.4488 349.18 67.9165 348.793 67.2391C348.422 66.5616 348.237 65.7632 348.237 64.8437C348.237 63.9243 348.422 63.1259 348.793 62.4484C349.18 61.7709 349.704 61.2467 350.366 60.8757C351.043 60.4886 351.834 60.295 352.737 60.295ZM352.737 63.0533C352.43 63.0533 352.172 63.1259 351.963 63.2711C351.753 63.4001 351.592 63.6017 351.479 63.8759C351.366 64.134 351.309 64.4566 351.309 64.8437C351.309 65.2147 351.366 65.5373 351.479 65.8116C351.592 66.0858 351.753 66.2955 351.963 66.4406C352.172 66.5697 352.43 66.6342 352.737 66.6342C353.06 66.6342 353.326 66.5697 353.535 66.4406C353.745 66.2955 353.906 66.0858 354.019 65.8116C354.132 65.5373 354.189 65.2147 354.189 64.8437C354.189 64.4566 354.132 64.134 354.019 63.8759C353.906 63.6017 353.745 63.4001 353.535 63.2711C353.326 63.1259 353.06 63.0533 352.737 63.0533ZM364.956 67.6504C365.859 67.6504 366.649 67.844 367.327 68.2311C368.004 68.6021 368.528 69.1263 368.899 69.8038C369.27 70.4812 369.456 71.2797 369.456 72.1991C369.456 73.1185 369.27 73.917 368.899 74.5944C368.528 75.2719 368.004 75.8042 367.327 76.1913C366.649 76.5623 365.859 76.7478 364.956 76.7478C364.052 76.7478 363.262 76.5623 362.584 76.1913C361.907 75.8042 361.383 75.2719 361.012 74.5944C360.641 73.917 360.455 73.1185 360.455 72.1991C360.455 71.2797 360.641 70.4812 361.012 69.8038C361.383 69.1263 361.907 68.6021 362.584 68.2311C363.262 67.844 364.052 67.6504 364.956 67.6504ZM364.956 70.4087C364.649 70.4087 364.383 70.4812 364.157 70.6264C363.947 70.7555 363.786 70.9571 363.673 71.2313C363.56 71.4894 363.504 71.812 363.504 72.1991C363.504 72.5701 363.56 72.8927 363.673 73.1669C363.786 73.4411 363.947 73.6508 364.157 73.796C364.383 73.925 364.649 73.9896 364.956 73.9896C365.278 73.9896 365.544 73.925 365.754 73.796C365.964 73.6508 366.125 73.4411 366.238 73.1669C366.351 72.8927 366.407 72.5701 366.407 72.1991C366.407 71.812 366.351 71.4894 366.238 71.2313C366.125 70.9571 365.964 70.7555 365.754 70.6264C365.544 70.4812 365.278 70.4087 364.956 70.4087ZM382.318 77.4253L382.343 77.3527C382.343 77.1914 382.205 77.1027 381.931 77.0865C381.592 76.8769 381.286 76.6026 381.012 76.2639C380.754 75.9252 380.576 75.6268 380.479 75.3687C380.367 75.1106 380.31 74.9735 380.31 74.9574C380.31 74.909 380.334 74.8686 380.383 74.8364C380.447 74.8041 380.52 74.7638 380.6 74.7154C380.697 74.6348 380.802 74.5944 380.915 74.5944C380.98 74.5944 381.036 74.6348 381.084 74.7154C381.149 74.7799 381.23 74.9009 381.326 75.0783C381.52 75.4171 381.851 75.6913 382.318 75.901C382.786 76.0945 383.318 76.1913 383.915 76.1913C384.641 76.1913 385.319 76.0461 385.948 75.7558C386.367 75.5784 386.673 75.409 386.867 75.2477C387.061 75.0703 387.157 74.8767 387.157 74.667C387.157 74.4735 387.069 74.2396 386.891 73.9654C386.843 73.8363 386.77 73.7234 386.673 73.6266C386.593 73.5137 386.472 73.3847 386.311 73.2395C386.214 73.1588 386.028 72.9814 385.754 72.7072C385.496 72.6104 385.23 72.4814 384.956 72.3201L384.447 72.0781C384.012 71.8846 383.504 71.5539 382.923 71.0861C382.359 70.6022 381.98 70.1828 381.786 69.828C381.56 69.6183 381.383 69.3279 381.254 68.9569C381.125 68.5859 381.06 68.1827 381.06 67.7472C381.06 67.1665 381.181 66.6342 381.423 66.1503C381.617 65.7148 382.044 65.1099 382.705 64.3356C383.367 63.5614 383.875 63.0533 384.23 62.8113L384.859 62.2065C384.875 62.1419 384.899 62.1097 384.931 62.1097C384.964 62.0935 384.988 62.0855 385.004 62.0855C385.052 62.0532 385.222 61.9806 385.512 61.8677C385.802 61.7387 386.109 61.5209 386.432 61.2145C387.528 60.6822 388.407 60.3031 389.069 60.0773C389.746 59.8353 390.303 59.7143 390.738 59.7143C391.351 59.7466 391.867 59.9402 392.287 60.295C392.722 60.6338 392.98 61.0854 393.061 61.65C393.093 61.7467 393.109 61.8919 393.109 62.0855C393.109 62.6662 392.9 63.2952 392.48 63.9727C392.061 64.6341 391.585 65.118 391.053 65.4244C390.65 65.6019 390.367 65.6906 390.206 65.6906C390.093 65.6906 390.012 65.6503 389.964 65.5696C389.932 65.489 389.924 65.3599 389.94 65.1825C389.94 65.0373 389.988 64.876 390.085 64.6986C390.198 64.505 390.44 64.1985 390.811 63.7792C391.472 62.8275 391.803 62.1177 391.803 61.65C391.803 61.3758 391.682 61.2306 391.44 61.2145C391.262 61.1661 390.811 61.2064 390.085 61.3354C389.375 61.4645 389.02 61.5693 389.02 61.65C389.02 61.6661 389.012 61.6984 388.996 61.7467C388.996 61.779 388.972 61.7871 388.924 61.7709C388.859 61.7548 388.262 62.0935 387.133 62.7871C386.004 63.4646 385.423 63.8437 385.391 63.9243C385.375 64.005 385.31 64.0937 385.198 64.1905C385.101 64.2711 384.98 64.3437 384.835 64.4082C384.528 64.5857 384.246 64.8437 383.988 65.1825C383.73 65.5212 383.423 66.0051 383.068 66.6342C382.875 66.9084 382.714 67.2068 382.584 67.5294C382.472 67.852 382.415 68.1424 382.415 68.4004C382.415 68.5779 382.439 68.7311 382.488 68.8602C382.568 69.1344 382.818 69.4731 383.238 69.8764C383.657 70.2635 384.181 70.6425 384.81 71.0135C385.633 71.4813 386.319 71.941 386.867 72.3927C387.432 72.8282 387.786 73.1992 387.932 73.5056C388.303 74.0218 388.488 74.5944 388.488 75.2235C388.488 75.4493 388.464 75.659 388.416 75.8526C388.286 76.1268 388.085 76.3929 387.811 76.651C387.536 76.9252 387.303 77.0543 387.109 77.0382C386.948 77.0865 386.811 77.143 386.698 77.2075C386.585 77.2882 386.488 77.3446 386.407 77.3769C386.23 77.4898 385.802 77.5785 385.125 77.643C384.464 77.7237 383.851 77.7479 383.286 77.7156L382.318 77.4253ZM394.413 65.9083C394.3 65.7954 394.203 65.6019 394.122 65.3276C394.042 65.0534 394.042 64.9163 394.122 64.9163C394.251 64.9002 394.396 64.7631 394.558 64.505C394.735 64.2308 394.816 64.005 394.8 63.8275C394.8 63.763 394.824 63.7066 394.872 63.6582C394.921 63.5937 394.977 63.5533 395.042 63.5372C395.171 63.4565 395.284 63.4162 395.38 63.4162C395.655 63.4162 395.905 63.6098 396.13 63.9969C396.227 64.2066 396.276 64.3921 396.276 64.5534C396.276 64.6986 396.235 64.8518 396.155 65.0131C396.074 65.1583 395.929 65.3518 395.719 65.5938C395.445 65.9648 395.187 66.1503 394.945 66.1503C394.784 66.1503 394.606 66.0696 394.413 65.9083ZM392.066 75.7316C391.84 75.5058 391.727 75.1832 391.727 74.7638C391.727 74.538 391.767 74.3444 391.848 74.1831C391.848 74.1025 391.864 74.0057 391.896 73.8928C391.928 73.7799 391.945 73.7073 391.945 73.675C391.928 73.5782 391.993 73.3121 392.138 72.8766C392.429 72.2314 392.816 71.0942 393.3 69.465C393.3 69.3844 393.332 69.3199 393.396 69.2715C393.461 69.207 393.558 69.1666 393.687 69.1505C393.816 69.1182 393.904 69.1021 393.953 69.1021C394.05 69.1021 394.13 69.1424 394.195 69.2231C394.275 69.2876 394.38 69.4166 394.509 69.6102C394.606 69.707 394.654 69.8522 394.654 70.0457C394.654 70.3522 394.55 70.7232 394.34 71.1587C394.13 71.6265 393.993 72.0297 393.929 72.3685C393.735 72.804 393.582 73.2072 393.469 73.5782C393.437 73.675 393.388 73.8686 393.324 74.1589C393.259 74.4493 393.171 74.6831 393.058 74.8606C392.961 75.3122 392.872 75.6268 392.791 75.8042C392.711 75.9816 392.622 76.0703 392.525 76.0703C392.412 76.0703 392.259 75.9574 392.066 75.7316ZM407.224 75.4897C406.999 75.409 406.781 75.2154 406.571 74.909C406.378 74.5864 406.281 74.0702 406.281 73.3605L406.305 72.2475C406.305 72.0539 406.289 71.9168 406.257 71.8362C406.241 71.7555 406.2 71.7152 406.136 71.7152C405.926 71.7152 405.474 71.9894 404.781 72.5378C404.103 73.0863 403.418 73.7395 402.724 74.4977C402.644 74.5783 402.531 74.6993 402.385 74.8606C402.256 75.0058 402.135 75.1187 402.023 75.1993C401.91 75.2638 401.805 75.2961 401.708 75.2961C401.563 75.2961 401.426 75.2396 401.297 75.1267L401.031 74.909C400.918 74.8122 400.861 74.6993 400.861 74.5702L400.91 74.3525L401.466 72.7556C401.821 71.933 402.031 71.4168 402.095 71.2071C402.16 70.9813 402.152 70.8764 402.071 70.8926C401.926 70.9087 401.724 70.9893 401.466 71.1345C401.208 71.2636 401.047 71.3926 400.982 71.5216C400.95 71.5216 400.845 71.6104 400.668 71.7878C400.49 71.9491 400.337 72.0701 400.208 72.1507C400.063 72.3604 399.708 72.7395 399.143 73.2879L398.563 73.8444C398.321 74.0379 397.982 74.4331 397.546 75.0299C397.321 75.3203 397.192 75.4655 397.159 75.4655C396.659 75.4655 396.345 75.2235 396.216 74.7396C396.151 74.6267 396.119 74.4735 396.119 74.2799C396.119 74.0218 396.216 73.4895 396.409 72.683C396.554 72.1346 396.635 71.7958 396.651 71.6668L396.772 71.1829C396.804 70.9732 396.877 70.7232 396.99 70.4328C397.103 70.1425 397.296 69.6828 397.571 69.0537C397.732 68.6021 397.813 68.2633 397.813 68.0375C397.813 67.8278 397.885 67.6665 398.03 67.5536C398.175 67.4246 398.337 67.3601 398.514 67.3601C398.74 67.3601 398.934 67.4488 399.095 67.6262C399.256 67.8036 399.337 68.0375 399.337 68.3279C399.337 68.6021 399.272 68.8844 399.143 69.1747L398.877 69.828C398.748 70.086 398.579 70.5054 398.369 71.0861C398.175 71.6507 398.079 71.9652 398.079 72.0297C398.095 72.0781 398.151 72.0701 398.248 72.0055C398.345 71.9249 398.458 71.8281 398.587 71.7152C398.732 71.57 398.901 71.4249 399.095 71.2797C399.579 70.828 400.151 70.3925 400.813 69.9731C401.49 69.5538 402.006 69.2876 402.361 69.1747C402.571 69.1747 402.724 69.207 402.821 69.2715C402.934 69.3199 403.055 69.4166 403.184 69.5618C403.313 69.6909 403.41 69.7876 403.474 69.8522C403.619 69.9973 403.692 70.207 403.692 70.4812C403.692 70.5619 403.676 70.6667 403.644 70.7958C403.579 71.0216 403.49 71.2958 403.377 71.6184C403.281 71.941 403.208 72.1749 403.16 72.3201C403.273 72.2233 403.474 72.0539 403.765 71.812C404.055 71.57 404.321 71.3442 404.563 71.1345C405.37 70.5054 406.007 70.1909 406.474 70.1909C406.813 70.1909 407.104 70.3683 407.345 70.7232C407.491 70.8684 407.579 71.0216 407.612 71.1829C407.644 71.3281 407.66 71.5297 407.66 71.7878C407.66 72.0459 407.66 72.2475 407.66 72.3927C407.676 72.5056 407.684 72.6991 407.684 72.9734C407.7 73.1024 407.716 73.3524 407.733 73.7234C407.765 74.0944 407.805 74.3041 407.854 74.3525C407.934 74.4493 408.208 74.538 408.676 74.6186C408.967 74.667 409.112 74.7961 409.112 75.0058C409.112 75.1509 409.007 75.2961 408.797 75.4413C408.587 75.5703 408.329 75.6348 408.023 75.6348C407.733 75.6348 407.466 75.5864 407.224 75.4897Z" fill="black"/>
<path d="M11.7437 70.3867V67.7252C13.1148 66.8703 14.2842 66.0719 15.252 65.3299C16.2198 64.5879 17.0021 63.8863 17.599 63.2249C18.2119 62.5636 18.6636 61.9345 18.9539 61.3377C19.2442 60.7409 19.3894 60.1602 19.3894 59.5956C19.3894 58.9827 19.2039 58.4746 18.8329 58.0713C18.4781 57.6519 17.9458 57.4423 17.236 57.4423C16.4779 57.4423 15.8892 57.7245 15.4698 58.2891C15.0504 58.8375 14.8246 59.644 14.7923 60.7086L11.2356 59.6198C11.2679 58.4262 11.5501 57.4261 12.0824 56.6196C12.6309 55.8131 13.3729 55.2082 14.3084 54.805C15.244 54.3856 16.3085 54.1759 17.5022 54.1759C18.5506 54.1759 19.4539 54.3291 20.212 54.6356C20.9863 54.9259 21.6154 55.3211 22.0993 55.8212C22.5832 56.3051 22.938 56.8535 23.1639 57.4664C23.4058 58.0633 23.5268 58.6762 23.5268 59.3053C23.5268 60.3376 23.2607 61.3054 22.7284 62.2087C22.1961 63.0959 21.4218 63.9588 20.4056 64.7976C19.4055 65.6203 18.1877 66.451 16.7521 67.2897V67.3139C17.0263 67.2978 17.3489 67.2817 17.7199 67.2655C18.0909 67.2494 18.4781 67.2413 18.8813 67.2413C19.2846 67.2252 19.6475 67.2171 19.9701 67.2171H23.7204V70.3867H11.7437ZM31.7944 54.1759C33.2622 54.1759 34.4881 54.4904 35.4721 55.1195C36.4721 55.7325 37.2222 56.6438 37.7222 57.8536C38.2223 59.0633 38.4723 60.5634 38.4723 62.3539C38.4723 64.2895 38.1819 65.8703 37.6013 67.0962C37.0367 68.3059 36.2544 69.2012 35.2543 69.7818C34.2542 70.3464 33.1009 70.6287 31.7944 70.6287C30.4072 70.6287 29.1974 70.3545 28.1651 69.806C27.1489 69.2415 26.3908 68.3543 25.8908 67.1446L29.6168 65.6686C29.7459 66.2332 29.9878 66.6768 30.3427 66.9994C30.7137 67.322 31.2218 67.4833 31.867 67.4833C32.367 67.4833 32.8025 67.3865 33.1735 67.1929C33.5445 66.9833 33.8429 66.6848 34.0688 66.2977C34.3107 65.9106 34.4881 65.4428 34.601 64.8944C34.714 64.3298 34.7704 63.6846 34.7704 62.9588C34.7704 62.8943 34.7704 62.8378 34.7704 62.7894C34.7704 62.7249 34.7704 62.6523 34.7704 62.5716H34.6978C34.5204 63.0556 34.2301 63.4507 33.8268 63.7572C33.4235 64.0637 32.9638 64.2976 32.4477 64.4589C31.9315 64.6041 31.3992 64.6766 30.8508 64.6766C29.8507 64.6766 28.9555 64.475 28.1651 64.0718C27.3909 63.6524 26.786 63.0717 26.3505 62.3297C25.9149 61.5716 25.6972 60.6925 25.6972 59.6924C25.6972 58.5472 25.9472 57.5713 26.4472 56.7648C26.9634 55.9421 27.6731 55.305 28.5764 54.8534C29.4958 54.4017 30.5685 54.1759 31.7944 54.1759ZM31.7944 57.3697C31.1008 57.3697 30.5443 57.5632 30.1249 57.9504C29.7217 58.3375 29.52 58.8859 29.52 59.5956C29.52 60.2408 29.7297 60.7489 30.1491 61.1199C30.5685 61.4748 31.1169 61.6522 31.7944 61.6522C32.2299 61.6522 32.617 61.5635 32.9558 61.3861C33.3106 61.2086 33.5848 60.9667 33.7784 60.6602C33.972 60.3376 34.0688 59.9586 34.0688 59.523C34.0688 59.0714 33.972 58.6923 33.7784 58.3859C33.5848 58.0633 33.3106 57.8132 32.9558 57.6358C32.617 57.4584 32.2299 57.3697 31.7944 57.3697ZM43.8487 70.3867L54.9544 54.3937H58.0998L46.9941 70.3867H43.8487ZM44.8407 54.1759C45.7602 54.1759 46.5505 54.3695 47.2119 54.7566C47.8894 55.1276 48.4136 55.6518 48.7846 56.3293C49.1556 57.0067 49.3411 57.8052 49.3411 58.7246C49.3411 59.644 49.1556 60.4425 48.7846 61.1199C48.4136 61.7974 47.8894 62.3297 47.2119 62.7168C46.5505 63.0878 45.7602 63.2733 44.8407 63.2733C43.9375 63.2733 43.1471 63.0878 42.4696 62.7168C41.8083 62.3297 41.284 61.7974 40.8969 61.1199C40.5259 60.4425 40.3404 59.644 40.3404 58.7246C40.3404 57.8052 40.5259 57.0067 40.8969 56.3293C41.284 55.6518 41.8083 55.1276 42.4696 54.7566C43.1471 54.3695 43.9375 54.1759 44.8407 54.1759ZM44.8407 56.9342C44.5343 56.9342 44.2762 57.0067 44.0665 57.1519C43.8568 57.281 43.6955 57.4826 43.5826 57.7568C43.4697 58.0149 43.4132 58.3375 43.4132 58.7246C43.4132 59.0956 43.4697 59.4182 43.5826 59.6924C43.6955 59.9666 43.8568 60.1763 44.0665 60.3215C44.2762 60.4505 44.5343 60.5151 44.8407 60.5151C45.1634 60.5151 45.4295 60.4505 45.6392 60.3215C45.8489 60.1763 46.0102 59.9666 46.1231 59.6924C46.236 59.4182 46.2925 59.0956 46.2925 58.7246C46.2925 58.3375 46.236 58.0149 46.1231 57.7568C46.0102 57.4826 45.8489 57.281 45.6392 57.1519C45.4295 57.0067 45.1634 56.9342 44.8407 56.9342ZM57.0594 61.5313C57.9626 61.5313 58.753 61.7248 59.4305 62.1119C60.108 62.4829 60.6322 63.0072 61.0032 63.6846C61.3742 64.3621 61.5597 65.1605 61.5597 66.08C61.5597 66.9994 61.3742 67.7978 61.0032 68.4753C60.6322 69.1528 60.108 69.6851 59.4305 70.0722C58.753 70.4432 57.9626 70.6287 57.0594 70.6287C56.1561 70.6287 55.3657 70.4432 54.6882 70.0722C54.0108 69.6851 53.4865 69.1528 53.1155 68.4753C52.7445 67.7978 52.559 66.9994 52.559 66.08C52.559 65.1605 52.7445 64.3621 53.1155 63.6846C53.4865 63.0072 54.0108 62.4829 54.6882 62.1119C55.3657 61.7248 56.1561 61.5313 57.0594 61.5313ZM57.0594 64.2895C56.7529 64.2895 56.4867 64.3621 56.2609 64.5073C56.0512 64.6363 55.8899 64.8379 55.777 65.1122C55.6641 65.3702 55.6076 65.6928 55.6076 66.08C55.6076 66.451 55.6641 66.7736 55.777 67.0478C55.8899 67.322 56.0512 67.5317 56.2609 67.6768C56.4867 67.8059 56.7529 67.8704 57.0594 67.8704C57.382 67.8704 57.6481 67.8059 57.8578 67.6768C58.0675 67.5317 58.2288 67.322 58.3417 67.0478C58.4546 66.7736 58.5111 66.451 58.5111 66.08C58.5111 65.6928 58.4546 65.3702 58.3417 65.1122C58.2288 64.8379 58.0675 64.6363 57.8578 64.5073C57.6481 64.3621 57.382 64.2895 57.0594 64.2895ZM71.5913 71.8868C71.3493 71.6449 71.2283 71.4271 71.2283 71.2336C71.2283 71.1206 71.2525 70.9593 71.3009 70.7496C71.3654 70.5561 71.4138 70.4028 71.4461 70.2899C71.5913 69.7254 71.7848 69.185 72.0268 68.6689C72.1558 68.3624 72.2849 68.0236 72.4139 67.6527C72.5429 67.2817 72.6478 66.8784 72.7284 66.4429C73.051 65.7009 73.3333 64.9831 73.5753 64.2895C73.8333 63.5798 73.9946 63.1281 74.0592 62.9346C74.0753 62.8539 74.2527 62.4587 74.5915 61.749C74.8657 61.2167 75.1157 60.7086 75.3415 60.2247C75.4222 59.9989 75.6238 59.4021 75.9464 58.4343C76.1722 57.7084 76.3738 57.1277 76.5513 56.6922C76.7287 56.2567 76.9545 55.8212 77.2287 55.3857C77.5191 54.9018 77.8659 54.6598 78.2691 54.6598C78.4627 54.6598 78.6321 54.7243 78.7772 54.8534C78.9385 54.9663 79.0595 55.1437 79.1402 55.3857C79.2692 55.6921 79.366 56.0712 79.4305 56.5228C79.5112 56.9583 79.5676 57.7003 79.5999 58.7488C79.616 59.0714 79.6241 59.5472 79.6241 60.1763V62.4749C79.6241 63.2975 79.6402 63.975 79.6725 64.5073C79.7047 65.0396 79.7773 65.4993 79.8902 65.8864C80.0193 66.6284 80.1967 67.4349 80.4225 68.3059C80.6483 69.1608 80.8258 69.5883 80.9548 69.5883C81.1484 69.5883 81.471 69.0157 81.9226 67.8704C82.3743 66.709 82.9469 64.725 83.6405 61.9184C83.7373 61.5958 83.8502 61.128 83.9792 60.5151C84.1083 59.9021 84.205 59.3053 84.2696 58.7246C84.447 58.0633 84.6164 57.3777 84.7777 56.668C84.9551 55.9421 85.0438 55.547 85.0438 55.4824C85.0438 55.4018 85.0438 55.3211 85.0438 55.2405C85.0599 55.1598 85.0599 55.0631 85.0438 54.9501C85.1083 54.9501 85.1729 54.8453 85.2374 54.6356C85.318 54.4259 85.3584 54.2323 85.3584 54.0549C85.3584 53.5871 85.4713 53.2403 85.6971 53.0145C85.7455 52.9016 85.8665 52.8452 86.06 52.8452C86.2536 52.8452 86.4391 52.9016 86.6165 53.0145C86.8101 53.1113 86.9391 53.2323 87.0036 53.3775C87.052 53.7162 86.8262 54.9501 86.3262 57.0793C86.3262 57.2729 86.2133 57.8536 85.9874 58.8214C85.8423 59.3698 85.7294 59.894 85.6487 60.3941C85.5842 60.8619 85.5035 61.2651 85.4067 61.6038C85.3261 61.9426 85.2535 62.1039 85.189 62.0877C84.5277 64.9267 83.6808 67.5236 82.6485 69.8786C82.1807 70.9916 81.6645 71.5481 81.1 71.5481C80.7129 71.5481 80.3177 71.29 79.9144 70.7738C79.4789 70.2093 79.1724 69.6367 78.995 69.056C78.8337 68.4753 78.6159 67.4591 78.3417 66.0074C78.0675 65.2493 77.9304 64.3702 77.9304 63.3701C77.9304 62.7894 77.9707 62.1119 78.0514 61.3377L78.1482 59.6682C78.132 59.023 78.1078 58.5794 78.0756 58.3375C78.0595 58.0794 78.0191 57.9504 77.9546 57.9504C77.8901 57.9504 77.7933 58.0955 77.6643 58.3859C77.5352 58.6762 77.3497 59.1682 77.1078 59.8618C76.8497 60.507 76.4948 61.3619 76.0432 62.4265L75.4141 63.975C75.1238 64.5557 74.906 65.1444 74.7608 65.7412C74.0834 67.4994 73.5188 69.1124 73.0672 70.5803L72.8494 71.2577C72.6075 71.903 72.3736 72.2256 72.1477 72.2256C71.9864 72.2256 71.8009 72.1126 71.5913 71.8868ZM86.3173 69.5157C86.2689 69.4189 86.1882 69.3221 86.0753 69.2253C85.9786 69.1124 85.9302 69.0398 85.9302 69.0076C85.9302 68.8302 85.8898 68.6931 85.8092 68.5963C85.7769 68.564 85.7608 68.4914 85.7608 68.3785C85.7608 68.1204 85.8818 67.6849 86.1237 67.072C86.3818 66.4429 86.7125 65.7654 87.1157 65.0396C87.2125 64.9428 87.3335 64.7734 87.4787 64.5315C87.64 64.2895 87.7448 64.1524 87.7932 64.1201C87.7932 64.0556 87.8174 63.9992 87.8658 63.9508C87.9142 63.8863 87.9706 63.854 88.0352 63.854V63.7088C88.0352 63.5637 88.3013 63.2169 88.8336 62.6684C89.3659 62.1039 89.8014 61.7168 90.1401 61.5071C90.5434 61.2328 90.9547 61.0957 91.3741 61.0957C91.6644 61.0957 91.9145 61.1764 92.1241 61.3377C92.2048 61.4345 92.5758 61.7813 93.2371 62.3781L94.1324 63.1765L93.6968 64.3863C93.5517 64.8218 93.4791 65.217 93.4791 65.5719C93.4791 66.1848 93.6565 66.7736 94.0114 67.3381C94.092 67.5155 94.2533 67.6849 94.4953 67.8462C94.7372 68.0075 94.9792 68.1043 95.2211 68.1366C95.576 68.2011 95.7534 68.3785 95.7534 68.6689C95.7534 68.9915 95.6083 69.185 95.3179 69.2495C95.2534 69.2657 95.1566 69.2737 95.0276 69.2737C94.0759 69.2737 93.2533 68.6043 92.5597 67.2655C92.4951 67.1687 92.4064 66.9913 92.2935 66.7332C92.1967 66.4752 92.1403 66.2977 92.1241 66.2009C92.0274 66.33 91.9064 66.4832 91.7612 66.6606C91.616 66.8381 91.4789 66.9913 91.3499 67.1204C89.5917 68.8785 88.2045 69.7576 87.1883 69.7576C86.8657 69.7576 86.5754 69.677 86.3173 69.5157ZM87.1883 68.1608C87.1883 68.2414 87.269 68.2656 87.4303 68.2333C87.6077 68.2011 87.8174 68.1204 88.0593 67.9914C88.3174 67.8623 88.5755 67.693 88.8336 67.4833C90.2208 66.2897 91.2209 65.2493 91.8338 64.3621L92.3661 63.4911C92.2048 63.1523 92.0354 62.9104 91.858 62.7652C91.6806 62.6039 91.5193 62.5233 91.3741 62.5233C91.0354 62.5233 90.5031 62.9507 89.7772 63.8056C89.0514 64.6444 88.39 65.6364 87.7932 66.7816C87.648 67.0558 87.519 67.3381 87.4061 67.6285C87.2932 67.9027 87.2206 68.0801 87.1883 68.1608ZM94.1566 60.007C93.8985 60.007 93.6807 59.9666 93.5033 59.886C93.3258 59.8053 93.1484 59.7085 92.971 59.5956C92.8097 59.4666 92.6887 59.3779 92.6081 59.3295C92.5435 59.2972 92.4306 59.2085 92.2693 59.0633C92.108 58.902 91.9467 58.7649 91.7854 58.652C91.6241 58.5391 91.487 58.4827 91.3741 58.4827C91.2612 58.4827 91.1644 58.5149 91.0838 58.5794C91.0031 58.644 90.9063 58.7488 90.7934 58.894C90.7289 58.9908 90.6482 59.0875 90.5515 59.1843C90.4708 59.265 90.374 59.3134 90.2611 59.3295C90.245 59.4263 90.1966 59.5311 90.1159 59.644C90.0353 59.7569 89.9788 59.7731 89.9466 59.6924C89.8014 59.644 89.6804 59.5714 89.5836 59.4747C89.4869 59.3617 89.4465 59.2569 89.4627 59.1601C89.4788 58.9504 89.6159 58.6681 89.874 58.3133C90.1321 57.9584 90.5031 57.66 90.987 57.4181C91.116 57.3858 91.2289 57.3697 91.3257 57.3697C91.5515 57.3697 91.7854 57.4181 92.0274 57.5148C92.2855 57.5955 92.5113 57.7245 92.7048 57.902C92.8016 57.9987 92.9387 58.1359 93.1162 58.3133C93.3097 58.4746 93.463 58.5956 93.5759 58.6762C93.7049 58.7407 93.8259 58.773 93.9388 58.773C93.9872 58.773 94.1082 58.7407 94.3017 58.6762C94.4792 58.6278 94.7614 58.4988 95.1486 58.2891C95.4712 58.0794 95.7615 57.9262 96.0196 57.8294C96.1809 57.7649 96.3261 57.8052 96.4551 57.9504C96.5841 58.0955 96.6325 58.2488 96.6003 58.4101C96.6003 58.4907 96.5438 58.6117 96.4309 58.773C96.318 58.9343 96.197 59.0472 96.068 59.1117C95.3905 59.4989 94.9308 59.7489 94.6888 59.8618C94.4469 59.9586 94.2695 60.007 94.1566 60.007ZM98.3792 70.0238C98.1856 70.0238 98.0324 69.9915 97.9195 69.927C97.8066 69.8625 97.6453 69.7415 97.4356 69.5641C96.9033 68.9995 96.6371 68.4834 96.6371 68.0156C96.6371 67.9027 96.6452 67.822 96.6613 67.7736C96.7097 67.6607 96.7258 67.5478 96.7097 67.4349C96.7097 67.322 96.7097 67.2494 96.7097 67.2171C96.6452 67.1526 96.6129 67.1123 96.6129 67.0962C96.6129 67.0639 96.6291 67.0397 96.6613 67.0236C96.6936 66.9913 96.7178 66.9591 96.7339 66.9268C96.8307 66.9268 96.863 66.8381 96.8307 66.6606C96.7984 66.5316 96.863 66.2493 97.0243 65.8138C97.1856 65.3622 97.3872 64.9508 97.6291 64.5799C97.8066 64.2895 98.0647 63.9266 98.4034 63.4911C98.7582 63.0556 99.0728 62.7249 99.347 62.4991C99.7341 62.1603 100.081 61.9103 100.387 61.749C100.694 61.5877 101.033 61.4667 101.404 61.3861C101.726 61.3054 101.944 61.2651 102.057 61.2651C102.17 61.2651 102.267 61.2974 102.347 61.3619C102.444 61.4103 102.565 61.5071 102.71 61.6522C103.146 61.8458 103.444 62.0958 103.605 62.4023C103.783 62.6926 103.872 63.1523 103.872 63.7814C103.872 64.8299 103.444 65.9671 102.589 67.1929C102.218 67.7252 101.871 68.1366 101.549 68.4269C101.226 68.7011 100.799 68.9995 100.266 69.3221C99.9277 69.5641 99.6131 69.7415 99.3228 69.8544C99.0486 69.9512 98.7341 70.0077 98.3792 70.0238ZM100.702 67.4591C101.089 67.0236 101.396 66.6123 101.621 66.2251C101.863 65.838 102.089 65.346 102.299 64.7492C102.379 64.475 102.42 64.1443 102.42 63.7572C102.42 63.2733 102.355 62.9991 102.226 62.9346C102.065 62.8539 101.904 62.8136 101.742 62.8136C101.387 62.8136 101.016 62.9749 100.629 63.2975C100.162 63.7008 99.7422 64.2008 99.3712 64.7976C99.0002 65.3783 98.6211 66.1042 98.234 66.9752C98.0727 67.3139 97.9921 67.6446 97.9921 67.9672C97.9921 68.2091 98.0485 68.4027 98.1614 68.5479C98.2905 68.6931 98.4598 68.7656 98.6695 68.7656C99.2018 68.7656 99.8793 68.3301 100.702 67.4591Z" fill="black"/>
<mask id="path-4-inside-1" fill="white">
<path d="M332.16 203.815C332.16 227.536 325.162 250.724 312.05 270.448C298.939 290.171 280.303 305.544 258.499 314.621C236.696 323.699 212.703 326.074 189.557 321.446C166.41 316.819 145.149 305.396 128.461 288.623C111.773 271.849 100.409 250.479 95.8045 227.213C91.2004 203.948 93.5634 179.833 102.595 157.917C111.626 136.002 126.92 117.271 146.543 104.092C166.166 90.913 189.236 83.8789 212.836 83.8789V91.4952C190.734 91.4952 169.129 98.0826 150.753 110.424C132.376 122.766 118.053 140.308 109.595 160.832C101.137 181.356 98.9245 203.94 103.236 225.727C107.548 247.515 118.191 267.529 133.819 283.237C149.447 298.945 169.358 309.643 191.035 313.977C212.712 318.31 235.18 316.086 255.599 307.585C276.019 299.084 293.471 284.687 305.75 266.216C318.029 247.746 324.583 226.03 324.583 203.815H332.16Z"/>
</mask>
<path d="M332.16 203.815C332.16 227.536 325.162 250.724 312.05 270.448C298.939 290.171 280.303 305.544 258.499 314.621C236.696 323.699 212.703 326.074 189.557 321.446C166.41 316.819 145.149 305.396 128.461 288.623C111.773 271.849 100.409 250.479 95.8045 227.213C91.2004 203.948 93.5634 179.833 102.595 157.917C111.626 136.002 126.92 117.271 146.543 104.092C166.166 90.913 189.236 83.8789 212.836 83.8789V91.4952C190.734 91.4952 169.129 98.0826 150.753 110.424C132.376 122.766 118.053 140.308 109.595 160.832C101.137 181.356 98.9245 203.94 103.236 225.727C107.548 247.515 118.191 267.529 133.819 283.237C149.447 298.945 169.358 309.643 191.035 313.977C212.712 318.31 235.18 316.086 255.599 307.585C276.019 299.084 293.471 284.687 305.75 266.216C318.029 247.746 324.583 226.03 324.583 203.815H332.16Z" stroke="#1E3844" stroke-width="17.1337" mask="url(#path-4-inside-1)"/>
<mask id="path-5-inside-2" fill="white">
<path d="M211.612 72.8625C237.391 72.8625 262.59 80.5426 284.024 94.9317C305.458 109.321 322.164 129.772 332.029 153.7C341.894 177.629 344.475 203.958 339.446 229.36C334.417 254.762 322.004 278.095 303.775 296.409C285.547 314.723 262.323 327.195 237.04 332.247C211.757 337.3 185.55 334.707 161.734 324.796C137.917 314.884 117.561 298.1 103.239 276.565C88.9177 255.031 81.2734 229.713 81.2734 203.813L116.146 203.813C116.146 222.783 121.745 241.327 132.235 257.1C142.725 272.873 157.635 285.167 175.079 292.426C192.523 299.686 211.718 301.585 230.237 297.884C248.755 294.183 265.766 285.048 279.117 271.635C292.468 258.221 301.56 241.131 305.244 222.525C308.927 203.919 307.037 184.634 299.811 167.108C292.586 149.582 280.349 134.603 264.65 124.063C248.951 113.524 230.493 107.899 211.612 107.899L211.612 72.8625Z"/>
</mask>
<path d="M211.612 72.8625C237.391 72.8625 262.59 80.5426 284.024 94.9317C305.458 109.321 322.164 129.772 332.029 153.7C341.894 177.629 344.475 203.958 339.446 229.36C334.417 254.762 322.004 278.095 303.775 296.409C285.547 314.723 262.323 327.195 237.04 332.247C211.757 337.3 185.55 334.707 161.734 324.796C137.917 314.884 117.561 298.1 103.239 276.565C88.9177 255.031 81.2734 229.713 81.2734 203.813L116.146 203.813C116.146 222.783 121.745 241.327 132.235 257.1C142.725 272.873 157.635 285.167 175.079 292.426C192.523 299.686 211.718 301.585 230.237 297.884C248.755 294.183 265.766 285.048 279.117 271.635C292.468 258.221 301.56 241.131 305.244 222.525C308.927 203.919 307.037 184.634 299.811 167.108C292.586 149.582 280.349 134.603 264.65 124.063C248.951 113.524 230.493 107.899 211.612 107.899L211.612 72.8625Z" stroke="#62A393" stroke-width="41.6105" mask="url(#path-5-inside-2)"/>
<path d="M32.3833 88.2773C32.3833 91.3651 32.3041 94.3985 33.3191 97.3631C35.0853 102.521 37.9942 107.227 41.313 111.518C51.2617 124.382 64.5505 134.968 79.7032 140.959C83.0136 142.268 86.4416 143.227 89.8028 144.391C90.7893 144.732 91.734 145.015 92.4739 145.755C92.9542 146.236 91.6342 146.427 91.1481 146.516C88.9438 146.916 86.5426 145.521 84.402 145.131C82.7718 144.835 81.2832 144.811 79.5667 144.702C78.694 144.647 72.0272 144.079 76.1157 144.079C81.0977 144.079 85.2862 146.049 90.1342 146.886C91.8088 147.175 93.5467 147.302 95.2035 147.666C96.0232 147.846 96.628 147.982 95.5545 147.237C92.5723 145.168 89.3823 143.461 86.6052 141.095C86.1348 140.695 83.8444 138.126 83.9731 138.19C84.8851 138.646 85.2156 139.668 85.9033 140.218C86.1924 140.449 82.8096 141.404 82.2183 141.7C81.3713 142.123 78.18 144.074 77.656 143.026" stroke="black" stroke-width="1.22384" stroke-linecap="round"/>
<path d="M385.835 86.0488C385.477 99.6407 380.12 111.694 371.395 122.093C366.483 127.946 360.175 130.857 352.906 132.713C348.959 133.721 345.131 134.517 341.445 136.192C340.223 136.748 342.853 135.238 343.06 135.192C344.204 134.937 347.001 130.439 346.039 130.439C344.991 130.439 344.321 132.728 343.856 133.327C342.477 135.099 341.059 136.525 339.194 137.807C337.099 139.247 329.511 140.49 332.053 140.49C333.284 140.49 334.76 139.307 335.987 138.944C337.876 138.384 340.091 138.612 342.036 138.125C344.732 137.451 347.194 137.215 349.973 137.215C350.83 137.215 348.516 136.313 347.767 135.897C346.834 135.378 346.653 134.316 346.13 133.531" stroke="black" stroke-width="1.22384" stroke-linecap="round"/>
</svg>
