<svg width="643" height="288" viewBox="0 0 643 288" fill="none" xmlns="http://www.w3.org/2000/svg">
<path d="M305.134 104.251L280.506 85.5577C279.995 85.1698 279.819 84.4808 280.081 83.8955L283.845 75.4985L289.03 64.4817L291.079 60.0904C291.195 59.8405 291.068 59.5449 290.807 59.4577C290.549 59.3717 290.421 59.0823 290.531 58.8335L293.728 51.6017L297.758 42.0831C298.101 41.272 299.107 40.9865 299.825 41.496L325.376 59.6195C325.91 59.9979 326.104 60.6991 325.841 61.2981L307.23 103.707C306.871 104.524 305.844 104.79 305.134 104.251Z" fill="#24306D"/>
<circle cx="290.325" cy="90.0793" r="1.2961" fill="#C6B6CE"/>
<path d="M304.851 97.2031L283.752 81.9652C283.237 81.593 283.042 80.9169 283.282 80.3281L285.646 74.5137L289.443 64.8237L291.407 60.4186L294.431 53.7235L297.939 45.6138C298.284 44.8147 299.275 44.5321 299.99 45.0286L322.424 60.6025C322.975 60.985 323.17 61.7085 322.888 62.3166L306.908 96.6669C306.543 97.4521 305.553 97.7101 304.851 97.2031Z" fill="#CFE7FE" fill-opacity="0.7"/>
<rect x="164.478" y="71.2852" width="15.7982" height="29.663" rx="1.37874" transform="rotate(27.0309 164.478 71.2852)" fill="#24306D"/>
<rect x="337.617" y="198.18" width="15.7982" height="29.663" rx="1.37874" transform="rotate(-149.356 337.617 198.18)" fill="#24306D"/>
<g clip-path="url(#clip0)">
<path fill-rule="evenodd" clip-rule="evenodd" d="M385.112 46.3298C382.126 42.8247 380.104 38.5291 380.442 33.7157C381.415 19.8472 400.721 22.8981 404.476 29.8978C408.231 36.8974 407.785 54.6526 402.932 55.9036C400.996 56.4026 396.873 55.1804 392.676 52.651L395.31 71.2861H379.757L385.112 46.3298Z" fill="#B28B67"/>
<path fill-rule="evenodd" clip-rule="evenodd" d="M411.365 20.1934C411.043 19.0613 410.177 18.092 409.009 17.8045C408.726 17.7347 408.434 17.7065 408.143 17.7183C408.038 17.7225 408.009 17.7526 407.96 17.6795C407.924 17.6253 407.923 17.493 407.908 17.4293C407.862 17.2313 407.804 17.0358 407.732 16.8454C407.488 16.1958 407.077 15.6209 406.582 15.1366C405.657 14.2306 404.406 13.6054 403.107 13.4923C402.395 13.4304 401.689 13.5459 401.017 13.7773C400.669 13.897 400.332 14.0462 400.003 14.211C399.904 14.2606 399.583 14.5037 399.483 14.488C399.374 14.4706 399.153 14.198 399.064 14.1295C397.961 13.2836 396.6 12.951 395.226 12.9612C393.676 12.9726 392.184 13.0501 390.891 13.995C390.617 14.1951 390.356 14.4142 390.108 14.6448C389.978 14.7662 389.851 14.8922 389.73 15.0234C389.657 15.1025 389.587 15.1835 389.518 15.2666C389.402 15.4077 389.421 15.454 389.259 15.3556C388.637 14.9776 387.916 14.8008 387.189 14.89C386.758 14.9431 386.339 15.0725 385.94 15.2429C385.805 15.301 385.491 15.5323 385.346 15.5346C385.203 15.5368 384.893 15.3223 384.745 15.2678C383.948 14.9732 383.088 14.9006 382.249 15.0367C381.384 15.1772 380.534 15.5223 379.801 15.9993C379.448 16.2287 379.141 16.4829 378.894 16.8241C378.787 16.9714 378.691 17.1272 378.57 17.2638C378.499 17.3437 378.359 17.4258 378.321 17.527C378.344 17.4664 377.375 17.0929 377.283 17.069C376.796 16.9418 376.3 16.9676 375.823 17.1245C374.927 17.4197 374.155 18.0816 373.521 18.7602C373.196 19.1087 372.911 19.494 372.669 19.9045C372.553 20.1011 372.447 20.3033 372.35 20.5099C372.303 20.6099 372.272 20.7351 372.21 20.8252C372.13 20.9414 372.077 20.9436 371.932 20.9942C371.198 21.2514 370.529 21.6866 370.02 22.2747C369.504 22.8697 369.17 23.6025 369.03 24.3741C369.021 24.4196 369.016 24.6079 368.99 24.6325C368.953 24.6664 368.806 24.6514 368.75 24.658C368.556 24.6807 368.365 24.7144 368.175 24.7593C367.826 24.8419 367.486 24.9635 367.164 25.1226C365.911 25.7427 365.015 26.9053 364.576 28.2135C364.116 29.5863 364.124 31.1592 364.674 32.5064C364.763 32.724 364.869 32.9352 364.993 33.1351C365.069 33.2577 365.094 33.258 365.044 33.3867C364.989 33.5299 364.888 33.669 364.823 33.8089C364.609 34.2654 364.459 34.7496 364.365 35.2441C364.21 36.0553 364.133 36.9078 364.286 37.7252C364.357 38.1048 364.481 38.4758 364.669 38.8138C364.766 38.9862 364.878 39.1496 365.005 39.3009C365.071 39.3794 365.141 39.4544 365.214 39.5262C365.256 39.5672 365.311 39.6032 365.347 39.649C365.434 39.7607 365.452 39.6689 365.407 39.833C365.345 40.0624 365.202 40.2888 365.115 40.512C365.026 40.7421 364.945 40.9753 364.87 41.2108C364.72 41.6878 364.593 42.1733 364.514 42.6672C364.361 43.6155 364.388 44.6258 364.837 45.4961C365.028 45.8684 365.303 46.1949 365.637 46.449C365.8 46.5732 365.977 46.6804 366.163 46.7683C366.258 46.8136 366.38 46.833 366.424 46.9252C366.47 47.0244 366.401 47.2213 366.385 47.3322C366.247 48.2966 366.178 49.3093 366.465 50.2544C366.729 51.125 367.31 51.8936 368.065 52.4024C369.529 53.3896 371.503 53.3339 373.042 52.5437C373.443 52.3376 373.818 52.0819 374.153 51.7802C375.005 52.9275 376.759 52.8912 378.005 52.5643C379.557 52.157 380.802 51.0779 381.52 49.66C382.501 50.8543 384.56 50.4668 385.24 49.1711C385.406 48.854 385.505 48.5045 385.554 48.1509C385.579 47.9649 385.563 47.7773 385.582 47.5928C385.607 47.3577 385.764 47.1293 385.854 46.9018C386.03 46.4592 386.139 46.002 386.144 45.5246C386.146 45.2753 386.115 45.0324 386.091 44.7851C386.07 44.5626 386.131 44.3552 386.166 44.1355C385.768 44.201 385.284 44.0937 384.909 43.9783C384.541 43.865 384.196 43.5667 383.936 43.2943C383.333 42.6617 382.965 41.8325 382.713 41.0071C382.16 39.1957 382.386 37.0223 384.208 36.0281C385.057 35.565 387.6 35.5665 388.611 35.7954C389.674 36.0361 390.879 38.3816 390.938 38.602C390.975 38.7384 390.956 38.9073 391.082 38.9982C391.357 39.1981 391.811 38.8512 392.015 38.68C392.365 38.3845 392.615 37.9914 392.832 37.5929C393.304 36.7247 393.684 35.7936 393.953 34.8431C394.16 34.1104 394.293 33.3547 394.564 32.6407C394.833 31.9301 395.258 31.295 395.918 30.8925C396.637 30.4546 397.461 30.224 398.249 29.9488C399.031 29.6761 399.8 29.3427 400.406 28.7641C400.539 28.6368 400.668 28.5016 400.776 28.3518C400.86 28.2335 400.944 28.0071 401.073 27.9321C401.274 27.8155 401.566 28.1188 401.74 28.229C402.595 28.7725 403.309 29.5304 403.885 30.3584C404.458 31.182 404.928 31.9744 405.309 32.8939C405.593 33.5759 405.769 34.4493 406.267 35.0083C406.49 35.2578 408.143 35.4088 408.678 35.1909C409.213 34.9731 409.813 34.4073 409.993 34.0527C410.177 33.6898 410.221 33.2912 410.142 32.8939C410.096 32.6602 410.002 32.4419 409.95 32.2123C409.907 32.0195 409.867 31.8372 409.773 31.6605C409.595 31.3258 409.292 31.0851 408.925 30.9845C409.306 30.6329 409.622 30.2122 409.841 29.7419C410.068 29.2533 410.261 28.6592 410.316 28.1229C410.36 27.6874 410.291 27.2361 410.053 26.8618C409.803 26.4692 409.36 26.213 408.976 25.9681C409.562 25.5099 410.063 24.9527 410.475 24.3358C411.277 23.136 411.772 21.6238 411.365 20.1934Z" fill="#24306D"/>
</g>
<path fill-rule="evenodd" clip-rule="evenodd" d="M379.927 128.963L404.824 210.356L416.885 279.576H426.341L413.597 128.963H379.927Z" fill="#997659"/>
<path fill-rule="evenodd" clip-rule="evenodd" d="M371.019 128.963C372.71 173.652 370.72 196.704 370.341 200.764C369.963 204.824 364.78 231.151 352.511 280.939L362.588 277.479C381.978 231.816 388.585 208.084 390.809 202.087C393.033 196.091 398.94 171.716 408.529 128.963H371.019Z" fill="#B28B67"/>
<path fill-rule="evenodd" clip-rule="evenodd" d="M352.588 277.428C351.848 279.404 351.478 280.882 351.478 281.863C351.478 283.056 351.677 284.797 352.074 287.086C353.458 287.086 365.897 287.086 389.39 287.086C390.36 283.88 389.8 282.15 387.711 281.894C385.622 281.638 383.886 281.408 382.504 281.202L365.16 273.47C364.826 273.321 364.435 273.471 364.286 273.804C364.284 273.81 364.281 273.816 364.279 273.822L363.164 276.526C361.23 277.429 359.658 277.88 358.449 277.88C357.467 277.88 356.11 277.483 354.379 276.689L354.379 276.689C353.715 276.385 352.929 276.676 352.625 277.341C352.611 277.369 352.599 277.399 352.588 277.428Z" fill="#C6B6CE"/>
<path fill-rule="evenodd" clip-rule="evenodd" d="M414.782 277.428C414.042 279.404 413.672 280.882 413.672 281.863C413.672 283.056 413.871 284.797 414.268 287.086C415.652 287.086 428.091 287.086 451.584 287.086C452.554 283.88 451.994 282.15 449.905 281.894C447.815 281.638 446.08 281.408 444.698 281.202L427.354 273.47C427.02 273.321 426.629 273.471 426.48 273.804C426.478 273.81 426.475 273.816 426.473 273.822L425.358 276.526C423.424 277.429 421.852 277.88 420.643 277.88C419.661 277.88 418.304 277.483 416.573 276.689L416.573 276.689C415.908 276.385 415.123 276.676 414.818 277.341C414.805 277.369 414.793 277.399 414.782 277.428Z" fill="#C6B6CE"/>
<path fill-rule="evenodd" clip-rule="evenodd" d="M376.619 128.963L387.204 170.432H419.537L414.716 128.963H376.619Z" fill="#9CCEB8"/>
<path fill-rule="evenodd" clip-rule="evenodd" d="M370.666 128.963C367.183 139.403 366.522 153.226 368.681 170.432H401.676L410.749 128.963H370.666Z" fill="#9CCEB8"/>
<path fill-rule="evenodd" clip-rule="evenodd" d="M429.914 96.93L455.094 91.2005C459.942 87.9139 464.463 85.5795 468.657 84.1971C469.858 84.0554 471.814 84.3241 469.169 86.9573C466.523 89.5906 463.859 92.4804 464.48 93.706C465.101 94.9316 467.715 94.2241 468.328 96.1395C468.736 97.4164 464.444 98.0092 455.453 97.9176L435.496 107.945L429.914 96.93ZM350.37 109.907L364.51 108.71C352.094 144.961 345.626 163.938 345.108 165.642C343.941 169.476 347.03 178.867 348.649 181.777C344.421 184.136 346.057 178.537 339.49 175.841C331.152 174 329.208 183.073 327.588 183.073C326.828 182.692 326.445 177.317 328.236 175.841C332.698 172.164 335.872 166.724 336.631 164.766C337.666 162.096 342.246 143.81 350.37 109.907Z" fill="#997659"/>
<path fill-rule="evenodd" clip-rule="evenodd" d="M385.128 61.6548L396.26 61.4139C401.166 85.833 417.39 100.097 450.165 91.8855L457.388 123.252C426.674 130.013 398.327 119.983 389.766 86.7985C387.55 78.208 385.606 69.2359 385.128 61.6548Z" fill="#A991B6"/>
<path fill-rule="evenodd" clip-rule="evenodd" d="M379.384 58.9202L396.492 61.2785C399.041 90.1203 409.855 107.71 416.442 128.499L371.154 132.502C371.164 139.886 371.437 147.451 371.917 155.204L338.007 158.202C342.077 116.637 355.5 83.5725 378.276 59.0078L379.374 58.9107L379.384 58.9202Z" fill="#C6B6CE"/>
<path fill-rule="evenodd" clip-rule="evenodd" d="M374.661 90.7239C375.082 108.799 376.981 122.454 380.357 131.689L371.153 132.502C371.133 117.875 372.151 103.962 374.661 90.7239L374.661 90.7239Z" fill="black" fill-opacity="0.1"/>
<path fill-rule="evenodd" clip-rule="evenodd" d="M215.153 132.203L238.648 214.652L255.79 275.422H268.293L250.077 132.203H215.153Z" fill="#A991B6"/>
<path fill-rule="evenodd" clip-rule="evenodd" d="M208.87 132.203C208.326 174.698 206.473 197.877 205.903 201.737C205.332 205.598 196.705 230.16 180.02 275.422H192.972C214.213 232.001 226.07 207.439 228.543 201.737C231.017 196.036 238.65 172.858 250.148 132.203H208.87Z" fill="#C6B6CE"/>
<path fill-rule="evenodd" clip-rule="evenodd" d="M178.861 287.088L179.509 273.479H193.118C199.571 278.015 207.996 281.687 218.392 284.495V287.088H193.766L185.341 285.791V287.088H178.861Z" fill="#24306D"/>
<path fill-rule="evenodd" clip-rule="evenodd" d="M254.033 287.088L254.681 273.479H268.29C274.743 278.015 283.168 281.687 293.564 284.495V287.088H268.938L260.514 285.791V287.088H254.033Z" fill="#24306D"/>
<g clip-path="url(#clip1)">
<path fill-rule="evenodd" clip-rule="evenodd" d="M232.171 42.4411C229.185 38.936 227.164 34.6404 227.501 29.8271C228.474 15.9585 247.78 19.0094 251.535 26.0091C255.29 33.0087 254.844 50.7639 249.991 52.015C248.055 52.5139 243.932 51.2918 239.736 48.7623L242.37 67.3974H226.816L232.171 42.4411Z" fill="#B28B67"/>
<path fill-rule="evenodd" clip-rule="evenodd" d="M240.513 31.3587C241.108 39.6519 242.683 43.7985 245.237 43.7985C249.069 43.7985 252.32 41.366 254.002 41.366C255.227 41.366 254.954 42.8997 254.141 44.0369C253.471 44.9751 250.207 45.8794 250.207 47.3339C250.207 48.7884 252.786 47.6631 252.786 48.5257C252.786 49.9527 253.239 52.6355 250.762 52.6355C248.256 52.6355 241.07 51.7221 239.838 48.0023C239.044 45.6016 238.53 40.6269 238.297 33.0782C238.145 33.0601 237.99 33.0508 237.833 33.0508C235.686 33.0508 233.945 34.7917 233.945 36.9391C233.945 38.0293 234.393 39.0147 235.116 39.7207C234.216 40.9906 233.208 42.3172 232.053 43.6861C227.712 41.0819 224.491 33.4584 228.735 26.135C229.908 22.5474 232.563 20.6311 235.699 19.7413C238.24 18.6787 240.877 18.5589 243.103 19.1959C247.467 19.5702 251.364 20.9009 252.468 21.6911C252.468 25.8226 251.667 27.0484 244.83 26.9403C243.15 27.8276 241.858 29.3556 240.513 31.3587Z" fill="#24306D"/>
</g>
<path fill-rule="evenodd" clip-rule="evenodd" d="M255.598 82.105L278.091 69.7853C281.832 65.3434 285.517 61.8936 289.148 59.436C290.257 58.9729 292.197 58.6926 290.383 61.9126C288.569 65.1327 286.805 68.6013 287.729 69.5934C288.654 70.5854 290.958 69.1996 292.061 70.8478C292.796 71.9467 288.859 73.6826 280.249 76.0555L263.904 91.0205L255.598 82.105ZM290.827 92.4995L300.707 87.0716C302.094 81.7963 303.751 79.1421 305.679 79.1091C307.16 78.4199 304.581 85.0857 307.389 84.5077C310.197 83.9296 317.05 78.8327 318.231 79.8675C319.978 81.3986 318.42 86.0997 316.584 88.4383C313.154 92.8091 310.314 94.3038 303.294 96.2611C299.624 97.2844 295.656 99.3357 291.39 102.415L290.827 92.4995Z" fill="#997659"/>
<path fill-rule="evenodd" clip-rule="evenodd" d="M244.645 79.3631C252.523 79.2799 263.03 77.6158 274.24 70.5L278.643 80.3179C270.91 87.9918 260.037 94.2969 250.53 94.0299C243.038 93.8195 239.209 84.7573 244.645 79.3631Z" fill="#9CCEB8"/>
<path fill-rule="evenodd" clip-rule="evenodd" d="M255.254 95.1079C263.618 97.1939 277.644 94.7339 297.333 87.728C302.216 97.8312 304.474 105.034 304.105 109.336C287.216 118.159 272.74 122.092 260.813 122.352C261.192 129.429 260.331 136.162 257.438 142.315C251.489 154.964 216.657 143.249 204.945 145.555C197.611 121.736 211.792 112.056 211.803 96.8157C211.815 80.1256 225.217 54.4355 227.189 54.4355L245.17 54.4355C246.162 67.182 251.156 81.2298 255.254 95.1079Z" fill="#9CCEB8"/>
<path fill-rule="evenodd" clip-rule="evenodd" d="M550.266 31.8736C547.04 28.0875 544.857 23.4475 545.222 18.2483C546.273 3.26795 567.126 6.56343 571.183 14.1242C575.239 21.685 574.757 40.8636 569.515 42.2149C567.424 42.7538 562.97 41.4337 558.437 38.7015L561.282 58.8306H544.482L550.266 31.8736Z" fill="#ECCCB8"/>
<path fill-rule="evenodd" clip-rule="evenodd" d="M563.772 15.221C561.492 16.4962 559.87 18.8859 557.917 22.0203C557.441 21.8334 556.923 21.7307 556.381 21.7307C554.062 21.7307 552.181 23.6111 552.181 25.9307C552.181 27.1082 552.666 28.1726 553.446 28.9352C552.475 30.307 551.385 31.7399 550.137 33.2185C545.48 30.4243 542.016 22.2805 546.463 14.4186C550.289 -1.32915 571.969 8.44534 576.14 5.7894C577.052 11.504 574.111 16.1118 563.772 15.221Z" fill="#24306D"/>
<path fill-rule="evenodd" clip-rule="evenodd" d="M543.805 119.602L578.162 206.561L601.206 280.077H610.305L575.077 119.602L543.805 119.602Z" fill="#E9C4AE"/>
<path fill-rule="evenodd" clip-rule="evenodd" d="M536.887 119.602C536.521 150.16 531.185 191.301 530.333 193.206C529.765 194.476 510.146 210.624 471.478 241.652L477.745 248.359C523.37 221.756 547.238 206.681 549.35 203.133C552.517 197.811 562.827 148.836 571.105 119.602H536.887Z" fill="#ECCCB8"/>
<path fill-rule="evenodd" clip-rule="evenodd" d="M470.638 239.414C468.534 240.158 467.084 240.864 466.289 241.531C465.322 242.342 464.046 243.687 462.461 245.566C463.402 246.688 471.861 256.769 487.839 275.811C491.097 274.416 492.119 272.786 490.905 270.918C489.691 269.051 488.698 267.488 487.925 266.227L482.397 246.912C482.29 246.54 481.903 246.325 481.531 246.431C481.525 246.433 481.518 246.435 481.512 246.437L478.562 247.373C476.515 246.419 475.081 245.452 474.258 244.472C473.59 243.675 472.989 242.306 472.455 240.363L472.455 240.363C472.25 239.618 471.479 239.179 470.734 239.384C470.702 239.393 470.67 239.403 470.638 239.414Z" fill="#24306D"/>
<path fill-rule="evenodd" clip-rule="evenodd" d="M597.482 276.685C596.699 278.775 596.307 280.339 596.307 281.377C596.307 282.639 596.517 284.481 596.938 286.903C598.402 286.903 611.563 286.903 636.419 286.903C637.445 283.511 636.853 281.68 634.643 281.41C632.432 281.139 630.596 280.895 629.134 280.677L610.783 272.496C610.43 272.339 610.016 272.498 609.859 272.851C609.856 272.857 609.853 272.863 609.851 272.869L608.671 275.73C606.625 276.685 604.962 277.162 603.683 277.162C602.643 277.162 601.208 276.743 599.376 275.903L599.376 275.903C598.673 275.581 597.842 275.889 597.52 276.592C597.506 276.623 597.494 276.653 597.482 276.685Z" fill="#24306D"/>
<path fill-rule="evenodd" clip-rule="evenodd" d="M566.905 272.505L610.168 267.81L578.105 119.602H539.355L566.905 272.505Z" fill="#A991B6"/>
<path fill-rule="evenodd" clip-rule="evenodd" d="M480.429 230.832L508.807 264.422C538.697 231.777 556.123 210.476 561.085 200.519C566.047 190.562 570.507 163.59 574.466 119.602H530.842C528.679 158.3 527.221 178.55 526.468 180.351C525.715 182.152 510.369 198.979 480.429 230.832Z" fill="#C6B6CE"/>
<path fill-rule="evenodd" clip-rule="evenodd" d="M606.964 111.138L627.536 131.078C633.522 133.615 638.426 136.416 642.249 139.481C643.109 140.512 644.045 142.486 640 141.602C635.955 140.719 631.66 139.97 630.899 141.277C630.139 142.585 632.379 144.587 630.974 146.298C630.038 147.438 626.887 143.811 621.523 135.416L600.131 122.885L606.964 111.138ZM506.365 93.0918L522.268 93.1511C510.156 132.139 503.727 152.552 502.98 154.391C501.3 158.529 504.856 164.83 506.376 168.217C501.423 170.419 501.951 162.264 495.703 165.152C490 167.788 485.662 172.564 479.074 168.525C478.264 168.028 477.376 166.159 479.521 164.697C484.864 161.057 492.564 154.686 493.604 152.589C495.023 149.729 499.277 129.897 506.365 93.0918Z" fill="#ECCCB8"/>
<path fill-rule="evenodd" clip-rule="evenodd" d="M554.823 48.2733L561.103 47.2031C570.995 81.9466 621.822 105.629 624.943 118.617C626.087 123.38 622.637 125.788 624.419 127.239L616.257 133.175C614.874 131.573 611.925 134.504 605.765 132.454C599.605 130.404 554.823 89.4125 554.823 48.2733Z" fill="#9CCEB8"/>
<path fill-rule="evenodd" clip-rule="evenodd" d="M565.385 52.8655C564.651 98.8853 591.425 110.62 585.462 129.076C580.54 144.313 533.422 160.694 525.268 145.757C521.968 139.711 520.47 132.399 520.3 124.449C518.217 130.556 516.568 135.814 515.356 140.223C513.265 147.828 505.156 149.037 505.156 151.966L494.474 149.037C495.199 145.057 490.163 143.118 491.513 134.226C497.563 94.3846 513.818 65.5046 540.279 47.5865L540.561 43.6114C540.669 42.0697 542.006 40.9075 543.548 41.0147L543.548 41.0121L563.318 42.3831C564.86 42.4903 566.024 43.8278 565.917 45.3705C565.917 45.3713 565.917 45.3721 565.917 45.373L565.385 52.8655Z" fill="#9CCEB8"/>
<path fill-rule="evenodd" clip-rule="evenodd" d="M100.295 22.8685C102.528 31.1002 105.44 49.6029 102.469 52.5053H83.6755C83.6736 52.472 83.6717 52.4387 83.6699 52.4055C76.7042 51.6347 71.2866 45.7289 71.2866 38.5577V24.9487C71.2866 17.2537 77.5247 11.0156 85.2197 11.0156H86.5158C93.5039 11.0156 99.2904 16.1602 100.295 22.8685Z" fill="#24306D"/>
<path fill-rule="evenodd" clip-rule="evenodd" d="M78.5853 35.9587C75.5992 32.4536 73.5781 28.158 73.9158 23.3446C74.8889 9.4761 94.1944 12.527 97.9497 19.5267C101.705 26.5263 101.259 44.2815 96.4054 45.5325C94.4698 46.0315 90.3466 44.8093 86.1501 42.2799L88.7841 60.915H73.231L78.5853 35.9587Z" fill="#EABDA1"/>
<path fill-rule="evenodd" clip-rule="evenodd" d="M82.7913 33.6166C83.5079 41.3141 83.2209 50.1045 81.0852 52.1912H62.2918C61.2447 33.9981 71.3645 41.0433 71.3645 23.914C71.9954 23.2975 72.5916 22.6874 73.1815 22.1612L73.1606 21.6574C76.4149 14.9952 80.5435 11.6641 85.5465 11.6641C93.0509 11.6641 95.4196 15.156 97.4364 18.1206C95.9283 23.2954 90.0757 24.0627 84.8753 27.2882C84.2624 26.7902 83.4807 26.4917 82.6294 26.4917C80.6609 26.4917 79.0651 28.0875 79.0651 30.056C79.0651 32.0244 80.6609 33.6202 82.6294 33.6202C82.6836 33.6202 82.7377 33.619 82.7913 33.6166Z" fill="#24306D"/>
<path fill-rule="evenodd" clip-rule="evenodd" d="M69.2671 125.721L94.0239 211.031L105.668 275.083H117.356L105.689 125.721H69.2671Z" fill="#E9B797"/>
<path fill-rule="evenodd" clip-rule="evenodd" d="M58.1404 125.721C59.8678 170.039 59.1865 194.211 58.7999 198.238C58.4133 202.264 56.2184 229.231 41.2617 276.435H53.4177C73.2253 231.151 80.14 204.184 82.4118 198.238C84.6836 192.291 91.3932 168.119 101.189 125.721H58.1404Z" fill="#EABDA1"/>
<path fill-rule="evenodd" clip-rule="evenodd" d="M68.7349 125.721C75.1745 155.076 86.3123 201.935 102.148 266.297H119.243C120.505 200.235 115.134 156.756 105.833 125.721H68.7349Z" fill="#A991B6"/>
<path fill-rule="evenodd" clip-rule="evenodd" d="M58.0562 125.721C59.748 170.039 55.3636 213.701 41.7822 266.987H60.0208C79.8649 222.379 94.0878 178.933 103.808 125.721H58.0562Z" fill="#C6B6CE"/>
<path fill-rule="evenodd" clip-rule="evenodd" d="M39.5308 285.22L40.2015 274.406C44.1285 275.555 49.0472 275.104 54.9575 273.055C61.3125 277.556 69.3126 280.63 78.9578 282.276L78.9578 282.276C79.6937 282.402 80.1885 283.1 80.0629 283.836C80.0548 283.884 80.0441 283.931 80.0309 283.977L79.1036 287.247H54.9575H40.8722L39.5308 285.22Z" fill="#9CCEB8"/>
<path fill-rule="evenodd" clip-rule="evenodd" d="M103.059 285.22L103.73 274.406C107.657 275.555 112.575 275.104 118.486 273.055C124.841 277.556 132.841 280.63 142.486 282.276L142.486 282.276C143.222 282.402 143.717 283.1 143.591 283.836C143.583 283.884 143.572 283.931 143.559 283.977L142.632 287.247H118.486H104.401L103.059 285.22Z" fill="#9CCEB8"/>
<path fill-rule="evenodd" clip-rule="evenodd" d="M127.018 102.789L150.499 92.4766C154.613 88.3776 154.941 83.1353 158.772 81.0034C159.917 80.6388 158.448 83.5956 157.476 85.5398C155.856 88.78 157.152 91.6962 157.476 93.9644C160.068 93.9644 163.369 93.0145 164.323 94.7526C164.96 95.9114 160.886 97.2975 152.102 98.9109L134.515 112.394L127.018 102.789ZM32.0838 105.629L45.3634 108.264C32.0085 133.153 24.8465 146.344 23.8774 147.837C21.6969 151.197 23.7313 157.355 24.4828 160.598C19.7683 161.695 21.6276 154.599 15.6615 156.081C10.2159 157.433 5.59873 160.903 0.520953 156.223C-0.10333 155.648 -0.560335 153.849 1.56816 152.926C6.87102 150.628 14.7056 146.324 15.9759 144.654C17.7083 142.375 23.0776 129.367 32.0838 105.629Z" fill="#EABDA1"/>
<path fill-rule="evenodd" clip-rule="evenodd" d="M81.4575 55.9463L87.0612 54.9851C99.2668 66.825 104.248 95.2701 112.382 99.0353C120.072 102.595 130.974 99.1504 143.933 94.499L147.901 103.366C136.127 116.104 111.044 126.865 100.876 120.722C84.6209 110.899 80.8682 75.8165 81.4575 55.9463Z" fill="#9CCEB8"/>
<path fill-rule="evenodd" clip-rule="evenodd" d="M57.0283 126.368C79.4973 126.368 96.025 126.368 106.611 126.368C108.877 126.368 108.45 123.096 108.123 121.445C104.343 102.392 89.5871 81.8543 89.5871 54.733L75.285 52.4902C63.4553 71.5159 59.3644 94.9404 57.0283 126.368Z" fill="#DDECFB"/>
<path fill-rule="evenodd" clip-rule="evenodd" d="M52.0838 107.077C41.9759 125.31 33.4797 138.437 26.5952 146.457L16.2021 144.422C22.8969 102.902 42.2839 72.2586 74.3633 52.4902H74.5265L80.0261 52.4902C92.8656 96.2575 96.4053 125.42 90.645 139.977H46.0124C46.7185 129.325 48.9827 118.061 52.0838 107.077H52.0838Z" fill="#9CCEB8"/>
<path d="M287.411 65.4541L290.975 58.3256L292.919 57.3535L287.411 69.0184V65.4541Z" fill="#24306D"/>
<circle cx="169.14" cy="79.7102" r="1.2961" fill="#9CB0D2"/>
<circle cx="333.494" cy="189.476" r="1.2961" transform="rotate(-176.387 333.494 189.476)" fill="#C6B6CE"/>
<defs>
<clipPath id="clip0">
<rect width="88.1347" height="67.3971" fill="white" transform="translate(344.762 3.88867)"/>
</clipPath>
<clipPath id="clip1">
<rect width="88.1347" height="67.3971" fill="white" transform="translate(191.822)"/>
</clipPath>
</defs>
</svg>
