<svg width="48" height="48" viewBox="0 0 48 48" fill="none" xmlns="http://www.w3.org/2000/svg">
<circle cx="18" cy="18" r="18" fill="#F7F4F9"/>
<path d="M21 12V9M21 6V9M21 9H18M21 9H24" stroke="#292929" stroke-width="1.3"/>
<path d="M41 12V9M41 6V9M41 9H38M41 9H44" stroke="#292929" stroke-width="1.3"/>
<path d="M20.482 29.8787C20.0936 31.0031 19.5109 31.9743 18.734 32.792C17.9776 33.6098 17.0576 34.2334 15.974 34.6627C14.9109 35.092 13.7149 35.3067 12.386 35.3067C10.546 35.3067 8.93092 34.8876 7.5407 34.0494C6.17092 33.1907 5.09759 31.9845 4.3207 30.4307C3.56426 28.8769 3.18604 27.0267 3.18604 24.88C3.18604 22.7334 3.56426 20.8831 4.3207 19.3294C5.07715 17.7756 6.14026 16.5796 7.51004 15.7414C8.90026 14.8827 10.5154 14.4534 12.3554 14.4534C13.7251 14.4534 14.9211 14.6476 15.9434 15.036C16.986 15.404 17.8651 15.9663 18.5807 16.7227C19.2963 17.4587 19.838 18.3685 20.206 19.452L18.7034 20.1574C18.2331 18.7467 17.4869 17.6836 16.4647 16.968C15.4425 16.232 14.1034 15.864 12.4474 15.864C10.9345 15.864 9.59537 16.232 8.43004 16.968C7.28515 17.6836 6.39581 18.716 5.76204 20.0654C5.12826 21.3943 4.81137 22.9991 4.81137 24.88C4.81137 26.7405 5.11804 28.3454 5.73137 29.6947C6.36515 31.044 7.25448 32.0867 8.39937 32.8227C9.54426 33.5383 10.8731 33.896 12.386 33.896C14.0216 33.896 15.4118 33.5076 16.5567 32.7307C17.7016 31.9334 18.4989 30.7885 18.9487 29.296L20.482 29.8787Z" fill="#292929"/>
<path d="M29.96 35V14.76H37.1053C39.3337 14.76 40.9897 15.2302 42.0733 16.1707C43.1568 17.0907 43.6986 18.4093 43.6986 20.1267C43.6986 21.292 43.3817 22.2938 42.748 23.132C42.1142 23.9498 41.1942 24.4813 39.988 24.7267V24.7573C41.2964 24.9618 42.3288 25.5036 43.0853 26.3827C43.8622 27.2413 44.2506 28.2942 44.2506 29.5413C44.2506 31.2587 43.6373 32.5978 42.4106 33.5587C41.184 34.5196 39.4155 35 37.1053 35H29.96ZM31.4933 33.5893H37.412C39.1497 33.5893 40.448 33.2418 41.3066 32.5467C42.1857 31.8516 42.6253 30.8498 42.6253 29.5413C42.6253 28.2125 42.1857 27.2107 41.3066 26.536C40.448 25.8409 39.1497 25.4933 37.412 25.4933H31.4933V33.5893ZM31.4933 24.0827H37.136C40.4275 24.0827 42.0733 22.764 42.0733 20.1267C42.0733 17.4893 40.4275 16.1707 37.136 16.1707H31.4933V24.0827Z" fill="#292929"/>
</svg>
