<svg width="48" height="48" viewBox="0 0 48 48" fill="none" xmlns="http://www.w3.org/2000/svg">
<circle cx="18" cy="18" r="18" fill="#F7F4F9"/>
<circle cx="24" cy="24" r="6.75" stroke="#292929" stroke-width="1.5"/>
<path d="M14.4596 24.4596C14.7135 24.2058 14.7135 23.7942 14.4596 23.5404L10.323 19.4038C10.0692 19.15 9.65765 19.15 9.40381 19.4038C9.14997 19.6576 9.14997 20.0692 9.40381 20.323L13.0808 24L9.40381 27.677C9.14997 27.9308 9.14997 28.3424 9.40381 28.5962C9.65765 28.85 10.0692 28.85 10.323 28.5962L14.4596 24.4596ZM0 24.65H14V23.35H0V24.65Z" fill="#292929"/>
<path d="M33.5404 23.5404C33.2865 23.7942 33.2865 24.2058 33.5404 24.4596L37.677 28.5962C37.9308 28.85 38.3424 28.85 38.5962 28.5962C38.85 28.3424 38.85 27.9308 38.5962 27.677L34.9192 24L38.5962 20.323C38.85 20.0692 38.85 19.6576 38.5962 19.4038C38.3423 19.15 37.9308 19.15 37.677 19.4038L33.5404 23.5404ZM46.8418 23.35L34 23.35L34 24.65L46.8418 24.65L46.8418 23.35Z" fill="#292929"/>
</svg>
