<svg width="80" height="58" viewBox="0 0 80 58" fill="none" xmlns="http://www.w3.org/2000/svg">
<path d="M0.436035 16.1429C0.436035 8.31746 6.45018 1.80828 14.2615 1.33889C22.2461 0.859086 32.2168 0.376099 40.0002 0.376099C47.7836 0.376099 57.7542 0.859086 65.7388 1.33889C73.5502 1.80828 79.5643 8.31744 79.5643 16.1429V41.8104C79.5643 49.6359 73.5502 56.1451 65.7388 56.6145C57.7542 57.0943 47.7836 57.5773 40.0002 57.5773C32.2168 57.5773 22.2461 57.0943 14.2616 56.6145C6.45018 56.1451 0.436035 49.6359 0.436035 41.8105V16.1429Z" fill="#292929" fill-opacity="0.8"/>
<path d="M56.1372 28.1107C56.8039 28.4956 56.8039 29.4579 56.1372 29.8428L31.9667 43.7976C31.3 44.1825 30.4667 43.7014 30.4667 42.9316L30.4667 15.0219C30.4667 14.2521 31.3 13.7709 31.9667 14.1558L56.1372 28.1107Z" fill="white"/>
</svg>
