<svg width="72" height="54" viewBox="0 0 72 54" fill="none" xmlns="http://www.w3.org/2000/svg">
<path d="M16.2752 54C12.7011 54 9.70135 53.1789 7.27603 51.5368C4.97835 49.7684 3.19127 47.4316 1.91479 44.5263C0.638304 41.4947 6.10352e-05 38.0842 6.10352e-05 34.2947C6.10352e-05 29.6211 0.893601 25.1368 2.68068 20.8421C4.46776 16.421 7.02073 12.4421 10.3396 8.90526C13.7861 5.2421 17.8709 2.27368 22.5939 0L32.1675 8.14737C28.721 9.41052 25.6574 11.0526 22.9768 13.0737C20.2962 15.0947 17.9985 17.3684 16.0838 19.8947C14.2967 22.4211 13.0202 25.0105 12.2543 27.6632L13.0202 28.0421C13.6585 27.6632 14.3605 27.3474 15.1264 27.0947C16.02 26.8421 17.2326 26.7158 18.7644 26.7158C20.5515 26.7158 22.3386 27.221 24.1256 28.2316C26.0404 29.1158 27.636 30.5053 28.9125 32.4C30.1889 34.2947 30.8272 36.7579 30.8272 39.7895C30.8272 42.5684 30.1251 45.0316 28.721 47.1789C27.4445 49.3263 25.7212 51.0316 23.5512 52.2947C21.3812 53.4316 18.9559 54 16.2752 54ZM55.5272 54C51.953 54 48.9533 53.1789 46.528 51.5368C44.2303 49.7684 42.4432 47.4316 41.1667 44.5263C39.8902 41.4947 39.252 38.0842 39.252 34.2947C39.252 29.6211 40.1455 25.1368 41.9326 20.8421C43.7197 16.421 46.2727 12.4421 49.5915 8.90526C53.038 5.2421 57.1228 2.27368 61.8458 0L71.4194 8.14737C67.9729 9.41052 64.9093 11.0526 62.2287 13.0737C59.5481 15.0947 57.2504 17.3684 55.3357 19.8947C53.5486 22.4211 52.2721 25.0105 51.5062 27.6632L52.2721 28.0421C52.9104 27.6632 53.6124 27.3474 54.3783 27.0947C55.2719 26.8421 56.4845 26.7158 58.0163 26.7158C59.8034 26.7158 61.5905 27.221 63.3776 28.2316C65.2923 29.1158 66.8879 30.5053 68.1644 32.4C69.4409 34.2947 70.0791 36.7579 70.0791 39.7895C70.0791 42.5684 69.377 45.0316 67.9729 47.1789C66.6964 49.3263 64.9732 51.0316 62.8031 52.2947C60.6331 53.4316 58.2078 54 55.5272 54Z" fill="#8EB6A3"/>
</svg>
