<svg width="25" height="25" viewBox="0 0 25 25" fill="none" xmlns="http://www.w3.org/2000/svg">
<path d="M12.5 2.5C6.98614 2.5 2.50006 6.98609 2.50006 12.5C2.50006 14.2217 2.94485 15.9148 3.78832 17.4087L2.51615 21.9478C2.47441 22.097 2.51485 22.257 2.62267 22.3678C2.70572 22.4535 2.81876 22.5 2.93485 22.5C2.96963 22.5 3.00485 22.4957 3.03919 22.4874L7.77657 21.3139C9.22309 22.0904 10.8522 22.5 12.5 22.5C18.0139 22.5 22.5 18.0139 22.5 12.5C22.5 6.98609 18.0139 2.5 12.5 2.5ZM17.5305 16.0287C17.3165 16.6209 16.2905 17.1613 15.7974 17.2339C15.3548 17.2987 14.7948 17.3265 14.18 17.1335C13.8074 17.0161 13.3292 16.8604 12.7166 16.5991C10.1413 15.5009 8.45961 12.9404 8.33092 12.7713C8.20265 12.6022 7.28266 11.397 7.28266 10.1496C7.28266 8.90217 7.9457 8.2887 8.18135 8.03478C8.417 7.78087 8.69483 7.71739 8.86613 7.71739C9.03743 7.71739 9.2083 7.71956 9.3583 7.72652C9.51613 7.73435 9.72787 7.66696 9.93613 8.16174C10.15 8.66957 10.6635 9.91696 10.727 10.0443C10.7913 10.1713 10.834 10.3196 10.7487 10.4887C10.6635 10.6578 10.6209 10.7635 10.4922 10.9117C10.3635 11.06 10.2226 11.2422 10.107 11.3561C9.9783 11.4826 9.84482 11.6196 9.99439 11.8735C10.144 12.1274 10.6592 12.9574 11.4226 13.6296C12.4031 14.493 13.2305 14.7609 13.487 14.8878C13.7435 15.0148 13.8935 14.9935 14.0431 14.8243C14.1926 14.6548 14.6848 14.0839 14.8557 13.8304C15.0265 13.577 15.1978 13.6187 15.4335 13.7035C15.6692 13.7878 16.9313 14.4009 17.1878 14.5278C17.4444 14.6548 17.6157 14.7183 17.68 14.8239C17.7444 14.9291 17.7444 15.437 17.5305 16.0287Z" fill="#161616"/>
</svg>
