<svg width="48" height="48" viewBox="0 0 48 48" fill="none" xmlns="http://www.w3.org/2000/svg">
<circle cx="18" cy="18" r="18" fill="#F7F4F9"/>
<path d="M7.13201 26.8798C7.13201 27.4129 7.22493 27.9102 7.32314 28.3372C7.35985 28.4967 7.39526 28.6395 7.42766 28.7701C7.48751 29.0113 7.53705 29.211 7.56539 29.3984C7.58581 29.5334 7.58807 29.6246 7.5807 29.6852C7.57725 29.7136 7.57226 29.73 7.56909 29.7382C7.56753 29.7422 7.56633 29.7445 7.56575 29.7455L7.56467 29.7471C7.56462 29.7472 7.56453 29.7473 7.5644 29.7474C7.56403 29.7478 7.56332 29.7486 7.56207 29.7497C7.56033 29.7512 7.55696 29.7539 7.55122 29.7575C7.53966 29.7648 7.51733 29.7765 7.47861 29.7887C7.39789 29.8141 7.2651 29.8358 7.05601 29.8358C5.42345 29.8358 4.10001 28.5124 4.10001 26.8798C4.10001 25.2473 5.42345 23.9238 7.05601 23.9238C7.2651 23.9238 7.39789 23.9455 7.47861 23.971C7.51733 23.9832 7.53966 23.9948 7.55122 24.0021C7.55696 24.0057 7.56033 24.0085 7.56207 24.01C7.56378 24.0115 7.56448 24.0123 7.56467 24.0125L7.56575 24.0142C7.56633 24.0152 7.56753 24.0174 7.56909 24.0214C7.57226 24.0296 7.57725 24.0461 7.5807 24.0744C7.58807 24.1351 7.58581 24.2262 7.56539 24.3613C7.53705 24.5487 7.48751 24.7484 7.42766 24.9896C7.39526 25.1202 7.35985 25.2629 7.32314 25.4225C7.22493 25.8494 7.13201 26.3468 7.13201 26.8798Z" stroke="#292929"/>
<path d="M41.4175 26.8809C41.4175 26.3479 41.3245 25.8505 41.2263 25.4236C41.1896 25.264 41.1542 25.1213 41.1218 24.9907C41.062 24.7495 41.0124 24.5498 40.9841 24.3624C40.9637 24.2273 40.9614 24.1362 40.9688 24.0755C40.9722 24.0472 40.9772 24.0307 40.9804 24.0225C40.9819 24.0185 40.9831 24.0163 40.9837 24.0152L40.9848 24.0136C40.985 24.0134 40.9857 24.0126 40.9874 24.0111C40.9891 24.0095 40.9925 24.0068 40.9982 24.0032C41.0098 23.9959 41.0321 23.9842 41.0709 23.9721C41.1516 23.9466 41.2844 23.9249 41.4935 23.9249C43.126 23.9249 44.4495 25.2484 44.4495 26.8809C44.4495 28.5135 43.126 29.8369 41.4935 29.8369C41.2844 29.8369 41.1516 29.8152 41.0709 29.7898C41.0321 29.7776 41.0098 29.7659 40.9982 29.7586C40.9925 29.755 40.9891 29.7523 40.9874 29.7508C40.9857 29.7493 40.985 29.7484 40.9848 29.7482L40.9837 29.7466C40.9831 29.7456 40.9819 29.7433 40.9804 29.7393C40.9772 29.7311 40.9722 29.7147 40.9688 29.6863C40.9614 29.6257 40.9637 29.5345 40.9841 29.3994C41.0124 29.2121 41.062 29.0124 41.1218 28.7711C41.1542 28.6406 41.1896 28.4978 41.2263 28.3382C41.3245 27.9113 41.4175 27.4139 41.4175 26.8809Z" stroke="#292929"/>
<circle cx="24.3364" cy="26.8796" r="16.78" stroke="#292929"/>
<path d="M28.2838 31.0097C28.2092 31.6987 27.9659 32.3587 27.5754 32.9312C27.1848 33.5037 26.6591 33.9711 26.0449 34.2919C25.4306 34.6127 24.7466 34.777 24.0537 34.7704C23.3607 34.7637 22.68 34.5863 22.072 34.2537C21.464 33.9212 20.9474 33.4438 20.5679 32.864C20.1884 32.2841 19.9578 31.6195 19.8965 30.9292" stroke="#292929"/>
<path d="M19.2292 25.1518C19.2292 25.83 18.6794 26.3798 18.0012 26.3798C17.323 26.3798 16.7732 25.83 16.7732 25.1518C16.7732 24.4736 17.323 23.9238 18.0012 23.9238C18.6794 23.9238 19.2292 24.4736 19.2292 25.1518Z" fill="#292929" stroke="#292929"/>
<path d="M31.901 25.1518C31.901 25.83 31.3512 26.3798 30.673 26.3798C29.9948 26.3798 29.445 25.83 29.445 25.1518C29.445 24.4736 29.9948 23.9238 30.673 23.9238C31.3512 23.9238 31.901 24.4736 31.901 25.1518Z" fill="#292929" stroke="#292929"/>
<path d="M22.3924 6.8775C22.5561 7.42937 22.8528 7.93709 23.2617 8.48396C23.6679 9.02733 24.2061 9.63642 24.8695 10.3821C25.3982 10.9764 25.649 11.5475 25.6987 12.0827C25.7484 12.618 25.5962 13.1093 25.333 13.5426C24.9138 14.2327 24.2078 14.7851 23.5563 15.1501L23.5032 15.0321L23.5031 15.0316C23.5031 15.0308 23.5031 15.0276 23.5051 15.0222C23.5094 15.0103 23.5198 14.9963 23.5358 14.9871C24.1356 14.643 24.8049 14.1193 25.2031 13.4637C25.4532 13.0519 25.5934 12.5928 25.5474 12.0968C25.5013 11.6007 25.2682 11.0589 24.756 10.4832L24.6741 10.3911C23.4217 8.98381 22.5703 8.01181 22.2467 6.92071C21.9408 5.88899 22.1063 4.75765 22.8111 3.06282L22.9445 3.12216C22.9447 3.12251 22.945 3.12309 22.9453 3.12395C22.9468 3.12776 22.9469 3.13215 22.9449 3.13708C22.2523 4.8084 22.1013 5.89578 22.3924 6.8775Z" stroke="#292929"/>
</svg>
