<svg width="48" height="48" viewBox="0 0 48 48" fill="none" xmlns="http://www.w3.org/2000/svg">
<circle cx="18" cy="18" r="18" fill="#F7F4F9"/>
<path d="M16.8 2.92676C18.8663 6.21893 19.384 6.53261 20.9345 8.07798C22.4849 9.62334 25.0689 11.1687 25.0689 12.7141C25.0689 14.2594 23.5185 15.8048 21.3324 16.3199C28.6866 16.8351 32.4245 22.5259 33.3378 26.6224C34.3715 31.2585 32.2873 35.3794 28.1698 38.4702C24.0523 41.5609 16.8 41.5609 16.8 41.5609" stroke="#292929"/>
<path d="M19.4311 27.6158L19.7997 28.0183L20.1684 27.6159C20.3428 27.4256 20.4932 27.2228 20.6416 27.0227C21.1548 26.3308 21.6442 25.6709 23.018 25.6709C24.1567 25.6709 24.9529 26.1284 25.4129 26.8456C25.8837 27.5796 26.0497 28.6615 25.7486 29.976C25.6168 30.5516 25.2149 31.1726 24.6206 31.8005C24.033 32.4213 23.2951 33.0093 22.5575 33.5222C21.8219 34.0338 21.0987 34.4622 20.5483 34.7657C20.2733 34.9173 20.0431 35.0369 19.8778 35.1193C19.8393 35.1385 19.8047 35.1555 19.7741 35.1703C19.7541 35.1614 19.732 35.1515 19.7077 35.1403C19.5486 35.0671 19.3224 34.9538 19.0487 34.8051C18.5016 34.5078 17.7797 34.0773 17.0445 33.5601C16.3076 33.0417 15.5695 32.4447 14.9814 31.8162C14.3865 31.1804 13.9836 30.5528 13.8514 29.976C13.5503 28.6614 13.7163 27.5796 14.187 26.8456C14.647 26.1284 15.4431 25.6709 16.5818 25.6709C17.2407 25.6709 17.774 25.9507 18.239 26.3432C18.583 26.6335 18.8522 26.9479 19.1092 27.2481C19.2171 27.3741 19.3228 27.4976 19.4311 27.6158Z" stroke="#292929"/>
</svg>
