<svg width="48" height="48" viewBox="0 0 48 48" fill="none" xmlns="http://www.w3.org/2000/svg">
<circle cx="18" cy="18" r="18" fill="#F7F4F9"/>
<path d="M23.6318 16.9626L23.9993 17.361L24.3668 16.9627C24.784 16.5105 25.1701 15.9899 25.5712 15.4491C27.0982 13.39 28.8438 11.0361 33.3615 11.0361C36.959 11.0361 39.5982 12.49 41.1327 14.8657C42.6776 17.2577 43.1508 20.6604 42.2357 24.6278C41.797 26.5295 40.4955 28.4714 38.718 30.3362C36.9474 32.1938 34.7439 33.9343 32.5683 35.4367C30.3947 36.9377 28.2613 38.1926 26.639 39.0809C25.8281 39.5249 25.1465 39.8764 24.6533 40.1206C24.4065 40.2427 24.2083 40.3373 24.0656 40.4028C24.019 40.4241 23.9816 40.4409 23.9523 40.4537C23.9363 40.4482 23.9182 40.4418 23.8978 40.4342C23.766 40.3856 23.5759 40.3058 23.3314 40.1941C22.8444 39.9716 22.1669 39.6342 21.3572 39.1973C19.7384 38.3238 17.6065 37.0611 15.4335 35.5431C13.2587 34.0238 11.055 32.2572 9.28399 30.3777C7.50606 28.4907 6.2035 26.5307 5.76448 24.6278C4.84919 20.6604 5.3222 17.2577 6.86699 14.8657C8.40128 12.49 11.0404 11.0361 14.6379 11.0361C16.8557 11.0361 18.6183 11.9803 20.0759 13.2021C21.1388 14.0931 22.0024 15.0944 22.7677 15.9816C23.0689 16.3308 23.3549 16.6624 23.6318 16.9626Z" stroke="#292929"/>
</svg>
