<svg width="29" height="20" viewBox="0 0 21 20" fill="none" xmlns="http://www.w3.org/2000/svg">
<path d="M10.0408 1.33051C10.2143 0.927525 10.7857 0.927525 10.9592 1.33051L13.0505 6.18663C13.2676 6.69089 13.743 7.03622 14.2896 7.08693L19.5543 7.57521C19.9912 7.61573 20.1678 8.15914 19.8381 8.44871L15.8659 11.9382C15.4535 12.3006 15.2719 12.8594 15.3926 13.395L16.5551 18.5529C16.6516 18.9809 16.1893 19.3167 15.8121 19.0927L11.2658 16.3932C10.7938 16.1129 10.2062 16.1129 9.73416 16.3932L5.18794 19.0927C4.81067 19.3167 4.34842 18.9809 4.44489 18.5529L5.60738 13.395C5.72809 12.8594 5.54654 12.3006 5.13407 11.9382L4.80407 12.3139L5.13407 11.9382L1.16186 8.44871C0.832224 8.15914 1.00879 7.61573 1.44567 7.57521L6.71035 7.08693C7.25704 7.03622 7.73235 6.69089 7.94951 6.18663L10.0408 1.33051Z" stroke="#1E3844"/>
</svg>
