<svg width="29" height="20" viewBox="0 0 21 20" fill="none" xmlns="http://www.w3.org/2000/svg">
<path d="M9.58155 1.13274C9.92863 0.32678 11.0714 0.326779 11.4185 1.13274L13.5097 5.98886C13.6545 6.32504 13.9714 6.55526 14.3358 6.58906L19.6005 7.07735C20.4743 7.15839 20.8274 8.2452 20.1681 8.82435L16.1959 12.3139C15.9209 12.5555 15.7999 12.928 15.8804 13.285L17.0429 18.4429C17.2358 19.299 16.3113 19.9707 15.5568 19.5226L11.0106 16.8232C10.6958 16.6363 10.3042 16.6363 9.98944 16.8232L5.44322 19.5226C4.68869 19.9707 3.76419 19.299 3.95713 18.4429L5.11962 13.285C5.20009 12.928 5.07906 12.5555 4.80407 12.3139L0.831863 8.82435C0.172601 8.2452 0.525727 7.15839 1.3995 7.07735L6.66418 6.58906C7.02864 6.55526 7.34551 6.32504 7.49028 5.98886L9.58155 1.13274Z" fill="#1E3844"/>
</svg>
