<svg width="48" height="48" viewBox="0 0 48 48" fill="none" xmlns="http://www.w3.org/2000/svg">
<circle cx="20" cy="20.3633" r="20" fill="#E3ECE8"/>
<path d="M5 35.3136L6.46768 36.7812L41.6919 36.7812L43.1596 35.3136L41.6919 33.8459L43.1596 32.3782L41.6919 30.9105L43.1596 29.4429L41.6919 27.9752L43.1596 26.5075L41.6919 25.0398L43.1596 23.5721L41.6919 22.1045L43.1596 20.6368L41.6919 19.1691L43.1596 17.7014L41.6919 16.2338L43.1596 14.7661L41.6919 13.2984L43.1596 11.8307L41.6919 10.3631L6.46768 10.3631L5 11.8307L6.46768 13.2984L5 14.7661L6.46768 16.2338L5 17.7014L6.46768 19.1691L5 20.6368L6.46768 22.1045L5 23.5722L6.46768 25.0398L5 26.5075L6.46768 27.9752L5 29.4429L6.46768 30.9105L5 32.3782L6.46768 33.8459L5 35.3136Z" stroke="#292929" stroke-linecap="round" stroke-linejoin="bevel"/>
<rect x="12.1045" y="15.2656" width="23.9505" height="16.6121" stroke="#292929"/>
<path d="M20.8937 27.3951L25.8379 19.6255H26.7326L21.7884 27.3951H20.8937ZM21.1174 19.5078C21.5019 19.5078 21.8315 19.5981 22.1062 19.7786C22.3887 19.9512 22.6045 20.1984 22.7537 20.5202C22.9106 20.842 22.9891 21.2187 22.9891 21.6503C22.9891 22.082 22.9106 22.4587 22.7537 22.7804C22.6045 23.1022 22.3887 23.3533 22.1062 23.5338C21.8315 23.7065 21.5019 23.7928 21.1174 23.7928C20.7406 23.7928 20.411 23.7065 20.1285 23.5338C19.846 23.3533 19.6262 23.1022 19.4693 22.7804C19.3202 22.4587 19.2456 22.082 19.2456 21.6503C19.2456 21.2187 19.3202 20.842 19.4693 20.5202C19.6262 20.1984 19.846 19.9512 20.1285 19.7786C20.411 19.5981 20.7406 19.5078 21.1174 19.5078ZM21.1174 20.2494C20.8976 20.2494 20.7093 20.3044 20.5523 20.4143C20.3953 20.5241 20.2776 20.685 20.1991 20.8969C20.1207 21.101 20.0814 21.3521 20.0814 21.6503C20.0814 21.9407 20.1207 22.1918 20.1991 22.4037C20.2776 22.6156 20.3953 22.7765 20.5523 22.8864C20.7093 22.9962 20.8976 23.0512 21.1174 23.0512C21.3449 23.0512 21.5333 22.9962 21.6824 22.8864C21.8394 22.7765 21.9571 22.6156 22.0356 22.4037C22.114 22.1918 22.1533 21.9407 22.1533 21.6503C22.1533 21.3521 22.114 21.101 22.0356 20.8969C21.9571 20.685 21.8394 20.5241 21.6824 20.4143C21.5333 20.3044 21.3449 20.2494 21.1174 20.2494ZM26.5089 23.2278C26.8935 23.2278 27.2231 23.318 27.4978 23.4985C27.7803 23.6712 27.9961 23.9184 28.1452 24.2402C28.3022 24.5619 28.3807 24.9386 28.3807 25.3703C28.3807 25.8019 28.3022 26.1786 28.1452 26.5004C27.9961 26.8221 27.7803 27.0733 27.4978 27.2538C27.2231 27.4264 26.8935 27.5128 26.5089 27.5128C26.1322 27.5128 25.8026 27.4264 25.5201 27.2538C25.2376 27.0733 25.0178 26.8221 24.8608 26.5004C24.7117 26.1786 24.6372 25.8019 24.6372 25.3703C24.6372 24.9386 24.7117 24.5619 24.8608 24.2402C25.0178 23.9184 25.2376 23.6712 25.5201 23.4985C25.8026 23.318 26.1322 23.2278 26.5089 23.2278ZM26.5089 23.9694C26.2892 23.9694 26.1008 24.0243 25.9439 24.1342C25.7869 24.2441 25.6692 24.405 25.5907 24.6169C25.5122 24.8209 25.473 25.072 25.473 25.3703C25.473 25.6606 25.5122 25.9118 25.5907 26.1237C25.6692 26.3356 25.7869 26.4965 25.9439 26.6063C26.1008 26.7162 26.2892 26.7711 26.5089 26.7711C26.7365 26.7711 26.9249 26.7162 27.074 26.6063C27.2309 26.4965 27.3487 26.3356 27.4271 26.1237C27.5056 25.9118 27.5449 25.6606 27.5449 25.3703C27.5449 25.072 27.5056 24.8209 27.4271 24.6169C27.3487 24.405 27.2309 24.2441 27.074 24.1342C26.9249 24.0243 26.7365 23.9694 26.5089 23.9694Z" fill="#292929"/>
</svg>
