<svg width="49" height="48" viewBox="0 0 49 48" fill="none" xmlns="http://www.w3.org/2000/svg">
<ellipse cx="21.5611" cy="20.3633" rx="19.5918" ry="20" fill="#E3ECE8"/>
<path d="M41.6853 22.1C41.6853 12.6559 33.9138 5 24.3273 5C14.7407 5 6.96924 12.6559 6.96924 22.1" stroke="#292929"/>
<path d="M20.6543 40C13.6543 40 7.6543 38.5 6.96924 27.8004" stroke="#292929"/>
<path d="M34.6792 21.6504H41.6545V28.5004C41.6545 30.9857 39.6398 33.0004 37.1545 33.0004H34.6792V21.6504Z" stroke="#292929"/>
<path d="M14.4443 21.6504H6.99989V28.5004C6.99989 30.9857 9.01461 33.0004 11.4999 33.0004H14.4443V21.6504Z" stroke="#292929"/>
<rect x="20.605" y="37.7998" width="8.38272" height="4.7" rx="2.35" stroke="#292929"/>
<path d="M32.7409 22.575C32.7409 26.7377 29.2054 30.15 24.7965 30.15C20.3876 30.15 16.8521 26.7377 16.8521 22.575C16.8521 18.4123 20.3876 15 24.7965 15C29.2054 15 32.7409 18.4123 32.7409 22.575Z" stroke="#292929"/>
<path d="M18.9207 30.4069L19.3498 27.8073L21.7286 29.866L18.9207 30.4069Z" fill="#292929"/>
<path d="M24.9859 20.7736C24.7566 20.7736 24.5859 20.7256 24.4739 20.6296C24.3619 20.5283 24.3059 20.3816 24.3059 20.1896C24.3059 19.9923 24.3619 19.8456 24.4739 19.7496C24.5859 19.6483 24.7566 19.5976 24.9859 19.5976C25.2152 19.5976 25.3859 19.6483 25.4979 19.7496C25.6099 19.8456 25.6659 19.9923 25.6659 20.1896C25.6659 20.3816 25.6099 20.5283 25.4979 20.6296C25.3859 20.7256 25.2152 20.7736 24.9859 20.7736ZM25.5299 21.3496V25.3496H24.4339V21.3496H25.5299Z" fill="#292929"/>
</svg>
