<svg width="24" height="24" viewBox="0 0 24 24" fill="none" xmlns="http://www.w3.org/2000/svg">
<path fill-rule="evenodd" clip-rule="evenodd" d="M1 12.5C2.73 8.11 7 5 12 5C17 5 21.27 8.11 23 12.5C22.6487 13.3915 22.1926 14.2303 21.6469 15.0009C20.9416 14.378 20.0149 14 19 14C17.9613 14 17.0151 14.3959 16.304 15.045C16.7461 14.2993 17 13.4291 17 12.5C17 9.74 14.76 7.5 12 7.5C9.24 7.5 7 9.74 7 12.5C7 15.26 9.24 17.5 12 17.5C13.3577 17.5 14.5895 16.958 15.4908 16.0786C15.1779 16.6489 15 17.3037 15 18C15 18.5424 15.108 19.0596 15.3035 19.5312C14.2553 19.8364 13.1469 20 12 20C7 20 2.73 16.89 1 12.5ZM9 12.5C9 10.84 10.34 9.5 12 9.5C13.66 9.5 15 10.84 15 12.5C15 14.16 13.66 15.5 12 15.5C10.34 15.5 9 14.16 9 12.5Z" fill="#292929"/>
<path fill-rule="evenodd" clip-rule="evenodd" d="M16.3482 19.5903L20.5908 15.3477L21.6515 16.4083L17.4088 20.651L16.3482 19.5903Z" fill="#292929"/>
<path fill-rule="evenodd" clip-rule="evenodd" d="M17.4087 15.3492L21.6514 19.5918L20.5907 20.6525L16.3481 16.4098L17.4087 15.3492Z" fill="#292929"/>
</svg>
