<svg width="214" height="224" viewBox="0 0 214 224" fill="none" xmlns="http://www.w3.org/2000/svg">
<path fill-rule="evenodd" clip-rule="evenodd" d="M130.718 -65.7019C162.107 -67.7725 196.638 -59.1829 217.839 -35.9399C238.012 -13.823 228.446 20.8036 236.036 49.762C242.976 76.2386 265.17 99.1621 260.311 126.098C255.223 154.305 233.842 177.204 210.142 193.317C186.935 209.094 158.566 210.753 130.718 214.203C98.4559 218.201 62.1644 233.661 35.5815 214.946C8.99288 196.227 9.74127 157.148 4.16801 125.11C-0.619447 97.5884 -2.67709 70.0093 5.73522 43.3719C14.2029 16.5592 30.3812 -6.48454 51.5649 -24.9718C74.4825 -44.9723 100.368 -63.6999 130.718 -65.7019Z" fill="#FFF0CE"/>
</svg>
